%TF.GenerationSoftware,KiCad,Pcbnew,(5.1.6)-1*%
%TF.CreationDate,2020-07-30T18:42:53+03:00*%
%TF.ProjectId,386_v1,3338365f-7631-42e6-9b69-6361645f7063,rev?*%
%TF.SameCoordinates,Original*%
%TF.FileFunction,Soldermask,Bot*%
%TF.FilePolarity,Negative*%
%FSLAX46Y46*%
G04 Gerber Fmt 4.6, Leading zero omitted, Abs format (unit mm)*
G04 Created by KiCad (PCBNEW (5.1.6)-1) date 2020-07-30 18:42:53*
%MOMM*%
%LPD*%
G01*
G04 APERTURE LIST*
%ADD10R,1.800000X1.800000*%
%ADD11O,1.800000X1.800000*%
G04 APERTURE END LIST*
D10*
%TO.C,U8*%
X31860000Y-27960000D03*
D11*
X34400000Y-27960000D03*
X31860000Y-30500000D03*
X34400000Y-30500000D03*
X31860000Y-33040000D03*
X34400000Y-33040000D03*
X31860000Y-35580000D03*
X34400000Y-35580000D03*
X31860000Y-38120000D03*
X34400000Y-38120000D03*
X31860000Y-40660000D03*
X34400000Y-40660000D03*
X31860000Y-43200000D03*
X34400000Y-43200000D03*
X31860000Y-45740000D03*
X34400000Y-45740000D03*
X31860000Y-48280000D03*
X34400000Y-48280000D03*
X31860000Y-50820000D03*
X34400000Y-50820000D03*
X31860000Y-53360000D03*
X34400000Y-53360000D03*
X31860000Y-55900000D03*
X34400000Y-55900000D03*
X31860000Y-58440000D03*
X34400000Y-58440000D03*
X31860000Y-60980000D03*
X34400000Y-60980000D03*
X31860000Y-63520000D03*
X34400000Y-63520000D03*
X31860000Y-66060000D03*
X34400000Y-66060000D03*
X31860000Y-68600000D03*
X34400000Y-68600000D03*
X31860000Y-71140000D03*
X34400000Y-71140000D03*
X31860000Y-73680000D03*
X34400000Y-73680000D03*
X31860000Y-76220000D03*
X34400000Y-76220000D03*
X31860000Y-78760000D03*
X34400000Y-78760000D03*
X31860000Y-81300000D03*
X34400000Y-81300000D03*
X31860000Y-83840000D03*
X34400000Y-83840000D03*
X31860000Y-86380000D03*
X34400000Y-86380000D03*
X31860000Y-88920000D03*
X34400000Y-88920000D03*
X31860000Y-91460000D03*
X34400000Y-91460000D03*
X31860000Y-94000000D03*
X34400000Y-94000000D03*
X31860000Y-96540000D03*
X34400000Y-96540000D03*
X31860000Y-99080000D03*
X34400000Y-99080000D03*
X31860000Y-101620000D03*
X34400000Y-101620000D03*
X31860000Y-104160000D03*
X34400000Y-104160000D03*
X31860000Y-106700000D03*
X34400000Y-106700000D03*
%TD*%
%TO.C,C1*%
G36*
G01*
X71525000Y-73178262D02*
X71525000Y-72221738D01*
G75*
G02*
X71796738Y-71950000I271738J0D01*
G01*
X72503262Y-71950000D01*
G75*
G02*
X72775000Y-72221738I0J-271738D01*
G01*
X72775000Y-73178262D01*
G75*
G02*
X72503262Y-73450000I-271738J0D01*
G01*
X71796738Y-73450000D01*
G75*
G02*
X71525000Y-73178262I0J271738D01*
G01*
G37*
G36*
G01*
X69475000Y-73178262D02*
X69475000Y-72221738D01*
G75*
G02*
X69746738Y-71950000I271738J0D01*
G01*
X70453262Y-71950000D01*
G75*
G02*
X70725000Y-72221738I0J-271738D01*
G01*
X70725000Y-73178262D01*
G75*
G02*
X70453262Y-73450000I-271738J0D01*
G01*
X69746738Y-73450000D01*
G75*
G02*
X69475000Y-73178262I0J271738D01*
G01*
G37*
%TD*%
%TO.C,C2*%
G36*
G01*
X77225000Y-72221738D02*
X77225000Y-73178262D01*
G75*
G02*
X76953262Y-73450000I-271738J0D01*
G01*
X76246738Y-73450000D01*
G75*
G02*
X75975000Y-73178262I0J271738D01*
G01*
X75975000Y-72221738D01*
G75*
G02*
X76246738Y-71950000I271738J0D01*
G01*
X76953262Y-71950000D01*
G75*
G02*
X77225000Y-72221738I0J-271738D01*
G01*
G37*
G36*
G01*
X75175000Y-72221738D02*
X75175000Y-73178262D01*
G75*
G02*
X74903262Y-73450000I-271738J0D01*
G01*
X74196738Y-73450000D01*
G75*
G02*
X73925000Y-73178262I0J271738D01*
G01*
X73925000Y-72221738D01*
G75*
G02*
X74196738Y-71950000I271738J0D01*
G01*
X74903262Y-71950000D01*
G75*
G02*
X75175000Y-72221738I0J-271738D01*
G01*
G37*
%TD*%
%TO.C,C3*%
G36*
G01*
X78825000Y-69821738D02*
X78825000Y-70778262D01*
G75*
G02*
X78553262Y-71050000I-271738J0D01*
G01*
X77846738Y-71050000D01*
G75*
G02*
X77575000Y-70778262I0J271738D01*
G01*
X77575000Y-69821738D01*
G75*
G02*
X77846738Y-69550000I271738J0D01*
G01*
X78553262Y-69550000D01*
G75*
G02*
X78825000Y-69821738I0J-271738D01*
G01*
G37*
G36*
G01*
X76775000Y-69821738D02*
X76775000Y-70778262D01*
G75*
G02*
X76503262Y-71050000I-271738J0D01*
G01*
X75796738Y-71050000D01*
G75*
G02*
X75525000Y-70778262I0J271738D01*
G01*
X75525000Y-69821738D01*
G75*
G02*
X75796738Y-69550000I271738J0D01*
G01*
X76503262Y-69550000D01*
G75*
G02*
X76775000Y-69821738I0J-271738D01*
G01*
G37*
%TD*%
%TO.C,C4*%
G36*
G01*
X76775000Y-66321738D02*
X76775000Y-67278262D01*
G75*
G02*
X76503262Y-67550000I-271738J0D01*
G01*
X75796738Y-67550000D01*
G75*
G02*
X75525000Y-67278262I0J271738D01*
G01*
X75525000Y-66321738D01*
G75*
G02*
X75796738Y-66050000I271738J0D01*
G01*
X76503262Y-66050000D01*
G75*
G02*
X76775000Y-66321738I0J-271738D01*
G01*
G37*
G36*
G01*
X78825000Y-66321738D02*
X78825000Y-67278262D01*
G75*
G02*
X78553262Y-67550000I-271738J0D01*
G01*
X77846738Y-67550000D01*
G75*
G02*
X77575000Y-67278262I0J271738D01*
G01*
X77575000Y-66321738D01*
G75*
G02*
X77846738Y-66050000I271738J0D01*
G01*
X78553262Y-66050000D01*
G75*
G02*
X78825000Y-66321738I0J-271738D01*
G01*
G37*
%TD*%
%TO.C,C5*%
G36*
G01*
X78825000Y-64321738D02*
X78825000Y-65278262D01*
G75*
G02*
X78553262Y-65550000I-271738J0D01*
G01*
X77846738Y-65550000D01*
G75*
G02*
X77575000Y-65278262I0J271738D01*
G01*
X77575000Y-64321738D01*
G75*
G02*
X77846738Y-64050000I271738J0D01*
G01*
X78553262Y-64050000D01*
G75*
G02*
X78825000Y-64321738I0J-271738D01*
G01*
G37*
G36*
G01*
X76775000Y-64321738D02*
X76775000Y-65278262D01*
G75*
G02*
X76503262Y-65550000I-271738J0D01*
G01*
X75796738Y-65550000D01*
G75*
G02*
X75525000Y-65278262I0J271738D01*
G01*
X75525000Y-64321738D01*
G75*
G02*
X75796738Y-64050000I271738J0D01*
G01*
X76503262Y-64050000D01*
G75*
G02*
X76775000Y-64321738I0J-271738D01*
G01*
G37*
%TD*%
%TO.C,C6*%
G36*
G01*
X76225000Y-61521738D02*
X76225000Y-62478262D01*
G75*
G02*
X75953262Y-62750000I-271738J0D01*
G01*
X75246738Y-62750000D01*
G75*
G02*
X74975000Y-62478262I0J271738D01*
G01*
X74975000Y-61521738D01*
G75*
G02*
X75246738Y-61250000I271738J0D01*
G01*
X75953262Y-61250000D01*
G75*
G02*
X76225000Y-61521738I0J-271738D01*
G01*
G37*
G36*
G01*
X74175000Y-61521738D02*
X74175000Y-62478262D01*
G75*
G02*
X73903262Y-62750000I-271738J0D01*
G01*
X73196738Y-62750000D01*
G75*
G02*
X72925000Y-62478262I0J271738D01*
G01*
X72925000Y-61521738D01*
G75*
G02*
X73196738Y-61250000I271738J0D01*
G01*
X73903262Y-61250000D01*
G75*
G02*
X74175000Y-61521738I0J-271738D01*
G01*
G37*
%TD*%
%TO.C,C7*%
G36*
G01*
X71025000Y-62478262D02*
X71025000Y-61521738D01*
G75*
G02*
X71296738Y-61250000I271738J0D01*
G01*
X72003262Y-61250000D01*
G75*
G02*
X72275000Y-61521738I0J-271738D01*
G01*
X72275000Y-62478262D01*
G75*
G02*
X72003262Y-62750000I-271738J0D01*
G01*
X71296738Y-62750000D01*
G75*
G02*
X71025000Y-62478262I0J271738D01*
G01*
G37*
G36*
G01*
X68975000Y-62478262D02*
X68975000Y-61521738D01*
G75*
G02*
X69246738Y-61250000I271738J0D01*
G01*
X69953262Y-61250000D01*
G75*
G02*
X70225000Y-61521738I0J-271738D01*
G01*
X70225000Y-62478262D01*
G75*
G02*
X69953262Y-62750000I-271738J0D01*
G01*
X69246738Y-62750000D01*
G75*
G02*
X68975000Y-62478262I0J271738D01*
G01*
G37*
%TD*%
%TO.C,C8*%
G36*
G01*
X67578262Y-63875000D02*
X66621738Y-63875000D01*
G75*
G02*
X66350000Y-63603262I0J271738D01*
G01*
X66350000Y-62896738D01*
G75*
G02*
X66621738Y-62625000I271738J0D01*
G01*
X67578262Y-62625000D01*
G75*
G02*
X67850000Y-62896738I0J-271738D01*
G01*
X67850000Y-63603262D01*
G75*
G02*
X67578262Y-63875000I-271738J0D01*
G01*
G37*
G36*
G01*
X67578262Y-65925000D02*
X66621738Y-65925000D01*
G75*
G02*
X66350000Y-65653262I0J271738D01*
G01*
X66350000Y-64946738D01*
G75*
G02*
X66621738Y-64675000I271738J0D01*
G01*
X67578262Y-64675000D01*
G75*
G02*
X67850000Y-64946738I0J-271738D01*
G01*
X67850000Y-65653262D01*
G75*
G02*
X67578262Y-65925000I-271738J0D01*
G01*
G37*
%TD*%
%TO.C,C9*%
G36*
G01*
X66621738Y-70175000D02*
X67578262Y-70175000D01*
G75*
G02*
X67850000Y-70446738I0J-271738D01*
G01*
X67850000Y-71153262D01*
G75*
G02*
X67578262Y-71425000I-271738J0D01*
G01*
X66621738Y-71425000D01*
G75*
G02*
X66350000Y-71153262I0J271738D01*
G01*
X66350000Y-70446738D01*
G75*
G02*
X66621738Y-70175000I271738J0D01*
G01*
G37*
G36*
G01*
X66621738Y-72225000D02*
X67578262Y-72225000D01*
G75*
G02*
X67850000Y-72496738I0J-271738D01*
G01*
X67850000Y-73203262D01*
G75*
G02*
X67578262Y-73475000I-271738J0D01*
G01*
X66621738Y-73475000D01*
G75*
G02*
X66350000Y-73203262I0J271738D01*
G01*
X66350000Y-72496738D01*
G75*
G02*
X66621738Y-72225000I271738J0D01*
G01*
G37*
%TD*%
%TO.C,C10*%
G36*
G01*
X66475000Y-69278262D02*
X66475000Y-68321738D01*
G75*
G02*
X66746738Y-68050000I271738J0D01*
G01*
X67453262Y-68050000D01*
G75*
G02*
X67725000Y-68321738I0J-271738D01*
G01*
X67725000Y-69278262D01*
G75*
G02*
X67453262Y-69550000I-271738J0D01*
G01*
X66746738Y-69550000D01*
G75*
G02*
X66475000Y-69278262I0J271738D01*
G01*
G37*
G36*
G01*
X68525000Y-69278262D02*
X68525000Y-68321738D01*
G75*
G02*
X68796738Y-68050000I271738J0D01*
G01*
X69503262Y-68050000D01*
G75*
G02*
X69775000Y-68321738I0J-271738D01*
G01*
X69775000Y-69278262D01*
G75*
G02*
X69503262Y-69550000I-271738J0D01*
G01*
X68796738Y-69550000D01*
G75*
G02*
X68525000Y-69278262I0J271738D01*
G01*
G37*
%TD*%
%TO.C,U7*%
X95340000Y-106700000D03*
X92800000Y-106700000D03*
X95340000Y-104160000D03*
X92800000Y-104160000D03*
X95340000Y-101620000D03*
X92800000Y-101620000D03*
X95340000Y-99080000D03*
X92800000Y-99080000D03*
X95340000Y-96540000D03*
X92800000Y-96540000D03*
X95340000Y-94000000D03*
X92800000Y-94000000D03*
X95340000Y-91460000D03*
X92800000Y-91460000D03*
X95340000Y-88920000D03*
X92800000Y-88920000D03*
X95340000Y-86380000D03*
X92800000Y-86380000D03*
X95340000Y-83840000D03*
X92800000Y-83840000D03*
X95340000Y-81300000D03*
X92800000Y-81300000D03*
X95340000Y-78760000D03*
X92800000Y-78760000D03*
X95340000Y-76220000D03*
X92800000Y-76220000D03*
X95340000Y-73680000D03*
X92800000Y-73680000D03*
X95340000Y-71140000D03*
X92800000Y-71140000D03*
X95340000Y-68600000D03*
X92800000Y-68600000D03*
X95340000Y-66060000D03*
X92800000Y-66060000D03*
X95340000Y-63520000D03*
X92800000Y-63520000D03*
X95340000Y-60980000D03*
X92800000Y-60980000D03*
X95340000Y-58440000D03*
X92800000Y-58440000D03*
X95340000Y-55900000D03*
X92800000Y-55900000D03*
X95340000Y-53360000D03*
X92800000Y-53360000D03*
X95340000Y-50820000D03*
X92800000Y-50820000D03*
X95340000Y-48280000D03*
X92800000Y-48280000D03*
X95340000Y-45740000D03*
X92800000Y-45740000D03*
X95340000Y-43200000D03*
X92800000Y-43200000D03*
X95340000Y-40660000D03*
X92800000Y-40660000D03*
X95340000Y-38120000D03*
X92800000Y-38120000D03*
X95340000Y-35580000D03*
X92800000Y-35580000D03*
X95340000Y-33040000D03*
X92800000Y-33040000D03*
X95340000Y-30500000D03*
X92800000Y-30500000D03*
X95340000Y-27960000D03*
D10*
X92800000Y-27960000D03*
%TD*%
%TO.C,R1*%
G36*
G01*
X79818750Y-77887500D02*
X80781250Y-77887500D01*
G75*
G02*
X81050000Y-78156250I0J-268750D01*
G01*
X81050000Y-78693750D01*
G75*
G02*
X80781250Y-78962500I-268750J0D01*
G01*
X79818750Y-78962500D01*
G75*
G02*
X79550000Y-78693750I0J268750D01*
G01*
X79550000Y-78156250D01*
G75*
G02*
X79818750Y-77887500I268750J0D01*
G01*
G37*
G36*
G01*
X79818750Y-79762500D02*
X80781250Y-79762500D01*
G75*
G02*
X81050000Y-80031250I0J-268750D01*
G01*
X81050000Y-80568750D01*
G75*
G02*
X80781250Y-80837500I-268750J0D01*
G01*
X79818750Y-80837500D01*
G75*
G02*
X79550000Y-80568750I0J268750D01*
G01*
X79550000Y-80031250D01*
G75*
G02*
X79818750Y-79762500I268750J0D01*
G01*
G37*
%TD*%
%TO.C,R2*%
G36*
G01*
X79818750Y-74362500D02*
X80781250Y-74362500D01*
G75*
G02*
X81050000Y-74631250I0J-268750D01*
G01*
X81050000Y-75168750D01*
G75*
G02*
X80781250Y-75437500I-268750J0D01*
G01*
X79818750Y-75437500D01*
G75*
G02*
X79550000Y-75168750I0J268750D01*
G01*
X79550000Y-74631250D01*
G75*
G02*
X79818750Y-74362500I268750J0D01*
G01*
G37*
G36*
G01*
X79818750Y-76237500D02*
X80781250Y-76237500D01*
G75*
G02*
X81050000Y-76506250I0J-268750D01*
G01*
X81050000Y-77043750D01*
G75*
G02*
X80781250Y-77312500I-268750J0D01*
G01*
X79818750Y-77312500D01*
G75*
G02*
X79550000Y-77043750I0J268750D01*
G01*
X79550000Y-76506250D01*
G75*
G02*
X79818750Y-76237500I268750J0D01*
G01*
G37*
%TD*%
%TO.C,R3*%
G36*
G01*
X68618750Y-82337500D02*
X69581250Y-82337500D01*
G75*
G02*
X69850000Y-82606250I0J-268750D01*
G01*
X69850000Y-83143750D01*
G75*
G02*
X69581250Y-83412500I-268750J0D01*
G01*
X68618750Y-83412500D01*
G75*
G02*
X68350000Y-83143750I0J268750D01*
G01*
X68350000Y-82606250D01*
G75*
G02*
X68618750Y-82337500I268750J0D01*
G01*
G37*
G36*
G01*
X68618750Y-80462500D02*
X69581250Y-80462500D01*
G75*
G02*
X69850000Y-80731250I0J-268750D01*
G01*
X69850000Y-81268750D01*
G75*
G02*
X69581250Y-81537500I-268750J0D01*
G01*
X68618750Y-81537500D01*
G75*
G02*
X68350000Y-81268750I0J268750D01*
G01*
X68350000Y-80731250D01*
G75*
G02*
X68618750Y-80462500I268750J0D01*
G01*
G37*
%TD*%
%TO.C,R4*%
G36*
G01*
X68618750Y-76962500D02*
X69581250Y-76962500D01*
G75*
G02*
X69850000Y-77231250I0J-268750D01*
G01*
X69850000Y-77768750D01*
G75*
G02*
X69581250Y-78037500I-268750J0D01*
G01*
X68618750Y-78037500D01*
G75*
G02*
X68350000Y-77768750I0J268750D01*
G01*
X68350000Y-77231250D01*
G75*
G02*
X68618750Y-76962500I268750J0D01*
G01*
G37*
G36*
G01*
X68618750Y-78837500D02*
X69581250Y-78837500D01*
G75*
G02*
X69850000Y-79106250I0J-268750D01*
G01*
X69850000Y-79643750D01*
G75*
G02*
X69581250Y-79912500I-268750J0D01*
G01*
X68618750Y-79912500D01*
G75*
G02*
X68350000Y-79643750I0J268750D01*
G01*
X68350000Y-79106250D01*
G75*
G02*
X68618750Y-78837500I268750J0D01*
G01*
G37*
%TD*%
%TO.C,C13*%
G36*
G01*
X48928262Y-42125000D02*
X47971738Y-42125000D01*
G75*
G02*
X47700000Y-41853262I0J271738D01*
G01*
X47700000Y-41146738D01*
G75*
G02*
X47971738Y-40875000I271738J0D01*
G01*
X48928262Y-40875000D01*
G75*
G02*
X49200000Y-41146738I0J-271738D01*
G01*
X49200000Y-41853262D01*
G75*
G02*
X48928262Y-42125000I-271738J0D01*
G01*
G37*
G36*
G01*
X48928262Y-44175000D02*
X47971738Y-44175000D01*
G75*
G02*
X47700000Y-43903262I0J271738D01*
G01*
X47700000Y-43196738D01*
G75*
G02*
X47971738Y-42925000I271738J0D01*
G01*
X48928262Y-42925000D01*
G75*
G02*
X49200000Y-43196738I0J-271738D01*
G01*
X49200000Y-43903262D01*
G75*
G02*
X48928262Y-44175000I-271738J0D01*
G01*
G37*
%TD*%
%TO.C,C14*%
G36*
G01*
X48828262Y-54325000D02*
X47871738Y-54325000D01*
G75*
G02*
X47600000Y-54053262I0J271738D01*
G01*
X47600000Y-53346738D01*
G75*
G02*
X47871738Y-53075000I271738J0D01*
G01*
X48828262Y-53075000D01*
G75*
G02*
X49100000Y-53346738I0J-271738D01*
G01*
X49100000Y-54053262D01*
G75*
G02*
X48828262Y-54325000I-271738J0D01*
G01*
G37*
G36*
G01*
X48828262Y-52275000D02*
X47871738Y-52275000D01*
G75*
G02*
X47600000Y-52003262I0J271738D01*
G01*
X47600000Y-51296738D01*
G75*
G02*
X47871738Y-51025000I271738J0D01*
G01*
X48828262Y-51025000D01*
G75*
G02*
X49100000Y-51296738I0J-271738D01*
G01*
X49100000Y-52003262D01*
G75*
G02*
X48828262Y-52275000I-271738J0D01*
G01*
G37*
%TD*%
%TO.C,C15*%
G36*
G01*
X48928262Y-61675000D02*
X47971738Y-61675000D01*
G75*
G02*
X47700000Y-61403262I0J271738D01*
G01*
X47700000Y-60696738D01*
G75*
G02*
X47971738Y-60425000I271738J0D01*
G01*
X48928262Y-60425000D01*
G75*
G02*
X49200000Y-60696738I0J-271738D01*
G01*
X49200000Y-61403262D01*
G75*
G02*
X48928262Y-61675000I-271738J0D01*
G01*
G37*
G36*
G01*
X48928262Y-63725000D02*
X47971738Y-63725000D01*
G75*
G02*
X47700000Y-63453262I0J271738D01*
G01*
X47700000Y-62746738D01*
G75*
G02*
X47971738Y-62475000I271738J0D01*
G01*
X48928262Y-62475000D01*
G75*
G02*
X49200000Y-62746738I0J-271738D01*
G01*
X49200000Y-63453262D01*
G75*
G02*
X48928262Y-63725000I-271738J0D01*
G01*
G37*
%TD*%
%TO.C,C16*%
G36*
G01*
X48928262Y-73325000D02*
X47971738Y-73325000D01*
G75*
G02*
X47700000Y-73053262I0J271738D01*
G01*
X47700000Y-72346738D01*
G75*
G02*
X47971738Y-72075000I271738J0D01*
G01*
X48928262Y-72075000D01*
G75*
G02*
X49200000Y-72346738I0J-271738D01*
G01*
X49200000Y-73053262D01*
G75*
G02*
X48928262Y-73325000I-271738J0D01*
G01*
G37*
G36*
G01*
X48928262Y-71275000D02*
X47971738Y-71275000D01*
G75*
G02*
X47700000Y-71003262I0J271738D01*
G01*
X47700000Y-70296738D01*
G75*
G02*
X47971738Y-70025000I271738J0D01*
G01*
X48928262Y-70025000D01*
G75*
G02*
X49200000Y-70296738I0J-271738D01*
G01*
X49200000Y-71003262D01*
G75*
G02*
X48928262Y-71275000I-271738J0D01*
G01*
G37*
%TD*%
%TO.C,C17*%
G36*
G01*
X48928262Y-96325000D02*
X47971738Y-96325000D01*
G75*
G02*
X47700000Y-96053262I0J271738D01*
G01*
X47700000Y-95346738D01*
G75*
G02*
X47971738Y-95075000I271738J0D01*
G01*
X48928262Y-95075000D01*
G75*
G02*
X49200000Y-95346738I0J-271738D01*
G01*
X49200000Y-96053262D01*
G75*
G02*
X48928262Y-96325000I-271738J0D01*
G01*
G37*
G36*
G01*
X48928262Y-94275000D02*
X47971738Y-94275000D01*
G75*
G02*
X47700000Y-94003262I0J271738D01*
G01*
X47700000Y-93296738D01*
G75*
G02*
X47971738Y-93025000I271738J0D01*
G01*
X48928262Y-93025000D01*
G75*
G02*
X49200000Y-93296738I0J-271738D01*
G01*
X49200000Y-94003262D01*
G75*
G02*
X48928262Y-94275000I-271738J0D01*
G01*
G37*
%TD*%
%TO.C,C18*%
G36*
G01*
X48928262Y-80275000D02*
X47971738Y-80275000D01*
G75*
G02*
X47700000Y-80003262I0J271738D01*
G01*
X47700000Y-79296738D01*
G75*
G02*
X47971738Y-79025000I271738J0D01*
G01*
X48928262Y-79025000D01*
G75*
G02*
X49200000Y-79296738I0J-271738D01*
G01*
X49200000Y-80003262D01*
G75*
G02*
X48928262Y-80275000I-271738J0D01*
G01*
G37*
G36*
G01*
X48928262Y-82325000D02*
X47971738Y-82325000D01*
G75*
G02*
X47700000Y-82053262I0J271738D01*
G01*
X47700000Y-81346738D01*
G75*
G02*
X47971738Y-81075000I271738J0D01*
G01*
X48928262Y-81075000D01*
G75*
G02*
X49200000Y-81346738I0J-271738D01*
G01*
X49200000Y-82053262D01*
G75*
G02*
X48928262Y-82325000I-271738J0D01*
G01*
G37*
%TD*%
%TO.C,C19*%
G36*
G01*
X58228262Y-80575000D02*
X57271738Y-80575000D01*
G75*
G02*
X57000000Y-80303262I0J271738D01*
G01*
X57000000Y-79596738D01*
G75*
G02*
X57271738Y-79325000I271738J0D01*
G01*
X58228262Y-79325000D01*
G75*
G02*
X58500000Y-79596738I0J-271738D01*
G01*
X58500000Y-80303262D01*
G75*
G02*
X58228262Y-80575000I-271738J0D01*
G01*
G37*
G36*
G01*
X58228262Y-82625000D02*
X57271738Y-82625000D01*
G75*
G02*
X57000000Y-82353262I0J271738D01*
G01*
X57000000Y-81646738D01*
G75*
G02*
X57271738Y-81375000I271738J0D01*
G01*
X58228262Y-81375000D01*
G75*
G02*
X58500000Y-81646738I0J-271738D01*
G01*
X58500000Y-82353262D01*
G75*
G02*
X58228262Y-82625000I-271738J0D01*
G01*
G37*
%TD*%
%TO.C,C20*%
G36*
G01*
X58128262Y-96325000D02*
X57171738Y-96325000D01*
G75*
G02*
X56900000Y-96053262I0J271738D01*
G01*
X56900000Y-95346738D01*
G75*
G02*
X57171738Y-95075000I271738J0D01*
G01*
X58128262Y-95075000D01*
G75*
G02*
X58400000Y-95346738I0J-271738D01*
G01*
X58400000Y-96053262D01*
G75*
G02*
X58128262Y-96325000I-271738J0D01*
G01*
G37*
G36*
G01*
X58128262Y-94275000D02*
X57171738Y-94275000D01*
G75*
G02*
X56900000Y-94003262I0J271738D01*
G01*
X56900000Y-93296738D01*
G75*
G02*
X57171738Y-93025000I271738J0D01*
G01*
X58128262Y-93025000D01*
G75*
G02*
X58400000Y-93296738I0J-271738D01*
G01*
X58400000Y-94003262D01*
G75*
G02*
X58128262Y-94275000I-271738J0D01*
G01*
G37*
%TD*%
%TO.C,C21*%
G36*
G01*
X58328262Y-62475000D02*
X57371738Y-62475000D01*
G75*
G02*
X57100000Y-62203262I0J271738D01*
G01*
X57100000Y-61496738D01*
G75*
G02*
X57371738Y-61225000I271738J0D01*
G01*
X58328262Y-61225000D01*
G75*
G02*
X58600000Y-61496738I0J-271738D01*
G01*
X58600000Y-62203262D01*
G75*
G02*
X58328262Y-62475000I-271738J0D01*
G01*
G37*
G36*
G01*
X58328262Y-64525000D02*
X57371738Y-64525000D01*
G75*
G02*
X57100000Y-64253262I0J271738D01*
G01*
X57100000Y-63546738D01*
G75*
G02*
X57371738Y-63275000I271738J0D01*
G01*
X58328262Y-63275000D01*
G75*
G02*
X58600000Y-63546738I0J-271738D01*
G01*
X58600000Y-64253262D01*
G75*
G02*
X58328262Y-64525000I-271738J0D01*
G01*
G37*
%TD*%
%TO.C,C22*%
G36*
G01*
X58328262Y-73725000D02*
X57371738Y-73725000D01*
G75*
G02*
X57100000Y-73453262I0J271738D01*
G01*
X57100000Y-72746738D01*
G75*
G02*
X57371738Y-72475000I271738J0D01*
G01*
X58328262Y-72475000D01*
G75*
G02*
X58600000Y-72746738I0J-271738D01*
G01*
X58600000Y-73453262D01*
G75*
G02*
X58328262Y-73725000I-271738J0D01*
G01*
G37*
G36*
G01*
X58328262Y-71675000D02*
X57371738Y-71675000D01*
G75*
G02*
X57100000Y-71403262I0J271738D01*
G01*
X57100000Y-70696738D01*
G75*
G02*
X57371738Y-70425000I271738J0D01*
G01*
X58328262Y-70425000D01*
G75*
G02*
X58600000Y-70696738I0J-271738D01*
G01*
X58600000Y-71403262D01*
G75*
G02*
X58328262Y-71675000I-271738J0D01*
G01*
G37*
%TD*%
%TO.C,C23*%
G36*
G01*
X58528262Y-42075000D02*
X57571738Y-42075000D01*
G75*
G02*
X57300000Y-41803262I0J271738D01*
G01*
X57300000Y-41096738D01*
G75*
G02*
X57571738Y-40825000I271738J0D01*
G01*
X58528262Y-40825000D01*
G75*
G02*
X58800000Y-41096738I0J-271738D01*
G01*
X58800000Y-41803262D01*
G75*
G02*
X58528262Y-42075000I-271738J0D01*
G01*
G37*
G36*
G01*
X58528262Y-44125000D02*
X57571738Y-44125000D01*
G75*
G02*
X57300000Y-43853262I0J271738D01*
G01*
X57300000Y-43146738D01*
G75*
G02*
X57571738Y-42875000I271738J0D01*
G01*
X58528262Y-42875000D01*
G75*
G02*
X58800000Y-43146738I0J-271738D01*
G01*
X58800000Y-43853262D01*
G75*
G02*
X58528262Y-44125000I-271738J0D01*
G01*
G37*
%TD*%
%TO.C,C24*%
G36*
G01*
X58428262Y-54325000D02*
X57471738Y-54325000D01*
G75*
G02*
X57200000Y-54053262I0J271738D01*
G01*
X57200000Y-53346738D01*
G75*
G02*
X57471738Y-53075000I271738J0D01*
G01*
X58428262Y-53075000D01*
G75*
G02*
X58700000Y-53346738I0J-271738D01*
G01*
X58700000Y-54053262D01*
G75*
G02*
X58428262Y-54325000I-271738J0D01*
G01*
G37*
G36*
G01*
X58428262Y-52275000D02*
X57471738Y-52275000D01*
G75*
G02*
X57200000Y-52003262I0J271738D01*
G01*
X57200000Y-51296738D01*
G75*
G02*
X57471738Y-51025000I271738J0D01*
G01*
X58428262Y-51025000D01*
G75*
G02*
X58700000Y-51296738I0J-271738D01*
G01*
X58700000Y-52003262D01*
G75*
G02*
X58428262Y-52275000I-271738J0D01*
G01*
G37*
%TD*%
M02*
