%TF.GenerationSoftware,KiCad,Pcbnew,(5.1.6)-1*%
%TF.CreationDate,2020-07-30T18:42:53+03:00*%
%TF.ProjectId,386_v1,3338365f-7631-42e6-9b69-6361645f7063,rev?*%
%TF.SameCoordinates,Original*%
%TF.FileFunction,Soldermask,Top*%
%TF.FilePolarity,Negative*%
%FSLAX46Y46*%
G04 Gerber Fmt 4.6, Leading zero omitted, Abs format (unit mm)*
G04 Created by KiCad (PCBNEW (5.1.6)-1) date 2020-07-30 18:42:53*
%MOMM*%
%LPD*%
G01*
G04 APERTURE LIST*
%ADD10R,1.800000X1.800000*%
%ADD11O,1.800000X1.800000*%
%ADD12R,0.610000X0.800000*%
%ADD13R,0.800000X0.610000*%
G04 APERTURE END LIST*
D10*
%TO.C,U8*%
X31860000Y-27960000D03*
D11*
X34400000Y-27960000D03*
X31860000Y-30500000D03*
X34400000Y-30500000D03*
X31860000Y-33040000D03*
X34400000Y-33040000D03*
X31860000Y-35580000D03*
X34400000Y-35580000D03*
X31860000Y-38120000D03*
X34400000Y-38120000D03*
X31860000Y-40660000D03*
X34400000Y-40660000D03*
X31860000Y-43200000D03*
X34400000Y-43200000D03*
X31860000Y-45740000D03*
X34400000Y-45740000D03*
X31860000Y-48280000D03*
X34400000Y-48280000D03*
X31860000Y-50820000D03*
X34400000Y-50820000D03*
X31860000Y-53360000D03*
X34400000Y-53360000D03*
X31860000Y-55900000D03*
X34400000Y-55900000D03*
X31860000Y-58440000D03*
X34400000Y-58440000D03*
X31860000Y-60980000D03*
X34400000Y-60980000D03*
X31860000Y-63520000D03*
X34400000Y-63520000D03*
X31860000Y-66060000D03*
X34400000Y-66060000D03*
X31860000Y-68600000D03*
X34400000Y-68600000D03*
X31860000Y-71140000D03*
X34400000Y-71140000D03*
X31860000Y-73680000D03*
X34400000Y-73680000D03*
X31860000Y-76220000D03*
X34400000Y-76220000D03*
X31860000Y-78760000D03*
X34400000Y-78760000D03*
X31860000Y-81300000D03*
X34400000Y-81300000D03*
X31860000Y-83840000D03*
X34400000Y-83840000D03*
X31860000Y-86380000D03*
X34400000Y-86380000D03*
X31860000Y-88920000D03*
X34400000Y-88920000D03*
X31860000Y-91460000D03*
X34400000Y-91460000D03*
X31860000Y-94000000D03*
X34400000Y-94000000D03*
X31860000Y-96540000D03*
X34400000Y-96540000D03*
X31860000Y-99080000D03*
X34400000Y-99080000D03*
X31860000Y-101620000D03*
X34400000Y-101620000D03*
X31860000Y-104160000D03*
X34400000Y-104160000D03*
X31860000Y-106700000D03*
X34400000Y-106700000D03*
%TD*%
%TO.C,U4*%
G36*
G01*
X54962500Y-43725000D02*
X54962500Y-43975000D01*
G75*
G02*
X54837500Y-44100000I-125000J0D01*
G01*
X53512500Y-44100000D01*
G75*
G02*
X53387500Y-43975000I0J125000D01*
G01*
X53387500Y-43725000D01*
G75*
G02*
X53512500Y-43600000I125000J0D01*
G01*
X54837500Y-43600000D01*
G75*
G02*
X54962500Y-43725000I0J-125000D01*
G01*
G37*
G36*
G01*
X54962500Y-43075000D02*
X54962500Y-43325000D01*
G75*
G02*
X54837500Y-43450000I-125000J0D01*
G01*
X53512500Y-43450000D01*
G75*
G02*
X53387500Y-43325000I0J125000D01*
G01*
X53387500Y-43075000D01*
G75*
G02*
X53512500Y-42950000I125000J0D01*
G01*
X54837500Y-42950000D01*
G75*
G02*
X54962500Y-43075000I0J-125000D01*
G01*
G37*
G36*
G01*
X54962500Y-42425000D02*
X54962500Y-42675000D01*
G75*
G02*
X54837500Y-42800000I-125000J0D01*
G01*
X53512500Y-42800000D01*
G75*
G02*
X53387500Y-42675000I0J125000D01*
G01*
X53387500Y-42425000D01*
G75*
G02*
X53512500Y-42300000I125000J0D01*
G01*
X54837500Y-42300000D01*
G75*
G02*
X54962500Y-42425000I0J-125000D01*
G01*
G37*
G36*
G01*
X54962500Y-41775000D02*
X54962500Y-42025000D01*
G75*
G02*
X54837500Y-42150000I-125000J0D01*
G01*
X53512500Y-42150000D01*
G75*
G02*
X53387500Y-42025000I0J125000D01*
G01*
X53387500Y-41775000D01*
G75*
G02*
X53512500Y-41650000I125000J0D01*
G01*
X54837500Y-41650000D01*
G75*
G02*
X54962500Y-41775000I0J-125000D01*
G01*
G37*
G36*
G01*
X54962500Y-41125000D02*
X54962500Y-41375000D01*
G75*
G02*
X54837500Y-41500000I-125000J0D01*
G01*
X53512500Y-41500000D01*
G75*
G02*
X53387500Y-41375000I0J125000D01*
G01*
X53387500Y-41125000D01*
G75*
G02*
X53512500Y-41000000I125000J0D01*
G01*
X54837500Y-41000000D01*
G75*
G02*
X54962500Y-41125000I0J-125000D01*
G01*
G37*
G36*
G01*
X54962500Y-40475000D02*
X54962500Y-40725000D01*
G75*
G02*
X54837500Y-40850000I-125000J0D01*
G01*
X53512500Y-40850000D01*
G75*
G02*
X53387500Y-40725000I0J125000D01*
G01*
X53387500Y-40475000D01*
G75*
G02*
X53512500Y-40350000I125000J0D01*
G01*
X54837500Y-40350000D01*
G75*
G02*
X54962500Y-40475000I0J-125000D01*
G01*
G37*
G36*
G01*
X54962500Y-39825000D02*
X54962500Y-40075000D01*
G75*
G02*
X54837500Y-40200000I-125000J0D01*
G01*
X53512500Y-40200000D01*
G75*
G02*
X53387500Y-40075000I0J125000D01*
G01*
X53387500Y-39825000D01*
G75*
G02*
X53512500Y-39700000I125000J0D01*
G01*
X54837500Y-39700000D01*
G75*
G02*
X54962500Y-39825000I0J-125000D01*
G01*
G37*
G36*
G01*
X54962500Y-39175000D02*
X54962500Y-39425000D01*
G75*
G02*
X54837500Y-39550000I-125000J0D01*
G01*
X53512500Y-39550000D01*
G75*
G02*
X53387500Y-39425000I0J125000D01*
G01*
X53387500Y-39175000D01*
G75*
G02*
X53512500Y-39050000I125000J0D01*
G01*
X54837500Y-39050000D01*
G75*
G02*
X54962500Y-39175000I0J-125000D01*
G01*
G37*
G36*
G01*
X54962500Y-38525000D02*
X54962500Y-38775000D01*
G75*
G02*
X54837500Y-38900000I-125000J0D01*
G01*
X53512500Y-38900000D01*
G75*
G02*
X53387500Y-38775000I0J125000D01*
G01*
X53387500Y-38525000D01*
G75*
G02*
X53512500Y-38400000I125000J0D01*
G01*
X54837500Y-38400000D01*
G75*
G02*
X54962500Y-38525000I0J-125000D01*
G01*
G37*
G36*
G01*
X54962500Y-37875000D02*
X54962500Y-38125000D01*
G75*
G02*
X54837500Y-38250000I-125000J0D01*
G01*
X53512500Y-38250000D01*
G75*
G02*
X53387500Y-38125000I0J125000D01*
G01*
X53387500Y-37875000D01*
G75*
G02*
X53512500Y-37750000I125000J0D01*
G01*
X54837500Y-37750000D01*
G75*
G02*
X54962500Y-37875000I0J-125000D01*
G01*
G37*
G36*
G01*
X54962500Y-37225000D02*
X54962500Y-37475000D01*
G75*
G02*
X54837500Y-37600000I-125000J0D01*
G01*
X53512500Y-37600000D01*
G75*
G02*
X53387500Y-37475000I0J125000D01*
G01*
X53387500Y-37225000D01*
G75*
G02*
X53512500Y-37100000I125000J0D01*
G01*
X54837500Y-37100000D01*
G75*
G02*
X54962500Y-37225000I0J-125000D01*
G01*
G37*
G36*
G01*
X54962500Y-36575000D02*
X54962500Y-36825000D01*
G75*
G02*
X54837500Y-36950000I-125000J0D01*
G01*
X53512500Y-36950000D01*
G75*
G02*
X53387500Y-36825000I0J125000D01*
G01*
X53387500Y-36575000D01*
G75*
G02*
X53512500Y-36450000I125000J0D01*
G01*
X54837500Y-36450000D01*
G75*
G02*
X54962500Y-36575000I0J-125000D01*
G01*
G37*
G36*
G01*
X49237500Y-36575000D02*
X49237500Y-36825000D01*
G75*
G02*
X49112500Y-36950000I-125000J0D01*
G01*
X47787500Y-36950000D01*
G75*
G02*
X47662500Y-36825000I0J125000D01*
G01*
X47662500Y-36575000D01*
G75*
G02*
X47787500Y-36450000I125000J0D01*
G01*
X49112500Y-36450000D01*
G75*
G02*
X49237500Y-36575000I0J-125000D01*
G01*
G37*
G36*
G01*
X49237500Y-37225000D02*
X49237500Y-37475000D01*
G75*
G02*
X49112500Y-37600000I-125000J0D01*
G01*
X47787500Y-37600000D01*
G75*
G02*
X47662500Y-37475000I0J125000D01*
G01*
X47662500Y-37225000D01*
G75*
G02*
X47787500Y-37100000I125000J0D01*
G01*
X49112500Y-37100000D01*
G75*
G02*
X49237500Y-37225000I0J-125000D01*
G01*
G37*
G36*
G01*
X49237500Y-37875000D02*
X49237500Y-38125000D01*
G75*
G02*
X49112500Y-38250000I-125000J0D01*
G01*
X47787500Y-38250000D01*
G75*
G02*
X47662500Y-38125000I0J125000D01*
G01*
X47662500Y-37875000D01*
G75*
G02*
X47787500Y-37750000I125000J0D01*
G01*
X49112500Y-37750000D01*
G75*
G02*
X49237500Y-37875000I0J-125000D01*
G01*
G37*
G36*
G01*
X49237500Y-38525000D02*
X49237500Y-38775000D01*
G75*
G02*
X49112500Y-38900000I-125000J0D01*
G01*
X47787500Y-38900000D01*
G75*
G02*
X47662500Y-38775000I0J125000D01*
G01*
X47662500Y-38525000D01*
G75*
G02*
X47787500Y-38400000I125000J0D01*
G01*
X49112500Y-38400000D01*
G75*
G02*
X49237500Y-38525000I0J-125000D01*
G01*
G37*
G36*
G01*
X49237500Y-39175000D02*
X49237500Y-39425000D01*
G75*
G02*
X49112500Y-39550000I-125000J0D01*
G01*
X47787500Y-39550000D01*
G75*
G02*
X47662500Y-39425000I0J125000D01*
G01*
X47662500Y-39175000D01*
G75*
G02*
X47787500Y-39050000I125000J0D01*
G01*
X49112500Y-39050000D01*
G75*
G02*
X49237500Y-39175000I0J-125000D01*
G01*
G37*
G36*
G01*
X49237500Y-39825000D02*
X49237500Y-40075000D01*
G75*
G02*
X49112500Y-40200000I-125000J0D01*
G01*
X47787500Y-40200000D01*
G75*
G02*
X47662500Y-40075000I0J125000D01*
G01*
X47662500Y-39825000D01*
G75*
G02*
X47787500Y-39700000I125000J0D01*
G01*
X49112500Y-39700000D01*
G75*
G02*
X49237500Y-39825000I0J-125000D01*
G01*
G37*
G36*
G01*
X49237500Y-40475000D02*
X49237500Y-40725000D01*
G75*
G02*
X49112500Y-40850000I-125000J0D01*
G01*
X47787500Y-40850000D01*
G75*
G02*
X47662500Y-40725000I0J125000D01*
G01*
X47662500Y-40475000D01*
G75*
G02*
X47787500Y-40350000I125000J0D01*
G01*
X49112500Y-40350000D01*
G75*
G02*
X49237500Y-40475000I0J-125000D01*
G01*
G37*
G36*
G01*
X49237500Y-41125000D02*
X49237500Y-41375000D01*
G75*
G02*
X49112500Y-41500000I-125000J0D01*
G01*
X47787500Y-41500000D01*
G75*
G02*
X47662500Y-41375000I0J125000D01*
G01*
X47662500Y-41125000D01*
G75*
G02*
X47787500Y-41000000I125000J0D01*
G01*
X49112500Y-41000000D01*
G75*
G02*
X49237500Y-41125000I0J-125000D01*
G01*
G37*
G36*
G01*
X49237500Y-41775000D02*
X49237500Y-42025000D01*
G75*
G02*
X49112500Y-42150000I-125000J0D01*
G01*
X47787500Y-42150000D01*
G75*
G02*
X47662500Y-42025000I0J125000D01*
G01*
X47662500Y-41775000D01*
G75*
G02*
X47787500Y-41650000I125000J0D01*
G01*
X49112500Y-41650000D01*
G75*
G02*
X49237500Y-41775000I0J-125000D01*
G01*
G37*
G36*
G01*
X49237500Y-42425000D02*
X49237500Y-42675000D01*
G75*
G02*
X49112500Y-42800000I-125000J0D01*
G01*
X47787500Y-42800000D01*
G75*
G02*
X47662500Y-42675000I0J125000D01*
G01*
X47662500Y-42425000D01*
G75*
G02*
X47787500Y-42300000I125000J0D01*
G01*
X49112500Y-42300000D01*
G75*
G02*
X49237500Y-42425000I0J-125000D01*
G01*
G37*
G36*
G01*
X49237500Y-43075000D02*
X49237500Y-43325000D01*
G75*
G02*
X49112500Y-43450000I-125000J0D01*
G01*
X47787500Y-43450000D01*
G75*
G02*
X47662500Y-43325000I0J125000D01*
G01*
X47662500Y-43075000D01*
G75*
G02*
X47787500Y-42950000I125000J0D01*
G01*
X49112500Y-42950000D01*
G75*
G02*
X49237500Y-43075000I0J-125000D01*
G01*
G37*
G36*
G01*
X49237500Y-43725000D02*
X49237500Y-43975000D01*
G75*
G02*
X49112500Y-44100000I-125000J0D01*
G01*
X47787500Y-44100000D01*
G75*
G02*
X47662500Y-43975000I0J125000D01*
G01*
X47662500Y-43725000D01*
G75*
G02*
X47787500Y-43600000I125000J0D01*
G01*
X49112500Y-43600000D01*
G75*
G02*
X49237500Y-43725000I0J-125000D01*
G01*
G37*
%TD*%
%TO.C,C11*%
G36*
G01*
X87575000Y-106221738D02*
X87575000Y-107178262D01*
G75*
G02*
X87303262Y-107450000I-271738J0D01*
G01*
X86596738Y-107450000D01*
G75*
G02*
X86325000Y-107178262I0J271738D01*
G01*
X86325000Y-106221738D01*
G75*
G02*
X86596738Y-105950000I271738J0D01*
G01*
X87303262Y-105950000D01*
G75*
G02*
X87575000Y-106221738I0J-271738D01*
G01*
G37*
G36*
G01*
X89625000Y-106221738D02*
X89625000Y-107178262D01*
G75*
G02*
X89353262Y-107450000I-271738J0D01*
G01*
X88646738Y-107450000D01*
G75*
G02*
X88375000Y-107178262I0J271738D01*
G01*
X88375000Y-106221738D01*
G75*
G02*
X88646738Y-105950000I271738J0D01*
G01*
X89353262Y-105950000D01*
G75*
G02*
X89625000Y-106221738I0J-271738D01*
G01*
G37*
%TD*%
%TO.C,C12*%
G36*
G01*
X37575000Y-107178262D02*
X37575000Y-106221738D01*
G75*
G02*
X37846738Y-105950000I271738J0D01*
G01*
X38553262Y-105950000D01*
G75*
G02*
X38825000Y-106221738I0J-271738D01*
G01*
X38825000Y-107178262D01*
G75*
G02*
X38553262Y-107450000I-271738J0D01*
G01*
X37846738Y-107450000D01*
G75*
G02*
X37575000Y-107178262I0J271738D01*
G01*
G37*
G36*
G01*
X39625000Y-107178262D02*
X39625000Y-106221738D01*
G75*
G02*
X39896738Y-105950000I271738J0D01*
G01*
X40603262Y-105950000D01*
G75*
G02*
X40875000Y-106221738I0J-271738D01*
G01*
X40875000Y-107178262D01*
G75*
G02*
X40603262Y-107450000I-271738J0D01*
G01*
X39896738Y-107450000D01*
G75*
G02*
X39625000Y-107178262I0J271738D01*
G01*
G37*
%TD*%
D12*
%TO.C,U1*%
X70600000Y-77580000D03*
X72500000Y-77580000D03*
X72500000Y-79900000D03*
X71550000Y-79900000D03*
X70600000Y-79900000D03*
%TD*%
D13*
%TO.C,U2*%
X85120000Y-72400000D03*
X85120000Y-71450000D03*
X85120000Y-70500000D03*
X82800000Y-70500000D03*
X82800000Y-72400000D03*
%TD*%
%TO.C,U3*%
G36*
G01*
X66700000Y-75825000D02*
X66500000Y-75825000D01*
G75*
G02*
X66400000Y-75725000I0J100000D01*
G01*
X66400000Y-74225000D01*
G75*
G02*
X66500000Y-74125000I100000J0D01*
G01*
X66700000Y-74125000D01*
G75*
G02*
X66800000Y-74225000I0J-100000D01*
G01*
X66800000Y-75725000D01*
G75*
G02*
X66700000Y-75825000I-100000J0D01*
G01*
G37*
G36*
G01*
X67200000Y-75825000D02*
X67000000Y-75825000D01*
G75*
G02*
X66900000Y-75725000I0J100000D01*
G01*
X66900000Y-74225000D01*
G75*
G02*
X67000000Y-74125000I100000J0D01*
G01*
X67200000Y-74125000D01*
G75*
G02*
X67300000Y-74225000I0J-100000D01*
G01*
X67300000Y-75725000D01*
G75*
G02*
X67200000Y-75825000I-100000J0D01*
G01*
G37*
G36*
G01*
X67700000Y-75825000D02*
X67500000Y-75825000D01*
G75*
G02*
X67400000Y-75725000I0J100000D01*
G01*
X67400000Y-74225000D01*
G75*
G02*
X67500000Y-74125000I100000J0D01*
G01*
X67700000Y-74125000D01*
G75*
G02*
X67800000Y-74225000I0J-100000D01*
G01*
X67800000Y-75725000D01*
G75*
G02*
X67700000Y-75825000I-100000J0D01*
G01*
G37*
G36*
G01*
X68200000Y-75825000D02*
X68000000Y-75825000D01*
G75*
G02*
X67900000Y-75725000I0J100000D01*
G01*
X67900000Y-74225000D01*
G75*
G02*
X68000000Y-74125000I100000J0D01*
G01*
X68200000Y-74125000D01*
G75*
G02*
X68300000Y-74225000I0J-100000D01*
G01*
X68300000Y-75725000D01*
G75*
G02*
X68200000Y-75825000I-100000J0D01*
G01*
G37*
G36*
G01*
X68700000Y-75825000D02*
X68500000Y-75825000D01*
G75*
G02*
X68400000Y-75725000I0J100000D01*
G01*
X68400000Y-74225000D01*
G75*
G02*
X68500000Y-74125000I100000J0D01*
G01*
X68700000Y-74125000D01*
G75*
G02*
X68800000Y-74225000I0J-100000D01*
G01*
X68800000Y-75725000D01*
G75*
G02*
X68700000Y-75825000I-100000J0D01*
G01*
G37*
G36*
G01*
X69200000Y-75825000D02*
X69000000Y-75825000D01*
G75*
G02*
X68900000Y-75725000I0J100000D01*
G01*
X68900000Y-74225000D01*
G75*
G02*
X69000000Y-74125000I100000J0D01*
G01*
X69200000Y-74125000D01*
G75*
G02*
X69300000Y-74225000I0J-100000D01*
G01*
X69300000Y-75725000D01*
G75*
G02*
X69200000Y-75825000I-100000J0D01*
G01*
G37*
G36*
G01*
X69700000Y-75825000D02*
X69500000Y-75825000D01*
G75*
G02*
X69400000Y-75725000I0J100000D01*
G01*
X69400000Y-74225000D01*
G75*
G02*
X69500000Y-74125000I100000J0D01*
G01*
X69700000Y-74125000D01*
G75*
G02*
X69800000Y-74225000I0J-100000D01*
G01*
X69800000Y-75725000D01*
G75*
G02*
X69700000Y-75825000I-100000J0D01*
G01*
G37*
G36*
G01*
X70200000Y-75825000D02*
X70000000Y-75825000D01*
G75*
G02*
X69900000Y-75725000I0J100000D01*
G01*
X69900000Y-74225000D01*
G75*
G02*
X70000000Y-74125000I100000J0D01*
G01*
X70200000Y-74125000D01*
G75*
G02*
X70300000Y-74225000I0J-100000D01*
G01*
X70300000Y-75725000D01*
G75*
G02*
X70200000Y-75825000I-100000J0D01*
G01*
G37*
G36*
G01*
X70700000Y-75825000D02*
X70500000Y-75825000D01*
G75*
G02*
X70400000Y-75725000I0J100000D01*
G01*
X70400000Y-74225000D01*
G75*
G02*
X70500000Y-74125000I100000J0D01*
G01*
X70700000Y-74125000D01*
G75*
G02*
X70800000Y-74225000I0J-100000D01*
G01*
X70800000Y-75725000D01*
G75*
G02*
X70700000Y-75825000I-100000J0D01*
G01*
G37*
G36*
G01*
X71200000Y-75825000D02*
X71000000Y-75825000D01*
G75*
G02*
X70900000Y-75725000I0J100000D01*
G01*
X70900000Y-74225000D01*
G75*
G02*
X71000000Y-74125000I100000J0D01*
G01*
X71200000Y-74125000D01*
G75*
G02*
X71300000Y-74225000I0J-100000D01*
G01*
X71300000Y-75725000D01*
G75*
G02*
X71200000Y-75825000I-100000J0D01*
G01*
G37*
G36*
G01*
X71700000Y-75825000D02*
X71500000Y-75825000D01*
G75*
G02*
X71400000Y-75725000I0J100000D01*
G01*
X71400000Y-74225000D01*
G75*
G02*
X71500000Y-74125000I100000J0D01*
G01*
X71700000Y-74125000D01*
G75*
G02*
X71800000Y-74225000I0J-100000D01*
G01*
X71800000Y-75725000D01*
G75*
G02*
X71700000Y-75825000I-100000J0D01*
G01*
G37*
G36*
G01*
X72200000Y-75825000D02*
X72000000Y-75825000D01*
G75*
G02*
X71900000Y-75725000I0J100000D01*
G01*
X71900000Y-74225000D01*
G75*
G02*
X72000000Y-74125000I100000J0D01*
G01*
X72200000Y-74125000D01*
G75*
G02*
X72300000Y-74225000I0J-100000D01*
G01*
X72300000Y-75725000D01*
G75*
G02*
X72200000Y-75825000I-100000J0D01*
G01*
G37*
G36*
G01*
X72700000Y-75825000D02*
X72500000Y-75825000D01*
G75*
G02*
X72400000Y-75725000I0J100000D01*
G01*
X72400000Y-74225000D01*
G75*
G02*
X72500000Y-74125000I100000J0D01*
G01*
X72700000Y-74125000D01*
G75*
G02*
X72800000Y-74225000I0J-100000D01*
G01*
X72800000Y-75725000D01*
G75*
G02*
X72700000Y-75825000I-100000J0D01*
G01*
G37*
G36*
G01*
X73200000Y-75825000D02*
X73000000Y-75825000D01*
G75*
G02*
X72900000Y-75725000I0J100000D01*
G01*
X72900000Y-74225000D01*
G75*
G02*
X73000000Y-74125000I100000J0D01*
G01*
X73200000Y-74125000D01*
G75*
G02*
X73300000Y-74225000I0J-100000D01*
G01*
X73300000Y-75725000D01*
G75*
G02*
X73200000Y-75825000I-100000J0D01*
G01*
G37*
G36*
G01*
X73700000Y-75825000D02*
X73500000Y-75825000D01*
G75*
G02*
X73400000Y-75725000I0J100000D01*
G01*
X73400000Y-74225000D01*
G75*
G02*
X73500000Y-74125000I100000J0D01*
G01*
X73700000Y-74125000D01*
G75*
G02*
X73800000Y-74225000I0J-100000D01*
G01*
X73800000Y-75725000D01*
G75*
G02*
X73700000Y-75825000I-100000J0D01*
G01*
G37*
G36*
G01*
X74200000Y-75825000D02*
X74000000Y-75825000D01*
G75*
G02*
X73900000Y-75725000I0J100000D01*
G01*
X73900000Y-74225000D01*
G75*
G02*
X74000000Y-74125000I100000J0D01*
G01*
X74200000Y-74125000D01*
G75*
G02*
X74300000Y-74225000I0J-100000D01*
G01*
X74300000Y-75725000D01*
G75*
G02*
X74200000Y-75825000I-100000J0D01*
G01*
G37*
G36*
G01*
X74700000Y-75825000D02*
X74500000Y-75825000D01*
G75*
G02*
X74400000Y-75725000I0J100000D01*
G01*
X74400000Y-74225000D01*
G75*
G02*
X74500000Y-74125000I100000J0D01*
G01*
X74700000Y-74125000D01*
G75*
G02*
X74800000Y-74225000I0J-100000D01*
G01*
X74800000Y-75725000D01*
G75*
G02*
X74700000Y-75825000I-100000J0D01*
G01*
G37*
G36*
G01*
X75200000Y-75825000D02*
X75000000Y-75825000D01*
G75*
G02*
X74900000Y-75725000I0J100000D01*
G01*
X74900000Y-74225000D01*
G75*
G02*
X75000000Y-74125000I100000J0D01*
G01*
X75200000Y-74125000D01*
G75*
G02*
X75300000Y-74225000I0J-100000D01*
G01*
X75300000Y-75725000D01*
G75*
G02*
X75200000Y-75825000I-100000J0D01*
G01*
G37*
G36*
G01*
X75700000Y-75825000D02*
X75500000Y-75825000D01*
G75*
G02*
X75400000Y-75725000I0J100000D01*
G01*
X75400000Y-74225000D01*
G75*
G02*
X75500000Y-74125000I100000J0D01*
G01*
X75700000Y-74125000D01*
G75*
G02*
X75800000Y-74225000I0J-100000D01*
G01*
X75800000Y-75725000D01*
G75*
G02*
X75700000Y-75825000I-100000J0D01*
G01*
G37*
G36*
G01*
X76200000Y-75825000D02*
X76000000Y-75825000D01*
G75*
G02*
X75900000Y-75725000I0J100000D01*
G01*
X75900000Y-74225000D01*
G75*
G02*
X76000000Y-74125000I100000J0D01*
G01*
X76200000Y-74125000D01*
G75*
G02*
X76300000Y-74225000I0J-100000D01*
G01*
X76300000Y-75725000D01*
G75*
G02*
X76200000Y-75825000I-100000J0D01*
G01*
G37*
G36*
G01*
X76700000Y-75825000D02*
X76500000Y-75825000D01*
G75*
G02*
X76400000Y-75725000I0J100000D01*
G01*
X76400000Y-74225000D01*
G75*
G02*
X76500000Y-74125000I100000J0D01*
G01*
X76700000Y-74125000D01*
G75*
G02*
X76800000Y-74225000I0J-100000D01*
G01*
X76800000Y-75725000D01*
G75*
G02*
X76700000Y-75825000I-100000J0D01*
G01*
G37*
G36*
G01*
X77200000Y-75825000D02*
X77000000Y-75825000D01*
G75*
G02*
X76900000Y-75725000I0J100000D01*
G01*
X76900000Y-74225000D01*
G75*
G02*
X77000000Y-74125000I100000J0D01*
G01*
X77200000Y-74125000D01*
G75*
G02*
X77300000Y-74225000I0J-100000D01*
G01*
X77300000Y-75725000D01*
G75*
G02*
X77200000Y-75825000I-100000J0D01*
G01*
G37*
G36*
G01*
X77700000Y-75825000D02*
X77500000Y-75825000D01*
G75*
G02*
X77400000Y-75725000I0J100000D01*
G01*
X77400000Y-74225000D01*
G75*
G02*
X77500000Y-74125000I100000J0D01*
G01*
X77700000Y-74125000D01*
G75*
G02*
X77800000Y-74225000I0J-100000D01*
G01*
X77800000Y-75725000D01*
G75*
G02*
X77700000Y-75825000I-100000J0D01*
G01*
G37*
G36*
G01*
X78200000Y-75825000D02*
X78000000Y-75825000D01*
G75*
G02*
X77900000Y-75725000I0J100000D01*
G01*
X77900000Y-74225000D01*
G75*
G02*
X78000000Y-74125000I100000J0D01*
G01*
X78200000Y-74125000D01*
G75*
G02*
X78300000Y-74225000I0J-100000D01*
G01*
X78300000Y-75725000D01*
G75*
G02*
X78200000Y-75825000I-100000J0D01*
G01*
G37*
G36*
G01*
X78700000Y-75825000D02*
X78500000Y-75825000D01*
G75*
G02*
X78400000Y-75725000I0J100000D01*
G01*
X78400000Y-74225000D01*
G75*
G02*
X78500000Y-74125000I100000J0D01*
G01*
X78700000Y-74125000D01*
G75*
G02*
X78800000Y-74225000I0J-100000D01*
G01*
X78800000Y-75725000D01*
G75*
G02*
X78700000Y-75825000I-100000J0D01*
G01*
G37*
G36*
G01*
X81025000Y-73500000D02*
X79525000Y-73500000D01*
G75*
G02*
X79425000Y-73400000I0J100000D01*
G01*
X79425000Y-73200000D01*
G75*
G02*
X79525000Y-73100000I100000J0D01*
G01*
X81025000Y-73100000D01*
G75*
G02*
X81125000Y-73200000I0J-100000D01*
G01*
X81125000Y-73400000D01*
G75*
G02*
X81025000Y-73500000I-100000J0D01*
G01*
G37*
G36*
G01*
X81025000Y-73000000D02*
X79525000Y-73000000D01*
G75*
G02*
X79425000Y-72900000I0J100000D01*
G01*
X79425000Y-72700000D01*
G75*
G02*
X79525000Y-72600000I100000J0D01*
G01*
X81025000Y-72600000D01*
G75*
G02*
X81125000Y-72700000I0J-100000D01*
G01*
X81125000Y-72900000D01*
G75*
G02*
X81025000Y-73000000I-100000J0D01*
G01*
G37*
G36*
G01*
X81025000Y-72500000D02*
X79525000Y-72500000D01*
G75*
G02*
X79425000Y-72400000I0J100000D01*
G01*
X79425000Y-72200000D01*
G75*
G02*
X79525000Y-72100000I100000J0D01*
G01*
X81025000Y-72100000D01*
G75*
G02*
X81125000Y-72200000I0J-100000D01*
G01*
X81125000Y-72400000D01*
G75*
G02*
X81025000Y-72500000I-100000J0D01*
G01*
G37*
G36*
G01*
X81025000Y-72000000D02*
X79525000Y-72000000D01*
G75*
G02*
X79425000Y-71900000I0J100000D01*
G01*
X79425000Y-71700000D01*
G75*
G02*
X79525000Y-71600000I100000J0D01*
G01*
X81025000Y-71600000D01*
G75*
G02*
X81125000Y-71700000I0J-100000D01*
G01*
X81125000Y-71900000D01*
G75*
G02*
X81025000Y-72000000I-100000J0D01*
G01*
G37*
G36*
G01*
X81025000Y-71500000D02*
X79525000Y-71500000D01*
G75*
G02*
X79425000Y-71400000I0J100000D01*
G01*
X79425000Y-71200000D01*
G75*
G02*
X79525000Y-71100000I100000J0D01*
G01*
X81025000Y-71100000D01*
G75*
G02*
X81125000Y-71200000I0J-100000D01*
G01*
X81125000Y-71400000D01*
G75*
G02*
X81025000Y-71500000I-100000J0D01*
G01*
G37*
G36*
G01*
X81025000Y-71000000D02*
X79525000Y-71000000D01*
G75*
G02*
X79425000Y-70900000I0J100000D01*
G01*
X79425000Y-70700000D01*
G75*
G02*
X79525000Y-70600000I100000J0D01*
G01*
X81025000Y-70600000D01*
G75*
G02*
X81125000Y-70700000I0J-100000D01*
G01*
X81125000Y-70900000D01*
G75*
G02*
X81025000Y-71000000I-100000J0D01*
G01*
G37*
G36*
G01*
X81025000Y-70500000D02*
X79525000Y-70500000D01*
G75*
G02*
X79425000Y-70400000I0J100000D01*
G01*
X79425000Y-70200000D01*
G75*
G02*
X79525000Y-70100000I100000J0D01*
G01*
X81025000Y-70100000D01*
G75*
G02*
X81125000Y-70200000I0J-100000D01*
G01*
X81125000Y-70400000D01*
G75*
G02*
X81025000Y-70500000I-100000J0D01*
G01*
G37*
G36*
G01*
X81025000Y-70000000D02*
X79525000Y-70000000D01*
G75*
G02*
X79425000Y-69900000I0J100000D01*
G01*
X79425000Y-69700000D01*
G75*
G02*
X79525000Y-69600000I100000J0D01*
G01*
X81025000Y-69600000D01*
G75*
G02*
X81125000Y-69700000I0J-100000D01*
G01*
X81125000Y-69900000D01*
G75*
G02*
X81025000Y-70000000I-100000J0D01*
G01*
G37*
G36*
G01*
X81025000Y-69500000D02*
X79525000Y-69500000D01*
G75*
G02*
X79425000Y-69400000I0J100000D01*
G01*
X79425000Y-69200000D01*
G75*
G02*
X79525000Y-69100000I100000J0D01*
G01*
X81025000Y-69100000D01*
G75*
G02*
X81125000Y-69200000I0J-100000D01*
G01*
X81125000Y-69400000D01*
G75*
G02*
X81025000Y-69500000I-100000J0D01*
G01*
G37*
G36*
G01*
X81025000Y-69000000D02*
X79525000Y-69000000D01*
G75*
G02*
X79425000Y-68900000I0J100000D01*
G01*
X79425000Y-68700000D01*
G75*
G02*
X79525000Y-68600000I100000J0D01*
G01*
X81025000Y-68600000D01*
G75*
G02*
X81125000Y-68700000I0J-100000D01*
G01*
X81125000Y-68900000D01*
G75*
G02*
X81025000Y-69000000I-100000J0D01*
G01*
G37*
G36*
G01*
X81025000Y-68500000D02*
X79525000Y-68500000D01*
G75*
G02*
X79425000Y-68400000I0J100000D01*
G01*
X79425000Y-68200000D01*
G75*
G02*
X79525000Y-68100000I100000J0D01*
G01*
X81025000Y-68100000D01*
G75*
G02*
X81125000Y-68200000I0J-100000D01*
G01*
X81125000Y-68400000D01*
G75*
G02*
X81025000Y-68500000I-100000J0D01*
G01*
G37*
G36*
G01*
X81025000Y-68000000D02*
X79525000Y-68000000D01*
G75*
G02*
X79425000Y-67900000I0J100000D01*
G01*
X79425000Y-67700000D01*
G75*
G02*
X79525000Y-67600000I100000J0D01*
G01*
X81025000Y-67600000D01*
G75*
G02*
X81125000Y-67700000I0J-100000D01*
G01*
X81125000Y-67900000D01*
G75*
G02*
X81025000Y-68000000I-100000J0D01*
G01*
G37*
G36*
G01*
X81025000Y-67500000D02*
X79525000Y-67500000D01*
G75*
G02*
X79425000Y-67400000I0J100000D01*
G01*
X79425000Y-67200000D01*
G75*
G02*
X79525000Y-67100000I100000J0D01*
G01*
X81025000Y-67100000D01*
G75*
G02*
X81125000Y-67200000I0J-100000D01*
G01*
X81125000Y-67400000D01*
G75*
G02*
X81025000Y-67500000I-100000J0D01*
G01*
G37*
G36*
G01*
X81025000Y-67000000D02*
X79525000Y-67000000D01*
G75*
G02*
X79425000Y-66900000I0J100000D01*
G01*
X79425000Y-66700000D01*
G75*
G02*
X79525000Y-66600000I100000J0D01*
G01*
X81025000Y-66600000D01*
G75*
G02*
X81125000Y-66700000I0J-100000D01*
G01*
X81125000Y-66900000D01*
G75*
G02*
X81025000Y-67000000I-100000J0D01*
G01*
G37*
G36*
G01*
X81025000Y-66500000D02*
X79525000Y-66500000D01*
G75*
G02*
X79425000Y-66400000I0J100000D01*
G01*
X79425000Y-66200000D01*
G75*
G02*
X79525000Y-66100000I100000J0D01*
G01*
X81025000Y-66100000D01*
G75*
G02*
X81125000Y-66200000I0J-100000D01*
G01*
X81125000Y-66400000D01*
G75*
G02*
X81025000Y-66500000I-100000J0D01*
G01*
G37*
G36*
G01*
X81025000Y-66000000D02*
X79525000Y-66000000D01*
G75*
G02*
X79425000Y-65900000I0J100000D01*
G01*
X79425000Y-65700000D01*
G75*
G02*
X79525000Y-65600000I100000J0D01*
G01*
X81025000Y-65600000D01*
G75*
G02*
X81125000Y-65700000I0J-100000D01*
G01*
X81125000Y-65900000D01*
G75*
G02*
X81025000Y-66000000I-100000J0D01*
G01*
G37*
G36*
G01*
X81025000Y-65500000D02*
X79525000Y-65500000D01*
G75*
G02*
X79425000Y-65400000I0J100000D01*
G01*
X79425000Y-65200000D01*
G75*
G02*
X79525000Y-65100000I100000J0D01*
G01*
X81025000Y-65100000D01*
G75*
G02*
X81125000Y-65200000I0J-100000D01*
G01*
X81125000Y-65400000D01*
G75*
G02*
X81025000Y-65500000I-100000J0D01*
G01*
G37*
G36*
G01*
X81025000Y-65000000D02*
X79525000Y-65000000D01*
G75*
G02*
X79425000Y-64900000I0J100000D01*
G01*
X79425000Y-64700000D01*
G75*
G02*
X79525000Y-64600000I100000J0D01*
G01*
X81025000Y-64600000D01*
G75*
G02*
X81125000Y-64700000I0J-100000D01*
G01*
X81125000Y-64900000D01*
G75*
G02*
X81025000Y-65000000I-100000J0D01*
G01*
G37*
G36*
G01*
X81025000Y-64500000D02*
X79525000Y-64500000D01*
G75*
G02*
X79425000Y-64400000I0J100000D01*
G01*
X79425000Y-64200000D01*
G75*
G02*
X79525000Y-64100000I100000J0D01*
G01*
X81025000Y-64100000D01*
G75*
G02*
X81125000Y-64200000I0J-100000D01*
G01*
X81125000Y-64400000D01*
G75*
G02*
X81025000Y-64500000I-100000J0D01*
G01*
G37*
G36*
G01*
X81025000Y-64000000D02*
X79525000Y-64000000D01*
G75*
G02*
X79425000Y-63900000I0J100000D01*
G01*
X79425000Y-63700000D01*
G75*
G02*
X79525000Y-63600000I100000J0D01*
G01*
X81025000Y-63600000D01*
G75*
G02*
X81125000Y-63700000I0J-100000D01*
G01*
X81125000Y-63900000D01*
G75*
G02*
X81025000Y-64000000I-100000J0D01*
G01*
G37*
G36*
G01*
X81025000Y-63500000D02*
X79525000Y-63500000D01*
G75*
G02*
X79425000Y-63400000I0J100000D01*
G01*
X79425000Y-63200000D01*
G75*
G02*
X79525000Y-63100000I100000J0D01*
G01*
X81025000Y-63100000D01*
G75*
G02*
X81125000Y-63200000I0J-100000D01*
G01*
X81125000Y-63400000D01*
G75*
G02*
X81025000Y-63500000I-100000J0D01*
G01*
G37*
G36*
G01*
X81025000Y-63000000D02*
X79525000Y-63000000D01*
G75*
G02*
X79425000Y-62900000I0J100000D01*
G01*
X79425000Y-62700000D01*
G75*
G02*
X79525000Y-62600000I100000J0D01*
G01*
X81025000Y-62600000D01*
G75*
G02*
X81125000Y-62700000I0J-100000D01*
G01*
X81125000Y-62900000D01*
G75*
G02*
X81025000Y-63000000I-100000J0D01*
G01*
G37*
G36*
G01*
X81025000Y-62500000D02*
X79525000Y-62500000D01*
G75*
G02*
X79425000Y-62400000I0J100000D01*
G01*
X79425000Y-62200000D01*
G75*
G02*
X79525000Y-62100000I100000J0D01*
G01*
X81025000Y-62100000D01*
G75*
G02*
X81125000Y-62200000I0J-100000D01*
G01*
X81125000Y-62400000D01*
G75*
G02*
X81025000Y-62500000I-100000J0D01*
G01*
G37*
G36*
G01*
X81025000Y-62000000D02*
X79525000Y-62000000D01*
G75*
G02*
X79425000Y-61900000I0J100000D01*
G01*
X79425000Y-61700000D01*
G75*
G02*
X79525000Y-61600000I100000J0D01*
G01*
X81025000Y-61600000D01*
G75*
G02*
X81125000Y-61700000I0J-100000D01*
G01*
X81125000Y-61900000D01*
G75*
G02*
X81025000Y-62000000I-100000J0D01*
G01*
G37*
G36*
G01*
X81025000Y-61500000D02*
X79525000Y-61500000D01*
G75*
G02*
X79425000Y-61400000I0J100000D01*
G01*
X79425000Y-61200000D01*
G75*
G02*
X79525000Y-61100000I100000J0D01*
G01*
X81025000Y-61100000D01*
G75*
G02*
X81125000Y-61200000I0J-100000D01*
G01*
X81125000Y-61400000D01*
G75*
G02*
X81025000Y-61500000I-100000J0D01*
G01*
G37*
G36*
G01*
X78700000Y-60475000D02*
X78500000Y-60475000D01*
G75*
G02*
X78400000Y-60375000I0J100000D01*
G01*
X78400000Y-58875000D01*
G75*
G02*
X78500000Y-58775000I100000J0D01*
G01*
X78700000Y-58775000D01*
G75*
G02*
X78800000Y-58875000I0J-100000D01*
G01*
X78800000Y-60375000D01*
G75*
G02*
X78700000Y-60475000I-100000J0D01*
G01*
G37*
G36*
G01*
X78200000Y-60475000D02*
X78000000Y-60475000D01*
G75*
G02*
X77900000Y-60375000I0J100000D01*
G01*
X77900000Y-58875000D01*
G75*
G02*
X78000000Y-58775000I100000J0D01*
G01*
X78200000Y-58775000D01*
G75*
G02*
X78300000Y-58875000I0J-100000D01*
G01*
X78300000Y-60375000D01*
G75*
G02*
X78200000Y-60475000I-100000J0D01*
G01*
G37*
G36*
G01*
X77700000Y-60475000D02*
X77500000Y-60475000D01*
G75*
G02*
X77400000Y-60375000I0J100000D01*
G01*
X77400000Y-58875000D01*
G75*
G02*
X77500000Y-58775000I100000J0D01*
G01*
X77700000Y-58775000D01*
G75*
G02*
X77800000Y-58875000I0J-100000D01*
G01*
X77800000Y-60375000D01*
G75*
G02*
X77700000Y-60475000I-100000J0D01*
G01*
G37*
G36*
G01*
X77200000Y-60475000D02*
X77000000Y-60475000D01*
G75*
G02*
X76900000Y-60375000I0J100000D01*
G01*
X76900000Y-58875000D01*
G75*
G02*
X77000000Y-58775000I100000J0D01*
G01*
X77200000Y-58775000D01*
G75*
G02*
X77300000Y-58875000I0J-100000D01*
G01*
X77300000Y-60375000D01*
G75*
G02*
X77200000Y-60475000I-100000J0D01*
G01*
G37*
G36*
G01*
X76700000Y-60475000D02*
X76500000Y-60475000D01*
G75*
G02*
X76400000Y-60375000I0J100000D01*
G01*
X76400000Y-58875000D01*
G75*
G02*
X76500000Y-58775000I100000J0D01*
G01*
X76700000Y-58775000D01*
G75*
G02*
X76800000Y-58875000I0J-100000D01*
G01*
X76800000Y-60375000D01*
G75*
G02*
X76700000Y-60475000I-100000J0D01*
G01*
G37*
G36*
G01*
X76200000Y-60475000D02*
X76000000Y-60475000D01*
G75*
G02*
X75900000Y-60375000I0J100000D01*
G01*
X75900000Y-58875000D01*
G75*
G02*
X76000000Y-58775000I100000J0D01*
G01*
X76200000Y-58775000D01*
G75*
G02*
X76300000Y-58875000I0J-100000D01*
G01*
X76300000Y-60375000D01*
G75*
G02*
X76200000Y-60475000I-100000J0D01*
G01*
G37*
G36*
G01*
X75700000Y-60475000D02*
X75500000Y-60475000D01*
G75*
G02*
X75400000Y-60375000I0J100000D01*
G01*
X75400000Y-58875000D01*
G75*
G02*
X75500000Y-58775000I100000J0D01*
G01*
X75700000Y-58775000D01*
G75*
G02*
X75800000Y-58875000I0J-100000D01*
G01*
X75800000Y-60375000D01*
G75*
G02*
X75700000Y-60475000I-100000J0D01*
G01*
G37*
G36*
G01*
X75200000Y-60475000D02*
X75000000Y-60475000D01*
G75*
G02*
X74900000Y-60375000I0J100000D01*
G01*
X74900000Y-58875000D01*
G75*
G02*
X75000000Y-58775000I100000J0D01*
G01*
X75200000Y-58775000D01*
G75*
G02*
X75300000Y-58875000I0J-100000D01*
G01*
X75300000Y-60375000D01*
G75*
G02*
X75200000Y-60475000I-100000J0D01*
G01*
G37*
G36*
G01*
X74700000Y-60475000D02*
X74500000Y-60475000D01*
G75*
G02*
X74400000Y-60375000I0J100000D01*
G01*
X74400000Y-58875000D01*
G75*
G02*
X74500000Y-58775000I100000J0D01*
G01*
X74700000Y-58775000D01*
G75*
G02*
X74800000Y-58875000I0J-100000D01*
G01*
X74800000Y-60375000D01*
G75*
G02*
X74700000Y-60475000I-100000J0D01*
G01*
G37*
G36*
G01*
X74200000Y-60475000D02*
X74000000Y-60475000D01*
G75*
G02*
X73900000Y-60375000I0J100000D01*
G01*
X73900000Y-58875000D01*
G75*
G02*
X74000000Y-58775000I100000J0D01*
G01*
X74200000Y-58775000D01*
G75*
G02*
X74300000Y-58875000I0J-100000D01*
G01*
X74300000Y-60375000D01*
G75*
G02*
X74200000Y-60475000I-100000J0D01*
G01*
G37*
G36*
G01*
X73700000Y-60475000D02*
X73500000Y-60475000D01*
G75*
G02*
X73400000Y-60375000I0J100000D01*
G01*
X73400000Y-58875000D01*
G75*
G02*
X73500000Y-58775000I100000J0D01*
G01*
X73700000Y-58775000D01*
G75*
G02*
X73800000Y-58875000I0J-100000D01*
G01*
X73800000Y-60375000D01*
G75*
G02*
X73700000Y-60475000I-100000J0D01*
G01*
G37*
G36*
G01*
X73200000Y-60475000D02*
X73000000Y-60475000D01*
G75*
G02*
X72900000Y-60375000I0J100000D01*
G01*
X72900000Y-58875000D01*
G75*
G02*
X73000000Y-58775000I100000J0D01*
G01*
X73200000Y-58775000D01*
G75*
G02*
X73300000Y-58875000I0J-100000D01*
G01*
X73300000Y-60375000D01*
G75*
G02*
X73200000Y-60475000I-100000J0D01*
G01*
G37*
G36*
G01*
X72700000Y-60475000D02*
X72500000Y-60475000D01*
G75*
G02*
X72400000Y-60375000I0J100000D01*
G01*
X72400000Y-58875000D01*
G75*
G02*
X72500000Y-58775000I100000J0D01*
G01*
X72700000Y-58775000D01*
G75*
G02*
X72800000Y-58875000I0J-100000D01*
G01*
X72800000Y-60375000D01*
G75*
G02*
X72700000Y-60475000I-100000J0D01*
G01*
G37*
G36*
G01*
X72200000Y-60475000D02*
X72000000Y-60475000D01*
G75*
G02*
X71900000Y-60375000I0J100000D01*
G01*
X71900000Y-58875000D01*
G75*
G02*
X72000000Y-58775000I100000J0D01*
G01*
X72200000Y-58775000D01*
G75*
G02*
X72300000Y-58875000I0J-100000D01*
G01*
X72300000Y-60375000D01*
G75*
G02*
X72200000Y-60475000I-100000J0D01*
G01*
G37*
G36*
G01*
X71700000Y-60475000D02*
X71500000Y-60475000D01*
G75*
G02*
X71400000Y-60375000I0J100000D01*
G01*
X71400000Y-58875000D01*
G75*
G02*
X71500000Y-58775000I100000J0D01*
G01*
X71700000Y-58775000D01*
G75*
G02*
X71800000Y-58875000I0J-100000D01*
G01*
X71800000Y-60375000D01*
G75*
G02*
X71700000Y-60475000I-100000J0D01*
G01*
G37*
G36*
G01*
X71200000Y-60475000D02*
X71000000Y-60475000D01*
G75*
G02*
X70900000Y-60375000I0J100000D01*
G01*
X70900000Y-58875000D01*
G75*
G02*
X71000000Y-58775000I100000J0D01*
G01*
X71200000Y-58775000D01*
G75*
G02*
X71300000Y-58875000I0J-100000D01*
G01*
X71300000Y-60375000D01*
G75*
G02*
X71200000Y-60475000I-100000J0D01*
G01*
G37*
G36*
G01*
X70700000Y-60475000D02*
X70500000Y-60475000D01*
G75*
G02*
X70400000Y-60375000I0J100000D01*
G01*
X70400000Y-58875000D01*
G75*
G02*
X70500000Y-58775000I100000J0D01*
G01*
X70700000Y-58775000D01*
G75*
G02*
X70800000Y-58875000I0J-100000D01*
G01*
X70800000Y-60375000D01*
G75*
G02*
X70700000Y-60475000I-100000J0D01*
G01*
G37*
G36*
G01*
X70200000Y-60475000D02*
X70000000Y-60475000D01*
G75*
G02*
X69900000Y-60375000I0J100000D01*
G01*
X69900000Y-58875000D01*
G75*
G02*
X70000000Y-58775000I100000J0D01*
G01*
X70200000Y-58775000D01*
G75*
G02*
X70300000Y-58875000I0J-100000D01*
G01*
X70300000Y-60375000D01*
G75*
G02*
X70200000Y-60475000I-100000J0D01*
G01*
G37*
G36*
G01*
X69700000Y-60475000D02*
X69500000Y-60475000D01*
G75*
G02*
X69400000Y-60375000I0J100000D01*
G01*
X69400000Y-58875000D01*
G75*
G02*
X69500000Y-58775000I100000J0D01*
G01*
X69700000Y-58775000D01*
G75*
G02*
X69800000Y-58875000I0J-100000D01*
G01*
X69800000Y-60375000D01*
G75*
G02*
X69700000Y-60475000I-100000J0D01*
G01*
G37*
G36*
G01*
X69200000Y-60475000D02*
X69000000Y-60475000D01*
G75*
G02*
X68900000Y-60375000I0J100000D01*
G01*
X68900000Y-58875000D01*
G75*
G02*
X69000000Y-58775000I100000J0D01*
G01*
X69200000Y-58775000D01*
G75*
G02*
X69300000Y-58875000I0J-100000D01*
G01*
X69300000Y-60375000D01*
G75*
G02*
X69200000Y-60475000I-100000J0D01*
G01*
G37*
G36*
G01*
X68700000Y-60475000D02*
X68500000Y-60475000D01*
G75*
G02*
X68400000Y-60375000I0J100000D01*
G01*
X68400000Y-58875000D01*
G75*
G02*
X68500000Y-58775000I100000J0D01*
G01*
X68700000Y-58775000D01*
G75*
G02*
X68800000Y-58875000I0J-100000D01*
G01*
X68800000Y-60375000D01*
G75*
G02*
X68700000Y-60475000I-100000J0D01*
G01*
G37*
G36*
G01*
X68200000Y-60475000D02*
X68000000Y-60475000D01*
G75*
G02*
X67900000Y-60375000I0J100000D01*
G01*
X67900000Y-58875000D01*
G75*
G02*
X68000000Y-58775000I100000J0D01*
G01*
X68200000Y-58775000D01*
G75*
G02*
X68300000Y-58875000I0J-100000D01*
G01*
X68300000Y-60375000D01*
G75*
G02*
X68200000Y-60475000I-100000J0D01*
G01*
G37*
G36*
G01*
X67700000Y-60475000D02*
X67500000Y-60475000D01*
G75*
G02*
X67400000Y-60375000I0J100000D01*
G01*
X67400000Y-58875000D01*
G75*
G02*
X67500000Y-58775000I100000J0D01*
G01*
X67700000Y-58775000D01*
G75*
G02*
X67800000Y-58875000I0J-100000D01*
G01*
X67800000Y-60375000D01*
G75*
G02*
X67700000Y-60475000I-100000J0D01*
G01*
G37*
G36*
G01*
X67200000Y-60475000D02*
X67000000Y-60475000D01*
G75*
G02*
X66900000Y-60375000I0J100000D01*
G01*
X66900000Y-58875000D01*
G75*
G02*
X67000000Y-58775000I100000J0D01*
G01*
X67200000Y-58775000D01*
G75*
G02*
X67300000Y-58875000I0J-100000D01*
G01*
X67300000Y-60375000D01*
G75*
G02*
X67200000Y-60475000I-100000J0D01*
G01*
G37*
G36*
G01*
X66700000Y-60475000D02*
X66500000Y-60475000D01*
G75*
G02*
X66400000Y-60375000I0J100000D01*
G01*
X66400000Y-58875000D01*
G75*
G02*
X66500000Y-58775000I100000J0D01*
G01*
X66700000Y-58775000D01*
G75*
G02*
X66800000Y-58875000I0J-100000D01*
G01*
X66800000Y-60375000D01*
G75*
G02*
X66700000Y-60475000I-100000J0D01*
G01*
G37*
G36*
G01*
X65675000Y-61500000D02*
X64175000Y-61500000D01*
G75*
G02*
X64075000Y-61400000I0J100000D01*
G01*
X64075000Y-61200000D01*
G75*
G02*
X64175000Y-61100000I100000J0D01*
G01*
X65675000Y-61100000D01*
G75*
G02*
X65775000Y-61200000I0J-100000D01*
G01*
X65775000Y-61400000D01*
G75*
G02*
X65675000Y-61500000I-100000J0D01*
G01*
G37*
G36*
G01*
X65675000Y-62000000D02*
X64175000Y-62000000D01*
G75*
G02*
X64075000Y-61900000I0J100000D01*
G01*
X64075000Y-61700000D01*
G75*
G02*
X64175000Y-61600000I100000J0D01*
G01*
X65675000Y-61600000D01*
G75*
G02*
X65775000Y-61700000I0J-100000D01*
G01*
X65775000Y-61900000D01*
G75*
G02*
X65675000Y-62000000I-100000J0D01*
G01*
G37*
G36*
G01*
X65675000Y-62500000D02*
X64175000Y-62500000D01*
G75*
G02*
X64075000Y-62400000I0J100000D01*
G01*
X64075000Y-62200000D01*
G75*
G02*
X64175000Y-62100000I100000J0D01*
G01*
X65675000Y-62100000D01*
G75*
G02*
X65775000Y-62200000I0J-100000D01*
G01*
X65775000Y-62400000D01*
G75*
G02*
X65675000Y-62500000I-100000J0D01*
G01*
G37*
G36*
G01*
X65675000Y-63000000D02*
X64175000Y-63000000D01*
G75*
G02*
X64075000Y-62900000I0J100000D01*
G01*
X64075000Y-62700000D01*
G75*
G02*
X64175000Y-62600000I100000J0D01*
G01*
X65675000Y-62600000D01*
G75*
G02*
X65775000Y-62700000I0J-100000D01*
G01*
X65775000Y-62900000D01*
G75*
G02*
X65675000Y-63000000I-100000J0D01*
G01*
G37*
G36*
G01*
X65675000Y-63500000D02*
X64175000Y-63500000D01*
G75*
G02*
X64075000Y-63400000I0J100000D01*
G01*
X64075000Y-63200000D01*
G75*
G02*
X64175000Y-63100000I100000J0D01*
G01*
X65675000Y-63100000D01*
G75*
G02*
X65775000Y-63200000I0J-100000D01*
G01*
X65775000Y-63400000D01*
G75*
G02*
X65675000Y-63500000I-100000J0D01*
G01*
G37*
G36*
G01*
X65675000Y-64000000D02*
X64175000Y-64000000D01*
G75*
G02*
X64075000Y-63900000I0J100000D01*
G01*
X64075000Y-63700000D01*
G75*
G02*
X64175000Y-63600000I100000J0D01*
G01*
X65675000Y-63600000D01*
G75*
G02*
X65775000Y-63700000I0J-100000D01*
G01*
X65775000Y-63900000D01*
G75*
G02*
X65675000Y-64000000I-100000J0D01*
G01*
G37*
G36*
G01*
X65675000Y-64500000D02*
X64175000Y-64500000D01*
G75*
G02*
X64075000Y-64400000I0J100000D01*
G01*
X64075000Y-64200000D01*
G75*
G02*
X64175000Y-64100000I100000J0D01*
G01*
X65675000Y-64100000D01*
G75*
G02*
X65775000Y-64200000I0J-100000D01*
G01*
X65775000Y-64400000D01*
G75*
G02*
X65675000Y-64500000I-100000J0D01*
G01*
G37*
G36*
G01*
X65675000Y-65000000D02*
X64175000Y-65000000D01*
G75*
G02*
X64075000Y-64900000I0J100000D01*
G01*
X64075000Y-64700000D01*
G75*
G02*
X64175000Y-64600000I100000J0D01*
G01*
X65675000Y-64600000D01*
G75*
G02*
X65775000Y-64700000I0J-100000D01*
G01*
X65775000Y-64900000D01*
G75*
G02*
X65675000Y-65000000I-100000J0D01*
G01*
G37*
G36*
G01*
X65675000Y-65500000D02*
X64175000Y-65500000D01*
G75*
G02*
X64075000Y-65400000I0J100000D01*
G01*
X64075000Y-65200000D01*
G75*
G02*
X64175000Y-65100000I100000J0D01*
G01*
X65675000Y-65100000D01*
G75*
G02*
X65775000Y-65200000I0J-100000D01*
G01*
X65775000Y-65400000D01*
G75*
G02*
X65675000Y-65500000I-100000J0D01*
G01*
G37*
G36*
G01*
X65675000Y-66000000D02*
X64175000Y-66000000D01*
G75*
G02*
X64075000Y-65900000I0J100000D01*
G01*
X64075000Y-65700000D01*
G75*
G02*
X64175000Y-65600000I100000J0D01*
G01*
X65675000Y-65600000D01*
G75*
G02*
X65775000Y-65700000I0J-100000D01*
G01*
X65775000Y-65900000D01*
G75*
G02*
X65675000Y-66000000I-100000J0D01*
G01*
G37*
G36*
G01*
X65675000Y-66500000D02*
X64175000Y-66500000D01*
G75*
G02*
X64075000Y-66400000I0J100000D01*
G01*
X64075000Y-66200000D01*
G75*
G02*
X64175000Y-66100000I100000J0D01*
G01*
X65675000Y-66100000D01*
G75*
G02*
X65775000Y-66200000I0J-100000D01*
G01*
X65775000Y-66400000D01*
G75*
G02*
X65675000Y-66500000I-100000J0D01*
G01*
G37*
G36*
G01*
X65675000Y-67000000D02*
X64175000Y-67000000D01*
G75*
G02*
X64075000Y-66900000I0J100000D01*
G01*
X64075000Y-66700000D01*
G75*
G02*
X64175000Y-66600000I100000J0D01*
G01*
X65675000Y-66600000D01*
G75*
G02*
X65775000Y-66700000I0J-100000D01*
G01*
X65775000Y-66900000D01*
G75*
G02*
X65675000Y-67000000I-100000J0D01*
G01*
G37*
G36*
G01*
X65675000Y-67500000D02*
X64175000Y-67500000D01*
G75*
G02*
X64075000Y-67400000I0J100000D01*
G01*
X64075000Y-67200000D01*
G75*
G02*
X64175000Y-67100000I100000J0D01*
G01*
X65675000Y-67100000D01*
G75*
G02*
X65775000Y-67200000I0J-100000D01*
G01*
X65775000Y-67400000D01*
G75*
G02*
X65675000Y-67500000I-100000J0D01*
G01*
G37*
G36*
G01*
X65675000Y-68000000D02*
X64175000Y-68000000D01*
G75*
G02*
X64075000Y-67900000I0J100000D01*
G01*
X64075000Y-67700000D01*
G75*
G02*
X64175000Y-67600000I100000J0D01*
G01*
X65675000Y-67600000D01*
G75*
G02*
X65775000Y-67700000I0J-100000D01*
G01*
X65775000Y-67900000D01*
G75*
G02*
X65675000Y-68000000I-100000J0D01*
G01*
G37*
G36*
G01*
X65675000Y-68500000D02*
X64175000Y-68500000D01*
G75*
G02*
X64075000Y-68400000I0J100000D01*
G01*
X64075000Y-68200000D01*
G75*
G02*
X64175000Y-68100000I100000J0D01*
G01*
X65675000Y-68100000D01*
G75*
G02*
X65775000Y-68200000I0J-100000D01*
G01*
X65775000Y-68400000D01*
G75*
G02*
X65675000Y-68500000I-100000J0D01*
G01*
G37*
G36*
G01*
X65675000Y-69000000D02*
X64175000Y-69000000D01*
G75*
G02*
X64075000Y-68900000I0J100000D01*
G01*
X64075000Y-68700000D01*
G75*
G02*
X64175000Y-68600000I100000J0D01*
G01*
X65675000Y-68600000D01*
G75*
G02*
X65775000Y-68700000I0J-100000D01*
G01*
X65775000Y-68900000D01*
G75*
G02*
X65675000Y-69000000I-100000J0D01*
G01*
G37*
G36*
G01*
X65675000Y-69500000D02*
X64175000Y-69500000D01*
G75*
G02*
X64075000Y-69400000I0J100000D01*
G01*
X64075000Y-69200000D01*
G75*
G02*
X64175000Y-69100000I100000J0D01*
G01*
X65675000Y-69100000D01*
G75*
G02*
X65775000Y-69200000I0J-100000D01*
G01*
X65775000Y-69400000D01*
G75*
G02*
X65675000Y-69500000I-100000J0D01*
G01*
G37*
G36*
G01*
X65675000Y-70000000D02*
X64175000Y-70000000D01*
G75*
G02*
X64075000Y-69900000I0J100000D01*
G01*
X64075000Y-69700000D01*
G75*
G02*
X64175000Y-69600000I100000J0D01*
G01*
X65675000Y-69600000D01*
G75*
G02*
X65775000Y-69700000I0J-100000D01*
G01*
X65775000Y-69900000D01*
G75*
G02*
X65675000Y-70000000I-100000J0D01*
G01*
G37*
G36*
G01*
X65675000Y-70500000D02*
X64175000Y-70500000D01*
G75*
G02*
X64075000Y-70400000I0J100000D01*
G01*
X64075000Y-70200000D01*
G75*
G02*
X64175000Y-70100000I100000J0D01*
G01*
X65675000Y-70100000D01*
G75*
G02*
X65775000Y-70200000I0J-100000D01*
G01*
X65775000Y-70400000D01*
G75*
G02*
X65675000Y-70500000I-100000J0D01*
G01*
G37*
G36*
G01*
X65675000Y-71000000D02*
X64175000Y-71000000D01*
G75*
G02*
X64075000Y-70900000I0J100000D01*
G01*
X64075000Y-70700000D01*
G75*
G02*
X64175000Y-70600000I100000J0D01*
G01*
X65675000Y-70600000D01*
G75*
G02*
X65775000Y-70700000I0J-100000D01*
G01*
X65775000Y-70900000D01*
G75*
G02*
X65675000Y-71000000I-100000J0D01*
G01*
G37*
G36*
G01*
X65675000Y-71500000D02*
X64175000Y-71500000D01*
G75*
G02*
X64075000Y-71400000I0J100000D01*
G01*
X64075000Y-71200000D01*
G75*
G02*
X64175000Y-71100000I100000J0D01*
G01*
X65675000Y-71100000D01*
G75*
G02*
X65775000Y-71200000I0J-100000D01*
G01*
X65775000Y-71400000D01*
G75*
G02*
X65675000Y-71500000I-100000J0D01*
G01*
G37*
G36*
G01*
X65675000Y-72000000D02*
X64175000Y-72000000D01*
G75*
G02*
X64075000Y-71900000I0J100000D01*
G01*
X64075000Y-71700000D01*
G75*
G02*
X64175000Y-71600000I100000J0D01*
G01*
X65675000Y-71600000D01*
G75*
G02*
X65775000Y-71700000I0J-100000D01*
G01*
X65775000Y-71900000D01*
G75*
G02*
X65675000Y-72000000I-100000J0D01*
G01*
G37*
G36*
G01*
X65675000Y-72500000D02*
X64175000Y-72500000D01*
G75*
G02*
X64075000Y-72400000I0J100000D01*
G01*
X64075000Y-72200000D01*
G75*
G02*
X64175000Y-72100000I100000J0D01*
G01*
X65675000Y-72100000D01*
G75*
G02*
X65775000Y-72200000I0J-100000D01*
G01*
X65775000Y-72400000D01*
G75*
G02*
X65675000Y-72500000I-100000J0D01*
G01*
G37*
G36*
G01*
X65675000Y-73000000D02*
X64175000Y-73000000D01*
G75*
G02*
X64075000Y-72900000I0J100000D01*
G01*
X64075000Y-72700000D01*
G75*
G02*
X64175000Y-72600000I100000J0D01*
G01*
X65675000Y-72600000D01*
G75*
G02*
X65775000Y-72700000I0J-100000D01*
G01*
X65775000Y-72900000D01*
G75*
G02*
X65675000Y-73000000I-100000J0D01*
G01*
G37*
G36*
G01*
X65675000Y-73500000D02*
X64175000Y-73500000D01*
G75*
G02*
X64075000Y-73400000I0J100000D01*
G01*
X64075000Y-73200000D01*
G75*
G02*
X64175000Y-73100000I100000J0D01*
G01*
X65675000Y-73100000D01*
G75*
G02*
X65775000Y-73200000I0J-100000D01*
G01*
X65775000Y-73400000D01*
G75*
G02*
X65675000Y-73500000I-100000J0D01*
G01*
G37*
%TD*%
D11*
%TO.C,U7*%
X95340000Y-106700000D03*
X92800000Y-106700000D03*
X95340000Y-104160000D03*
X92800000Y-104160000D03*
X95340000Y-101620000D03*
X92800000Y-101620000D03*
X95340000Y-99080000D03*
X92800000Y-99080000D03*
X95340000Y-96540000D03*
X92800000Y-96540000D03*
X95340000Y-94000000D03*
X92800000Y-94000000D03*
X95340000Y-91460000D03*
X92800000Y-91460000D03*
X95340000Y-88920000D03*
X92800000Y-88920000D03*
X95340000Y-86380000D03*
X92800000Y-86380000D03*
X95340000Y-83840000D03*
X92800000Y-83840000D03*
X95340000Y-81300000D03*
X92800000Y-81300000D03*
X95340000Y-78760000D03*
X92800000Y-78760000D03*
X95340000Y-76220000D03*
X92800000Y-76220000D03*
X95340000Y-73680000D03*
X92800000Y-73680000D03*
X95340000Y-71140000D03*
X92800000Y-71140000D03*
X95340000Y-68600000D03*
X92800000Y-68600000D03*
X95340000Y-66060000D03*
X92800000Y-66060000D03*
X95340000Y-63520000D03*
X92800000Y-63520000D03*
X95340000Y-60980000D03*
X92800000Y-60980000D03*
X95340000Y-58440000D03*
X92800000Y-58440000D03*
X95340000Y-55900000D03*
X92800000Y-55900000D03*
X95340000Y-53360000D03*
X92800000Y-53360000D03*
X95340000Y-50820000D03*
X92800000Y-50820000D03*
X95340000Y-48280000D03*
X92800000Y-48280000D03*
X95340000Y-45740000D03*
X92800000Y-45740000D03*
X95340000Y-43200000D03*
X92800000Y-43200000D03*
X95340000Y-40660000D03*
X92800000Y-40660000D03*
X95340000Y-38120000D03*
X92800000Y-38120000D03*
X95340000Y-35580000D03*
X92800000Y-35580000D03*
X95340000Y-33040000D03*
X92800000Y-33040000D03*
X95340000Y-30500000D03*
X92800000Y-30500000D03*
X95340000Y-27960000D03*
D10*
X92800000Y-27960000D03*
%TD*%
%TO.C,U5*%
G36*
G01*
X55000000Y-53950000D02*
X55000000Y-54200000D01*
G75*
G02*
X54875000Y-54325000I-125000J0D01*
G01*
X53550000Y-54325000D01*
G75*
G02*
X53425000Y-54200000I0J125000D01*
G01*
X53425000Y-53950000D01*
G75*
G02*
X53550000Y-53825000I125000J0D01*
G01*
X54875000Y-53825000D01*
G75*
G02*
X55000000Y-53950000I0J-125000D01*
G01*
G37*
G36*
G01*
X55000000Y-53300000D02*
X55000000Y-53550000D01*
G75*
G02*
X54875000Y-53675000I-125000J0D01*
G01*
X53550000Y-53675000D01*
G75*
G02*
X53425000Y-53550000I0J125000D01*
G01*
X53425000Y-53300000D01*
G75*
G02*
X53550000Y-53175000I125000J0D01*
G01*
X54875000Y-53175000D01*
G75*
G02*
X55000000Y-53300000I0J-125000D01*
G01*
G37*
G36*
G01*
X55000000Y-52650000D02*
X55000000Y-52900000D01*
G75*
G02*
X54875000Y-53025000I-125000J0D01*
G01*
X53550000Y-53025000D01*
G75*
G02*
X53425000Y-52900000I0J125000D01*
G01*
X53425000Y-52650000D01*
G75*
G02*
X53550000Y-52525000I125000J0D01*
G01*
X54875000Y-52525000D01*
G75*
G02*
X55000000Y-52650000I0J-125000D01*
G01*
G37*
G36*
G01*
X55000000Y-52000000D02*
X55000000Y-52250000D01*
G75*
G02*
X54875000Y-52375000I-125000J0D01*
G01*
X53550000Y-52375000D01*
G75*
G02*
X53425000Y-52250000I0J125000D01*
G01*
X53425000Y-52000000D01*
G75*
G02*
X53550000Y-51875000I125000J0D01*
G01*
X54875000Y-51875000D01*
G75*
G02*
X55000000Y-52000000I0J-125000D01*
G01*
G37*
G36*
G01*
X55000000Y-51350000D02*
X55000000Y-51600000D01*
G75*
G02*
X54875000Y-51725000I-125000J0D01*
G01*
X53550000Y-51725000D01*
G75*
G02*
X53425000Y-51600000I0J125000D01*
G01*
X53425000Y-51350000D01*
G75*
G02*
X53550000Y-51225000I125000J0D01*
G01*
X54875000Y-51225000D01*
G75*
G02*
X55000000Y-51350000I0J-125000D01*
G01*
G37*
G36*
G01*
X55000000Y-50700000D02*
X55000000Y-50950000D01*
G75*
G02*
X54875000Y-51075000I-125000J0D01*
G01*
X53550000Y-51075000D01*
G75*
G02*
X53425000Y-50950000I0J125000D01*
G01*
X53425000Y-50700000D01*
G75*
G02*
X53550000Y-50575000I125000J0D01*
G01*
X54875000Y-50575000D01*
G75*
G02*
X55000000Y-50700000I0J-125000D01*
G01*
G37*
G36*
G01*
X55000000Y-50050000D02*
X55000000Y-50300000D01*
G75*
G02*
X54875000Y-50425000I-125000J0D01*
G01*
X53550000Y-50425000D01*
G75*
G02*
X53425000Y-50300000I0J125000D01*
G01*
X53425000Y-50050000D01*
G75*
G02*
X53550000Y-49925000I125000J0D01*
G01*
X54875000Y-49925000D01*
G75*
G02*
X55000000Y-50050000I0J-125000D01*
G01*
G37*
G36*
G01*
X55000000Y-49400000D02*
X55000000Y-49650000D01*
G75*
G02*
X54875000Y-49775000I-125000J0D01*
G01*
X53550000Y-49775000D01*
G75*
G02*
X53425000Y-49650000I0J125000D01*
G01*
X53425000Y-49400000D01*
G75*
G02*
X53550000Y-49275000I125000J0D01*
G01*
X54875000Y-49275000D01*
G75*
G02*
X55000000Y-49400000I0J-125000D01*
G01*
G37*
G36*
G01*
X55000000Y-48750000D02*
X55000000Y-49000000D01*
G75*
G02*
X54875000Y-49125000I-125000J0D01*
G01*
X53550000Y-49125000D01*
G75*
G02*
X53425000Y-49000000I0J125000D01*
G01*
X53425000Y-48750000D01*
G75*
G02*
X53550000Y-48625000I125000J0D01*
G01*
X54875000Y-48625000D01*
G75*
G02*
X55000000Y-48750000I0J-125000D01*
G01*
G37*
G36*
G01*
X55000000Y-48100000D02*
X55000000Y-48350000D01*
G75*
G02*
X54875000Y-48475000I-125000J0D01*
G01*
X53550000Y-48475000D01*
G75*
G02*
X53425000Y-48350000I0J125000D01*
G01*
X53425000Y-48100000D01*
G75*
G02*
X53550000Y-47975000I125000J0D01*
G01*
X54875000Y-47975000D01*
G75*
G02*
X55000000Y-48100000I0J-125000D01*
G01*
G37*
G36*
G01*
X55000000Y-47450000D02*
X55000000Y-47700000D01*
G75*
G02*
X54875000Y-47825000I-125000J0D01*
G01*
X53550000Y-47825000D01*
G75*
G02*
X53425000Y-47700000I0J125000D01*
G01*
X53425000Y-47450000D01*
G75*
G02*
X53550000Y-47325000I125000J0D01*
G01*
X54875000Y-47325000D01*
G75*
G02*
X55000000Y-47450000I0J-125000D01*
G01*
G37*
G36*
G01*
X55000000Y-46800000D02*
X55000000Y-47050000D01*
G75*
G02*
X54875000Y-47175000I-125000J0D01*
G01*
X53550000Y-47175000D01*
G75*
G02*
X53425000Y-47050000I0J125000D01*
G01*
X53425000Y-46800000D01*
G75*
G02*
X53550000Y-46675000I125000J0D01*
G01*
X54875000Y-46675000D01*
G75*
G02*
X55000000Y-46800000I0J-125000D01*
G01*
G37*
G36*
G01*
X49275000Y-46800000D02*
X49275000Y-47050000D01*
G75*
G02*
X49150000Y-47175000I-125000J0D01*
G01*
X47825000Y-47175000D01*
G75*
G02*
X47700000Y-47050000I0J125000D01*
G01*
X47700000Y-46800000D01*
G75*
G02*
X47825000Y-46675000I125000J0D01*
G01*
X49150000Y-46675000D01*
G75*
G02*
X49275000Y-46800000I0J-125000D01*
G01*
G37*
G36*
G01*
X49275000Y-47450000D02*
X49275000Y-47700000D01*
G75*
G02*
X49150000Y-47825000I-125000J0D01*
G01*
X47825000Y-47825000D01*
G75*
G02*
X47700000Y-47700000I0J125000D01*
G01*
X47700000Y-47450000D01*
G75*
G02*
X47825000Y-47325000I125000J0D01*
G01*
X49150000Y-47325000D01*
G75*
G02*
X49275000Y-47450000I0J-125000D01*
G01*
G37*
G36*
G01*
X49275000Y-48100000D02*
X49275000Y-48350000D01*
G75*
G02*
X49150000Y-48475000I-125000J0D01*
G01*
X47825000Y-48475000D01*
G75*
G02*
X47700000Y-48350000I0J125000D01*
G01*
X47700000Y-48100000D01*
G75*
G02*
X47825000Y-47975000I125000J0D01*
G01*
X49150000Y-47975000D01*
G75*
G02*
X49275000Y-48100000I0J-125000D01*
G01*
G37*
G36*
G01*
X49275000Y-48750000D02*
X49275000Y-49000000D01*
G75*
G02*
X49150000Y-49125000I-125000J0D01*
G01*
X47825000Y-49125000D01*
G75*
G02*
X47700000Y-49000000I0J125000D01*
G01*
X47700000Y-48750000D01*
G75*
G02*
X47825000Y-48625000I125000J0D01*
G01*
X49150000Y-48625000D01*
G75*
G02*
X49275000Y-48750000I0J-125000D01*
G01*
G37*
G36*
G01*
X49275000Y-49400000D02*
X49275000Y-49650000D01*
G75*
G02*
X49150000Y-49775000I-125000J0D01*
G01*
X47825000Y-49775000D01*
G75*
G02*
X47700000Y-49650000I0J125000D01*
G01*
X47700000Y-49400000D01*
G75*
G02*
X47825000Y-49275000I125000J0D01*
G01*
X49150000Y-49275000D01*
G75*
G02*
X49275000Y-49400000I0J-125000D01*
G01*
G37*
G36*
G01*
X49275000Y-50050000D02*
X49275000Y-50300000D01*
G75*
G02*
X49150000Y-50425000I-125000J0D01*
G01*
X47825000Y-50425000D01*
G75*
G02*
X47700000Y-50300000I0J125000D01*
G01*
X47700000Y-50050000D01*
G75*
G02*
X47825000Y-49925000I125000J0D01*
G01*
X49150000Y-49925000D01*
G75*
G02*
X49275000Y-50050000I0J-125000D01*
G01*
G37*
G36*
G01*
X49275000Y-50700000D02*
X49275000Y-50950000D01*
G75*
G02*
X49150000Y-51075000I-125000J0D01*
G01*
X47825000Y-51075000D01*
G75*
G02*
X47700000Y-50950000I0J125000D01*
G01*
X47700000Y-50700000D01*
G75*
G02*
X47825000Y-50575000I125000J0D01*
G01*
X49150000Y-50575000D01*
G75*
G02*
X49275000Y-50700000I0J-125000D01*
G01*
G37*
G36*
G01*
X49275000Y-51350000D02*
X49275000Y-51600000D01*
G75*
G02*
X49150000Y-51725000I-125000J0D01*
G01*
X47825000Y-51725000D01*
G75*
G02*
X47700000Y-51600000I0J125000D01*
G01*
X47700000Y-51350000D01*
G75*
G02*
X47825000Y-51225000I125000J0D01*
G01*
X49150000Y-51225000D01*
G75*
G02*
X49275000Y-51350000I0J-125000D01*
G01*
G37*
G36*
G01*
X49275000Y-52000000D02*
X49275000Y-52250000D01*
G75*
G02*
X49150000Y-52375000I-125000J0D01*
G01*
X47825000Y-52375000D01*
G75*
G02*
X47700000Y-52250000I0J125000D01*
G01*
X47700000Y-52000000D01*
G75*
G02*
X47825000Y-51875000I125000J0D01*
G01*
X49150000Y-51875000D01*
G75*
G02*
X49275000Y-52000000I0J-125000D01*
G01*
G37*
G36*
G01*
X49275000Y-52650000D02*
X49275000Y-52900000D01*
G75*
G02*
X49150000Y-53025000I-125000J0D01*
G01*
X47825000Y-53025000D01*
G75*
G02*
X47700000Y-52900000I0J125000D01*
G01*
X47700000Y-52650000D01*
G75*
G02*
X47825000Y-52525000I125000J0D01*
G01*
X49150000Y-52525000D01*
G75*
G02*
X49275000Y-52650000I0J-125000D01*
G01*
G37*
G36*
G01*
X49275000Y-53300000D02*
X49275000Y-53550000D01*
G75*
G02*
X49150000Y-53675000I-125000J0D01*
G01*
X47825000Y-53675000D01*
G75*
G02*
X47700000Y-53550000I0J125000D01*
G01*
X47700000Y-53300000D01*
G75*
G02*
X47825000Y-53175000I125000J0D01*
G01*
X49150000Y-53175000D01*
G75*
G02*
X49275000Y-53300000I0J-125000D01*
G01*
G37*
G36*
G01*
X49275000Y-53950000D02*
X49275000Y-54200000D01*
G75*
G02*
X49150000Y-54325000I-125000J0D01*
G01*
X47825000Y-54325000D01*
G75*
G02*
X47700000Y-54200000I0J125000D01*
G01*
X47700000Y-53950000D01*
G75*
G02*
X47825000Y-53825000I125000J0D01*
G01*
X49150000Y-53825000D01*
G75*
G02*
X49275000Y-53950000I0J-125000D01*
G01*
G37*
%TD*%
%TO.C,U6*%
G36*
G01*
X54950000Y-64100000D02*
X54950000Y-64350000D01*
G75*
G02*
X54825000Y-64475000I-125000J0D01*
G01*
X53500000Y-64475000D01*
G75*
G02*
X53375000Y-64350000I0J125000D01*
G01*
X53375000Y-64100000D01*
G75*
G02*
X53500000Y-63975000I125000J0D01*
G01*
X54825000Y-63975000D01*
G75*
G02*
X54950000Y-64100000I0J-125000D01*
G01*
G37*
G36*
G01*
X54950000Y-63450000D02*
X54950000Y-63700000D01*
G75*
G02*
X54825000Y-63825000I-125000J0D01*
G01*
X53500000Y-63825000D01*
G75*
G02*
X53375000Y-63700000I0J125000D01*
G01*
X53375000Y-63450000D01*
G75*
G02*
X53500000Y-63325000I125000J0D01*
G01*
X54825000Y-63325000D01*
G75*
G02*
X54950000Y-63450000I0J-125000D01*
G01*
G37*
G36*
G01*
X54950000Y-62800000D02*
X54950000Y-63050000D01*
G75*
G02*
X54825000Y-63175000I-125000J0D01*
G01*
X53500000Y-63175000D01*
G75*
G02*
X53375000Y-63050000I0J125000D01*
G01*
X53375000Y-62800000D01*
G75*
G02*
X53500000Y-62675000I125000J0D01*
G01*
X54825000Y-62675000D01*
G75*
G02*
X54950000Y-62800000I0J-125000D01*
G01*
G37*
G36*
G01*
X54950000Y-62150000D02*
X54950000Y-62400000D01*
G75*
G02*
X54825000Y-62525000I-125000J0D01*
G01*
X53500000Y-62525000D01*
G75*
G02*
X53375000Y-62400000I0J125000D01*
G01*
X53375000Y-62150000D01*
G75*
G02*
X53500000Y-62025000I125000J0D01*
G01*
X54825000Y-62025000D01*
G75*
G02*
X54950000Y-62150000I0J-125000D01*
G01*
G37*
G36*
G01*
X54950000Y-61500000D02*
X54950000Y-61750000D01*
G75*
G02*
X54825000Y-61875000I-125000J0D01*
G01*
X53500000Y-61875000D01*
G75*
G02*
X53375000Y-61750000I0J125000D01*
G01*
X53375000Y-61500000D01*
G75*
G02*
X53500000Y-61375000I125000J0D01*
G01*
X54825000Y-61375000D01*
G75*
G02*
X54950000Y-61500000I0J-125000D01*
G01*
G37*
G36*
G01*
X54950000Y-60850000D02*
X54950000Y-61100000D01*
G75*
G02*
X54825000Y-61225000I-125000J0D01*
G01*
X53500000Y-61225000D01*
G75*
G02*
X53375000Y-61100000I0J125000D01*
G01*
X53375000Y-60850000D01*
G75*
G02*
X53500000Y-60725000I125000J0D01*
G01*
X54825000Y-60725000D01*
G75*
G02*
X54950000Y-60850000I0J-125000D01*
G01*
G37*
G36*
G01*
X54950000Y-60200000D02*
X54950000Y-60450000D01*
G75*
G02*
X54825000Y-60575000I-125000J0D01*
G01*
X53500000Y-60575000D01*
G75*
G02*
X53375000Y-60450000I0J125000D01*
G01*
X53375000Y-60200000D01*
G75*
G02*
X53500000Y-60075000I125000J0D01*
G01*
X54825000Y-60075000D01*
G75*
G02*
X54950000Y-60200000I0J-125000D01*
G01*
G37*
G36*
G01*
X54950000Y-59550000D02*
X54950000Y-59800000D01*
G75*
G02*
X54825000Y-59925000I-125000J0D01*
G01*
X53500000Y-59925000D01*
G75*
G02*
X53375000Y-59800000I0J125000D01*
G01*
X53375000Y-59550000D01*
G75*
G02*
X53500000Y-59425000I125000J0D01*
G01*
X54825000Y-59425000D01*
G75*
G02*
X54950000Y-59550000I0J-125000D01*
G01*
G37*
G36*
G01*
X54950000Y-58900000D02*
X54950000Y-59150000D01*
G75*
G02*
X54825000Y-59275000I-125000J0D01*
G01*
X53500000Y-59275000D01*
G75*
G02*
X53375000Y-59150000I0J125000D01*
G01*
X53375000Y-58900000D01*
G75*
G02*
X53500000Y-58775000I125000J0D01*
G01*
X54825000Y-58775000D01*
G75*
G02*
X54950000Y-58900000I0J-125000D01*
G01*
G37*
G36*
G01*
X54950000Y-58250000D02*
X54950000Y-58500000D01*
G75*
G02*
X54825000Y-58625000I-125000J0D01*
G01*
X53500000Y-58625000D01*
G75*
G02*
X53375000Y-58500000I0J125000D01*
G01*
X53375000Y-58250000D01*
G75*
G02*
X53500000Y-58125000I125000J0D01*
G01*
X54825000Y-58125000D01*
G75*
G02*
X54950000Y-58250000I0J-125000D01*
G01*
G37*
G36*
G01*
X54950000Y-57600000D02*
X54950000Y-57850000D01*
G75*
G02*
X54825000Y-57975000I-125000J0D01*
G01*
X53500000Y-57975000D01*
G75*
G02*
X53375000Y-57850000I0J125000D01*
G01*
X53375000Y-57600000D01*
G75*
G02*
X53500000Y-57475000I125000J0D01*
G01*
X54825000Y-57475000D01*
G75*
G02*
X54950000Y-57600000I0J-125000D01*
G01*
G37*
G36*
G01*
X54950000Y-56950000D02*
X54950000Y-57200000D01*
G75*
G02*
X54825000Y-57325000I-125000J0D01*
G01*
X53500000Y-57325000D01*
G75*
G02*
X53375000Y-57200000I0J125000D01*
G01*
X53375000Y-56950000D01*
G75*
G02*
X53500000Y-56825000I125000J0D01*
G01*
X54825000Y-56825000D01*
G75*
G02*
X54950000Y-56950000I0J-125000D01*
G01*
G37*
G36*
G01*
X49225000Y-56950000D02*
X49225000Y-57200000D01*
G75*
G02*
X49100000Y-57325000I-125000J0D01*
G01*
X47775000Y-57325000D01*
G75*
G02*
X47650000Y-57200000I0J125000D01*
G01*
X47650000Y-56950000D01*
G75*
G02*
X47775000Y-56825000I125000J0D01*
G01*
X49100000Y-56825000D01*
G75*
G02*
X49225000Y-56950000I0J-125000D01*
G01*
G37*
G36*
G01*
X49225000Y-57600000D02*
X49225000Y-57850000D01*
G75*
G02*
X49100000Y-57975000I-125000J0D01*
G01*
X47775000Y-57975000D01*
G75*
G02*
X47650000Y-57850000I0J125000D01*
G01*
X47650000Y-57600000D01*
G75*
G02*
X47775000Y-57475000I125000J0D01*
G01*
X49100000Y-57475000D01*
G75*
G02*
X49225000Y-57600000I0J-125000D01*
G01*
G37*
G36*
G01*
X49225000Y-58250000D02*
X49225000Y-58500000D01*
G75*
G02*
X49100000Y-58625000I-125000J0D01*
G01*
X47775000Y-58625000D01*
G75*
G02*
X47650000Y-58500000I0J125000D01*
G01*
X47650000Y-58250000D01*
G75*
G02*
X47775000Y-58125000I125000J0D01*
G01*
X49100000Y-58125000D01*
G75*
G02*
X49225000Y-58250000I0J-125000D01*
G01*
G37*
G36*
G01*
X49225000Y-58900000D02*
X49225000Y-59150000D01*
G75*
G02*
X49100000Y-59275000I-125000J0D01*
G01*
X47775000Y-59275000D01*
G75*
G02*
X47650000Y-59150000I0J125000D01*
G01*
X47650000Y-58900000D01*
G75*
G02*
X47775000Y-58775000I125000J0D01*
G01*
X49100000Y-58775000D01*
G75*
G02*
X49225000Y-58900000I0J-125000D01*
G01*
G37*
G36*
G01*
X49225000Y-59550000D02*
X49225000Y-59800000D01*
G75*
G02*
X49100000Y-59925000I-125000J0D01*
G01*
X47775000Y-59925000D01*
G75*
G02*
X47650000Y-59800000I0J125000D01*
G01*
X47650000Y-59550000D01*
G75*
G02*
X47775000Y-59425000I125000J0D01*
G01*
X49100000Y-59425000D01*
G75*
G02*
X49225000Y-59550000I0J-125000D01*
G01*
G37*
G36*
G01*
X49225000Y-60200000D02*
X49225000Y-60450000D01*
G75*
G02*
X49100000Y-60575000I-125000J0D01*
G01*
X47775000Y-60575000D01*
G75*
G02*
X47650000Y-60450000I0J125000D01*
G01*
X47650000Y-60200000D01*
G75*
G02*
X47775000Y-60075000I125000J0D01*
G01*
X49100000Y-60075000D01*
G75*
G02*
X49225000Y-60200000I0J-125000D01*
G01*
G37*
G36*
G01*
X49225000Y-60850000D02*
X49225000Y-61100000D01*
G75*
G02*
X49100000Y-61225000I-125000J0D01*
G01*
X47775000Y-61225000D01*
G75*
G02*
X47650000Y-61100000I0J125000D01*
G01*
X47650000Y-60850000D01*
G75*
G02*
X47775000Y-60725000I125000J0D01*
G01*
X49100000Y-60725000D01*
G75*
G02*
X49225000Y-60850000I0J-125000D01*
G01*
G37*
G36*
G01*
X49225000Y-61500000D02*
X49225000Y-61750000D01*
G75*
G02*
X49100000Y-61875000I-125000J0D01*
G01*
X47775000Y-61875000D01*
G75*
G02*
X47650000Y-61750000I0J125000D01*
G01*
X47650000Y-61500000D01*
G75*
G02*
X47775000Y-61375000I125000J0D01*
G01*
X49100000Y-61375000D01*
G75*
G02*
X49225000Y-61500000I0J-125000D01*
G01*
G37*
G36*
G01*
X49225000Y-62150000D02*
X49225000Y-62400000D01*
G75*
G02*
X49100000Y-62525000I-125000J0D01*
G01*
X47775000Y-62525000D01*
G75*
G02*
X47650000Y-62400000I0J125000D01*
G01*
X47650000Y-62150000D01*
G75*
G02*
X47775000Y-62025000I125000J0D01*
G01*
X49100000Y-62025000D01*
G75*
G02*
X49225000Y-62150000I0J-125000D01*
G01*
G37*
G36*
G01*
X49225000Y-62800000D02*
X49225000Y-63050000D01*
G75*
G02*
X49100000Y-63175000I-125000J0D01*
G01*
X47775000Y-63175000D01*
G75*
G02*
X47650000Y-63050000I0J125000D01*
G01*
X47650000Y-62800000D01*
G75*
G02*
X47775000Y-62675000I125000J0D01*
G01*
X49100000Y-62675000D01*
G75*
G02*
X49225000Y-62800000I0J-125000D01*
G01*
G37*
G36*
G01*
X49225000Y-63450000D02*
X49225000Y-63700000D01*
G75*
G02*
X49100000Y-63825000I-125000J0D01*
G01*
X47775000Y-63825000D01*
G75*
G02*
X47650000Y-63700000I0J125000D01*
G01*
X47650000Y-63450000D01*
G75*
G02*
X47775000Y-63325000I125000J0D01*
G01*
X49100000Y-63325000D01*
G75*
G02*
X49225000Y-63450000I0J-125000D01*
G01*
G37*
G36*
G01*
X49225000Y-64100000D02*
X49225000Y-64350000D01*
G75*
G02*
X49100000Y-64475000I-125000J0D01*
G01*
X47775000Y-64475000D01*
G75*
G02*
X47650000Y-64350000I0J125000D01*
G01*
X47650000Y-64100000D01*
G75*
G02*
X47775000Y-63975000I125000J0D01*
G01*
X49100000Y-63975000D01*
G75*
G02*
X49225000Y-64100000I0J-125000D01*
G01*
G37*
%TD*%
%TO.C,U9*%
G36*
G01*
X55000000Y-95900000D02*
X55000000Y-96150000D01*
G75*
G02*
X54875000Y-96275000I-125000J0D01*
G01*
X53550000Y-96275000D01*
G75*
G02*
X53425000Y-96150000I0J125000D01*
G01*
X53425000Y-95900000D01*
G75*
G02*
X53550000Y-95775000I125000J0D01*
G01*
X54875000Y-95775000D01*
G75*
G02*
X55000000Y-95900000I0J-125000D01*
G01*
G37*
G36*
G01*
X55000000Y-95250000D02*
X55000000Y-95500000D01*
G75*
G02*
X54875000Y-95625000I-125000J0D01*
G01*
X53550000Y-95625000D01*
G75*
G02*
X53425000Y-95500000I0J125000D01*
G01*
X53425000Y-95250000D01*
G75*
G02*
X53550000Y-95125000I125000J0D01*
G01*
X54875000Y-95125000D01*
G75*
G02*
X55000000Y-95250000I0J-125000D01*
G01*
G37*
G36*
G01*
X55000000Y-94600000D02*
X55000000Y-94850000D01*
G75*
G02*
X54875000Y-94975000I-125000J0D01*
G01*
X53550000Y-94975000D01*
G75*
G02*
X53425000Y-94850000I0J125000D01*
G01*
X53425000Y-94600000D01*
G75*
G02*
X53550000Y-94475000I125000J0D01*
G01*
X54875000Y-94475000D01*
G75*
G02*
X55000000Y-94600000I0J-125000D01*
G01*
G37*
G36*
G01*
X55000000Y-93950000D02*
X55000000Y-94200000D01*
G75*
G02*
X54875000Y-94325000I-125000J0D01*
G01*
X53550000Y-94325000D01*
G75*
G02*
X53425000Y-94200000I0J125000D01*
G01*
X53425000Y-93950000D01*
G75*
G02*
X53550000Y-93825000I125000J0D01*
G01*
X54875000Y-93825000D01*
G75*
G02*
X55000000Y-93950000I0J-125000D01*
G01*
G37*
G36*
G01*
X55000000Y-93300000D02*
X55000000Y-93550000D01*
G75*
G02*
X54875000Y-93675000I-125000J0D01*
G01*
X53550000Y-93675000D01*
G75*
G02*
X53425000Y-93550000I0J125000D01*
G01*
X53425000Y-93300000D01*
G75*
G02*
X53550000Y-93175000I125000J0D01*
G01*
X54875000Y-93175000D01*
G75*
G02*
X55000000Y-93300000I0J-125000D01*
G01*
G37*
G36*
G01*
X55000000Y-92650000D02*
X55000000Y-92900000D01*
G75*
G02*
X54875000Y-93025000I-125000J0D01*
G01*
X53550000Y-93025000D01*
G75*
G02*
X53425000Y-92900000I0J125000D01*
G01*
X53425000Y-92650000D01*
G75*
G02*
X53550000Y-92525000I125000J0D01*
G01*
X54875000Y-92525000D01*
G75*
G02*
X55000000Y-92650000I0J-125000D01*
G01*
G37*
G36*
G01*
X55000000Y-92000000D02*
X55000000Y-92250000D01*
G75*
G02*
X54875000Y-92375000I-125000J0D01*
G01*
X53550000Y-92375000D01*
G75*
G02*
X53425000Y-92250000I0J125000D01*
G01*
X53425000Y-92000000D01*
G75*
G02*
X53550000Y-91875000I125000J0D01*
G01*
X54875000Y-91875000D01*
G75*
G02*
X55000000Y-92000000I0J-125000D01*
G01*
G37*
G36*
G01*
X55000000Y-91350000D02*
X55000000Y-91600000D01*
G75*
G02*
X54875000Y-91725000I-125000J0D01*
G01*
X53550000Y-91725000D01*
G75*
G02*
X53425000Y-91600000I0J125000D01*
G01*
X53425000Y-91350000D01*
G75*
G02*
X53550000Y-91225000I125000J0D01*
G01*
X54875000Y-91225000D01*
G75*
G02*
X55000000Y-91350000I0J-125000D01*
G01*
G37*
G36*
G01*
X55000000Y-90700000D02*
X55000000Y-90950000D01*
G75*
G02*
X54875000Y-91075000I-125000J0D01*
G01*
X53550000Y-91075000D01*
G75*
G02*
X53425000Y-90950000I0J125000D01*
G01*
X53425000Y-90700000D01*
G75*
G02*
X53550000Y-90575000I125000J0D01*
G01*
X54875000Y-90575000D01*
G75*
G02*
X55000000Y-90700000I0J-125000D01*
G01*
G37*
G36*
G01*
X55000000Y-90050000D02*
X55000000Y-90300000D01*
G75*
G02*
X54875000Y-90425000I-125000J0D01*
G01*
X53550000Y-90425000D01*
G75*
G02*
X53425000Y-90300000I0J125000D01*
G01*
X53425000Y-90050000D01*
G75*
G02*
X53550000Y-89925000I125000J0D01*
G01*
X54875000Y-89925000D01*
G75*
G02*
X55000000Y-90050000I0J-125000D01*
G01*
G37*
G36*
G01*
X55000000Y-89400000D02*
X55000000Y-89650000D01*
G75*
G02*
X54875000Y-89775000I-125000J0D01*
G01*
X53550000Y-89775000D01*
G75*
G02*
X53425000Y-89650000I0J125000D01*
G01*
X53425000Y-89400000D01*
G75*
G02*
X53550000Y-89275000I125000J0D01*
G01*
X54875000Y-89275000D01*
G75*
G02*
X55000000Y-89400000I0J-125000D01*
G01*
G37*
G36*
G01*
X55000000Y-88750000D02*
X55000000Y-89000000D01*
G75*
G02*
X54875000Y-89125000I-125000J0D01*
G01*
X53550000Y-89125000D01*
G75*
G02*
X53425000Y-89000000I0J125000D01*
G01*
X53425000Y-88750000D01*
G75*
G02*
X53550000Y-88625000I125000J0D01*
G01*
X54875000Y-88625000D01*
G75*
G02*
X55000000Y-88750000I0J-125000D01*
G01*
G37*
G36*
G01*
X49275000Y-88750000D02*
X49275000Y-89000000D01*
G75*
G02*
X49150000Y-89125000I-125000J0D01*
G01*
X47825000Y-89125000D01*
G75*
G02*
X47700000Y-89000000I0J125000D01*
G01*
X47700000Y-88750000D01*
G75*
G02*
X47825000Y-88625000I125000J0D01*
G01*
X49150000Y-88625000D01*
G75*
G02*
X49275000Y-88750000I0J-125000D01*
G01*
G37*
G36*
G01*
X49275000Y-89400000D02*
X49275000Y-89650000D01*
G75*
G02*
X49150000Y-89775000I-125000J0D01*
G01*
X47825000Y-89775000D01*
G75*
G02*
X47700000Y-89650000I0J125000D01*
G01*
X47700000Y-89400000D01*
G75*
G02*
X47825000Y-89275000I125000J0D01*
G01*
X49150000Y-89275000D01*
G75*
G02*
X49275000Y-89400000I0J-125000D01*
G01*
G37*
G36*
G01*
X49275000Y-90050000D02*
X49275000Y-90300000D01*
G75*
G02*
X49150000Y-90425000I-125000J0D01*
G01*
X47825000Y-90425000D01*
G75*
G02*
X47700000Y-90300000I0J125000D01*
G01*
X47700000Y-90050000D01*
G75*
G02*
X47825000Y-89925000I125000J0D01*
G01*
X49150000Y-89925000D01*
G75*
G02*
X49275000Y-90050000I0J-125000D01*
G01*
G37*
G36*
G01*
X49275000Y-90700000D02*
X49275000Y-90950000D01*
G75*
G02*
X49150000Y-91075000I-125000J0D01*
G01*
X47825000Y-91075000D01*
G75*
G02*
X47700000Y-90950000I0J125000D01*
G01*
X47700000Y-90700000D01*
G75*
G02*
X47825000Y-90575000I125000J0D01*
G01*
X49150000Y-90575000D01*
G75*
G02*
X49275000Y-90700000I0J-125000D01*
G01*
G37*
G36*
G01*
X49275000Y-91350000D02*
X49275000Y-91600000D01*
G75*
G02*
X49150000Y-91725000I-125000J0D01*
G01*
X47825000Y-91725000D01*
G75*
G02*
X47700000Y-91600000I0J125000D01*
G01*
X47700000Y-91350000D01*
G75*
G02*
X47825000Y-91225000I125000J0D01*
G01*
X49150000Y-91225000D01*
G75*
G02*
X49275000Y-91350000I0J-125000D01*
G01*
G37*
G36*
G01*
X49275000Y-92000000D02*
X49275000Y-92250000D01*
G75*
G02*
X49150000Y-92375000I-125000J0D01*
G01*
X47825000Y-92375000D01*
G75*
G02*
X47700000Y-92250000I0J125000D01*
G01*
X47700000Y-92000000D01*
G75*
G02*
X47825000Y-91875000I125000J0D01*
G01*
X49150000Y-91875000D01*
G75*
G02*
X49275000Y-92000000I0J-125000D01*
G01*
G37*
G36*
G01*
X49275000Y-92650000D02*
X49275000Y-92900000D01*
G75*
G02*
X49150000Y-93025000I-125000J0D01*
G01*
X47825000Y-93025000D01*
G75*
G02*
X47700000Y-92900000I0J125000D01*
G01*
X47700000Y-92650000D01*
G75*
G02*
X47825000Y-92525000I125000J0D01*
G01*
X49150000Y-92525000D01*
G75*
G02*
X49275000Y-92650000I0J-125000D01*
G01*
G37*
G36*
G01*
X49275000Y-93300000D02*
X49275000Y-93550000D01*
G75*
G02*
X49150000Y-93675000I-125000J0D01*
G01*
X47825000Y-93675000D01*
G75*
G02*
X47700000Y-93550000I0J125000D01*
G01*
X47700000Y-93300000D01*
G75*
G02*
X47825000Y-93175000I125000J0D01*
G01*
X49150000Y-93175000D01*
G75*
G02*
X49275000Y-93300000I0J-125000D01*
G01*
G37*
G36*
G01*
X49275000Y-93950000D02*
X49275000Y-94200000D01*
G75*
G02*
X49150000Y-94325000I-125000J0D01*
G01*
X47825000Y-94325000D01*
G75*
G02*
X47700000Y-94200000I0J125000D01*
G01*
X47700000Y-93950000D01*
G75*
G02*
X47825000Y-93825000I125000J0D01*
G01*
X49150000Y-93825000D01*
G75*
G02*
X49275000Y-93950000I0J-125000D01*
G01*
G37*
G36*
G01*
X49275000Y-94600000D02*
X49275000Y-94850000D01*
G75*
G02*
X49150000Y-94975000I-125000J0D01*
G01*
X47825000Y-94975000D01*
G75*
G02*
X47700000Y-94850000I0J125000D01*
G01*
X47700000Y-94600000D01*
G75*
G02*
X47825000Y-94475000I125000J0D01*
G01*
X49150000Y-94475000D01*
G75*
G02*
X49275000Y-94600000I0J-125000D01*
G01*
G37*
G36*
G01*
X49275000Y-95250000D02*
X49275000Y-95500000D01*
G75*
G02*
X49150000Y-95625000I-125000J0D01*
G01*
X47825000Y-95625000D01*
G75*
G02*
X47700000Y-95500000I0J125000D01*
G01*
X47700000Y-95250000D01*
G75*
G02*
X47825000Y-95125000I125000J0D01*
G01*
X49150000Y-95125000D01*
G75*
G02*
X49275000Y-95250000I0J-125000D01*
G01*
G37*
G36*
G01*
X49275000Y-95900000D02*
X49275000Y-96150000D01*
G75*
G02*
X49150000Y-96275000I-125000J0D01*
G01*
X47825000Y-96275000D01*
G75*
G02*
X47700000Y-96150000I0J125000D01*
G01*
X47700000Y-95900000D01*
G75*
G02*
X47825000Y-95775000I125000J0D01*
G01*
X49150000Y-95775000D01*
G75*
G02*
X49275000Y-95900000I0J-125000D01*
G01*
G37*
%TD*%
%TO.C,U10*%
G36*
G01*
X49225000Y-81900000D02*
X49225000Y-82150000D01*
G75*
G02*
X49100000Y-82275000I-125000J0D01*
G01*
X47775000Y-82275000D01*
G75*
G02*
X47650000Y-82150000I0J125000D01*
G01*
X47650000Y-81900000D01*
G75*
G02*
X47775000Y-81775000I125000J0D01*
G01*
X49100000Y-81775000D01*
G75*
G02*
X49225000Y-81900000I0J-125000D01*
G01*
G37*
G36*
G01*
X49225000Y-81250000D02*
X49225000Y-81500000D01*
G75*
G02*
X49100000Y-81625000I-125000J0D01*
G01*
X47775000Y-81625000D01*
G75*
G02*
X47650000Y-81500000I0J125000D01*
G01*
X47650000Y-81250000D01*
G75*
G02*
X47775000Y-81125000I125000J0D01*
G01*
X49100000Y-81125000D01*
G75*
G02*
X49225000Y-81250000I0J-125000D01*
G01*
G37*
G36*
G01*
X49225000Y-80600000D02*
X49225000Y-80850000D01*
G75*
G02*
X49100000Y-80975000I-125000J0D01*
G01*
X47775000Y-80975000D01*
G75*
G02*
X47650000Y-80850000I0J125000D01*
G01*
X47650000Y-80600000D01*
G75*
G02*
X47775000Y-80475000I125000J0D01*
G01*
X49100000Y-80475000D01*
G75*
G02*
X49225000Y-80600000I0J-125000D01*
G01*
G37*
G36*
G01*
X49225000Y-79950000D02*
X49225000Y-80200000D01*
G75*
G02*
X49100000Y-80325000I-125000J0D01*
G01*
X47775000Y-80325000D01*
G75*
G02*
X47650000Y-80200000I0J125000D01*
G01*
X47650000Y-79950000D01*
G75*
G02*
X47775000Y-79825000I125000J0D01*
G01*
X49100000Y-79825000D01*
G75*
G02*
X49225000Y-79950000I0J-125000D01*
G01*
G37*
G36*
G01*
X49225000Y-79300000D02*
X49225000Y-79550000D01*
G75*
G02*
X49100000Y-79675000I-125000J0D01*
G01*
X47775000Y-79675000D01*
G75*
G02*
X47650000Y-79550000I0J125000D01*
G01*
X47650000Y-79300000D01*
G75*
G02*
X47775000Y-79175000I125000J0D01*
G01*
X49100000Y-79175000D01*
G75*
G02*
X49225000Y-79300000I0J-125000D01*
G01*
G37*
G36*
G01*
X49225000Y-78650000D02*
X49225000Y-78900000D01*
G75*
G02*
X49100000Y-79025000I-125000J0D01*
G01*
X47775000Y-79025000D01*
G75*
G02*
X47650000Y-78900000I0J125000D01*
G01*
X47650000Y-78650000D01*
G75*
G02*
X47775000Y-78525000I125000J0D01*
G01*
X49100000Y-78525000D01*
G75*
G02*
X49225000Y-78650000I0J-125000D01*
G01*
G37*
G36*
G01*
X49225000Y-78000000D02*
X49225000Y-78250000D01*
G75*
G02*
X49100000Y-78375000I-125000J0D01*
G01*
X47775000Y-78375000D01*
G75*
G02*
X47650000Y-78250000I0J125000D01*
G01*
X47650000Y-78000000D01*
G75*
G02*
X47775000Y-77875000I125000J0D01*
G01*
X49100000Y-77875000D01*
G75*
G02*
X49225000Y-78000000I0J-125000D01*
G01*
G37*
G36*
G01*
X49225000Y-77350000D02*
X49225000Y-77600000D01*
G75*
G02*
X49100000Y-77725000I-125000J0D01*
G01*
X47775000Y-77725000D01*
G75*
G02*
X47650000Y-77600000I0J125000D01*
G01*
X47650000Y-77350000D01*
G75*
G02*
X47775000Y-77225000I125000J0D01*
G01*
X49100000Y-77225000D01*
G75*
G02*
X49225000Y-77350000I0J-125000D01*
G01*
G37*
G36*
G01*
X49225000Y-76700000D02*
X49225000Y-76950000D01*
G75*
G02*
X49100000Y-77075000I-125000J0D01*
G01*
X47775000Y-77075000D01*
G75*
G02*
X47650000Y-76950000I0J125000D01*
G01*
X47650000Y-76700000D01*
G75*
G02*
X47775000Y-76575000I125000J0D01*
G01*
X49100000Y-76575000D01*
G75*
G02*
X49225000Y-76700000I0J-125000D01*
G01*
G37*
G36*
G01*
X49225000Y-76050000D02*
X49225000Y-76300000D01*
G75*
G02*
X49100000Y-76425000I-125000J0D01*
G01*
X47775000Y-76425000D01*
G75*
G02*
X47650000Y-76300000I0J125000D01*
G01*
X47650000Y-76050000D01*
G75*
G02*
X47775000Y-75925000I125000J0D01*
G01*
X49100000Y-75925000D01*
G75*
G02*
X49225000Y-76050000I0J-125000D01*
G01*
G37*
G36*
G01*
X49225000Y-75400000D02*
X49225000Y-75650000D01*
G75*
G02*
X49100000Y-75775000I-125000J0D01*
G01*
X47775000Y-75775000D01*
G75*
G02*
X47650000Y-75650000I0J125000D01*
G01*
X47650000Y-75400000D01*
G75*
G02*
X47775000Y-75275000I125000J0D01*
G01*
X49100000Y-75275000D01*
G75*
G02*
X49225000Y-75400000I0J-125000D01*
G01*
G37*
G36*
G01*
X49225000Y-74750000D02*
X49225000Y-75000000D01*
G75*
G02*
X49100000Y-75125000I-125000J0D01*
G01*
X47775000Y-75125000D01*
G75*
G02*
X47650000Y-75000000I0J125000D01*
G01*
X47650000Y-74750000D01*
G75*
G02*
X47775000Y-74625000I125000J0D01*
G01*
X49100000Y-74625000D01*
G75*
G02*
X49225000Y-74750000I0J-125000D01*
G01*
G37*
G36*
G01*
X54950000Y-74750000D02*
X54950000Y-75000000D01*
G75*
G02*
X54825000Y-75125000I-125000J0D01*
G01*
X53500000Y-75125000D01*
G75*
G02*
X53375000Y-75000000I0J125000D01*
G01*
X53375000Y-74750000D01*
G75*
G02*
X53500000Y-74625000I125000J0D01*
G01*
X54825000Y-74625000D01*
G75*
G02*
X54950000Y-74750000I0J-125000D01*
G01*
G37*
G36*
G01*
X54950000Y-75400000D02*
X54950000Y-75650000D01*
G75*
G02*
X54825000Y-75775000I-125000J0D01*
G01*
X53500000Y-75775000D01*
G75*
G02*
X53375000Y-75650000I0J125000D01*
G01*
X53375000Y-75400000D01*
G75*
G02*
X53500000Y-75275000I125000J0D01*
G01*
X54825000Y-75275000D01*
G75*
G02*
X54950000Y-75400000I0J-125000D01*
G01*
G37*
G36*
G01*
X54950000Y-76050000D02*
X54950000Y-76300000D01*
G75*
G02*
X54825000Y-76425000I-125000J0D01*
G01*
X53500000Y-76425000D01*
G75*
G02*
X53375000Y-76300000I0J125000D01*
G01*
X53375000Y-76050000D01*
G75*
G02*
X53500000Y-75925000I125000J0D01*
G01*
X54825000Y-75925000D01*
G75*
G02*
X54950000Y-76050000I0J-125000D01*
G01*
G37*
G36*
G01*
X54950000Y-76700000D02*
X54950000Y-76950000D01*
G75*
G02*
X54825000Y-77075000I-125000J0D01*
G01*
X53500000Y-77075000D01*
G75*
G02*
X53375000Y-76950000I0J125000D01*
G01*
X53375000Y-76700000D01*
G75*
G02*
X53500000Y-76575000I125000J0D01*
G01*
X54825000Y-76575000D01*
G75*
G02*
X54950000Y-76700000I0J-125000D01*
G01*
G37*
G36*
G01*
X54950000Y-77350000D02*
X54950000Y-77600000D01*
G75*
G02*
X54825000Y-77725000I-125000J0D01*
G01*
X53500000Y-77725000D01*
G75*
G02*
X53375000Y-77600000I0J125000D01*
G01*
X53375000Y-77350000D01*
G75*
G02*
X53500000Y-77225000I125000J0D01*
G01*
X54825000Y-77225000D01*
G75*
G02*
X54950000Y-77350000I0J-125000D01*
G01*
G37*
G36*
G01*
X54950000Y-78000000D02*
X54950000Y-78250000D01*
G75*
G02*
X54825000Y-78375000I-125000J0D01*
G01*
X53500000Y-78375000D01*
G75*
G02*
X53375000Y-78250000I0J125000D01*
G01*
X53375000Y-78000000D01*
G75*
G02*
X53500000Y-77875000I125000J0D01*
G01*
X54825000Y-77875000D01*
G75*
G02*
X54950000Y-78000000I0J-125000D01*
G01*
G37*
G36*
G01*
X54950000Y-78650000D02*
X54950000Y-78900000D01*
G75*
G02*
X54825000Y-79025000I-125000J0D01*
G01*
X53500000Y-79025000D01*
G75*
G02*
X53375000Y-78900000I0J125000D01*
G01*
X53375000Y-78650000D01*
G75*
G02*
X53500000Y-78525000I125000J0D01*
G01*
X54825000Y-78525000D01*
G75*
G02*
X54950000Y-78650000I0J-125000D01*
G01*
G37*
G36*
G01*
X54950000Y-79300000D02*
X54950000Y-79550000D01*
G75*
G02*
X54825000Y-79675000I-125000J0D01*
G01*
X53500000Y-79675000D01*
G75*
G02*
X53375000Y-79550000I0J125000D01*
G01*
X53375000Y-79300000D01*
G75*
G02*
X53500000Y-79175000I125000J0D01*
G01*
X54825000Y-79175000D01*
G75*
G02*
X54950000Y-79300000I0J-125000D01*
G01*
G37*
G36*
G01*
X54950000Y-79950000D02*
X54950000Y-80200000D01*
G75*
G02*
X54825000Y-80325000I-125000J0D01*
G01*
X53500000Y-80325000D01*
G75*
G02*
X53375000Y-80200000I0J125000D01*
G01*
X53375000Y-79950000D01*
G75*
G02*
X53500000Y-79825000I125000J0D01*
G01*
X54825000Y-79825000D01*
G75*
G02*
X54950000Y-79950000I0J-125000D01*
G01*
G37*
G36*
G01*
X54950000Y-80600000D02*
X54950000Y-80850000D01*
G75*
G02*
X54825000Y-80975000I-125000J0D01*
G01*
X53500000Y-80975000D01*
G75*
G02*
X53375000Y-80850000I0J125000D01*
G01*
X53375000Y-80600000D01*
G75*
G02*
X53500000Y-80475000I125000J0D01*
G01*
X54825000Y-80475000D01*
G75*
G02*
X54950000Y-80600000I0J-125000D01*
G01*
G37*
G36*
G01*
X54950000Y-81250000D02*
X54950000Y-81500000D01*
G75*
G02*
X54825000Y-81625000I-125000J0D01*
G01*
X53500000Y-81625000D01*
G75*
G02*
X53375000Y-81500000I0J125000D01*
G01*
X53375000Y-81250000D01*
G75*
G02*
X53500000Y-81125000I125000J0D01*
G01*
X54825000Y-81125000D01*
G75*
G02*
X54950000Y-81250000I0J-125000D01*
G01*
G37*
G36*
G01*
X54950000Y-81900000D02*
X54950000Y-82150000D01*
G75*
G02*
X54825000Y-82275000I-125000J0D01*
G01*
X53500000Y-82275000D01*
G75*
G02*
X53375000Y-82150000I0J125000D01*
G01*
X53375000Y-81900000D01*
G75*
G02*
X53500000Y-81775000I125000J0D01*
G01*
X54825000Y-81775000D01*
G75*
G02*
X54950000Y-81900000I0J-125000D01*
G01*
G37*
%TD*%
%TO.C,U11*%
G36*
G01*
X54950000Y-72950000D02*
X54950000Y-73200000D01*
G75*
G02*
X54825000Y-73325000I-125000J0D01*
G01*
X53500000Y-73325000D01*
G75*
G02*
X53375000Y-73200000I0J125000D01*
G01*
X53375000Y-72950000D01*
G75*
G02*
X53500000Y-72825000I125000J0D01*
G01*
X54825000Y-72825000D01*
G75*
G02*
X54950000Y-72950000I0J-125000D01*
G01*
G37*
G36*
G01*
X54950000Y-72300000D02*
X54950000Y-72550000D01*
G75*
G02*
X54825000Y-72675000I-125000J0D01*
G01*
X53500000Y-72675000D01*
G75*
G02*
X53375000Y-72550000I0J125000D01*
G01*
X53375000Y-72300000D01*
G75*
G02*
X53500000Y-72175000I125000J0D01*
G01*
X54825000Y-72175000D01*
G75*
G02*
X54950000Y-72300000I0J-125000D01*
G01*
G37*
G36*
G01*
X54950000Y-71650000D02*
X54950000Y-71900000D01*
G75*
G02*
X54825000Y-72025000I-125000J0D01*
G01*
X53500000Y-72025000D01*
G75*
G02*
X53375000Y-71900000I0J125000D01*
G01*
X53375000Y-71650000D01*
G75*
G02*
X53500000Y-71525000I125000J0D01*
G01*
X54825000Y-71525000D01*
G75*
G02*
X54950000Y-71650000I0J-125000D01*
G01*
G37*
G36*
G01*
X54950000Y-71000000D02*
X54950000Y-71250000D01*
G75*
G02*
X54825000Y-71375000I-125000J0D01*
G01*
X53500000Y-71375000D01*
G75*
G02*
X53375000Y-71250000I0J125000D01*
G01*
X53375000Y-71000000D01*
G75*
G02*
X53500000Y-70875000I125000J0D01*
G01*
X54825000Y-70875000D01*
G75*
G02*
X54950000Y-71000000I0J-125000D01*
G01*
G37*
G36*
G01*
X54950000Y-70350000D02*
X54950000Y-70600000D01*
G75*
G02*
X54825000Y-70725000I-125000J0D01*
G01*
X53500000Y-70725000D01*
G75*
G02*
X53375000Y-70600000I0J125000D01*
G01*
X53375000Y-70350000D01*
G75*
G02*
X53500000Y-70225000I125000J0D01*
G01*
X54825000Y-70225000D01*
G75*
G02*
X54950000Y-70350000I0J-125000D01*
G01*
G37*
G36*
G01*
X54950000Y-69700000D02*
X54950000Y-69950000D01*
G75*
G02*
X54825000Y-70075000I-125000J0D01*
G01*
X53500000Y-70075000D01*
G75*
G02*
X53375000Y-69950000I0J125000D01*
G01*
X53375000Y-69700000D01*
G75*
G02*
X53500000Y-69575000I125000J0D01*
G01*
X54825000Y-69575000D01*
G75*
G02*
X54950000Y-69700000I0J-125000D01*
G01*
G37*
G36*
G01*
X54950000Y-69050000D02*
X54950000Y-69300000D01*
G75*
G02*
X54825000Y-69425000I-125000J0D01*
G01*
X53500000Y-69425000D01*
G75*
G02*
X53375000Y-69300000I0J125000D01*
G01*
X53375000Y-69050000D01*
G75*
G02*
X53500000Y-68925000I125000J0D01*
G01*
X54825000Y-68925000D01*
G75*
G02*
X54950000Y-69050000I0J-125000D01*
G01*
G37*
G36*
G01*
X54950000Y-68400000D02*
X54950000Y-68650000D01*
G75*
G02*
X54825000Y-68775000I-125000J0D01*
G01*
X53500000Y-68775000D01*
G75*
G02*
X53375000Y-68650000I0J125000D01*
G01*
X53375000Y-68400000D01*
G75*
G02*
X53500000Y-68275000I125000J0D01*
G01*
X54825000Y-68275000D01*
G75*
G02*
X54950000Y-68400000I0J-125000D01*
G01*
G37*
G36*
G01*
X54950000Y-67750000D02*
X54950000Y-68000000D01*
G75*
G02*
X54825000Y-68125000I-125000J0D01*
G01*
X53500000Y-68125000D01*
G75*
G02*
X53375000Y-68000000I0J125000D01*
G01*
X53375000Y-67750000D01*
G75*
G02*
X53500000Y-67625000I125000J0D01*
G01*
X54825000Y-67625000D01*
G75*
G02*
X54950000Y-67750000I0J-125000D01*
G01*
G37*
G36*
G01*
X54950000Y-67100000D02*
X54950000Y-67350000D01*
G75*
G02*
X54825000Y-67475000I-125000J0D01*
G01*
X53500000Y-67475000D01*
G75*
G02*
X53375000Y-67350000I0J125000D01*
G01*
X53375000Y-67100000D01*
G75*
G02*
X53500000Y-66975000I125000J0D01*
G01*
X54825000Y-66975000D01*
G75*
G02*
X54950000Y-67100000I0J-125000D01*
G01*
G37*
G36*
G01*
X54950000Y-66450000D02*
X54950000Y-66700000D01*
G75*
G02*
X54825000Y-66825000I-125000J0D01*
G01*
X53500000Y-66825000D01*
G75*
G02*
X53375000Y-66700000I0J125000D01*
G01*
X53375000Y-66450000D01*
G75*
G02*
X53500000Y-66325000I125000J0D01*
G01*
X54825000Y-66325000D01*
G75*
G02*
X54950000Y-66450000I0J-125000D01*
G01*
G37*
G36*
G01*
X54950000Y-65800000D02*
X54950000Y-66050000D01*
G75*
G02*
X54825000Y-66175000I-125000J0D01*
G01*
X53500000Y-66175000D01*
G75*
G02*
X53375000Y-66050000I0J125000D01*
G01*
X53375000Y-65800000D01*
G75*
G02*
X53500000Y-65675000I125000J0D01*
G01*
X54825000Y-65675000D01*
G75*
G02*
X54950000Y-65800000I0J-125000D01*
G01*
G37*
G36*
G01*
X49225000Y-65800000D02*
X49225000Y-66050000D01*
G75*
G02*
X49100000Y-66175000I-125000J0D01*
G01*
X47775000Y-66175000D01*
G75*
G02*
X47650000Y-66050000I0J125000D01*
G01*
X47650000Y-65800000D01*
G75*
G02*
X47775000Y-65675000I125000J0D01*
G01*
X49100000Y-65675000D01*
G75*
G02*
X49225000Y-65800000I0J-125000D01*
G01*
G37*
G36*
G01*
X49225000Y-66450000D02*
X49225000Y-66700000D01*
G75*
G02*
X49100000Y-66825000I-125000J0D01*
G01*
X47775000Y-66825000D01*
G75*
G02*
X47650000Y-66700000I0J125000D01*
G01*
X47650000Y-66450000D01*
G75*
G02*
X47775000Y-66325000I125000J0D01*
G01*
X49100000Y-66325000D01*
G75*
G02*
X49225000Y-66450000I0J-125000D01*
G01*
G37*
G36*
G01*
X49225000Y-67100000D02*
X49225000Y-67350000D01*
G75*
G02*
X49100000Y-67475000I-125000J0D01*
G01*
X47775000Y-67475000D01*
G75*
G02*
X47650000Y-67350000I0J125000D01*
G01*
X47650000Y-67100000D01*
G75*
G02*
X47775000Y-66975000I125000J0D01*
G01*
X49100000Y-66975000D01*
G75*
G02*
X49225000Y-67100000I0J-125000D01*
G01*
G37*
G36*
G01*
X49225000Y-67750000D02*
X49225000Y-68000000D01*
G75*
G02*
X49100000Y-68125000I-125000J0D01*
G01*
X47775000Y-68125000D01*
G75*
G02*
X47650000Y-68000000I0J125000D01*
G01*
X47650000Y-67750000D01*
G75*
G02*
X47775000Y-67625000I125000J0D01*
G01*
X49100000Y-67625000D01*
G75*
G02*
X49225000Y-67750000I0J-125000D01*
G01*
G37*
G36*
G01*
X49225000Y-68400000D02*
X49225000Y-68650000D01*
G75*
G02*
X49100000Y-68775000I-125000J0D01*
G01*
X47775000Y-68775000D01*
G75*
G02*
X47650000Y-68650000I0J125000D01*
G01*
X47650000Y-68400000D01*
G75*
G02*
X47775000Y-68275000I125000J0D01*
G01*
X49100000Y-68275000D01*
G75*
G02*
X49225000Y-68400000I0J-125000D01*
G01*
G37*
G36*
G01*
X49225000Y-69050000D02*
X49225000Y-69300000D01*
G75*
G02*
X49100000Y-69425000I-125000J0D01*
G01*
X47775000Y-69425000D01*
G75*
G02*
X47650000Y-69300000I0J125000D01*
G01*
X47650000Y-69050000D01*
G75*
G02*
X47775000Y-68925000I125000J0D01*
G01*
X49100000Y-68925000D01*
G75*
G02*
X49225000Y-69050000I0J-125000D01*
G01*
G37*
G36*
G01*
X49225000Y-69700000D02*
X49225000Y-69950000D01*
G75*
G02*
X49100000Y-70075000I-125000J0D01*
G01*
X47775000Y-70075000D01*
G75*
G02*
X47650000Y-69950000I0J125000D01*
G01*
X47650000Y-69700000D01*
G75*
G02*
X47775000Y-69575000I125000J0D01*
G01*
X49100000Y-69575000D01*
G75*
G02*
X49225000Y-69700000I0J-125000D01*
G01*
G37*
G36*
G01*
X49225000Y-70350000D02*
X49225000Y-70600000D01*
G75*
G02*
X49100000Y-70725000I-125000J0D01*
G01*
X47775000Y-70725000D01*
G75*
G02*
X47650000Y-70600000I0J125000D01*
G01*
X47650000Y-70350000D01*
G75*
G02*
X47775000Y-70225000I125000J0D01*
G01*
X49100000Y-70225000D01*
G75*
G02*
X49225000Y-70350000I0J-125000D01*
G01*
G37*
G36*
G01*
X49225000Y-71000000D02*
X49225000Y-71250000D01*
G75*
G02*
X49100000Y-71375000I-125000J0D01*
G01*
X47775000Y-71375000D01*
G75*
G02*
X47650000Y-71250000I0J125000D01*
G01*
X47650000Y-71000000D01*
G75*
G02*
X47775000Y-70875000I125000J0D01*
G01*
X49100000Y-70875000D01*
G75*
G02*
X49225000Y-71000000I0J-125000D01*
G01*
G37*
G36*
G01*
X49225000Y-71650000D02*
X49225000Y-71900000D01*
G75*
G02*
X49100000Y-72025000I-125000J0D01*
G01*
X47775000Y-72025000D01*
G75*
G02*
X47650000Y-71900000I0J125000D01*
G01*
X47650000Y-71650000D01*
G75*
G02*
X47775000Y-71525000I125000J0D01*
G01*
X49100000Y-71525000D01*
G75*
G02*
X49225000Y-71650000I0J-125000D01*
G01*
G37*
G36*
G01*
X49225000Y-72300000D02*
X49225000Y-72550000D01*
G75*
G02*
X49100000Y-72675000I-125000J0D01*
G01*
X47775000Y-72675000D01*
G75*
G02*
X47650000Y-72550000I0J125000D01*
G01*
X47650000Y-72300000D01*
G75*
G02*
X47775000Y-72175000I125000J0D01*
G01*
X49100000Y-72175000D01*
G75*
G02*
X49225000Y-72300000I0J-125000D01*
G01*
G37*
G36*
G01*
X49225000Y-72950000D02*
X49225000Y-73200000D01*
G75*
G02*
X49100000Y-73325000I-125000J0D01*
G01*
X47775000Y-73325000D01*
G75*
G02*
X47650000Y-73200000I0J125000D01*
G01*
X47650000Y-72950000D01*
G75*
G02*
X47775000Y-72825000I125000J0D01*
G01*
X49100000Y-72825000D01*
G75*
G02*
X49225000Y-72950000I0J-125000D01*
G01*
G37*
%TD*%
D13*
%TO.C,U12*%
X62690000Y-78250000D03*
X62690000Y-76350000D03*
X65010000Y-76350000D03*
X65010000Y-77300000D03*
X65010000Y-78250000D03*
%TD*%
D12*
%TO.C,U13*%
X81100000Y-76890000D03*
X80150000Y-76890000D03*
X79200000Y-76890000D03*
X79200000Y-79210000D03*
X81100000Y-79210000D03*
%TD*%
M02*
