M48
; DRILL file {KiCad (5.1.6)-1} date 07/30/20 18:38:39
; FORMAT={-:-/ absolute / inch / decimal}
; #@! TF.CreationDate,2020-07-30T18:38:39+03:00
; #@! TF.GenerationSoftware,Kicad,Pcbnew,(5.1.6)-1
; #@! TF.FileFunction,Plated,1,2,PTH
FMAT,2
INCH
T1C0.0157
T2C0.0394
%
G90
G05
T1
X1.4626Y-3.5177
X1.5433Y-3.5965
X1.5728Y-3.5689
X1.6083Y-3.5472
X1.7283Y-3.4862
X1.8406Y-1.7126
X1.8406Y-2.1142
X1.8406Y-2.5157
X1.8406Y-2.8622
X1.8406Y-3.2165
X1.8406Y-3.7677
X1.9075Y-1.811
X1.9075Y-2.2126
X1.9075Y-2.5669
X1.9075Y-2.9173
X1.9075Y-3.4685
X1.9764Y-3.2421
X1.9764Y-3.4606
X2.065Y-3.2402
X2.065Y-3.4606
X2.0728Y-2.2598
X2.0728Y-2.6063
X2.0768Y-1.8622
X2.0787Y-2.4646
X2.1319Y-2.9173
X2.1358Y-3.4646
X2.1988Y-1.4567
X2.1988Y-1.7126
X2.1988Y-2.1142
X2.1988Y-2.5157
X2.1988Y-2.878
X2.1988Y-3.2283
X2.1988Y-3.7677
X2.3346Y-3.2283
X2.4449Y-2.8465
X2.4902Y-2.5807
X2.4961Y-2.4429
X2.5256Y-3.0059
X2.6161Y-2.4331
X2.6417Y-2.5709
X2.6417Y-2.7087
X2.6417Y-2.7874
X2.6417Y-2.8681
X2.689Y-2.626
X2.7008Y-2.8681
X2.7106Y-3.0217
X2.7402Y-2.4409
X2.7598Y-2.2795
X2.7598Y-2.8622
X2.7913Y-2.4409
X2.8189Y-3.0138
X2.8543Y-3.1004
X2.8583Y-2.4409
X2.8583Y-3.0138
X2.8858Y-2.8622
X2.9213Y-2.6299
X2.9449Y-2.5906
X2.9764Y-2.4409
X3.0157Y-2.8622
X3.0787Y-2.4547
X3.0787Y-2.5512
X3.0787Y-2.6299
X3.0787Y-2.7677
X3.0925Y-2.8898
X3.1024Y-2.4134
X3.1043Y-3.065
X3.1614Y-2.9488
X3.1614Y-3.1614
X3.2244Y-2.4134
X3.2283Y-2.5787
X3.3071Y-2.7756
X3.3091Y-2.7067
T2
X1.2543Y-1.1008
X1.2543Y-1.2008
X1.2543Y-1.3008
X1.2543Y-1.4008
X1.2543Y-1.5008
X1.2543Y-1.6008
X1.2543Y-1.7008
X1.2543Y-1.8008
X1.2543Y-1.9008
X1.2543Y-2.0008
X1.2543Y-2.1008
X1.2543Y-2.2008
X1.2543Y-2.3008
X1.2543Y-2.4008
X1.2543Y-2.5008
X1.2543Y-2.6008
X1.2543Y-2.7008
X1.2543Y-2.8008
X1.2543Y-2.9008
X1.2543Y-3.0008
X1.2543Y-3.1008
X1.2543Y-3.2008
X1.2543Y-3.3008
X1.2543Y-3.4008
X1.2543Y-3.5008
X1.2543Y-3.6008
X1.2543Y-3.7008
X1.2543Y-3.8008
X1.2543Y-3.9008
X1.2543Y-4.0008
X1.2543Y-4.1008
X1.2543Y-4.2008
X1.3543Y-1.1008
X1.3543Y-1.2008
X1.3543Y-1.3008
X1.3543Y-1.4008
X1.3543Y-1.5008
X1.3543Y-1.6008
X1.3543Y-1.7008
X1.3543Y-1.8008
X1.3543Y-1.9008
X1.3543Y-2.0008
X1.3543Y-2.1008
X1.3543Y-2.2008
X1.3543Y-2.3008
X1.3543Y-2.4008
X1.3543Y-2.5008
X1.3543Y-2.6008
X1.3543Y-2.7008
X1.3543Y-2.8008
X1.3543Y-2.9008
X1.3543Y-3.0008
X1.3543Y-3.1008
X1.3543Y-3.2008
X1.3543Y-3.3008
X1.3543Y-3.4008
X1.3543Y-3.5008
X1.3543Y-3.6008
X1.3543Y-3.7008
X1.3543Y-3.8008
X1.3543Y-3.9008
X1.3543Y-4.0008
X1.3543Y-4.1008
X1.3543Y-4.2008
X3.6535Y-1.1008
X3.6535Y-1.2008
X3.6535Y-1.3008
X3.6535Y-1.4008
X3.6535Y-1.5008
X3.6535Y-1.6008
X3.6535Y-1.7008
X3.6535Y-1.8008
X3.6535Y-1.9008
X3.6535Y-2.0008
X3.6535Y-2.1008
X3.6535Y-2.2008
X3.6535Y-2.3008
X3.6535Y-2.4008
X3.6535Y-2.5008
X3.6535Y-2.6008
X3.6535Y-2.7008
X3.6535Y-2.8008
X3.6535Y-2.9008
X3.6535Y-3.0008
X3.6535Y-3.1008
X3.6535Y-3.2008
X3.6535Y-3.3008
X3.6535Y-3.4008
X3.6535Y-3.5008
X3.6535Y-3.6008
X3.6535Y-3.7008
X3.6535Y-3.8008
X3.6535Y-3.9008
X3.6535Y-4.0008
X3.6535Y-4.1008
X3.6535Y-4.2008
X3.7535Y-1.1008
X3.7535Y-1.2008
X3.7535Y-1.3008
X3.7535Y-1.4008
X3.7535Y-1.5008
X3.7535Y-1.6008
X3.7535Y-1.7008
X3.7535Y-1.8008
X3.7535Y-1.9008
X3.7535Y-2.0008
X3.7535Y-2.1008
X3.7535Y-2.2008
X3.7535Y-2.3008
X3.7535Y-2.4008
X3.7535Y-2.5008
X3.7535Y-2.6008
X3.7535Y-2.7008
X3.7535Y-2.8008
X3.7535Y-2.9008
X3.7535Y-3.0008
X3.7535Y-3.1008
X3.7535Y-3.2008
X3.7535Y-3.3008
X3.7535Y-3.4008
X3.7535Y-3.5008
X3.7535Y-3.6008
X3.7535Y-3.7008
X3.7535Y-3.8008
X3.7535Y-3.9008
X3.7535Y-4.0008
X3.7535Y-4.1008
X3.7535Y-4.2008
T0
M30
