%TF.GenerationSoftware,KiCad,Pcbnew,(5.1.5)-3*%
%TF.CreationDate,2020-09-24T12:34:08+03:00*%
%TF.ProjectId,386_v1,3338365f-7631-42e6-9b69-6361645f7063,rev?*%
%TF.SameCoordinates,Original*%
%TF.FileFunction,Legend,Top*%
%TF.FilePolarity,Positive*%
%FSLAX46Y46*%
G04 Gerber Fmt 4.6, Leading zero omitted, Abs format (unit mm)*
G04 Created by KiCad (PCBNEW (5.1.5)-3) date 2020-09-24 12:34:08*
%MOMM*%
%LPD*%
G04 APERTURE LIST*
%ADD10C,0.100000*%
%ADD11C,0.150000*%
%ADD12C,0.120000*%
G04 APERTURE END LIST*
D10*
X83065000Y-96450000D02*
X82831666Y-96450000D01*
X82831666Y-96816666D02*
X82831666Y-96116666D01*
X83165000Y-96116666D01*
X83265000Y-96883333D02*
X83798333Y-96883333D01*
X83965000Y-96816666D02*
X83965000Y-96116666D01*
X84298333Y-96816666D02*
X84298333Y-96116666D01*
X84698333Y-96816666D01*
X84698333Y-96116666D01*
X84931666Y-96116666D02*
X85331666Y-96116666D01*
X85131666Y-96816666D02*
X85131666Y-96116666D01*
X85965000Y-96816666D02*
X85731666Y-96483333D01*
X85565000Y-96816666D02*
X85565000Y-96116666D01*
X85831666Y-96116666D01*
X85898333Y-96150000D01*
X85931666Y-96183333D01*
X85965000Y-96250000D01*
X85965000Y-96350000D01*
X85931666Y-96416666D01*
X85898333Y-96450000D01*
X85831666Y-96483333D01*
X85565000Y-96483333D01*
X86098333Y-96883333D02*
X86631666Y-96883333D01*
X86798333Y-96816666D02*
X86798333Y-96116666D01*
X83065000Y-98950000D02*
X82831666Y-98950000D01*
X82831666Y-99316666D02*
X82831666Y-98616666D01*
X83165000Y-98616666D01*
X83265000Y-99383333D02*
X83798333Y-99383333D01*
X83965000Y-99316666D02*
X83965000Y-98616666D01*
X84365000Y-99316666D01*
X84365000Y-98616666D01*
X84698333Y-99316666D02*
X84698333Y-98616666D01*
X84931666Y-99116666D01*
X85165000Y-98616666D01*
X85165000Y-99316666D01*
X85498333Y-99316666D02*
X85498333Y-98616666D01*
X85665000Y-99383333D02*
X86198333Y-99383333D01*
X86365000Y-99316666D02*
X86365000Y-98616666D01*
X83065000Y-101550000D02*
X82831666Y-101550000D01*
X82831666Y-101916666D02*
X82831666Y-101216666D01*
X83165000Y-101216666D01*
X83265000Y-101983333D02*
X83798333Y-101983333D01*
X83965000Y-101916666D02*
X83965000Y-101216666D01*
X84231666Y-101216666D01*
X84298333Y-101250000D01*
X84331666Y-101283333D01*
X84365000Y-101350000D01*
X84365000Y-101450000D01*
X84331666Y-101516666D01*
X84298333Y-101550000D01*
X84231666Y-101583333D01*
X83965000Y-101583333D01*
X84665000Y-101550000D02*
X84898333Y-101550000D01*
X84998333Y-101916666D02*
X84665000Y-101916666D01*
X84665000Y-101216666D01*
X84998333Y-101216666D01*
X85698333Y-101916666D02*
X85465000Y-101583333D01*
X85298333Y-101916666D02*
X85298333Y-101216666D01*
X85565000Y-101216666D01*
X85631666Y-101250000D01*
X85665000Y-101283333D01*
X85698333Y-101350000D01*
X85698333Y-101450000D01*
X85665000Y-101516666D01*
X85631666Y-101550000D01*
X85565000Y-101583333D01*
X85298333Y-101583333D01*
X85998333Y-101550000D02*
X86231666Y-101550000D01*
X86331666Y-101916666D02*
X85998333Y-101916666D01*
X85998333Y-101216666D01*
X86331666Y-101216666D01*
X87098333Y-101983333D02*
X87031666Y-101950000D01*
X86965000Y-101883333D01*
X86865000Y-101783333D01*
X86798333Y-101750000D01*
X86731666Y-101750000D01*
X86765000Y-101916666D02*
X86698333Y-101883333D01*
X86631666Y-101816666D01*
X86598333Y-101683333D01*
X86598333Y-101450000D01*
X86631666Y-101316666D01*
X86698333Y-101250000D01*
X86765000Y-101216666D01*
X86898333Y-101216666D01*
X86965000Y-101250000D01*
X87031666Y-101316666D01*
X87065000Y-101450000D01*
X87065000Y-101683333D01*
X87031666Y-101816666D01*
X86965000Y-101883333D01*
X86898333Y-101916666D01*
X86765000Y-101916666D01*
X87198333Y-101983333D02*
X87731666Y-101983333D01*
X87898333Y-101916666D02*
X87898333Y-101216666D01*
X38665000Y-38100000D02*
X38431666Y-38100000D01*
X38431666Y-38466666D02*
X38431666Y-37766666D01*
X38765000Y-37766666D01*
X38865000Y-38533333D02*
X39398333Y-38533333D01*
X39531666Y-38266666D02*
X39865000Y-38266666D01*
X39465000Y-38466666D02*
X39698333Y-37766666D01*
X39931666Y-38466666D01*
X40131666Y-37833333D02*
X40165000Y-37800000D01*
X40231666Y-37766666D01*
X40398333Y-37766666D01*
X40465000Y-37800000D01*
X40498333Y-37833333D01*
X40531666Y-37900000D01*
X40531666Y-37966666D01*
X40498333Y-38066666D01*
X40098333Y-38466666D01*
X40531666Y-38466666D01*
X40665000Y-38533333D02*
X41198333Y-38533333D01*
X41498333Y-37766666D02*
X41631666Y-37766666D01*
X41698333Y-37800000D01*
X41765000Y-37866666D01*
X41798333Y-38000000D01*
X41798333Y-38233333D01*
X41765000Y-38366666D01*
X41698333Y-38433333D01*
X41631666Y-38466666D01*
X41498333Y-38466666D01*
X41431666Y-38433333D01*
X41365000Y-38366666D01*
X41331666Y-38233333D01*
X41331666Y-38000000D01*
X41365000Y-37866666D01*
X41431666Y-37800000D01*
X41498333Y-37766666D01*
X40465000Y-41900000D02*
X40231666Y-41900000D01*
X40231666Y-42266666D02*
X40231666Y-41566666D01*
X40565000Y-41566666D01*
X40665000Y-42333333D02*
X41198333Y-42333333D01*
X41331666Y-42066666D02*
X41665000Y-42066666D01*
X41265000Y-42266666D02*
X41498333Y-41566666D01*
X41731666Y-42266666D01*
X41898333Y-41566666D02*
X42331666Y-41566666D01*
X42098333Y-41833333D01*
X42198333Y-41833333D01*
X42265000Y-41866666D01*
X42298333Y-41900000D01*
X42331666Y-41966666D01*
X42331666Y-42133333D01*
X42298333Y-42200000D01*
X42265000Y-42233333D01*
X42198333Y-42266666D01*
X41998333Y-42266666D01*
X41931666Y-42233333D01*
X41898333Y-42200000D01*
X42465000Y-42333333D02*
X42998333Y-42333333D01*
X43298333Y-41566666D02*
X43431666Y-41566666D01*
X43498333Y-41600000D01*
X43565000Y-41666666D01*
X43598333Y-41800000D01*
X43598333Y-42033333D01*
X43565000Y-42166666D01*
X43498333Y-42233333D01*
X43431666Y-42266666D01*
X43298333Y-42266666D01*
X43231666Y-42233333D01*
X43165000Y-42166666D01*
X43131666Y-42033333D01*
X43131666Y-41800000D01*
X43165000Y-41666666D01*
X43231666Y-41600000D01*
X43298333Y-41566666D01*
X38665000Y-40650000D02*
X38431666Y-40650000D01*
X38431666Y-41016666D02*
X38431666Y-40316666D01*
X38765000Y-40316666D01*
X38865000Y-41083333D02*
X39398333Y-41083333D01*
X39531666Y-40816666D02*
X39865000Y-40816666D01*
X39465000Y-41016666D02*
X39698333Y-40316666D01*
X39931666Y-41016666D01*
X40465000Y-40550000D02*
X40465000Y-41016666D01*
X40298333Y-40283333D02*
X40131666Y-40783333D01*
X40565000Y-40783333D01*
X40665000Y-41083333D02*
X41198333Y-41083333D01*
X41498333Y-40316666D02*
X41631666Y-40316666D01*
X41698333Y-40350000D01*
X41765000Y-40416666D01*
X41798333Y-40550000D01*
X41798333Y-40783333D01*
X41765000Y-40916666D01*
X41698333Y-40983333D01*
X41631666Y-41016666D01*
X41498333Y-41016666D01*
X41431666Y-40983333D01*
X41365000Y-40916666D01*
X41331666Y-40783333D01*
X41331666Y-40550000D01*
X41365000Y-40416666D01*
X41431666Y-40350000D01*
X41498333Y-40316666D01*
X40465000Y-44400000D02*
X40231666Y-44400000D01*
X40231666Y-44766666D02*
X40231666Y-44066666D01*
X40565000Y-44066666D01*
X40665000Y-44833333D02*
X41198333Y-44833333D01*
X41331666Y-44566666D02*
X41665000Y-44566666D01*
X41265000Y-44766666D02*
X41498333Y-44066666D01*
X41731666Y-44766666D01*
X42298333Y-44066666D02*
X41965000Y-44066666D01*
X41931666Y-44400000D01*
X41965000Y-44366666D01*
X42031666Y-44333333D01*
X42198333Y-44333333D01*
X42265000Y-44366666D01*
X42298333Y-44400000D01*
X42331666Y-44466666D01*
X42331666Y-44633333D01*
X42298333Y-44700000D01*
X42265000Y-44733333D01*
X42198333Y-44766666D01*
X42031666Y-44766666D01*
X41965000Y-44733333D01*
X41931666Y-44700000D01*
X42465000Y-44833333D02*
X42998333Y-44833333D01*
X43298333Y-44066666D02*
X43431666Y-44066666D01*
X43498333Y-44100000D01*
X43565000Y-44166666D01*
X43598333Y-44300000D01*
X43598333Y-44533333D01*
X43565000Y-44666666D01*
X43498333Y-44733333D01*
X43431666Y-44766666D01*
X43298333Y-44766666D01*
X43231666Y-44733333D01*
X43165000Y-44666666D01*
X43131666Y-44533333D01*
X43131666Y-44300000D01*
X43165000Y-44166666D01*
X43231666Y-44100000D01*
X43298333Y-44066666D01*
X38665000Y-43150000D02*
X38431666Y-43150000D01*
X38431666Y-43516666D02*
X38431666Y-42816666D01*
X38765000Y-42816666D01*
X38865000Y-43583333D02*
X39398333Y-43583333D01*
X39531666Y-43316666D02*
X39865000Y-43316666D01*
X39465000Y-43516666D02*
X39698333Y-42816666D01*
X39931666Y-43516666D01*
X40465000Y-42816666D02*
X40331666Y-42816666D01*
X40265000Y-42850000D01*
X40231666Y-42883333D01*
X40165000Y-42983333D01*
X40131666Y-43116666D01*
X40131666Y-43383333D01*
X40165000Y-43450000D01*
X40198333Y-43483333D01*
X40265000Y-43516666D01*
X40398333Y-43516666D01*
X40465000Y-43483333D01*
X40498333Y-43450000D01*
X40531666Y-43383333D01*
X40531666Y-43216666D01*
X40498333Y-43150000D01*
X40465000Y-43116666D01*
X40398333Y-43083333D01*
X40265000Y-43083333D01*
X40198333Y-43116666D01*
X40165000Y-43150000D01*
X40131666Y-43216666D01*
X40665000Y-43583333D02*
X41198333Y-43583333D01*
X41498333Y-42816666D02*
X41631666Y-42816666D01*
X41698333Y-42850000D01*
X41765000Y-42916666D01*
X41798333Y-43050000D01*
X41798333Y-43283333D01*
X41765000Y-43416666D01*
X41698333Y-43483333D01*
X41631666Y-43516666D01*
X41498333Y-43516666D01*
X41431666Y-43483333D01*
X41365000Y-43416666D01*
X41331666Y-43283333D01*
X41331666Y-43050000D01*
X41365000Y-42916666D01*
X41431666Y-42850000D01*
X41498333Y-42816666D01*
X40465000Y-46950000D02*
X40231666Y-46950000D01*
X40231666Y-47316666D02*
X40231666Y-46616666D01*
X40565000Y-46616666D01*
X40665000Y-47383333D02*
X41198333Y-47383333D01*
X41331666Y-47116666D02*
X41665000Y-47116666D01*
X41265000Y-47316666D02*
X41498333Y-46616666D01*
X41731666Y-47316666D01*
X41898333Y-46616666D02*
X42365000Y-46616666D01*
X42065000Y-47316666D01*
X42465000Y-47383333D02*
X42998333Y-47383333D01*
X43298333Y-46616666D02*
X43431666Y-46616666D01*
X43498333Y-46650000D01*
X43565000Y-46716666D01*
X43598333Y-46850000D01*
X43598333Y-47083333D01*
X43565000Y-47216666D01*
X43498333Y-47283333D01*
X43431666Y-47316666D01*
X43298333Y-47316666D01*
X43231666Y-47283333D01*
X43165000Y-47216666D01*
X43131666Y-47083333D01*
X43131666Y-46850000D01*
X43165000Y-46716666D01*
X43231666Y-46650000D01*
X43298333Y-46616666D01*
X38665000Y-45700000D02*
X38431666Y-45700000D01*
X38431666Y-46066666D02*
X38431666Y-45366666D01*
X38765000Y-45366666D01*
X38865000Y-46133333D02*
X39398333Y-46133333D01*
X39531666Y-45866666D02*
X39865000Y-45866666D01*
X39465000Y-46066666D02*
X39698333Y-45366666D01*
X39931666Y-46066666D01*
X40265000Y-45666666D02*
X40198333Y-45633333D01*
X40165000Y-45600000D01*
X40131666Y-45533333D01*
X40131666Y-45500000D01*
X40165000Y-45433333D01*
X40198333Y-45400000D01*
X40265000Y-45366666D01*
X40398333Y-45366666D01*
X40465000Y-45400000D01*
X40498333Y-45433333D01*
X40531666Y-45500000D01*
X40531666Y-45533333D01*
X40498333Y-45600000D01*
X40465000Y-45633333D01*
X40398333Y-45666666D01*
X40265000Y-45666666D01*
X40198333Y-45700000D01*
X40165000Y-45733333D01*
X40131666Y-45800000D01*
X40131666Y-45933333D01*
X40165000Y-46000000D01*
X40198333Y-46033333D01*
X40265000Y-46066666D01*
X40398333Y-46066666D01*
X40465000Y-46033333D01*
X40498333Y-46000000D01*
X40531666Y-45933333D01*
X40531666Y-45800000D01*
X40498333Y-45733333D01*
X40465000Y-45700000D01*
X40398333Y-45666666D01*
X40665000Y-46133333D02*
X41198333Y-46133333D01*
X41498333Y-45366666D02*
X41631666Y-45366666D01*
X41698333Y-45400000D01*
X41765000Y-45466666D01*
X41798333Y-45600000D01*
X41798333Y-45833333D01*
X41765000Y-45966666D01*
X41698333Y-46033333D01*
X41631666Y-46066666D01*
X41498333Y-46066666D01*
X41431666Y-46033333D01*
X41365000Y-45966666D01*
X41331666Y-45833333D01*
X41331666Y-45600000D01*
X41365000Y-45466666D01*
X41431666Y-45400000D01*
X41498333Y-45366666D01*
X40465000Y-49500000D02*
X40231666Y-49500000D01*
X40231666Y-49866666D02*
X40231666Y-49166666D01*
X40565000Y-49166666D01*
X40665000Y-49933333D02*
X41198333Y-49933333D01*
X41331666Y-49666666D02*
X41665000Y-49666666D01*
X41265000Y-49866666D02*
X41498333Y-49166666D01*
X41731666Y-49866666D01*
X41998333Y-49866666D02*
X42131666Y-49866666D01*
X42198333Y-49833333D01*
X42231666Y-49800000D01*
X42298333Y-49700000D01*
X42331666Y-49566666D01*
X42331666Y-49300000D01*
X42298333Y-49233333D01*
X42265000Y-49200000D01*
X42198333Y-49166666D01*
X42065000Y-49166666D01*
X41998333Y-49200000D01*
X41965000Y-49233333D01*
X41931666Y-49300000D01*
X41931666Y-49466666D01*
X41965000Y-49533333D01*
X41998333Y-49566666D01*
X42065000Y-49600000D01*
X42198333Y-49600000D01*
X42265000Y-49566666D01*
X42298333Y-49533333D01*
X42331666Y-49466666D01*
X42465000Y-49933333D02*
X42998333Y-49933333D01*
X43298333Y-49166666D02*
X43431666Y-49166666D01*
X43498333Y-49200000D01*
X43565000Y-49266666D01*
X43598333Y-49400000D01*
X43598333Y-49633333D01*
X43565000Y-49766666D01*
X43498333Y-49833333D01*
X43431666Y-49866666D01*
X43298333Y-49866666D01*
X43231666Y-49833333D01*
X43165000Y-49766666D01*
X43131666Y-49633333D01*
X43131666Y-49400000D01*
X43165000Y-49266666D01*
X43231666Y-49200000D01*
X43298333Y-49166666D01*
X38665000Y-48300000D02*
X38431666Y-48300000D01*
X38431666Y-48666666D02*
X38431666Y-47966666D01*
X38765000Y-47966666D01*
X38865000Y-48733333D02*
X39398333Y-48733333D01*
X39531666Y-48466666D02*
X39865000Y-48466666D01*
X39465000Y-48666666D02*
X39698333Y-47966666D01*
X39931666Y-48666666D01*
X40531666Y-48666666D02*
X40131666Y-48666666D01*
X40331666Y-48666666D02*
X40331666Y-47966666D01*
X40265000Y-48066666D01*
X40198333Y-48133333D01*
X40131666Y-48166666D01*
X40965000Y-47966666D02*
X41031666Y-47966666D01*
X41098333Y-48000000D01*
X41131666Y-48033333D01*
X41165000Y-48100000D01*
X41198333Y-48233333D01*
X41198333Y-48400000D01*
X41165000Y-48533333D01*
X41131666Y-48600000D01*
X41098333Y-48633333D01*
X41031666Y-48666666D01*
X40965000Y-48666666D01*
X40898333Y-48633333D01*
X40865000Y-48600000D01*
X40831666Y-48533333D01*
X40798333Y-48400000D01*
X40798333Y-48233333D01*
X40831666Y-48100000D01*
X40865000Y-48033333D01*
X40898333Y-48000000D01*
X40965000Y-47966666D01*
X41331666Y-48733333D02*
X41865000Y-48733333D01*
X42165000Y-47966666D02*
X42298333Y-47966666D01*
X42365000Y-48000000D01*
X42431666Y-48066666D01*
X42465000Y-48200000D01*
X42465000Y-48433333D01*
X42431666Y-48566666D01*
X42365000Y-48633333D01*
X42298333Y-48666666D01*
X42165000Y-48666666D01*
X42098333Y-48633333D01*
X42031666Y-48566666D01*
X41998333Y-48433333D01*
X41998333Y-48200000D01*
X42031666Y-48066666D01*
X42098333Y-48000000D01*
X42165000Y-47966666D01*
X40465000Y-52100000D02*
X40231666Y-52100000D01*
X40231666Y-52466666D02*
X40231666Y-51766666D01*
X40565000Y-51766666D01*
X40665000Y-52533333D02*
X41198333Y-52533333D01*
X41331666Y-52266666D02*
X41665000Y-52266666D01*
X41265000Y-52466666D02*
X41498333Y-51766666D01*
X41731666Y-52466666D01*
X42331666Y-52466666D02*
X41931666Y-52466666D01*
X42131666Y-52466666D02*
X42131666Y-51766666D01*
X42065000Y-51866666D01*
X41998333Y-51933333D01*
X41931666Y-51966666D01*
X42998333Y-52466666D02*
X42598333Y-52466666D01*
X42798333Y-52466666D02*
X42798333Y-51766666D01*
X42731666Y-51866666D01*
X42665000Y-51933333D01*
X42598333Y-51966666D01*
X43131666Y-52533333D02*
X43665000Y-52533333D01*
X43965000Y-51766666D02*
X44098333Y-51766666D01*
X44165000Y-51800000D01*
X44231666Y-51866666D01*
X44265000Y-52000000D01*
X44265000Y-52233333D01*
X44231666Y-52366666D01*
X44165000Y-52433333D01*
X44098333Y-52466666D01*
X43965000Y-52466666D01*
X43898333Y-52433333D01*
X43831666Y-52366666D01*
X43798333Y-52233333D01*
X43798333Y-52000000D01*
X43831666Y-51866666D01*
X43898333Y-51800000D01*
X43965000Y-51766666D01*
X38665000Y-50750000D02*
X38431666Y-50750000D01*
X38431666Y-51116666D02*
X38431666Y-50416666D01*
X38765000Y-50416666D01*
X38865000Y-51183333D02*
X39398333Y-51183333D01*
X39531666Y-50916666D02*
X39865000Y-50916666D01*
X39465000Y-51116666D02*
X39698333Y-50416666D01*
X39931666Y-51116666D01*
X40531666Y-51116666D02*
X40131666Y-51116666D01*
X40331666Y-51116666D02*
X40331666Y-50416666D01*
X40265000Y-50516666D01*
X40198333Y-50583333D01*
X40131666Y-50616666D01*
X40798333Y-50483333D02*
X40831666Y-50450000D01*
X40898333Y-50416666D01*
X41065000Y-50416666D01*
X41131666Y-50450000D01*
X41165000Y-50483333D01*
X41198333Y-50550000D01*
X41198333Y-50616666D01*
X41165000Y-50716666D01*
X40765000Y-51116666D01*
X41198333Y-51116666D01*
X41331666Y-51183333D02*
X41865000Y-51183333D01*
X42165000Y-50416666D02*
X42298333Y-50416666D01*
X42365000Y-50450000D01*
X42431666Y-50516666D01*
X42465000Y-50650000D01*
X42465000Y-50883333D01*
X42431666Y-51016666D01*
X42365000Y-51083333D01*
X42298333Y-51116666D01*
X42165000Y-51116666D01*
X42098333Y-51083333D01*
X42031666Y-51016666D01*
X41998333Y-50883333D01*
X41998333Y-50650000D01*
X42031666Y-50516666D01*
X42098333Y-50450000D01*
X42165000Y-50416666D01*
X40465000Y-54550000D02*
X40231666Y-54550000D01*
X40231666Y-54916666D02*
X40231666Y-54216666D01*
X40565000Y-54216666D01*
X40665000Y-54983333D02*
X41198333Y-54983333D01*
X41331666Y-54716666D02*
X41665000Y-54716666D01*
X41265000Y-54916666D02*
X41498333Y-54216666D01*
X41731666Y-54916666D01*
X42331666Y-54916666D02*
X41931666Y-54916666D01*
X42131666Y-54916666D02*
X42131666Y-54216666D01*
X42065000Y-54316666D01*
X41998333Y-54383333D01*
X41931666Y-54416666D01*
X42565000Y-54216666D02*
X42998333Y-54216666D01*
X42765000Y-54483333D01*
X42865000Y-54483333D01*
X42931666Y-54516666D01*
X42965000Y-54550000D01*
X42998333Y-54616666D01*
X42998333Y-54783333D01*
X42965000Y-54850000D01*
X42931666Y-54883333D01*
X42865000Y-54916666D01*
X42665000Y-54916666D01*
X42598333Y-54883333D01*
X42565000Y-54850000D01*
X43131666Y-54983333D02*
X43665000Y-54983333D01*
X43965000Y-54216666D02*
X44098333Y-54216666D01*
X44165000Y-54250000D01*
X44231666Y-54316666D01*
X44265000Y-54450000D01*
X44265000Y-54683333D01*
X44231666Y-54816666D01*
X44165000Y-54883333D01*
X44098333Y-54916666D01*
X43965000Y-54916666D01*
X43898333Y-54883333D01*
X43831666Y-54816666D01*
X43798333Y-54683333D01*
X43798333Y-54450000D01*
X43831666Y-54316666D01*
X43898333Y-54250000D01*
X43965000Y-54216666D01*
X38665000Y-53300000D02*
X38431666Y-53300000D01*
X38431666Y-53666666D02*
X38431666Y-52966666D01*
X38765000Y-52966666D01*
X38865000Y-53733333D02*
X39398333Y-53733333D01*
X39531666Y-53466666D02*
X39865000Y-53466666D01*
X39465000Y-53666666D02*
X39698333Y-52966666D01*
X39931666Y-53666666D01*
X40531666Y-53666666D02*
X40131666Y-53666666D01*
X40331666Y-53666666D02*
X40331666Y-52966666D01*
X40265000Y-53066666D01*
X40198333Y-53133333D01*
X40131666Y-53166666D01*
X41131666Y-53200000D02*
X41131666Y-53666666D01*
X40965000Y-52933333D02*
X40798333Y-53433333D01*
X41231666Y-53433333D01*
X41331666Y-53733333D02*
X41865000Y-53733333D01*
X42165000Y-52966666D02*
X42298333Y-52966666D01*
X42365000Y-53000000D01*
X42431666Y-53066666D01*
X42465000Y-53200000D01*
X42465000Y-53433333D01*
X42431666Y-53566666D01*
X42365000Y-53633333D01*
X42298333Y-53666666D01*
X42165000Y-53666666D01*
X42098333Y-53633333D01*
X42031666Y-53566666D01*
X41998333Y-53433333D01*
X41998333Y-53200000D01*
X42031666Y-53066666D01*
X42098333Y-53000000D01*
X42165000Y-52966666D01*
X40465000Y-57150000D02*
X40231666Y-57150000D01*
X40231666Y-57516666D02*
X40231666Y-56816666D01*
X40565000Y-56816666D01*
X40665000Y-57583333D02*
X41198333Y-57583333D01*
X41331666Y-57316666D02*
X41665000Y-57316666D01*
X41265000Y-57516666D02*
X41498333Y-56816666D01*
X41731666Y-57516666D01*
X42331666Y-57516666D02*
X41931666Y-57516666D01*
X42131666Y-57516666D02*
X42131666Y-56816666D01*
X42065000Y-56916666D01*
X41998333Y-56983333D01*
X41931666Y-57016666D01*
X42965000Y-56816666D02*
X42631666Y-56816666D01*
X42598333Y-57150000D01*
X42631666Y-57116666D01*
X42698333Y-57083333D01*
X42865000Y-57083333D01*
X42931666Y-57116666D01*
X42965000Y-57150000D01*
X42998333Y-57216666D01*
X42998333Y-57383333D01*
X42965000Y-57450000D01*
X42931666Y-57483333D01*
X42865000Y-57516666D01*
X42698333Y-57516666D01*
X42631666Y-57483333D01*
X42598333Y-57450000D01*
X43131666Y-57583333D02*
X43665000Y-57583333D01*
X43965000Y-56816666D02*
X44098333Y-56816666D01*
X44165000Y-56850000D01*
X44231666Y-56916666D01*
X44265000Y-57050000D01*
X44265000Y-57283333D01*
X44231666Y-57416666D01*
X44165000Y-57483333D01*
X44098333Y-57516666D01*
X43965000Y-57516666D01*
X43898333Y-57483333D01*
X43831666Y-57416666D01*
X43798333Y-57283333D01*
X43798333Y-57050000D01*
X43831666Y-56916666D01*
X43898333Y-56850000D01*
X43965000Y-56816666D01*
X38665000Y-55850000D02*
X38431666Y-55850000D01*
X38431666Y-56216666D02*
X38431666Y-55516666D01*
X38765000Y-55516666D01*
X38865000Y-56283333D02*
X39398333Y-56283333D01*
X39531666Y-56016666D02*
X39865000Y-56016666D01*
X39465000Y-56216666D02*
X39698333Y-55516666D01*
X39931666Y-56216666D01*
X40531666Y-56216666D02*
X40131666Y-56216666D01*
X40331666Y-56216666D02*
X40331666Y-55516666D01*
X40265000Y-55616666D01*
X40198333Y-55683333D01*
X40131666Y-55716666D01*
X41131666Y-55516666D02*
X40998333Y-55516666D01*
X40931666Y-55550000D01*
X40898333Y-55583333D01*
X40831666Y-55683333D01*
X40798333Y-55816666D01*
X40798333Y-56083333D01*
X40831666Y-56150000D01*
X40865000Y-56183333D01*
X40931666Y-56216666D01*
X41065000Y-56216666D01*
X41131666Y-56183333D01*
X41165000Y-56150000D01*
X41198333Y-56083333D01*
X41198333Y-55916666D01*
X41165000Y-55850000D01*
X41131666Y-55816666D01*
X41065000Y-55783333D01*
X40931666Y-55783333D01*
X40865000Y-55816666D01*
X40831666Y-55850000D01*
X40798333Y-55916666D01*
X41331666Y-56283333D02*
X41865000Y-56283333D01*
X42165000Y-55516666D02*
X42298333Y-55516666D01*
X42365000Y-55550000D01*
X42431666Y-55616666D01*
X42465000Y-55750000D01*
X42465000Y-55983333D01*
X42431666Y-56116666D01*
X42365000Y-56183333D01*
X42298333Y-56216666D01*
X42165000Y-56216666D01*
X42098333Y-56183333D01*
X42031666Y-56116666D01*
X41998333Y-55983333D01*
X41998333Y-55750000D01*
X42031666Y-55616666D01*
X42098333Y-55550000D01*
X42165000Y-55516666D01*
X40465000Y-59700000D02*
X40231666Y-59700000D01*
X40231666Y-60066666D02*
X40231666Y-59366666D01*
X40565000Y-59366666D01*
X40665000Y-60133333D02*
X41198333Y-60133333D01*
X41331666Y-59866666D02*
X41665000Y-59866666D01*
X41265000Y-60066666D02*
X41498333Y-59366666D01*
X41731666Y-60066666D01*
X42331666Y-60066666D02*
X41931666Y-60066666D01*
X42131666Y-60066666D02*
X42131666Y-59366666D01*
X42065000Y-59466666D01*
X41998333Y-59533333D01*
X41931666Y-59566666D01*
X42565000Y-59366666D02*
X43031666Y-59366666D01*
X42731666Y-60066666D01*
X43131666Y-60133333D02*
X43665000Y-60133333D01*
X43965000Y-59366666D02*
X44098333Y-59366666D01*
X44165000Y-59400000D01*
X44231666Y-59466666D01*
X44265000Y-59600000D01*
X44265000Y-59833333D01*
X44231666Y-59966666D01*
X44165000Y-60033333D01*
X44098333Y-60066666D01*
X43965000Y-60066666D01*
X43898333Y-60033333D01*
X43831666Y-59966666D01*
X43798333Y-59833333D01*
X43798333Y-59600000D01*
X43831666Y-59466666D01*
X43898333Y-59400000D01*
X43965000Y-59366666D01*
X38665000Y-58350000D02*
X38431666Y-58350000D01*
X38431666Y-58716666D02*
X38431666Y-58016666D01*
X38765000Y-58016666D01*
X38865000Y-58783333D02*
X39398333Y-58783333D01*
X39531666Y-58516666D02*
X39865000Y-58516666D01*
X39465000Y-58716666D02*
X39698333Y-58016666D01*
X39931666Y-58716666D01*
X40531666Y-58716666D02*
X40131666Y-58716666D01*
X40331666Y-58716666D02*
X40331666Y-58016666D01*
X40265000Y-58116666D01*
X40198333Y-58183333D01*
X40131666Y-58216666D01*
X40931666Y-58316666D02*
X40865000Y-58283333D01*
X40831666Y-58250000D01*
X40798333Y-58183333D01*
X40798333Y-58150000D01*
X40831666Y-58083333D01*
X40865000Y-58050000D01*
X40931666Y-58016666D01*
X41065000Y-58016666D01*
X41131666Y-58050000D01*
X41165000Y-58083333D01*
X41198333Y-58150000D01*
X41198333Y-58183333D01*
X41165000Y-58250000D01*
X41131666Y-58283333D01*
X41065000Y-58316666D01*
X40931666Y-58316666D01*
X40865000Y-58350000D01*
X40831666Y-58383333D01*
X40798333Y-58450000D01*
X40798333Y-58583333D01*
X40831666Y-58650000D01*
X40865000Y-58683333D01*
X40931666Y-58716666D01*
X41065000Y-58716666D01*
X41131666Y-58683333D01*
X41165000Y-58650000D01*
X41198333Y-58583333D01*
X41198333Y-58450000D01*
X41165000Y-58383333D01*
X41131666Y-58350000D01*
X41065000Y-58316666D01*
X41331666Y-58783333D02*
X41865000Y-58783333D01*
X42165000Y-58016666D02*
X42298333Y-58016666D01*
X42365000Y-58050000D01*
X42431666Y-58116666D01*
X42465000Y-58250000D01*
X42465000Y-58483333D01*
X42431666Y-58616666D01*
X42365000Y-58683333D01*
X42298333Y-58716666D01*
X42165000Y-58716666D01*
X42098333Y-58683333D01*
X42031666Y-58616666D01*
X41998333Y-58483333D01*
X41998333Y-58250000D01*
X42031666Y-58116666D01*
X42098333Y-58050000D01*
X42165000Y-58016666D01*
X40465000Y-62200000D02*
X40231666Y-62200000D01*
X40231666Y-62566666D02*
X40231666Y-61866666D01*
X40565000Y-61866666D01*
X40665000Y-62633333D02*
X41198333Y-62633333D01*
X41331666Y-62366666D02*
X41665000Y-62366666D01*
X41265000Y-62566666D02*
X41498333Y-61866666D01*
X41731666Y-62566666D01*
X42331666Y-62566666D02*
X41931666Y-62566666D01*
X42131666Y-62566666D02*
X42131666Y-61866666D01*
X42065000Y-61966666D01*
X41998333Y-62033333D01*
X41931666Y-62066666D01*
X42665000Y-62566666D02*
X42798333Y-62566666D01*
X42865000Y-62533333D01*
X42898333Y-62500000D01*
X42965000Y-62400000D01*
X42998333Y-62266666D01*
X42998333Y-62000000D01*
X42965000Y-61933333D01*
X42931666Y-61900000D01*
X42865000Y-61866666D01*
X42731666Y-61866666D01*
X42665000Y-61900000D01*
X42631666Y-61933333D01*
X42598333Y-62000000D01*
X42598333Y-62166666D01*
X42631666Y-62233333D01*
X42665000Y-62266666D01*
X42731666Y-62300000D01*
X42865000Y-62300000D01*
X42931666Y-62266666D01*
X42965000Y-62233333D01*
X42998333Y-62166666D01*
X43131666Y-62633333D02*
X43665000Y-62633333D01*
X43965000Y-61866666D02*
X44098333Y-61866666D01*
X44165000Y-61900000D01*
X44231666Y-61966666D01*
X44265000Y-62100000D01*
X44265000Y-62333333D01*
X44231666Y-62466666D01*
X44165000Y-62533333D01*
X44098333Y-62566666D01*
X43965000Y-62566666D01*
X43898333Y-62533333D01*
X43831666Y-62466666D01*
X43798333Y-62333333D01*
X43798333Y-62100000D01*
X43831666Y-61966666D01*
X43898333Y-61900000D01*
X43965000Y-61866666D01*
X38665000Y-60900000D02*
X38431666Y-60900000D01*
X38431666Y-61266666D02*
X38431666Y-60566666D01*
X38765000Y-60566666D01*
X38865000Y-61333333D02*
X39398333Y-61333333D01*
X39531666Y-61066666D02*
X39865000Y-61066666D01*
X39465000Y-61266666D02*
X39698333Y-60566666D01*
X39931666Y-61266666D01*
X40131666Y-60633333D02*
X40165000Y-60600000D01*
X40231666Y-60566666D01*
X40398333Y-60566666D01*
X40465000Y-60600000D01*
X40498333Y-60633333D01*
X40531666Y-60700000D01*
X40531666Y-60766666D01*
X40498333Y-60866666D01*
X40098333Y-61266666D01*
X40531666Y-61266666D01*
X40965000Y-60566666D02*
X41031666Y-60566666D01*
X41098333Y-60600000D01*
X41131666Y-60633333D01*
X41165000Y-60700000D01*
X41198333Y-60833333D01*
X41198333Y-61000000D01*
X41165000Y-61133333D01*
X41131666Y-61200000D01*
X41098333Y-61233333D01*
X41031666Y-61266666D01*
X40965000Y-61266666D01*
X40898333Y-61233333D01*
X40865000Y-61200000D01*
X40831666Y-61133333D01*
X40798333Y-61000000D01*
X40798333Y-60833333D01*
X40831666Y-60700000D01*
X40865000Y-60633333D01*
X40898333Y-60600000D01*
X40965000Y-60566666D01*
X41331666Y-61333333D02*
X41865000Y-61333333D01*
X42165000Y-60566666D02*
X42298333Y-60566666D01*
X42365000Y-60600000D01*
X42431666Y-60666666D01*
X42465000Y-60800000D01*
X42465000Y-61033333D01*
X42431666Y-61166666D01*
X42365000Y-61233333D01*
X42298333Y-61266666D01*
X42165000Y-61266666D01*
X42098333Y-61233333D01*
X42031666Y-61166666D01*
X41998333Y-61033333D01*
X41998333Y-60800000D01*
X42031666Y-60666666D01*
X42098333Y-60600000D01*
X42165000Y-60566666D01*
X40465000Y-64750000D02*
X40231666Y-64750000D01*
X40231666Y-65116666D02*
X40231666Y-64416666D01*
X40565000Y-64416666D01*
X40665000Y-65183333D02*
X41198333Y-65183333D01*
X41331666Y-64916666D02*
X41665000Y-64916666D01*
X41265000Y-65116666D02*
X41498333Y-64416666D01*
X41731666Y-65116666D01*
X41931666Y-64483333D02*
X41965000Y-64450000D01*
X42031666Y-64416666D01*
X42198333Y-64416666D01*
X42265000Y-64450000D01*
X42298333Y-64483333D01*
X42331666Y-64550000D01*
X42331666Y-64616666D01*
X42298333Y-64716666D01*
X41898333Y-65116666D01*
X42331666Y-65116666D01*
X42998333Y-65116666D02*
X42598333Y-65116666D01*
X42798333Y-65116666D02*
X42798333Y-64416666D01*
X42731666Y-64516666D01*
X42665000Y-64583333D01*
X42598333Y-64616666D01*
X43131666Y-65183333D02*
X43665000Y-65183333D01*
X43965000Y-64416666D02*
X44098333Y-64416666D01*
X44165000Y-64450000D01*
X44231666Y-64516666D01*
X44265000Y-64650000D01*
X44265000Y-64883333D01*
X44231666Y-65016666D01*
X44165000Y-65083333D01*
X44098333Y-65116666D01*
X43965000Y-65116666D01*
X43898333Y-65083333D01*
X43831666Y-65016666D01*
X43798333Y-64883333D01*
X43798333Y-64650000D01*
X43831666Y-64516666D01*
X43898333Y-64450000D01*
X43965000Y-64416666D01*
X38665000Y-63450000D02*
X38431666Y-63450000D01*
X38431666Y-63816666D02*
X38431666Y-63116666D01*
X38765000Y-63116666D01*
X38865000Y-63883333D02*
X39398333Y-63883333D01*
X39531666Y-63616666D02*
X39865000Y-63616666D01*
X39465000Y-63816666D02*
X39698333Y-63116666D01*
X39931666Y-63816666D01*
X40131666Y-63183333D02*
X40165000Y-63150000D01*
X40231666Y-63116666D01*
X40398333Y-63116666D01*
X40465000Y-63150000D01*
X40498333Y-63183333D01*
X40531666Y-63250000D01*
X40531666Y-63316666D01*
X40498333Y-63416666D01*
X40098333Y-63816666D01*
X40531666Y-63816666D01*
X40798333Y-63183333D02*
X40831666Y-63150000D01*
X40898333Y-63116666D01*
X41065000Y-63116666D01*
X41131666Y-63150000D01*
X41165000Y-63183333D01*
X41198333Y-63250000D01*
X41198333Y-63316666D01*
X41165000Y-63416666D01*
X40765000Y-63816666D01*
X41198333Y-63816666D01*
X41331666Y-63883333D02*
X41865000Y-63883333D01*
X42165000Y-63116666D02*
X42298333Y-63116666D01*
X42365000Y-63150000D01*
X42431666Y-63216666D01*
X42465000Y-63350000D01*
X42465000Y-63583333D01*
X42431666Y-63716666D01*
X42365000Y-63783333D01*
X42298333Y-63816666D01*
X42165000Y-63816666D01*
X42098333Y-63783333D01*
X42031666Y-63716666D01*
X41998333Y-63583333D01*
X41998333Y-63350000D01*
X42031666Y-63216666D01*
X42098333Y-63150000D01*
X42165000Y-63116666D01*
X40515000Y-67300000D02*
X40281666Y-67300000D01*
X40281666Y-67666666D02*
X40281666Y-66966666D01*
X40615000Y-66966666D01*
X40715000Y-67733333D02*
X41248333Y-67733333D01*
X41381666Y-67466666D02*
X41715000Y-67466666D01*
X41315000Y-67666666D02*
X41548333Y-66966666D01*
X41781666Y-67666666D01*
X41981666Y-67033333D02*
X42015000Y-67000000D01*
X42081666Y-66966666D01*
X42248333Y-66966666D01*
X42315000Y-67000000D01*
X42348333Y-67033333D01*
X42381666Y-67100000D01*
X42381666Y-67166666D01*
X42348333Y-67266666D01*
X41948333Y-67666666D01*
X42381666Y-67666666D01*
X42615000Y-66966666D02*
X43048333Y-66966666D01*
X42815000Y-67233333D01*
X42915000Y-67233333D01*
X42981666Y-67266666D01*
X43015000Y-67300000D01*
X43048333Y-67366666D01*
X43048333Y-67533333D01*
X43015000Y-67600000D01*
X42981666Y-67633333D01*
X42915000Y-67666666D01*
X42715000Y-67666666D01*
X42648333Y-67633333D01*
X42615000Y-67600000D01*
X43181666Y-67733333D02*
X43715000Y-67733333D01*
X44015000Y-66966666D02*
X44148333Y-66966666D01*
X44215000Y-67000000D01*
X44281666Y-67066666D01*
X44315000Y-67200000D01*
X44315000Y-67433333D01*
X44281666Y-67566666D01*
X44215000Y-67633333D01*
X44148333Y-67666666D01*
X44015000Y-67666666D01*
X43948333Y-67633333D01*
X43881666Y-67566666D01*
X43848333Y-67433333D01*
X43848333Y-67200000D01*
X43881666Y-67066666D01*
X43948333Y-67000000D01*
X44015000Y-66966666D01*
X40465000Y-69800000D02*
X40231666Y-69800000D01*
X40231666Y-70166666D02*
X40231666Y-69466666D01*
X40565000Y-69466666D01*
X40665000Y-70233333D02*
X41198333Y-70233333D01*
X41365000Y-70166666D02*
X41365000Y-69466666D01*
X41531666Y-69466666D01*
X41631666Y-69500000D01*
X41698333Y-69566666D01*
X41731666Y-69633333D01*
X41765000Y-69766666D01*
X41765000Y-69866666D01*
X41731666Y-70000000D01*
X41698333Y-70066666D01*
X41631666Y-70133333D01*
X41531666Y-70166666D01*
X41365000Y-70166666D01*
X42431666Y-70166666D02*
X42031666Y-70166666D01*
X42231666Y-70166666D02*
X42231666Y-69466666D01*
X42165000Y-69566666D01*
X42098333Y-69633333D01*
X42031666Y-69666666D01*
X43065000Y-69466666D02*
X42731666Y-69466666D01*
X42698333Y-69800000D01*
X42731666Y-69766666D01*
X42798333Y-69733333D01*
X42965000Y-69733333D01*
X43031666Y-69766666D01*
X43065000Y-69800000D01*
X43098333Y-69866666D01*
X43098333Y-70033333D01*
X43065000Y-70100000D01*
X43031666Y-70133333D01*
X42965000Y-70166666D01*
X42798333Y-70166666D01*
X42731666Y-70133333D01*
X42698333Y-70100000D01*
X43231666Y-70233333D02*
X43765000Y-70233333D01*
X43931666Y-70166666D02*
X43931666Y-69466666D01*
X44398333Y-69466666D02*
X44531666Y-69466666D01*
X44598333Y-69500000D01*
X44665000Y-69566666D01*
X44698333Y-69700000D01*
X44698333Y-69933333D01*
X44665000Y-70066666D01*
X44598333Y-70133333D01*
X44531666Y-70166666D01*
X44398333Y-70166666D01*
X44331666Y-70133333D01*
X44265000Y-70066666D01*
X44231666Y-69933333D01*
X44231666Y-69700000D01*
X44265000Y-69566666D01*
X44331666Y-69500000D01*
X44398333Y-69466666D01*
X38665000Y-68500000D02*
X38431666Y-68500000D01*
X38431666Y-68866666D02*
X38431666Y-68166666D01*
X38765000Y-68166666D01*
X38865000Y-68933333D02*
X39398333Y-68933333D01*
X39565000Y-68866666D02*
X39565000Y-68166666D01*
X39731666Y-68166666D01*
X39831666Y-68200000D01*
X39898333Y-68266666D01*
X39931666Y-68333333D01*
X39965000Y-68466666D01*
X39965000Y-68566666D01*
X39931666Y-68700000D01*
X39898333Y-68766666D01*
X39831666Y-68833333D01*
X39731666Y-68866666D01*
X39565000Y-68866666D01*
X40631666Y-68866666D02*
X40231666Y-68866666D01*
X40431666Y-68866666D02*
X40431666Y-68166666D01*
X40365000Y-68266666D01*
X40298333Y-68333333D01*
X40231666Y-68366666D01*
X41231666Y-68400000D02*
X41231666Y-68866666D01*
X41065000Y-68133333D02*
X40898333Y-68633333D01*
X41331666Y-68633333D01*
X41431666Y-68933333D02*
X41965000Y-68933333D01*
X42131666Y-68866666D02*
X42131666Y-68166666D01*
X42598333Y-68166666D02*
X42731666Y-68166666D01*
X42798333Y-68200000D01*
X42865000Y-68266666D01*
X42898333Y-68400000D01*
X42898333Y-68633333D01*
X42865000Y-68766666D01*
X42798333Y-68833333D01*
X42731666Y-68866666D01*
X42598333Y-68866666D01*
X42531666Y-68833333D01*
X42465000Y-68766666D01*
X42431666Y-68633333D01*
X42431666Y-68400000D01*
X42465000Y-68266666D01*
X42531666Y-68200000D01*
X42598333Y-68166666D01*
X40515000Y-72350000D02*
X40281666Y-72350000D01*
X40281666Y-72716666D02*
X40281666Y-72016666D01*
X40615000Y-72016666D01*
X40715000Y-72783333D02*
X41248333Y-72783333D01*
X41415000Y-72716666D02*
X41415000Y-72016666D01*
X41581666Y-72016666D01*
X41681666Y-72050000D01*
X41748333Y-72116666D01*
X41781666Y-72183333D01*
X41815000Y-72316666D01*
X41815000Y-72416666D01*
X41781666Y-72550000D01*
X41748333Y-72616666D01*
X41681666Y-72683333D01*
X41581666Y-72716666D01*
X41415000Y-72716666D01*
X42481666Y-72716666D02*
X42081666Y-72716666D01*
X42281666Y-72716666D02*
X42281666Y-72016666D01*
X42215000Y-72116666D01*
X42148333Y-72183333D01*
X42081666Y-72216666D01*
X42715000Y-72016666D02*
X43148333Y-72016666D01*
X42915000Y-72283333D01*
X43015000Y-72283333D01*
X43081666Y-72316666D01*
X43115000Y-72350000D01*
X43148333Y-72416666D01*
X43148333Y-72583333D01*
X43115000Y-72650000D01*
X43081666Y-72683333D01*
X43015000Y-72716666D01*
X42815000Y-72716666D01*
X42748333Y-72683333D01*
X42715000Y-72650000D01*
X43281666Y-72783333D02*
X43815000Y-72783333D01*
X43981666Y-72716666D02*
X43981666Y-72016666D01*
X44448333Y-72016666D02*
X44581666Y-72016666D01*
X44648333Y-72050000D01*
X44715000Y-72116666D01*
X44748333Y-72250000D01*
X44748333Y-72483333D01*
X44715000Y-72616666D01*
X44648333Y-72683333D01*
X44581666Y-72716666D01*
X44448333Y-72716666D01*
X44381666Y-72683333D01*
X44315000Y-72616666D01*
X44281666Y-72483333D01*
X44281666Y-72250000D01*
X44315000Y-72116666D01*
X44381666Y-72050000D01*
X44448333Y-72016666D01*
X38665000Y-71050000D02*
X38431666Y-71050000D01*
X38431666Y-71416666D02*
X38431666Y-70716666D01*
X38765000Y-70716666D01*
X38865000Y-71483333D02*
X39398333Y-71483333D01*
X39565000Y-71416666D02*
X39565000Y-70716666D01*
X39731666Y-70716666D01*
X39831666Y-70750000D01*
X39898333Y-70816666D01*
X39931666Y-70883333D01*
X39965000Y-71016666D01*
X39965000Y-71116666D01*
X39931666Y-71250000D01*
X39898333Y-71316666D01*
X39831666Y-71383333D01*
X39731666Y-71416666D01*
X39565000Y-71416666D01*
X40631666Y-71416666D02*
X40231666Y-71416666D01*
X40431666Y-71416666D02*
X40431666Y-70716666D01*
X40365000Y-70816666D01*
X40298333Y-70883333D01*
X40231666Y-70916666D01*
X40898333Y-70783333D02*
X40931666Y-70750000D01*
X40998333Y-70716666D01*
X41165000Y-70716666D01*
X41231666Y-70750000D01*
X41265000Y-70783333D01*
X41298333Y-70850000D01*
X41298333Y-70916666D01*
X41265000Y-71016666D01*
X40865000Y-71416666D01*
X41298333Y-71416666D01*
X41431666Y-71483333D02*
X41965000Y-71483333D01*
X42131666Y-71416666D02*
X42131666Y-70716666D01*
X42598333Y-70716666D02*
X42731666Y-70716666D01*
X42798333Y-70750000D01*
X42865000Y-70816666D01*
X42898333Y-70950000D01*
X42898333Y-71183333D01*
X42865000Y-71316666D01*
X42798333Y-71383333D01*
X42731666Y-71416666D01*
X42598333Y-71416666D01*
X42531666Y-71383333D01*
X42465000Y-71316666D01*
X42431666Y-71183333D01*
X42431666Y-70950000D01*
X42465000Y-70816666D01*
X42531666Y-70750000D01*
X42598333Y-70716666D01*
X40465000Y-74900000D02*
X40231666Y-74900000D01*
X40231666Y-75266666D02*
X40231666Y-74566666D01*
X40565000Y-74566666D01*
X40665000Y-75333333D02*
X41198333Y-75333333D01*
X41365000Y-75266666D02*
X41365000Y-74566666D01*
X41531666Y-74566666D01*
X41631666Y-74600000D01*
X41698333Y-74666666D01*
X41731666Y-74733333D01*
X41765000Y-74866666D01*
X41765000Y-74966666D01*
X41731666Y-75100000D01*
X41698333Y-75166666D01*
X41631666Y-75233333D01*
X41531666Y-75266666D01*
X41365000Y-75266666D01*
X42431666Y-75266666D02*
X42031666Y-75266666D01*
X42231666Y-75266666D02*
X42231666Y-74566666D01*
X42165000Y-74666666D01*
X42098333Y-74733333D01*
X42031666Y-74766666D01*
X43098333Y-75266666D02*
X42698333Y-75266666D01*
X42898333Y-75266666D02*
X42898333Y-74566666D01*
X42831666Y-74666666D01*
X42765000Y-74733333D01*
X42698333Y-74766666D01*
X43231666Y-75333333D02*
X43765000Y-75333333D01*
X43931666Y-75266666D02*
X43931666Y-74566666D01*
X44398333Y-74566666D02*
X44531666Y-74566666D01*
X44598333Y-74600000D01*
X44665000Y-74666666D01*
X44698333Y-74800000D01*
X44698333Y-75033333D01*
X44665000Y-75166666D01*
X44598333Y-75233333D01*
X44531666Y-75266666D01*
X44398333Y-75266666D01*
X44331666Y-75233333D01*
X44265000Y-75166666D01*
X44231666Y-75033333D01*
X44231666Y-74800000D01*
X44265000Y-74666666D01*
X44331666Y-74600000D01*
X44398333Y-74566666D01*
X38665000Y-73600000D02*
X38431666Y-73600000D01*
X38431666Y-73966666D02*
X38431666Y-73266666D01*
X38765000Y-73266666D01*
X38865000Y-74033333D02*
X39398333Y-74033333D01*
X39565000Y-73966666D02*
X39565000Y-73266666D01*
X39731666Y-73266666D01*
X39831666Y-73300000D01*
X39898333Y-73366666D01*
X39931666Y-73433333D01*
X39965000Y-73566666D01*
X39965000Y-73666666D01*
X39931666Y-73800000D01*
X39898333Y-73866666D01*
X39831666Y-73933333D01*
X39731666Y-73966666D01*
X39565000Y-73966666D01*
X40631666Y-73966666D02*
X40231666Y-73966666D01*
X40431666Y-73966666D02*
X40431666Y-73266666D01*
X40365000Y-73366666D01*
X40298333Y-73433333D01*
X40231666Y-73466666D01*
X41065000Y-73266666D02*
X41131666Y-73266666D01*
X41198333Y-73300000D01*
X41231666Y-73333333D01*
X41265000Y-73400000D01*
X41298333Y-73533333D01*
X41298333Y-73700000D01*
X41265000Y-73833333D01*
X41231666Y-73900000D01*
X41198333Y-73933333D01*
X41131666Y-73966666D01*
X41065000Y-73966666D01*
X40998333Y-73933333D01*
X40965000Y-73900000D01*
X40931666Y-73833333D01*
X40898333Y-73700000D01*
X40898333Y-73533333D01*
X40931666Y-73400000D01*
X40965000Y-73333333D01*
X40998333Y-73300000D01*
X41065000Y-73266666D01*
X41431666Y-74033333D02*
X41965000Y-74033333D01*
X42131666Y-73966666D02*
X42131666Y-73266666D01*
X42598333Y-73266666D02*
X42731666Y-73266666D01*
X42798333Y-73300000D01*
X42865000Y-73366666D01*
X42898333Y-73500000D01*
X42898333Y-73733333D01*
X42865000Y-73866666D01*
X42798333Y-73933333D01*
X42731666Y-73966666D01*
X42598333Y-73966666D01*
X42531666Y-73933333D01*
X42465000Y-73866666D01*
X42431666Y-73733333D01*
X42431666Y-73500000D01*
X42465000Y-73366666D01*
X42531666Y-73300000D01*
X42598333Y-73266666D01*
X40465000Y-77400000D02*
X40231666Y-77400000D01*
X40231666Y-77766666D02*
X40231666Y-77066666D01*
X40565000Y-77066666D01*
X40665000Y-77833333D02*
X41198333Y-77833333D01*
X41365000Y-77766666D02*
X41365000Y-77066666D01*
X41531666Y-77066666D01*
X41631666Y-77100000D01*
X41698333Y-77166666D01*
X41731666Y-77233333D01*
X41765000Y-77366666D01*
X41765000Y-77466666D01*
X41731666Y-77600000D01*
X41698333Y-77666666D01*
X41631666Y-77733333D01*
X41531666Y-77766666D01*
X41365000Y-77766666D01*
X42098333Y-77766666D02*
X42231666Y-77766666D01*
X42298333Y-77733333D01*
X42331666Y-77700000D01*
X42398333Y-77600000D01*
X42431666Y-77466666D01*
X42431666Y-77200000D01*
X42398333Y-77133333D01*
X42365000Y-77100000D01*
X42298333Y-77066666D01*
X42165000Y-77066666D01*
X42098333Y-77100000D01*
X42065000Y-77133333D01*
X42031666Y-77200000D01*
X42031666Y-77366666D01*
X42065000Y-77433333D01*
X42098333Y-77466666D01*
X42165000Y-77500000D01*
X42298333Y-77500000D01*
X42365000Y-77466666D01*
X42398333Y-77433333D01*
X42431666Y-77366666D01*
X42565000Y-77833333D02*
X43098333Y-77833333D01*
X43265000Y-77766666D02*
X43265000Y-77066666D01*
X43731666Y-77066666D02*
X43865000Y-77066666D01*
X43931666Y-77100000D01*
X43998333Y-77166666D01*
X44031666Y-77300000D01*
X44031666Y-77533333D01*
X43998333Y-77666666D01*
X43931666Y-77733333D01*
X43865000Y-77766666D01*
X43731666Y-77766666D01*
X43665000Y-77733333D01*
X43598333Y-77666666D01*
X43565000Y-77533333D01*
X43565000Y-77300000D01*
X43598333Y-77166666D01*
X43665000Y-77100000D01*
X43731666Y-77066666D01*
X38665000Y-76100000D02*
X38431666Y-76100000D01*
X38431666Y-76466666D02*
X38431666Y-75766666D01*
X38765000Y-75766666D01*
X38865000Y-76533333D02*
X39398333Y-76533333D01*
X39565000Y-76466666D02*
X39565000Y-75766666D01*
X39731666Y-75766666D01*
X39831666Y-75800000D01*
X39898333Y-75866666D01*
X39931666Y-75933333D01*
X39965000Y-76066666D01*
X39965000Y-76166666D01*
X39931666Y-76300000D01*
X39898333Y-76366666D01*
X39831666Y-76433333D01*
X39731666Y-76466666D01*
X39565000Y-76466666D01*
X40365000Y-76066666D02*
X40298333Y-76033333D01*
X40265000Y-76000000D01*
X40231666Y-75933333D01*
X40231666Y-75900000D01*
X40265000Y-75833333D01*
X40298333Y-75800000D01*
X40365000Y-75766666D01*
X40498333Y-75766666D01*
X40565000Y-75800000D01*
X40598333Y-75833333D01*
X40631666Y-75900000D01*
X40631666Y-75933333D01*
X40598333Y-76000000D01*
X40565000Y-76033333D01*
X40498333Y-76066666D01*
X40365000Y-76066666D01*
X40298333Y-76100000D01*
X40265000Y-76133333D01*
X40231666Y-76200000D01*
X40231666Y-76333333D01*
X40265000Y-76400000D01*
X40298333Y-76433333D01*
X40365000Y-76466666D01*
X40498333Y-76466666D01*
X40565000Y-76433333D01*
X40598333Y-76400000D01*
X40631666Y-76333333D01*
X40631666Y-76200000D01*
X40598333Y-76133333D01*
X40565000Y-76100000D01*
X40498333Y-76066666D01*
X40765000Y-76533333D02*
X41298333Y-76533333D01*
X41465000Y-76466666D02*
X41465000Y-75766666D01*
X41931666Y-75766666D02*
X42065000Y-75766666D01*
X42131666Y-75800000D01*
X42198333Y-75866666D01*
X42231666Y-76000000D01*
X42231666Y-76233333D01*
X42198333Y-76366666D01*
X42131666Y-76433333D01*
X42065000Y-76466666D01*
X41931666Y-76466666D01*
X41865000Y-76433333D01*
X41798333Y-76366666D01*
X41765000Y-76233333D01*
X41765000Y-76000000D01*
X41798333Y-75866666D01*
X41865000Y-75800000D01*
X41931666Y-75766666D01*
X40465000Y-79900000D02*
X40231666Y-79900000D01*
X40231666Y-80266666D02*
X40231666Y-79566666D01*
X40565000Y-79566666D01*
X40665000Y-80333333D02*
X41198333Y-80333333D01*
X41365000Y-80266666D02*
X41365000Y-79566666D01*
X41531666Y-79566666D01*
X41631666Y-79600000D01*
X41698333Y-79666666D01*
X41731666Y-79733333D01*
X41765000Y-79866666D01*
X41765000Y-79966666D01*
X41731666Y-80100000D01*
X41698333Y-80166666D01*
X41631666Y-80233333D01*
X41531666Y-80266666D01*
X41365000Y-80266666D01*
X41998333Y-79566666D02*
X42465000Y-79566666D01*
X42165000Y-80266666D01*
X42565000Y-80333333D02*
X43098333Y-80333333D01*
X43265000Y-80266666D02*
X43265000Y-79566666D01*
X43731666Y-79566666D02*
X43865000Y-79566666D01*
X43931666Y-79600000D01*
X43998333Y-79666666D01*
X44031666Y-79800000D01*
X44031666Y-80033333D01*
X43998333Y-80166666D01*
X43931666Y-80233333D01*
X43865000Y-80266666D01*
X43731666Y-80266666D01*
X43665000Y-80233333D01*
X43598333Y-80166666D01*
X43565000Y-80033333D01*
X43565000Y-79800000D01*
X43598333Y-79666666D01*
X43665000Y-79600000D01*
X43731666Y-79566666D01*
X38665000Y-78700000D02*
X38431666Y-78700000D01*
X38431666Y-79066666D02*
X38431666Y-78366666D01*
X38765000Y-78366666D01*
X38865000Y-79133333D02*
X39398333Y-79133333D01*
X39565000Y-79066666D02*
X39565000Y-78366666D01*
X39731666Y-78366666D01*
X39831666Y-78400000D01*
X39898333Y-78466666D01*
X39931666Y-78533333D01*
X39965000Y-78666666D01*
X39965000Y-78766666D01*
X39931666Y-78900000D01*
X39898333Y-78966666D01*
X39831666Y-79033333D01*
X39731666Y-79066666D01*
X39565000Y-79066666D01*
X40565000Y-78366666D02*
X40431666Y-78366666D01*
X40365000Y-78400000D01*
X40331666Y-78433333D01*
X40265000Y-78533333D01*
X40231666Y-78666666D01*
X40231666Y-78933333D01*
X40265000Y-79000000D01*
X40298333Y-79033333D01*
X40365000Y-79066666D01*
X40498333Y-79066666D01*
X40565000Y-79033333D01*
X40598333Y-79000000D01*
X40631666Y-78933333D01*
X40631666Y-78766666D01*
X40598333Y-78700000D01*
X40565000Y-78666666D01*
X40498333Y-78633333D01*
X40365000Y-78633333D01*
X40298333Y-78666666D01*
X40265000Y-78700000D01*
X40231666Y-78766666D01*
X40765000Y-79133333D02*
X41298333Y-79133333D01*
X41465000Y-79066666D02*
X41465000Y-78366666D01*
X41931666Y-78366666D02*
X42065000Y-78366666D01*
X42131666Y-78400000D01*
X42198333Y-78466666D01*
X42231666Y-78600000D01*
X42231666Y-78833333D01*
X42198333Y-78966666D01*
X42131666Y-79033333D01*
X42065000Y-79066666D01*
X41931666Y-79066666D01*
X41865000Y-79033333D01*
X41798333Y-78966666D01*
X41765000Y-78833333D01*
X41765000Y-78600000D01*
X41798333Y-78466666D01*
X41865000Y-78400000D01*
X41931666Y-78366666D01*
X40465000Y-82500000D02*
X40231666Y-82500000D01*
X40231666Y-82866666D02*
X40231666Y-82166666D01*
X40565000Y-82166666D01*
X40665000Y-82933333D02*
X41198333Y-82933333D01*
X41365000Y-82866666D02*
X41365000Y-82166666D01*
X41531666Y-82166666D01*
X41631666Y-82200000D01*
X41698333Y-82266666D01*
X41731666Y-82333333D01*
X41765000Y-82466666D01*
X41765000Y-82566666D01*
X41731666Y-82700000D01*
X41698333Y-82766666D01*
X41631666Y-82833333D01*
X41531666Y-82866666D01*
X41365000Y-82866666D01*
X42398333Y-82166666D02*
X42065000Y-82166666D01*
X42031666Y-82500000D01*
X42065000Y-82466666D01*
X42131666Y-82433333D01*
X42298333Y-82433333D01*
X42365000Y-82466666D01*
X42398333Y-82500000D01*
X42431666Y-82566666D01*
X42431666Y-82733333D01*
X42398333Y-82800000D01*
X42365000Y-82833333D01*
X42298333Y-82866666D01*
X42131666Y-82866666D01*
X42065000Y-82833333D01*
X42031666Y-82800000D01*
X42565000Y-82933333D02*
X43098333Y-82933333D01*
X43265000Y-82866666D02*
X43265000Y-82166666D01*
X43731666Y-82166666D02*
X43865000Y-82166666D01*
X43931666Y-82200000D01*
X43998333Y-82266666D01*
X44031666Y-82400000D01*
X44031666Y-82633333D01*
X43998333Y-82766666D01*
X43931666Y-82833333D01*
X43865000Y-82866666D01*
X43731666Y-82866666D01*
X43665000Y-82833333D01*
X43598333Y-82766666D01*
X43565000Y-82633333D01*
X43565000Y-82400000D01*
X43598333Y-82266666D01*
X43665000Y-82200000D01*
X43731666Y-82166666D01*
X38665000Y-81250000D02*
X38431666Y-81250000D01*
X38431666Y-81616666D02*
X38431666Y-80916666D01*
X38765000Y-80916666D01*
X38865000Y-81683333D02*
X39398333Y-81683333D01*
X39565000Y-81616666D02*
X39565000Y-80916666D01*
X39731666Y-80916666D01*
X39831666Y-80950000D01*
X39898333Y-81016666D01*
X39931666Y-81083333D01*
X39965000Y-81216666D01*
X39965000Y-81316666D01*
X39931666Y-81450000D01*
X39898333Y-81516666D01*
X39831666Y-81583333D01*
X39731666Y-81616666D01*
X39565000Y-81616666D01*
X40565000Y-81150000D02*
X40565000Y-81616666D01*
X40398333Y-80883333D02*
X40231666Y-81383333D01*
X40665000Y-81383333D01*
X40765000Y-81683333D02*
X41298333Y-81683333D01*
X41465000Y-81616666D02*
X41465000Y-80916666D01*
X41931666Y-80916666D02*
X42065000Y-80916666D01*
X42131666Y-80950000D01*
X42198333Y-81016666D01*
X42231666Y-81150000D01*
X42231666Y-81383333D01*
X42198333Y-81516666D01*
X42131666Y-81583333D01*
X42065000Y-81616666D01*
X41931666Y-81616666D01*
X41865000Y-81583333D01*
X41798333Y-81516666D01*
X41765000Y-81383333D01*
X41765000Y-81150000D01*
X41798333Y-81016666D01*
X41865000Y-80950000D01*
X41931666Y-80916666D01*
X40465000Y-85050000D02*
X40231666Y-85050000D01*
X40231666Y-85416666D02*
X40231666Y-84716666D01*
X40565000Y-84716666D01*
X40665000Y-85483333D02*
X41198333Y-85483333D01*
X41365000Y-85416666D02*
X41365000Y-84716666D01*
X41531666Y-84716666D01*
X41631666Y-84750000D01*
X41698333Y-84816666D01*
X41731666Y-84883333D01*
X41765000Y-85016666D01*
X41765000Y-85116666D01*
X41731666Y-85250000D01*
X41698333Y-85316666D01*
X41631666Y-85383333D01*
X41531666Y-85416666D01*
X41365000Y-85416666D01*
X41998333Y-84716666D02*
X42431666Y-84716666D01*
X42198333Y-84983333D01*
X42298333Y-84983333D01*
X42365000Y-85016666D01*
X42398333Y-85050000D01*
X42431666Y-85116666D01*
X42431666Y-85283333D01*
X42398333Y-85350000D01*
X42365000Y-85383333D01*
X42298333Y-85416666D01*
X42098333Y-85416666D01*
X42031666Y-85383333D01*
X41998333Y-85350000D01*
X42565000Y-85483333D02*
X43098333Y-85483333D01*
X43265000Y-85416666D02*
X43265000Y-84716666D01*
X43731666Y-84716666D02*
X43865000Y-84716666D01*
X43931666Y-84750000D01*
X43998333Y-84816666D01*
X44031666Y-84950000D01*
X44031666Y-85183333D01*
X43998333Y-85316666D01*
X43931666Y-85383333D01*
X43865000Y-85416666D01*
X43731666Y-85416666D01*
X43665000Y-85383333D01*
X43598333Y-85316666D01*
X43565000Y-85183333D01*
X43565000Y-84950000D01*
X43598333Y-84816666D01*
X43665000Y-84750000D01*
X43731666Y-84716666D01*
X38665000Y-83750000D02*
X38431666Y-83750000D01*
X38431666Y-84116666D02*
X38431666Y-83416666D01*
X38765000Y-83416666D01*
X38865000Y-84183333D02*
X39398333Y-84183333D01*
X39565000Y-84116666D02*
X39565000Y-83416666D01*
X39731666Y-83416666D01*
X39831666Y-83450000D01*
X39898333Y-83516666D01*
X39931666Y-83583333D01*
X39965000Y-83716666D01*
X39965000Y-83816666D01*
X39931666Y-83950000D01*
X39898333Y-84016666D01*
X39831666Y-84083333D01*
X39731666Y-84116666D01*
X39565000Y-84116666D01*
X40231666Y-83483333D02*
X40265000Y-83450000D01*
X40331666Y-83416666D01*
X40498333Y-83416666D01*
X40565000Y-83450000D01*
X40598333Y-83483333D01*
X40631666Y-83550000D01*
X40631666Y-83616666D01*
X40598333Y-83716666D01*
X40198333Y-84116666D01*
X40631666Y-84116666D01*
X40765000Y-84183333D02*
X41298333Y-84183333D01*
X41465000Y-84116666D02*
X41465000Y-83416666D01*
X41931666Y-83416666D02*
X42065000Y-83416666D01*
X42131666Y-83450000D01*
X42198333Y-83516666D01*
X42231666Y-83650000D01*
X42231666Y-83883333D01*
X42198333Y-84016666D01*
X42131666Y-84083333D01*
X42065000Y-84116666D01*
X41931666Y-84116666D01*
X41865000Y-84083333D01*
X41798333Y-84016666D01*
X41765000Y-83883333D01*
X41765000Y-83650000D01*
X41798333Y-83516666D01*
X41865000Y-83450000D01*
X41931666Y-83416666D01*
X40465000Y-87600000D02*
X40231666Y-87600000D01*
X40231666Y-87966666D02*
X40231666Y-87266666D01*
X40565000Y-87266666D01*
X40665000Y-88033333D02*
X41198333Y-88033333D01*
X41365000Y-87966666D02*
X41365000Y-87266666D01*
X41531666Y-87266666D01*
X41631666Y-87300000D01*
X41698333Y-87366666D01*
X41731666Y-87433333D01*
X41765000Y-87566666D01*
X41765000Y-87666666D01*
X41731666Y-87800000D01*
X41698333Y-87866666D01*
X41631666Y-87933333D01*
X41531666Y-87966666D01*
X41365000Y-87966666D01*
X42431666Y-87966666D02*
X42031666Y-87966666D01*
X42231666Y-87966666D02*
X42231666Y-87266666D01*
X42165000Y-87366666D01*
X42098333Y-87433333D01*
X42031666Y-87466666D01*
X42565000Y-88033333D02*
X43098333Y-88033333D01*
X43265000Y-87966666D02*
X43265000Y-87266666D01*
X43731666Y-87266666D02*
X43865000Y-87266666D01*
X43931666Y-87300000D01*
X43998333Y-87366666D01*
X44031666Y-87500000D01*
X44031666Y-87733333D01*
X43998333Y-87866666D01*
X43931666Y-87933333D01*
X43865000Y-87966666D01*
X43731666Y-87966666D01*
X43665000Y-87933333D01*
X43598333Y-87866666D01*
X43565000Y-87733333D01*
X43565000Y-87500000D01*
X43598333Y-87366666D01*
X43665000Y-87300000D01*
X43731666Y-87266666D01*
X38665000Y-86300000D02*
X38431666Y-86300000D01*
X38431666Y-86666666D02*
X38431666Y-85966666D01*
X38765000Y-85966666D01*
X38865000Y-86733333D02*
X39398333Y-86733333D01*
X39565000Y-86666666D02*
X39565000Y-85966666D01*
X39731666Y-85966666D01*
X39831666Y-86000000D01*
X39898333Y-86066666D01*
X39931666Y-86133333D01*
X39965000Y-86266666D01*
X39965000Y-86366666D01*
X39931666Y-86500000D01*
X39898333Y-86566666D01*
X39831666Y-86633333D01*
X39731666Y-86666666D01*
X39565000Y-86666666D01*
X40398333Y-85966666D02*
X40465000Y-85966666D01*
X40531666Y-86000000D01*
X40565000Y-86033333D01*
X40598333Y-86100000D01*
X40631666Y-86233333D01*
X40631666Y-86400000D01*
X40598333Y-86533333D01*
X40565000Y-86600000D01*
X40531666Y-86633333D01*
X40465000Y-86666666D01*
X40398333Y-86666666D01*
X40331666Y-86633333D01*
X40298333Y-86600000D01*
X40265000Y-86533333D01*
X40231666Y-86400000D01*
X40231666Y-86233333D01*
X40265000Y-86100000D01*
X40298333Y-86033333D01*
X40331666Y-86000000D01*
X40398333Y-85966666D01*
X40765000Y-86733333D02*
X41298333Y-86733333D01*
X41465000Y-86666666D02*
X41465000Y-85966666D01*
X41931666Y-85966666D02*
X42065000Y-85966666D01*
X42131666Y-86000000D01*
X42198333Y-86066666D01*
X42231666Y-86200000D01*
X42231666Y-86433333D01*
X42198333Y-86566666D01*
X42131666Y-86633333D01*
X42065000Y-86666666D01*
X41931666Y-86666666D01*
X41865000Y-86633333D01*
X41798333Y-86566666D01*
X41765000Y-86433333D01*
X41765000Y-86200000D01*
X41798333Y-86066666D01*
X41865000Y-86000000D01*
X41931666Y-85966666D01*
X38665000Y-66000000D02*
X38431666Y-66000000D01*
X38431666Y-66366666D02*
X38431666Y-65666666D01*
X38765000Y-65666666D01*
X38865000Y-66433333D02*
X39398333Y-66433333D01*
X39565000Y-66366666D02*
X39565000Y-65666666D01*
X39565000Y-66000000D02*
X39965000Y-66000000D01*
X39965000Y-66366666D02*
X39965000Y-65666666D01*
X40631666Y-66366666D02*
X40298333Y-66366666D01*
X40298333Y-65666666D01*
X40865000Y-66366666D02*
X40865000Y-65666666D01*
X41031666Y-65666666D01*
X41131666Y-65700000D01*
X41198333Y-65766666D01*
X41231666Y-65833333D01*
X41265000Y-65966666D01*
X41265000Y-66066666D01*
X41231666Y-66200000D01*
X41198333Y-66266666D01*
X41131666Y-66333333D01*
X41031666Y-66366666D01*
X40865000Y-66366666D01*
X41531666Y-66166666D02*
X41865000Y-66166666D01*
X41465000Y-66366666D02*
X41698333Y-65666666D01*
X41931666Y-66366666D01*
X41998333Y-66433333D02*
X42531666Y-66433333D01*
X42831666Y-65666666D02*
X42965000Y-65666666D01*
X43031666Y-65700000D01*
X43098333Y-65766666D01*
X43131666Y-65900000D01*
X43131666Y-66133333D01*
X43098333Y-66266666D01*
X43031666Y-66333333D01*
X42965000Y-66366666D01*
X42831666Y-66366666D01*
X42765000Y-66333333D01*
X42698333Y-66266666D01*
X42665000Y-66133333D01*
X42665000Y-65900000D01*
X42698333Y-65766666D01*
X42765000Y-65700000D01*
X42831666Y-65666666D01*
X40465000Y-90150000D02*
X40231666Y-90150000D01*
X40231666Y-90516666D02*
X40231666Y-89816666D01*
X40565000Y-89816666D01*
X40665000Y-90583333D02*
X41198333Y-90583333D01*
X41365000Y-90516666D02*
X41365000Y-89816666D01*
X41365000Y-90150000D02*
X41765000Y-90150000D01*
X41765000Y-90516666D02*
X41765000Y-89816666D01*
X42231666Y-89816666D02*
X42365000Y-89816666D01*
X42431666Y-89850000D01*
X42498333Y-89916666D01*
X42531666Y-90050000D01*
X42531666Y-90283333D01*
X42498333Y-90416666D01*
X42431666Y-90483333D01*
X42365000Y-90516666D01*
X42231666Y-90516666D01*
X42165000Y-90483333D01*
X42098333Y-90416666D01*
X42065000Y-90283333D01*
X42065000Y-90050000D01*
X42098333Y-89916666D01*
X42165000Y-89850000D01*
X42231666Y-89816666D01*
X43165000Y-90516666D02*
X42831666Y-90516666D01*
X42831666Y-89816666D01*
X43398333Y-90516666D02*
X43398333Y-89816666D01*
X43565000Y-89816666D01*
X43665000Y-89850000D01*
X43731666Y-89916666D01*
X43765000Y-89983333D01*
X43798333Y-90116666D01*
X43798333Y-90216666D01*
X43765000Y-90350000D01*
X43731666Y-90416666D01*
X43665000Y-90483333D01*
X43565000Y-90516666D01*
X43398333Y-90516666D01*
X43931666Y-90583333D02*
X44465000Y-90583333D01*
X44631666Y-90516666D02*
X44631666Y-89816666D01*
X38665000Y-88850000D02*
X38431666Y-88850000D01*
X38431666Y-89216666D02*
X38431666Y-88516666D01*
X38765000Y-88516666D01*
X38865000Y-89283333D02*
X39398333Y-89283333D01*
X39398333Y-88266000D02*
X40098333Y-88266000D01*
X39965000Y-89216666D02*
X39731666Y-88883333D01*
X39565000Y-89216666D02*
X39565000Y-88516666D01*
X39831666Y-88516666D01*
X39898333Y-88550000D01*
X39931666Y-88583333D01*
X39965000Y-88650000D01*
X39965000Y-88750000D01*
X39931666Y-88816666D01*
X39898333Y-88850000D01*
X39831666Y-88883333D01*
X39565000Y-88883333D01*
X40098333Y-88266000D02*
X40731666Y-88266000D01*
X40265000Y-88850000D02*
X40498333Y-88850000D01*
X40598333Y-89216666D02*
X40265000Y-89216666D01*
X40265000Y-88516666D01*
X40598333Y-88516666D01*
X40731666Y-88266000D02*
X41331666Y-88266000D01*
X40865000Y-89016666D02*
X41198333Y-89016666D01*
X40798333Y-89216666D02*
X41031666Y-88516666D01*
X41265000Y-89216666D01*
X41331666Y-88266000D02*
X42031666Y-88266000D01*
X41498333Y-89216666D02*
X41498333Y-88516666D01*
X41665000Y-88516666D01*
X41765000Y-88550000D01*
X41831666Y-88616666D01*
X41865000Y-88683333D01*
X41898333Y-88816666D01*
X41898333Y-88916666D01*
X41865000Y-89050000D01*
X41831666Y-89116666D01*
X41765000Y-89183333D01*
X41665000Y-89216666D01*
X41498333Y-89216666D01*
X42031666Y-88266000D02*
X42631666Y-88266000D01*
X42331666Y-88883333D02*
X42331666Y-89216666D01*
X42098333Y-88516666D02*
X42331666Y-88883333D01*
X42565000Y-88516666D01*
X42631666Y-89283333D02*
X43165000Y-89283333D01*
X43331666Y-89216666D02*
X43331666Y-88516666D01*
X40515000Y-92650000D02*
X40281666Y-92650000D01*
X40281666Y-93016666D02*
X40281666Y-92316666D01*
X40615000Y-92316666D01*
X40715000Y-93083333D02*
X41248333Y-93083333D01*
X41815000Y-92950000D02*
X41781666Y-92983333D01*
X41681666Y-93016666D01*
X41615000Y-93016666D01*
X41515000Y-92983333D01*
X41448333Y-92916666D01*
X41415000Y-92850000D01*
X41381666Y-92716666D01*
X41381666Y-92616666D01*
X41415000Y-92483333D01*
X41448333Y-92416666D01*
X41515000Y-92350000D01*
X41615000Y-92316666D01*
X41681666Y-92316666D01*
X41781666Y-92350000D01*
X41815000Y-92383333D01*
X42448333Y-93016666D02*
X42115000Y-93016666D01*
X42115000Y-92316666D01*
X42681666Y-93016666D02*
X42681666Y-92316666D01*
X43081666Y-93016666D02*
X42781666Y-92616666D01*
X43081666Y-92316666D02*
X42681666Y-92716666D01*
X43215000Y-93083333D02*
X43748333Y-93083333D01*
X43915000Y-93016666D02*
X43915000Y-92316666D01*
X38715000Y-91400000D02*
X38481666Y-91400000D01*
X38481666Y-91766666D02*
X38481666Y-91066666D01*
X38815000Y-91066666D01*
X38915000Y-91833333D02*
X39448333Y-91833333D01*
X39448333Y-90816000D02*
X40048333Y-90816000D01*
X39581666Y-91566666D02*
X39915000Y-91566666D01*
X39515000Y-91766666D02*
X39748333Y-91066666D01*
X39981666Y-91766666D01*
X40048333Y-90816000D02*
X40748333Y-90816000D01*
X40215000Y-91766666D02*
X40215000Y-91066666D01*
X40381666Y-91066666D01*
X40481666Y-91100000D01*
X40548333Y-91166666D01*
X40581666Y-91233333D01*
X40615000Y-91366666D01*
X40615000Y-91466666D01*
X40581666Y-91600000D01*
X40548333Y-91666666D01*
X40481666Y-91733333D01*
X40381666Y-91766666D01*
X40215000Y-91766666D01*
X40748333Y-90816000D02*
X41415000Y-90816000D01*
X40881666Y-91733333D02*
X40981666Y-91766666D01*
X41148333Y-91766666D01*
X41215000Y-91733333D01*
X41248333Y-91700000D01*
X41281666Y-91633333D01*
X41281666Y-91566666D01*
X41248333Y-91500000D01*
X41215000Y-91466666D01*
X41148333Y-91433333D01*
X41015000Y-91400000D01*
X40948333Y-91366666D01*
X40915000Y-91333333D01*
X40881666Y-91266666D01*
X40881666Y-91200000D01*
X40915000Y-91133333D01*
X40948333Y-91100000D01*
X41015000Y-91066666D01*
X41181666Y-91066666D01*
X41281666Y-91100000D01*
X41415000Y-91833333D02*
X41948333Y-91833333D01*
X42248333Y-91066666D02*
X42381666Y-91066666D01*
X42448333Y-91100000D01*
X42515000Y-91166666D01*
X42548333Y-91300000D01*
X42548333Y-91533333D01*
X42515000Y-91666666D01*
X42448333Y-91733333D01*
X42381666Y-91766666D01*
X42248333Y-91766666D01*
X42181666Y-91733333D01*
X42115000Y-91666666D01*
X42081666Y-91533333D01*
X42081666Y-91300000D01*
X42115000Y-91166666D01*
X42181666Y-91100000D01*
X42248333Y-91066666D01*
X40465000Y-36800000D02*
X40231666Y-36800000D01*
X40231666Y-37166666D02*
X40231666Y-36466666D01*
X40565000Y-36466666D01*
X40665000Y-37233333D02*
X41198333Y-37233333D01*
X41198333Y-36216000D02*
X41898333Y-36216000D01*
X41598333Y-36800000D02*
X41698333Y-36833333D01*
X41731666Y-36866666D01*
X41765000Y-36933333D01*
X41765000Y-37033333D01*
X41731666Y-37100000D01*
X41698333Y-37133333D01*
X41631666Y-37166666D01*
X41365000Y-37166666D01*
X41365000Y-36466666D01*
X41598333Y-36466666D01*
X41665000Y-36500000D01*
X41698333Y-36533333D01*
X41731666Y-36600000D01*
X41731666Y-36666666D01*
X41698333Y-36733333D01*
X41665000Y-36766666D01*
X41598333Y-36800000D01*
X41365000Y-36800000D01*
X41898333Y-36216000D02*
X42465000Y-36216000D01*
X42398333Y-37166666D02*
X42065000Y-37166666D01*
X42065000Y-36466666D01*
X42465000Y-36216000D02*
X43098333Y-36216000D01*
X42631666Y-36800000D02*
X42865000Y-36800000D01*
X42965000Y-37166666D02*
X42631666Y-37166666D01*
X42631666Y-36466666D01*
X42965000Y-36466666D01*
X43098333Y-37233333D02*
X43631666Y-37233333D01*
X43931666Y-36466666D02*
X44065000Y-36466666D01*
X44131666Y-36500000D01*
X44198333Y-36566666D01*
X44231666Y-36700000D01*
X44231666Y-36933333D01*
X44198333Y-37066666D01*
X44131666Y-37133333D01*
X44065000Y-37166666D01*
X43931666Y-37166666D01*
X43865000Y-37133333D01*
X43798333Y-37066666D01*
X43765000Y-36933333D01*
X43765000Y-36700000D01*
X43798333Y-36566666D01*
X43865000Y-36500000D01*
X43931666Y-36466666D01*
X38665000Y-35550000D02*
X38431666Y-35550000D01*
X38431666Y-35916666D02*
X38431666Y-35216666D01*
X38765000Y-35216666D01*
X38865000Y-35983333D02*
X39398333Y-35983333D01*
X39531666Y-35716666D02*
X39865000Y-35716666D01*
X39465000Y-35916666D02*
X39698333Y-35216666D01*
X39931666Y-35916666D01*
X40531666Y-35916666D02*
X40131666Y-35916666D01*
X40331666Y-35916666D02*
X40331666Y-35216666D01*
X40265000Y-35316666D01*
X40198333Y-35383333D01*
X40131666Y-35416666D01*
X40665000Y-35983333D02*
X41198333Y-35983333D01*
X41498333Y-35216666D02*
X41631666Y-35216666D01*
X41698333Y-35250000D01*
X41765000Y-35316666D01*
X41798333Y-35450000D01*
X41798333Y-35683333D01*
X41765000Y-35816666D01*
X41698333Y-35883333D01*
X41631666Y-35916666D01*
X41498333Y-35916666D01*
X41431666Y-35883333D01*
X41365000Y-35816666D01*
X41331666Y-35683333D01*
X41331666Y-35450000D01*
X41365000Y-35316666D01*
X41431666Y-35250000D01*
X41498333Y-35216666D01*
X40465000Y-39300000D02*
X40231666Y-39300000D01*
X40231666Y-39666666D02*
X40231666Y-38966666D01*
X40565000Y-38966666D01*
X40665000Y-39733333D02*
X41198333Y-39733333D01*
X41198333Y-38716000D02*
X41898333Y-38716000D01*
X41598333Y-39300000D02*
X41698333Y-39333333D01*
X41731666Y-39366666D01*
X41765000Y-39433333D01*
X41765000Y-39533333D01*
X41731666Y-39600000D01*
X41698333Y-39633333D01*
X41631666Y-39666666D01*
X41365000Y-39666666D01*
X41365000Y-38966666D01*
X41598333Y-38966666D01*
X41665000Y-39000000D01*
X41698333Y-39033333D01*
X41731666Y-39100000D01*
X41731666Y-39166666D01*
X41698333Y-39233333D01*
X41665000Y-39266666D01*
X41598333Y-39300000D01*
X41365000Y-39300000D01*
X41898333Y-38716000D02*
X42631666Y-38716000D01*
X42065000Y-39666666D02*
X42065000Y-38966666D01*
X42065000Y-39300000D02*
X42465000Y-39300000D01*
X42465000Y-39666666D02*
X42465000Y-38966666D01*
X42631666Y-38716000D02*
X43265000Y-38716000D01*
X42798333Y-39300000D02*
X43031666Y-39300000D01*
X43131666Y-39666666D02*
X42798333Y-39666666D01*
X42798333Y-38966666D01*
X43131666Y-38966666D01*
X43265000Y-39733333D02*
X43798333Y-39733333D01*
X44098333Y-38966666D02*
X44231666Y-38966666D01*
X44298333Y-39000000D01*
X44365000Y-39066666D01*
X44398333Y-39200000D01*
X44398333Y-39433333D01*
X44365000Y-39566666D01*
X44298333Y-39633333D01*
X44231666Y-39666666D01*
X44098333Y-39666666D01*
X44031666Y-39633333D01*
X43965000Y-39566666D01*
X43931666Y-39433333D01*
X43931666Y-39200000D01*
X43965000Y-39066666D01*
X44031666Y-39000000D01*
X44098333Y-38966666D01*
X38665000Y-93950000D02*
X38431666Y-93950000D01*
X38431666Y-94316666D02*
X38431666Y-93616666D01*
X38765000Y-93616666D01*
X38865000Y-94383333D02*
X39398333Y-94383333D01*
X39565000Y-94316666D02*
X39565000Y-93616666D01*
X39798333Y-94116666D01*
X40031666Y-93616666D01*
X40031666Y-94316666D01*
X40198333Y-93366000D02*
X40531666Y-93366000D01*
X40365000Y-94316666D02*
X40365000Y-93616666D01*
X40531666Y-93366000D02*
X41265000Y-93366000D01*
X40831666Y-93616666D02*
X40965000Y-93616666D01*
X41031666Y-93650000D01*
X41098333Y-93716666D01*
X41131666Y-93850000D01*
X41131666Y-94083333D01*
X41098333Y-94216666D01*
X41031666Y-94283333D01*
X40965000Y-94316666D01*
X40831666Y-94316666D01*
X40765000Y-94283333D01*
X40698333Y-94216666D01*
X40665000Y-94083333D01*
X40665000Y-93850000D01*
X40698333Y-93716666D01*
X40765000Y-93650000D01*
X40831666Y-93616666D01*
X41265000Y-94383333D02*
X41798333Y-94383333D01*
X42098333Y-93616666D02*
X42231666Y-93616666D01*
X42298333Y-93650000D01*
X42365000Y-93716666D01*
X42398333Y-93850000D01*
X42398333Y-94083333D01*
X42365000Y-94216666D01*
X42298333Y-94283333D01*
X42231666Y-94316666D01*
X42098333Y-94316666D01*
X42031666Y-94283333D01*
X41965000Y-94216666D01*
X41931666Y-94083333D01*
X41931666Y-93850000D01*
X41965000Y-93716666D01*
X42031666Y-93650000D01*
X42098333Y-93616666D01*
X40465000Y-95250000D02*
X40231666Y-95250000D01*
X40231666Y-95616666D02*
X40231666Y-94916666D01*
X40565000Y-94916666D01*
X40665000Y-95683333D02*
X41198333Y-95683333D01*
X41365000Y-95616666D02*
X41365000Y-94916666D01*
X41531666Y-94916666D01*
X41631666Y-94950000D01*
X41698333Y-95016666D01*
X41731666Y-95083333D01*
X41765000Y-95216666D01*
X41765000Y-95316666D01*
X41731666Y-95450000D01*
X41698333Y-95516666D01*
X41631666Y-95583333D01*
X41531666Y-95616666D01*
X41365000Y-95616666D01*
X41898333Y-94666000D02*
X42598333Y-94666000D01*
X42465000Y-95550000D02*
X42431666Y-95583333D01*
X42331666Y-95616666D01*
X42265000Y-95616666D01*
X42165000Y-95583333D01*
X42098333Y-95516666D01*
X42065000Y-95450000D01*
X42031666Y-95316666D01*
X42031666Y-95216666D01*
X42065000Y-95083333D01*
X42098333Y-95016666D01*
X42165000Y-94950000D01*
X42265000Y-94916666D01*
X42331666Y-94916666D01*
X42431666Y-94950000D01*
X42465000Y-94983333D01*
X42598333Y-95683333D02*
X43131666Y-95683333D01*
X43431666Y-94916666D02*
X43565000Y-94916666D01*
X43631666Y-94950000D01*
X43698333Y-95016666D01*
X43731666Y-95150000D01*
X43731666Y-95383333D01*
X43698333Y-95516666D01*
X43631666Y-95583333D01*
X43565000Y-95616666D01*
X43431666Y-95616666D01*
X43365000Y-95583333D01*
X43298333Y-95516666D01*
X43265000Y-95383333D01*
X43265000Y-95150000D01*
X43298333Y-95016666D01*
X43365000Y-94950000D01*
X43431666Y-94916666D01*
X38665000Y-96450000D02*
X38431666Y-96450000D01*
X38431666Y-96816666D02*
X38431666Y-96116666D01*
X38765000Y-96116666D01*
X38865000Y-96883333D02*
X39398333Y-96883333D01*
X39498333Y-96116666D02*
X39665000Y-96816666D01*
X39798333Y-96316666D01*
X39931666Y-96816666D01*
X40098333Y-96116666D01*
X40198333Y-95866000D02*
X40898333Y-95866000D01*
X40765000Y-96816666D02*
X40531666Y-96483333D01*
X40365000Y-96816666D02*
X40365000Y-96116666D01*
X40631666Y-96116666D01*
X40698333Y-96150000D01*
X40731666Y-96183333D01*
X40765000Y-96250000D01*
X40765000Y-96350000D01*
X40731666Y-96416666D01*
X40698333Y-96450000D01*
X40631666Y-96483333D01*
X40365000Y-96483333D01*
X40898333Y-96883333D02*
X41431666Y-96883333D01*
X41731666Y-96116666D02*
X41865000Y-96116666D01*
X41931666Y-96150000D01*
X41998333Y-96216666D01*
X42031666Y-96350000D01*
X42031666Y-96583333D01*
X41998333Y-96716666D01*
X41931666Y-96783333D01*
X41865000Y-96816666D01*
X41731666Y-96816666D01*
X41665000Y-96783333D01*
X41598333Y-96716666D01*
X41565000Y-96583333D01*
X41565000Y-96350000D01*
X41598333Y-96216666D01*
X41665000Y-96150000D01*
X41731666Y-96116666D01*
X40465000Y-97750000D02*
X40231666Y-97750000D01*
X40231666Y-98116666D02*
X40231666Y-97416666D01*
X40565000Y-97416666D01*
X40665000Y-98183333D02*
X41198333Y-98183333D01*
X41198333Y-97166000D02*
X41765000Y-97166000D01*
X41698333Y-98116666D02*
X41365000Y-98116666D01*
X41365000Y-97416666D01*
X41765000Y-97166000D02*
X42498333Y-97166000D01*
X42065000Y-97416666D02*
X42198333Y-97416666D01*
X42265000Y-97450000D01*
X42331666Y-97516666D01*
X42365000Y-97650000D01*
X42365000Y-97883333D01*
X42331666Y-98016666D01*
X42265000Y-98083333D01*
X42198333Y-98116666D01*
X42065000Y-98116666D01*
X41998333Y-98083333D01*
X41931666Y-98016666D01*
X41898333Y-97883333D01*
X41898333Y-97650000D01*
X41931666Y-97516666D01*
X41998333Y-97450000D01*
X42065000Y-97416666D01*
X42498333Y-97166000D02*
X43198333Y-97166000D01*
X43065000Y-98050000D02*
X43031666Y-98083333D01*
X42931666Y-98116666D01*
X42865000Y-98116666D01*
X42765000Y-98083333D01*
X42698333Y-98016666D01*
X42665000Y-97950000D01*
X42631666Y-97816666D01*
X42631666Y-97716666D01*
X42665000Y-97583333D01*
X42698333Y-97516666D01*
X42765000Y-97450000D01*
X42865000Y-97416666D01*
X42931666Y-97416666D01*
X43031666Y-97450000D01*
X43065000Y-97483333D01*
X43198333Y-97166000D02*
X43898333Y-97166000D01*
X43365000Y-98116666D02*
X43365000Y-97416666D01*
X43765000Y-98116666D02*
X43465000Y-97716666D01*
X43765000Y-97416666D02*
X43365000Y-97816666D01*
X43898333Y-98183333D02*
X44431666Y-98183333D01*
X44731666Y-97416666D02*
X44865000Y-97416666D01*
X44931666Y-97450000D01*
X44998333Y-97516666D01*
X45031666Y-97650000D01*
X45031666Y-97883333D01*
X44998333Y-98016666D01*
X44931666Y-98083333D01*
X44865000Y-98116666D01*
X44731666Y-98116666D01*
X44665000Y-98083333D01*
X44598333Y-98016666D01*
X44565000Y-97883333D01*
X44565000Y-97650000D01*
X44598333Y-97516666D01*
X44665000Y-97450000D01*
X44731666Y-97416666D01*
X38665000Y-99000000D02*
X38431666Y-99000000D01*
X38431666Y-99366666D02*
X38431666Y-98666666D01*
X38765000Y-98666666D01*
X38865000Y-99433333D02*
X39398333Y-99433333D01*
X39398333Y-98416000D02*
X39998333Y-98416000D01*
X39798333Y-99000000D02*
X39565000Y-99000000D01*
X39565000Y-99366666D02*
X39565000Y-98666666D01*
X39898333Y-98666666D01*
X39998333Y-98416000D02*
X40565000Y-98416000D01*
X40498333Y-99366666D02*
X40165000Y-99366666D01*
X40165000Y-98666666D01*
X40565000Y-98416000D02*
X41098333Y-98416000D01*
X40631666Y-98666666D02*
X41031666Y-98666666D01*
X40831666Y-99366666D02*
X40831666Y-98666666D01*
X41098333Y-99433333D02*
X41631666Y-99433333D01*
X41798333Y-99366666D02*
X41798333Y-98666666D01*
X40515000Y-100350000D02*
X40281666Y-100350000D01*
X40281666Y-100716666D02*
X40281666Y-100016666D01*
X40615000Y-100016666D01*
X40715000Y-100783333D02*
X41248333Y-100783333D01*
X41815000Y-100716666D02*
X41581666Y-100383333D01*
X41415000Y-100716666D02*
X41415000Y-100016666D01*
X41681666Y-100016666D01*
X41748333Y-100050000D01*
X41781666Y-100083333D01*
X41815000Y-100150000D01*
X41815000Y-100250000D01*
X41781666Y-100316666D01*
X41748333Y-100350000D01*
X41681666Y-100383333D01*
X41415000Y-100383333D01*
X42081666Y-100683333D02*
X42181666Y-100716666D01*
X42348333Y-100716666D01*
X42415000Y-100683333D01*
X42448333Y-100650000D01*
X42481666Y-100583333D01*
X42481666Y-100516666D01*
X42448333Y-100450000D01*
X42415000Y-100416666D01*
X42348333Y-100383333D01*
X42215000Y-100350000D01*
X42148333Y-100316666D01*
X42115000Y-100283333D01*
X42081666Y-100216666D01*
X42081666Y-100150000D01*
X42115000Y-100083333D01*
X42148333Y-100050000D01*
X42215000Y-100016666D01*
X42381666Y-100016666D01*
X42481666Y-100050000D01*
X42681666Y-100016666D02*
X43081666Y-100016666D01*
X42881666Y-100716666D02*
X42881666Y-100016666D01*
X43148333Y-100783333D02*
X43681666Y-100783333D01*
X43848333Y-100716666D02*
X43848333Y-100016666D01*
X38665000Y-101550000D02*
X38431666Y-101550000D01*
X38431666Y-101916666D02*
X38431666Y-101216666D01*
X38765000Y-101216666D01*
X38865000Y-101983333D02*
X39398333Y-101983333D01*
X39398333Y-100966000D02*
X40098333Y-100966000D01*
X39798333Y-101550000D02*
X39898333Y-101583333D01*
X39931666Y-101616666D01*
X39965000Y-101683333D01*
X39965000Y-101783333D01*
X39931666Y-101850000D01*
X39898333Y-101883333D01*
X39831666Y-101916666D01*
X39565000Y-101916666D01*
X39565000Y-101216666D01*
X39798333Y-101216666D01*
X39865000Y-101250000D01*
X39898333Y-101283333D01*
X39931666Y-101350000D01*
X39931666Y-101416666D01*
X39898333Y-101483333D01*
X39865000Y-101516666D01*
X39798333Y-101550000D01*
X39565000Y-101550000D01*
X40098333Y-100966000D02*
X40831666Y-100966000D01*
X40265000Y-101216666D02*
X40265000Y-101783333D01*
X40298333Y-101850000D01*
X40331666Y-101883333D01*
X40398333Y-101916666D01*
X40531666Y-101916666D01*
X40598333Y-101883333D01*
X40631666Y-101850000D01*
X40665000Y-101783333D01*
X40665000Y-101216666D01*
X40831666Y-100966000D02*
X41498333Y-100966000D01*
X40965000Y-101883333D02*
X41065000Y-101916666D01*
X41231666Y-101916666D01*
X41298333Y-101883333D01*
X41331666Y-101850000D01*
X41365000Y-101783333D01*
X41365000Y-101716666D01*
X41331666Y-101650000D01*
X41298333Y-101616666D01*
X41231666Y-101583333D01*
X41098333Y-101550000D01*
X41031666Y-101516666D01*
X40998333Y-101483333D01*
X40965000Y-101416666D01*
X40965000Y-101350000D01*
X40998333Y-101283333D01*
X41031666Y-101250000D01*
X41098333Y-101216666D01*
X41265000Y-101216666D01*
X41365000Y-101250000D01*
X41498333Y-100966000D02*
X42098333Y-100966000D01*
X41798333Y-101583333D02*
X41798333Y-101916666D01*
X41565000Y-101216666D02*
X41798333Y-101583333D01*
X42031666Y-101216666D01*
X42098333Y-101983333D02*
X42631666Y-101983333D01*
X42798333Y-101916666D02*
X42798333Y-101216666D01*
X40465000Y-102850000D02*
X40231666Y-102850000D01*
X40231666Y-103216666D02*
X40231666Y-102516666D01*
X40565000Y-102516666D01*
X40665000Y-103283333D02*
X41198333Y-103283333D01*
X41198333Y-102266000D02*
X41831666Y-102266000D01*
X41365000Y-102850000D02*
X41598333Y-102850000D01*
X41698333Y-103216666D02*
X41365000Y-103216666D01*
X41365000Y-102516666D01*
X41698333Y-102516666D01*
X41831666Y-102266000D02*
X42531666Y-102266000D01*
X42398333Y-103216666D02*
X42165000Y-102883333D01*
X41998333Y-103216666D02*
X41998333Y-102516666D01*
X42265000Y-102516666D01*
X42331666Y-102550000D01*
X42365000Y-102583333D01*
X42398333Y-102650000D01*
X42398333Y-102750000D01*
X42365000Y-102816666D01*
X42331666Y-102850000D01*
X42265000Y-102883333D01*
X41998333Y-102883333D01*
X42531666Y-102266000D02*
X43231666Y-102266000D01*
X43098333Y-103216666D02*
X42865000Y-102883333D01*
X42698333Y-103216666D02*
X42698333Y-102516666D01*
X42965000Y-102516666D01*
X43031666Y-102550000D01*
X43065000Y-102583333D01*
X43098333Y-102650000D01*
X43098333Y-102750000D01*
X43065000Y-102816666D01*
X43031666Y-102850000D01*
X42965000Y-102883333D01*
X42698333Y-102883333D01*
X43231666Y-102266000D02*
X43965000Y-102266000D01*
X43531666Y-102516666D02*
X43665000Y-102516666D01*
X43731666Y-102550000D01*
X43798333Y-102616666D01*
X43831666Y-102750000D01*
X43831666Y-102983333D01*
X43798333Y-103116666D01*
X43731666Y-103183333D01*
X43665000Y-103216666D01*
X43531666Y-103216666D01*
X43465000Y-103183333D01*
X43398333Y-103116666D01*
X43365000Y-102983333D01*
X43365000Y-102750000D01*
X43398333Y-102616666D01*
X43465000Y-102550000D01*
X43531666Y-102516666D01*
X43965000Y-102266000D02*
X44665000Y-102266000D01*
X44531666Y-103216666D02*
X44298333Y-102883333D01*
X44131666Y-103216666D02*
X44131666Y-102516666D01*
X44398333Y-102516666D01*
X44465000Y-102550000D01*
X44498333Y-102583333D01*
X44531666Y-102650000D01*
X44531666Y-102750000D01*
X44498333Y-102816666D01*
X44465000Y-102850000D01*
X44398333Y-102883333D01*
X44131666Y-102883333D01*
X44665000Y-103283333D02*
X45198333Y-103283333D01*
X45365000Y-103216666D02*
X45365000Y-102516666D01*
D11*
X64980000Y-80832380D02*
X64980000Y-81070476D01*
X64741904Y-80975238D02*
X64980000Y-81070476D01*
X65218095Y-80975238D01*
X64837142Y-81260952D02*
X64980000Y-81070476D01*
X65122857Y-81260952D01*
D12*
%TO.C,U3*%
X59950000Y-75555000D02*
X59950000Y-79950000D01*
X59950000Y-79950000D02*
X64345000Y-79950000D01*
X64345000Y-79950000D02*
X64345000Y-79400000D01*
X59950000Y-59045000D02*
X59950000Y-54650000D01*
X59950000Y-54650000D02*
X64345000Y-54650000D01*
X85250000Y-75555000D02*
X85250000Y-79950000D01*
X85250000Y-79950000D02*
X80855000Y-79950000D01*
X85250000Y-59045000D02*
X85250000Y-54650000D01*
X85250000Y-54650000D02*
X80855000Y-54650000D01*
%TO.C,U1*%
X73250000Y-83910000D02*
X73250000Y-82110000D01*
X70030000Y-82110000D02*
X70030000Y-84560000D01*
%TO.C,U12*%
X60620000Y-83920000D02*
X60620000Y-81470000D01*
X57400000Y-82120000D02*
X57400000Y-83920000D01*
%TO.C,U2*%
X84380000Y-84470000D02*
X84380000Y-86920000D01*
X87600000Y-86270000D02*
X87600000Y-84470000D01*
%TO.C,U13*%
X78620000Y-85320000D02*
X78620000Y-87120000D01*
X81840000Y-87120000D02*
X81840000Y-84670000D01*
%TO.C,U8*%
X30530000Y-108030000D02*
X35730000Y-108030000D01*
X30530000Y-29230000D02*
X30530000Y-108030000D01*
X35730000Y-26630000D02*
X35730000Y-108030000D01*
X30530000Y-29230000D02*
X33130000Y-29230000D01*
X33130000Y-29230000D02*
X33130000Y-26630000D01*
X33130000Y-26630000D02*
X35730000Y-26630000D01*
X30530000Y-27960000D02*
X30530000Y-26630000D01*
X30530000Y-26630000D02*
X31860000Y-26630000D01*
%TO.C,U4*%
X51312500Y-36240000D02*
X49112500Y-36240000D01*
X51312500Y-36240000D02*
X53512500Y-36240000D01*
X51312500Y-44310000D02*
X49112500Y-44310000D01*
X51312500Y-44310000D02*
X54912500Y-44310000D01*
%TO.C,C11*%
X88236252Y-105990000D02*
X87713748Y-105990000D01*
X88236252Y-107410000D02*
X87713748Y-107410000D01*
%TO.C,C12*%
X38963748Y-105990000D02*
X39486252Y-105990000D01*
X38963748Y-107410000D02*
X39486252Y-107410000D01*
%TO.C,U7*%
X91470000Y-26630000D02*
X92800000Y-26630000D01*
X91470000Y-27960000D02*
X91470000Y-26630000D01*
X94070000Y-26630000D02*
X96670000Y-26630000D01*
X94070000Y-29230000D02*
X94070000Y-26630000D01*
X91470000Y-29230000D02*
X94070000Y-29230000D01*
X96670000Y-26630000D02*
X96670000Y-108030000D01*
X91470000Y-29230000D02*
X91470000Y-108030000D01*
X91470000Y-108030000D02*
X96670000Y-108030000D01*
%TO.C,U5*%
X51350000Y-46465000D02*
X49150000Y-46465000D01*
X51350000Y-46465000D02*
X53550000Y-46465000D01*
X51350000Y-54535000D02*
X49150000Y-54535000D01*
X51350000Y-54535000D02*
X54950000Y-54535000D01*
%TO.C,U6*%
X51300000Y-56615000D02*
X49100000Y-56615000D01*
X51300000Y-56615000D02*
X53500000Y-56615000D01*
X51300000Y-64685000D02*
X49100000Y-64685000D01*
X51300000Y-64685000D02*
X54900000Y-64685000D01*
%TO.C,U9*%
X51350000Y-88415000D02*
X49150000Y-88415000D01*
X51350000Y-88415000D02*
X53550000Y-88415000D01*
X51350000Y-96485000D02*
X49150000Y-96485000D01*
X51350000Y-96485000D02*
X54950000Y-96485000D01*
%TO.C,U10*%
X51300000Y-82485000D02*
X54900000Y-82485000D01*
X51300000Y-82485000D02*
X49100000Y-82485000D01*
X51300000Y-74415000D02*
X53500000Y-74415000D01*
X51300000Y-74415000D02*
X49100000Y-74415000D01*
%TO.C,U11*%
X51300000Y-65465000D02*
X49100000Y-65465000D01*
X51300000Y-65465000D02*
X53500000Y-65465000D01*
X51300000Y-73535000D02*
X49100000Y-73535000D01*
X51300000Y-73535000D02*
X54900000Y-73535000D01*
%TO.C,R5*%
X44720000Y-63608922D02*
X44720000Y-64126078D01*
X46140000Y-63608922D02*
X46140000Y-64126078D01*
%TO.C,U3*%
D11*
X62768095Y-80652380D02*
X62768095Y-81461904D01*
X62815714Y-81557142D01*
X62863333Y-81604761D01*
X62958571Y-81652380D01*
X63149047Y-81652380D01*
X63244285Y-81604761D01*
X63291904Y-81557142D01*
X63339523Y-81461904D01*
X63339523Y-80652380D01*
X63720476Y-80652380D02*
X64339523Y-80652380D01*
X64006190Y-81033333D01*
X64149047Y-81033333D01*
X64244285Y-81080952D01*
X64291904Y-81128571D01*
X64339523Y-81223809D01*
X64339523Y-81461904D01*
X64291904Y-81557142D01*
X64244285Y-81604761D01*
X64149047Y-81652380D01*
X63863333Y-81652380D01*
X63768095Y-81604761D01*
X63720476Y-81557142D01*
%TO.C,U1*%
X68192380Y-83771904D02*
X69001904Y-83771904D01*
X69097142Y-83724285D01*
X69144761Y-83676666D01*
X69192380Y-83581428D01*
X69192380Y-83390952D01*
X69144761Y-83295714D01*
X69097142Y-83248095D01*
X69001904Y-83200476D01*
X68192380Y-83200476D01*
X69192380Y-82200476D02*
X69192380Y-82771904D01*
X69192380Y-82486190D02*
X68192380Y-82486190D01*
X68335238Y-82581428D01*
X68430476Y-82676666D01*
X68478095Y-82771904D01*
%TO.C,U12*%
X57771904Y-85242380D02*
X57771904Y-86051904D01*
X57819523Y-86147142D01*
X57867142Y-86194761D01*
X57962380Y-86242380D01*
X58152857Y-86242380D01*
X58248095Y-86194761D01*
X58295714Y-86147142D01*
X58343333Y-86051904D01*
X58343333Y-85242380D01*
X59343333Y-86242380D02*
X58771904Y-86242380D01*
X59057619Y-86242380D02*
X59057619Y-85242380D01*
X58962380Y-85385238D01*
X58867142Y-85480476D01*
X58771904Y-85528095D01*
X59724285Y-85337619D02*
X59771904Y-85290000D01*
X59867142Y-85242380D01*
X60105238Y-85242380D01*
X60200476Y-85290000D01*
X60248095Y-85337619D01*
X60295714Y-85432857D01*
X60295714Y-85528095D01*
X60248095Y-85670952D01*
X59676666Y-86242380D01*
X60295714Y-86242380D01*
%TO.C,U2*%
X84258095Y-87732380D02*
X84258095Y-88541904D01*
X84305714Y-88637142D01*
X84353333Y-88684761D01*
X84448571Y-88732380D01*
X84639047Y-88732380D01*
X84734285Y-88684761D01*
X84781904Y-88637142D01*
X84829523Y-88541904D01*
X84829523Y-87732380D01*
X85258095Y-87827619D02*
X85305714Y-87780000D01*
X85400952Y-87732380D01*
X85639047Y-87732380D01*
X85734285Y-87780000D01*
X85781904Y-87827619D01*
X85829523Y-87922857D01*
X85829523Y-88018095D01*
X85781904Y-88160952D01*
X85210476Y-88732380D01*
X85829523Y-88732380D01*
%TO.C,U13*%
X78981904Y-88622380D02*
X78981904Y-89431904D01*
X79029523Y-89527142D01*
X79077142Y-89574761D01*
X79172380Y-89622380D01*
X79362857Y-89622380D01*
X79458095Y-89574761D01*
X79505714Y-89527142D01*
X79553333Y-89431904D01*
X79553333Y-88622380D01*
X80553333Y-89622380D02*
X79981904Y-89622380D01*
X80267619Y-89622380D02*
X80267619Y-88622380D01*
X80172380Y-88765238D01*
X80077142Y-88860476D01*
X79981904Y-88908095D01*
X80886666Y-88622380D02*
X81505714Y-88622380D01*
X81172380Y-89003333D01*
X81315238Y-89003333D01*
X81410476Y-89050952D01*
X81458095Y-89098571D01*
X81505714Y-89193809D01*
X81505714Y-89431904D01*
X81458095Y-89527142D01*
X81410476Y-89574761D01*
X81315238Y-89622380D01*
X81029523Y-89622380D01*
X80934285Y-89574761D01*
X80886666Y-89527142D01*
%TO.C,U8*%
X36738095Y-27852380D02*
X36738095Y-28661904D01*
X36785714Y-28757142D01*
X36833333Y-28804761D01*
X36928571Y-28852380D01*
X37119047Y-28852380D01*
X37214285Y-28804761D01*
X37261904Y-28757142D01*
X37309523Y-28661904D01*
X37309523Y-27852380D01*
X37928571Y-28280952D02*
X37833333Y-28233333D01*
X37785714Y-28185714D01*
X37738095Y-28090476D01*
X37738095Y-28042857D01*
X37785714Y-27947619D01*
X37833333Y-27900000D01*
X37928571Y-27852380D01*
X38119047Y-27852380D01*
X38214285Y-27900000D01*
X38261904Y-27947619D01*
X38309523Y-28042857D01*
X38309523Y-28090476D01*
X38261904Y-28185714D01*
X38214285Y-28233333D01*
X38119047Y-28280952D01*
X37928571Y-28280952D01*
X37833333Y-28328571D01*
X37785714Y-28376190D01*
X37738095Y-28471428D01*
X37738095Y-28661904D01*
X37785714Y-28757142D01*
X37833333Y-28804761D01*
X37928571Y-28852380D01*
X38119047Y-28852380D01*
X38214285Y-28804761D01*
X38261904Y-28757142D01*
X38309523Y-28661904D01*
X38309523Y-28471428D01*
X38261904Y-28376190D01*
X38214285Y-28328571D01*
X38119047Y-28280952D01*
%TO.C,U4*%
X56352380Y-44261904D02*
X57161904Y-44261904D01*
X57257142Y-44214285D01*
X57304761Y-44166666D01*
X57352380Y-44071428D01*
X57352380Y-43880952D01*
X57304761Y-43785714D01*
X57257142Y-43738095D01*
X57161904Y-43690476D01*
X56352380Y-43690476D01*
X56685714Y-42785714D02*
X57352380Y-42785714D01*
X56304761Y-43023809D02*
X57019047Y-43261904D01*
X57019047Y-42642857D01*
%TO.C,C11*%
X87357142Y-105357142D02*
X87309523Y-105404761D01*
X87166666Y-105452380D01*
X87071428Y-105452380D01*
X86928571Y-105404761D01*
X86833333Y-105309523D01*
X86785714Y-105214285D01*
X86738095Y-105023809D01*
X86738095Y-104880952D01*
X86785714Y-104690476D01*
X86833333Y-104595238D01*
X86928571Y-104500000D01*
X87071428Y-104452380D01*
X87166666Y-104452380D01*
X87309523Y-104500000D01*
X87357142Y-104547619D01*
X88309523Y-105452380D02*
X87738095Y-105452380D01*
X88023809Y-105452380D02*
X88023809Y-104452380D01*
X87928571Y-104595238D01*
X87833333Y-104690476D01*
X87738095Y-104738095D01*
X89261904Y-105452380D02*
X88690476Y-105452380D01*
X88976190Y-105452380D02*
X88976190Y-104452380D01*
X88880952Y-104595238D01*
X88785714Y-104690476D01*
X88690476Y-104738095D01*
%TO.C,C12*%
X38582142Y-105407142D02*
X38534523Y-105454761D01*
X38391666Y-105502380D01*
X38296428Y-105502380D01*
X38153571Y-105454761D01*
X38058333Y-105359523D01*
X38010714Y-105264285D01*
X37963095Y-105073809D01*
X37963095Y-104930952D01*
X38010714Y-104740476D01*
X38058333Y-104645238D01*
X38153571Y-104550000D01*
X38296428Y-104502380D01*
X38391666Y-104502380D01*
X38534523Y-104550000D01*
X38582142Y-104597619D01*
X39534523Y-105502380D02*
X38963095Y-105502380D01*
X39248809Y-105502380D02*
X39248809Y-104502380D01*
X39153571Y-104645238D01*
X39058333Y-104740476D01*
X38963095Y-104788095D01*
X39915476Y-104597619D02*
X39963095Y-104550000D01*
X40058333Y-104502380D01*
X40296428Y-104502380D01*
X40391666Y-104550000D01*
X40439285Y-104597619D01*
X40486904Y-104692857D01*
X40486904Y-104788095D01*
X40439285Y-104930952D01*
X39867857Y-105502380D01*
X40486904Y-105502380D01*
%TO.C,U7*%
X86538095Y-29452380D02*
X86538095Y-30261904D01*
X86585714Y-30357142D01*
X86633333Y-30404761D01*
X86728571Y-30452380D01*
X86919047Y-30452380D01*
X87014285Y-30404761D01*
X87061904Y-30357142D01*
X87109523Y-30261904D01*
X87109523Y-29452380D01*
X87490476Y-29452380D02*
X88157142Y-29452380D01*
X87728571Y-30452380D01*
%TO.C,U5*%
X56402380Y-54461904D02*
X57211904Y-54461904D01*
X57307142Y-54414285D01*
X57354761Y-54366666D01*
X57402380Y-54271428D01*
X57402380Y-54080952D01*
X57354761Y-53985714D01*
X57307142Y-53938095D01*
X57211904Y-53890476D01*
X56402380Y-53890476D01*
X56402380Y-52938095D02*
X56402380Y-53414285D01*
X56878571Y-53461904D01*
X56830952Y-53414285D01*
X56783333Y-53319047D01*
X56783333Y-53080952D01*
X56830952Y-52985714D01*
X56878571Y-52938095D01*
X56973809Y-52890476D01*
X57211904Y-52890476D01*
X57307142Y-52938095D01*
X57354761Y-52985714D01*
X57402380Y-53080952D01*
X57402380Y-53319047D01*
X57354761Y-53414285D01*
X57307142Y-53461904D01*
%TO.C,U6*%
X56452380Y-64661904D02*
X57261904Y-64661904D01*
X57357142Y-64614285D01*
X57404761Y-64566666D01*
X57452380Y-64471428D01*
X57452380Y-64280952D01*
X57404761Y-64185714D01*
X57357142Y-64138095D01*
X57261904Y-64090476D01*
X56452380Y-64090476D01*
X56452380Y-63185714D02*
X56452380Y-63376190D01*
X56500000Y-63471428D01*
X56547619Y-63519047D01*
X56690476Y-63614285D01*
X56880952Y-63661904D01*
X57261904Y-63661904D01*
X57357142Y-63614285D01*
X57404761Y-63566666D01*
X57452380Y-63471428D01*
X57452380Y-63280952D01*
X57404761Y-63185714D01*
X57357142Y-63138095D01*
X57261904Y-63090476D01*
X57023809Y-63090476D01*
X56928571Y-63138095D01*
X56880952Y-63185714D01*
X56833333Y-63280952D01*
X56833333Y-63471428D01*
X56880952Y-63566666D01*
X56928571Y-63614285D01*
X57023809Y-63661904D01*
%TO.C,U9*%
X56352380Y-96461904D02*
X57161904Y-96461904D01*
X57257142Y-96414285D01*
X57304761Y-96366666D01*
X57352380Y-96271428D01*
X57352380Y-96080952D01*
X57304761Y-95985714D01*
X57257142Y-95938095D01*
X57161904Y-95890476D01*
X56352380Y-95890476D01*
X57352380Y-95366666D02*
X57352380Y-95176190D01*
X57304761Y-95080952D01*
X57257142Y-95033333D01*
X57114285Y-94938095D01*
X56923809Y-94890476D01*
X56542857Y-94890476D01*
X56447619Y-94938095D01*
X56400000Y-94985714D01*
X56352380Y-95080952D01*
X56352380Y-95271428D01*
X56400000Y-95366666D01*
X56447619Y-95414285D01*
X56542857Y-95461904D01*
X56780952Y-95461904D01*
X56876190Y-95414285D01*
X56923809Y-95366666D01*
X56971428Y-95271428D01*
X56971428Y-95080952D01*
X56923809Y-94985714D01*
X56876190Y-94938095D01*
X56780952Y-94890476D01*
%TO.C,U10*%
X53761904Y-82922380D02*
X53761904Y-83731904D01*
X53809523Y-83827142D01*
X53857142Y-83874761D01*
X53952380Y-83922380D01*
X54142857Y-83922380D01*
X54238095Y-83874761D01*
X54285714Y-83827142D01*
X54333333Y-83731904D01*
X54333333Y-82922380D01*
X55333333Y-83922380D02*
X54761904Y-83922380D01*
X55047619Y-83922380D02*
X55047619Y-82922380D01*
X54952380Y-83065238D01*
X54857142Y-83160476D01*
X54761904Y-83208095D01*
X55952380Y-82922380D02*
X56047619Y-82922380D01*
X56142857Y-82970000D01*
X56190476Y-83017619D01*
X56238095Y-83112857D01*
X56285714Y-83303333D01*
X56285714Y-83541428D01*
X56238095Y-83731904D01*
X56190476Y-83827142D01*
X56142857Y-83874761D01*
X56047619Y-83922380D01*
X55952380Y-83922380D01*
X55857142Y-83874761D01*
X55809523Y-83827142D01*
X55761904Y-83731904D01*
X55714285Y-83541428D01*
X55714285Y-83303333D01*
X55761904Y-83112857D01*
X55809523Y-83017619D01*
X55857142Y-82970000D01*
X55952380Y-82922380D01*
%TO.C,U11*%
X56482380Y-73468095D02*
X57291904Y-73468095D01*
X57387142Y-73420476D01*
X57434761Y-73372857D01*
X57482380Y-73277619D01*
X57482380Y-73087142D01*
X57434761Y-72991904D01*
X57387142Y-72944285D01*
X57291904Y-72896666D01*
X56482380Y-72896666D01*
X57482380Y-71896666D02*
X57482380Y-72468095D01*
X57482380Y-72182380D02*
X56482380Y-72182380D01*
X56625238Y-72277619D01*
X56720476Y-72372857D01*
X56768095Y-72468095D01*
X57482380Y-70944285D02*
X57482380Y-71515714D01*
X57482380Y-71230000D02*
X56482380Y-71230000D01*
X56625238Y-71325238D01*
X56720476Y-71420476D01*
X56768095Y-71515714D01*
%TO.C,R5*%
X45892380Y-66776666D02*
X45416190Y-67110000D01*
X45892380Y-67348095D02*
X44892380Y-67348095D01*
X44892380Y-66967142D01*
X44940000Y-66871904D01*
X44987619Y-66824285D01*
X45082857Y-66776666D01*
X45225714Y-66776666D01*
X45320952Y-66824285D01*
X45368571Y-66871904D01*
X45416190Y-66967142D01*
X45416190Y-67348095D01*
X44892380Y-65871904D02*
X44892380Y-66348095D01*
X45368571Y-66395714D01*
X45320952Y-66348095D01*
X45273333Y-66252857D01*
X45273333Y-66014761D01*
X45320952Y-65919523D01*
X45368571Y-65871904D01*
X45463809Y-65824285D01*
X45701904Y-65824285D01*
X45797142Y-65871904D01*
X45844761Y-65919523D01*
X45892380Y-66014761D01*
X45892380Y-66252857D01*
X45844761Y-66348095D01*
X45797142Y-66395714D01*
%TD*%
M02*
