%TF.GenerationSoftware,KiCad,Pcbnew,(5.1.5)-3*%
%TF.CreationDate,2020-09-24T12:34:08+03:00*%
%TF.ProjectId,386_v1,3338365f-7631-42e6-9b69-6361645f7063,rev?*%
%TF.SameCoordinates,Original*%
%TF.FileFunction,Soldermask,Bot*%
%TF.FilePolarity,Negative*%
%FSLAX46Y46*%
G04 Gerber Fmt 4.6, Leading zero omitted, Abs format (unit mm)*
G04 Created by KiCad (PCBNEW (5.1.5)-3) date 2020-09-24 12:34:08*
%MOMM*%
%LPD*%
G04 APERTURE LIST*
%ADD10R,1.800000X1.800000*%
%ADD11O,1.800000X1.800000*%
%ADD12C,0.100000*%
G04 APERTURE END LIST*
D10*
%TO.C,U8*%
X31860000Y-27960000D03*
D11*
X34400000Y-27960000D03*
X31860000Y-30500000D03*
X34400000Y-30500000D03*
X31860000Y-33040000D03*
X34400000Y-33040000D03*
X31860000Y-35580000D03*
X34400000Y-35580000D03*
X31860000Y-38120000D03*
X34400000Y-38120000D03*
X31860000Y-40660000D03*
X34400000Y-40660000D03*
X31860000Y-43200000D03*
X34400000Y-43200000D03*
X31860000Y-45740000D03*
X34400000Y-45740000D03*
X31860000Y-48280000D03*
X34400000Y-48280000D03*
X31860000Y-50820000D03*
X34400000Y-50820000D03*
X31860000Y-53360000D03*
X34400000Y-53360000D03*
X31860000Y-55900000D03*
X34400000Y-55900000D03*
X31860000Y-58440000D03*
X34400000Y-58440000D03*
X31860000Y-60980000D03*
X34400000Y-60980000D03*
X31860000Y-63520000D03*
X34400000Y-63520000D03*
X31860000Y-66060000D03*
X34400000Y-66060000D03*
X31860000Y-68600000D03*
X34400000Y-68600000D03*
X31860000Y-71140000D03*
X34400000Y-71140000D03*
X31860000Y-73680000D03*
X34400000Y-73680000D03*
X31860000Y-76220000D03*
X34400000Y-76220000D03*
X31860000Y-78760000D03*
X34400000Y-78760000D03*
X31860000Y-81300000D03*
X34400000Y-81300000D03*
X31860000Y-83840000D03*
X34400000Y-83840000D03*
X31860000Y-86380000D03*
X34400000Y-86380000D03*
X31860000Y-88920000D03*
X34400000Y-88920000D03*
X31860000Y-91460000D03*
X34400000Y-91460000D03*
X31860000Y-94000000D03*
X34400000Y-94000000D03*
X31860000Y-96540000D03*
X34400000Y-96540000D03*
X31860000Y-99080000D03*
X34400000Y-99080000D03*
X31860000Y-101620000D03*
X34400000Y-101620000D03*
X31860000Y-104160000D03*
X34400000Y-104160000D03*
X31860000Y-106700000D03*
X34400000Y-106700000D03*
%TD*%
D12*
%TO.C,C1*%
G36*
X72489897Y-75131308D02*
G01*
X72516275Y-75135221D01*
X72542143Y-75141701D01*
X72567252Y-75150685D01*
X72591358Y-75162086D01*
X72614232Y-75175796D01*
X72635651Y-75191682D01*
X72655410Y-75209590D01*
X72673318Y-75229349D01*
X72689204Y-75250768D01*
X72702914Y-75273642D01*
X72714315Y-75297748D01*
X72723299Y-75322857D01*
X72729779Y-75348725D01*
X72733692Y-75375103D01*
X72735000Y-75401738D01*
X72735000Y-76358262D01*
X72733692Y-76384897D01*
X72729779Y-76411275D01*
X72723299Y-76437143D01*
X72714315Y-76462252D01*
X72702914Y-76486358D01*
X72689204Y-76509232D01*
X72673318Y-76530651D01*
X72655410Y-76550410D01*
X72635651Y-76568318D01*
X72614232Y-76584204D01*
X72591358Y-76597914D01*
X72567252Y-76609315D01*
X72542143Y-76618299D01*
X72516275Y-76624779D01*
X72489897Y-76628692D01*
X72463262Y-76630000D01*
X71756738Y-76630000D01*
X71730103Y-76628692D01*
X71703725Y-76624779D01*
X71677857Y-76618299D01*
X71652748Y-76609315D01*
X71628642Y-76597914D01*
X71605768Y-76584204D01*
X71584349Y-76568318D01*
X71564590Y-76550410D01*
X71546682Y-76530651D01*
X71530796Y-76509232D01*
X71517086Y-76486358D01*
X71505685Y-76462252D01*
X71496701Y-76437143D01*
X71490221Y-76411275D01*
X71486308Y-76384897D01*
X71485000Y-76358262D01*
X71485000Y-75401738D01*
X71486308Y-75375103D01*
X71490221Y-75348725D01*
X71496701Y-75322857D01*
X71505685Y-75297748D01*
X71517086Y-75273642D01*
X71530796Y-75250768D01*
X71546682Y-75229349D01*
X71564590Y-75209590D01*
X71584349Y-75191682D01*
X71605768Y-75175796D01*
X71628642Y-75162086D01*
X71652748Y-75150685D01*
X71677857Y-75141701D01*
X71703725Y-75135221D01*
X71730103Y-75131308D01*
X71756738Y-75130000D01*
X72463262Y-75130000D01*
X72489897Y-75131308D01*
G37*
G36*
X70439897Y-75131308D02*
G01*
X70466275Y-75135221D01*
X70492143Y-75141701D01*
X70517252Y-75150685D01*
X70541358Y-75162086D01*
X70564232Y-75175796D01*
X70585651Y-75191682D01*
X70605410Y-75209590D01*
X70623318Y-75229349D01*
X70639204Y-75250768D01*
X70652914Y-75273642D01*
X70664315Y-75297748D01*
X70673299Y-75322857D01*
X70679779Y-75348725D01*
X70683692Y-75375103D01*
X70685000Y-75401738D01*
X70685000Y-76358262D01*
X70683692Y-76384897D01*
X70679779Y-76411275D01*
X70673299Y-76437143D01*
X70664315Y-76462252D01*
X70652914Y-76486358D01*
X70639204Y-76509232D01*
X70623318Y-76530651D01*
X70605410Y-76550410D01*
X70585651Y-76568318D01*
X70564232Y-76584204D01*
X70541358Y-76597914D01*
X70517252Y-76609315D01*
X70492143Y-76618299D01*
X70466275Y-76624779D01*
X70439897Y-76628692D01*
X70413262Y-76630000D01*
X69706738Y-76630000D01*
X69680103Y-76628692D01*
X69653725Y-76624779D01*
X69627857Y-76618299D01*
X69602748Y-76609315D01*
X69578642Y-76597914D01*
X69555768Y-76584204D01*
X69534349Y-76568318D01*
X69514590Y-76550410D01*
X69496682Y-76530651D01*
X69480796Y-76509232D01*
X69467086Y-76486358D01*
X69455685Y-76462252D01*
X69446701Y-76437143D01*
X69440221Y-76411275D01*
X69436308Y-76384897D01*
X69435000Y-76358262D01*
X69435000Y-75401738D01*
X69436308Y-75375103D01*
X69440221Y-75348725D01*
X69446701Y-75322857D01*
X69455685Y-75297748D01*
X69467086Y-75273642D01*
X69480796Y-75250768D01*
X69496682Y-75229349D01*
X69514590Y-75209590D01*
X69534349Y-75191682D01*
X69555768Y-75175796D01*
X69578642Y-75162086D01*
X69602748Y-75150685D01*
X69627857Y-75141701D01*
X69653725Y-75135221D01*
X69680103Y-75131308D01*
X69706738Y-75130000D01*
X70413262Y-75130000D01*
X70439897Y-75131308D01*
G37*
%TD*%
%TO.C,C2*%
G36*
X78059897Y-75131308D02*
G01*
X78086275Y-75135221D01*
X78112143Y-75141701D01*
X78137252Y-75150685D01*
X78161358Y-75162086D01*
X78184232Y-75175796D01*
X78205651Y-75191682D01*
X78225410Y-75209590D01*
X78243318Y-75229349D01*
X78259204Y-75250768D01*
X78272914Y-75273642D01*
X78284315Y-75297748D01*
X78293299Y-75322857D01*
X78299779Y-75348725D01*
X78303692Y-75375103D01*
X78305000Y-75401738D01*
X78305000Y-76358262D01*
X78303692Y-76384897D01*
X78299779Y-76411275D01*
X78293299Y-76437143D01*
X78284315Y-76462252D01*
X78272914Y-76486358D01*
X78259204Y-76509232D01*
X78243318Y-76530651D01*
X78225410Y-76550410D01*
X78205651Y-76568318D01*
X78184232Y-76584204D01*
X78161358Y-76597914D01*
X78137252Y-76609315D01*
X78112143Y-76618299D01*
X78086275Y-76624779D01*
X78059897Y-76628692D01*
X78033262Y-76630000D01*
X77326738Y-76630000D01*
X77300103Y-76628692D01*
X77273725Y-76624779D01*
X77247857Y-76618299D01*
X77222748Y-76609315D01*
X77198642Y-76597914D01*
X77175768Y-76584204D01*
X77154349Y-76568318D01*
X77134590Y-76550410D01*
X77116682Y-76530651D01*
X77100796Y-76509232D01*
X77087086Y-76486358D01*
X77075685Y-76462252D01*
X77066701Y-76437143D01*
X77060221Y-76411275D01*
X77056308Y-76384897D01*
X77055000Y-76358262D01*
X77055000Y-75401738D01*
X77056308Y-75375103D01*
X77060221Y-75348725D01*
X77066701Y-75322857D01*
X77075685Y-75297748D01*
X77087086Y-75273642D01*
X77100796Y-75250768D01*
X77116682Y-75229349D01*
X77134590Y-75209590D01*
X77154349Y-75191682D01*
X77175768Y-75175796D01*
X77198642Y-75162086D01*
X77222748Y-75150685D01*
X77247857Y-75141701D01*
X77273725Y-75135221D01*
X77300103Y-75131308D01*
X77326738Y-75130000D01*
X78033262Y-75130000D01*
X78059897Y-75131308D01*
G37*
G36*
X76009897Y-75131308D02*
G01*
X76036275Y-75135221D01*
X76062143Y-75141701D01*
X76087252Y-75150685D01*
X76111358Y-75162086D01*
X76134232Y-75175796D01*
X76155651Y-75191682D01*
X76175410Y-75209590D01*
X76193318Y-75229349D01*
X76209204Y-75250768D01*
X76222914Y-75273642D01*
X76234315Y-75297748D01*
X76243299Y-75322857D01*
X76249779Y-75348725D01*
X76253692Y-75375103D01*
X76255000Y-75401738D01*
X76255000Y-76358262D01*
X76253692Y-76384897D01*
X76249779Y-76411275D01*
X76243299Y-76437143D01*
X76234315Y-76462252D01*
X76222914Y-76486358D01*
X76209204Y-76509232D01*
X76193318Y-76530651D01*
X76175410Y-76550410D01*
X76155651Y-76568318D01*
X76134232Y-76584204D01*
X76111358Y-76597914D01*
X76087252Y-76609315D01*
X76062143Y-76618299D01*
X76036275Y-76624779D01*
X76009897Y-76628692D01*
X75983262Y-76630000D01*
X75276738Y-76630000D01*
X75250103Y-76628692D01*
X75223725Y-76624779D01*
X75197857Y-76618299D01*
X75172748Y-76609315D01*
X75148642Y-76597914D01*
X75125768Y-76584204D01*
X75104349Y-76568318D01*
X75084590Y-76550410D01*
X75066682Y-76530651D01*
X75050796Y-76509232D01*
X75037086Y-76486358D01*
X75025685Y-76462252D01*
X75016701Y-76437143D01*
X75010221Y-76411275D01*
X75006308Y-76384897D01*
X75005000Y-76358262D01*
X75005000Y-75401738D01*
X75006308Y-75375103D01*
X75010221Y-75348725D01*
X75016701Y-75322857D01*
X75025685Y-75297748D01*
X75037086Y-75273642D01*
X75050796Y-75250768D01*
X75066682Y-75229349D01*
X75084590Y-75209590D01*
X75104349Y-75191682D01*
X75125768Y-75175796D01*
X75148642Y-75162086D01*
X75172748Y-75150685D01*
X75197857Y-75141701D01*
X75223725Y-75135221D01*
X75250103Y-75131308D01*
X75276738Y-75130000D01*
X75983262Y-75130000D01*
X76009897Y-75131308D01*
G37*
%TD*%
%TO.C,C3*%
G36*
X81259897Y-70361308D02*
G01*
X81286275Y-70365221D01*
X81312143Y-70371701D01*
X81337252Y-70380685D01*
X81361358Y-70392086D01*
X81384232Y-70405796D01*
X81405651Y-70421682D01*
X81425410Y-70439590D01*
X81443318Y-70459349D01*
X81459204Y-70480768D01*
X81472914Y-70503642D01*
X81484315Y-70527748D01*
X81493299Y-70552857D01*
X81499779Y-70578725D01*
X81503692Y-70605103D01*
X81505000Y-70631738D01*
X81505000Y-71588262D01*
X81503692Y-71614897D01*
X81499779Y-71641275D01*
X81493299Y-71667143D01*
X81484315Y-71692252D01*
X81472914Y-71716358D01*
X81459204Y-71739232D01*
X81443318Y-71760651D01*
X81425410Y-71780410D01*
X81405651Y-71798318D01*
X81384232Y-71814204D01*
X81361358Y-71827914D01*
X81337252Y-71839315D01*
X81312143Y-71848299D01*
X81286275Y-71854779D01*
X81259897Y-71858692D01*
X81233262Y-71860000D01*
X80526738Y-71860000D01*
X80500103Y-71858692D01*
X80473725Y-71854779D01*
X80447857Y-71848299D01*
X80422748Y-71839315D01*
X80398642Y-71827914D01*
X80375768Y-71814204D01*
X80354349Y-71798318D01*
X80334590Y-71780410D01*
X80316682Y-71760651D01*
X80300796Y-71739232D01*
X80287086Y-71716358D01*
X80275685Y-71692252D01*
X80266701Y-71667143D01*
X80260221Y-71641275D01*
X80256308Y-71614897D01*
X80255000Y-71588262D01*
X80255000Y-70631738D01*
X80256308Y-70605103D01*
X80260221Y-70578725D01*
X80266701Y-70552857D01*
X80275685Y-70527748D01*
X80287086Y-70503642D01*
X80300796Y-70480768D01*
X80316682Y-70459349D01*
X80334590Y-70439590D01*
X80354349Y-70421682D01*
X80375768Y-70405796D01*
X80398642Y-70392086D01*
X80422748Y-70380685D01*
X80447857Y-70371701D01*
X80473725Y-70365221D01*
X80500103Y-70361308D01*
X80526738Y-70360000D01*
X81233262Y-70360000D01*
X81259897Y-70361308D01*
G37*
G36*
X79209897Y-70361308D02*
G01*
X79236275Y-70365221D01*
X79262143Y-70371701D01*
X79287252Y-70380685D01*
X79311358Y-70392086D01*
X79334232Y-70405796D01*
X79355651Y-70421682D01*
X79375410Y-70439590D01*
X79393318Y-70459349D01*
X79409204Y-70480768D01*
X79422914Y-70503642D01*
X79434315Y-70527748D01*
X79443299Y-70552857D01*
X79449779Y-70578725D01*
X79453692Y-70605103D01*
X79455000Y-70631738D01*
X79455000Y-71588262D01*
X79453692Y-71614897D01*
X79449779Y-71641275D01*
X79443299Y-71667143D01*
X79434315Y-71692252D01*
X79422914Y-71716358D01*
X79409204Y-71739232D01*
X79393318Y-71760651D01*
X79375410Y-71780410D01*
X79355651Y-71798318D01*
X79334232Y-71814204D01*
X79311358Y-71827914D01*
X79287252Y-71839315D01*
X79262143Y-71848299D01*
X79236275Y-71854779D01*
X79209897Y-71858692D01*
X79183262Y-71860000D01*
X78476738Y-71860000D01*
X78450103Y-71858692D01*
X78423725Y-71854779D01*
X78397857Y-71848299D01*
X78372748Y-71839315D01*
X78348642Y-71827914D01*
X78325768Y-71814204D01*
X78304349Y-71798318D01*
X78284590Y-71780410D01*
X78266682Y-71760651D01*
X78250796Y-71739232D01*
X78237086Y-71716358D01*
X78225685Y-71692252D01*
X78216701Y-71667143D01*
X78210221Y-71641275D01*
X78206308Y-71614897D01*
X78205000Y-71588262D01*
X78205000Y-70631738D01*
X78206308Y-70605103D01*
X78210221Y-70578725D01*
X78216701Y-70552857D01*
X78225685Y-70527748D01*
X78237086Y-70503642D01*
X78250796Y-70480768D01*
X78266682Y-70459349D01*
X78284590Y-70439590D01*
X78304349Y-70421682D01*
X78325768Y-70405796D01*
X78348642Y-70392086D01*
X78372748Y-70380685D01*
X78397857Y-70371701D01*
X78423725Y-70365221D01*
X78450103Y-70361308D01*
X78476738Y-70360000D01*
X79183262Y-70360000D01*
X79209897Y-70361308D01*
G37*
%TD*%
%TO.C,C4*%
G36*
X79209897Y-65911308D02*
G01*
X79236275Y-65915221D01*
X79262143Y-65921701D01*
X79287252Y-65930685D01*
X79311358Y-65942086D01*
X79334232Y-65955796D01*
X79355651Y-65971682D01*
X79375410Y-65989590D01*
X79393318Y-66009349D01*
X79409204Y-66030768D01*
X79422914Y-66053642D01*
X79434315Y-66077748D01*
X79443299Y-66102857D01*
X79449779Y-66128725D01*
X79453692Y-66155103D01*
X79455000Y-66181738D01*
X79455000Y-67138262D01*
X79453692Y-67164897D01*
X79449779Y-67191275D01*
X79443299Y-67217143D01*
X79434315Y-67242252D01*
X79422914Y-67266358D01*
X79409204Y-67289232D01*
X79393318Y-67310651D01*
X79375410Y-67330410D01*
X79355651Y-67348318D01*
X79334232Y-67364204D01*
X79311358Y-67377914D01*
X79287252Y-67389315D01*
X79262143Y-67398299D01*
X79236275Y-67404779D01*
X79209897Y-67408692D01*
X79183262Y-67410000D01*
X78476738Y-67410000D01*
X78450103Y-67408692D01*
X78423725Y-67404779D01*
X78397857Y-67398299D01*
X78372748Y-67389315D01*
X78348642Y-67377914D01*
X78325768Y-67364204D01*
X78304349Y-67348318D01*
X78284590Y-67330410D01*
X78266682Y-67310651D01*
X78250796Y-67289232D01*
X78237086Y-67266358D01*
X78225685Y-67242252D01*
X78216701Y-67217143D01*
X78210221Y-67191275D01*
X78206308Y-67164897D01*
X78205000Y-67138262D01*
X78205000Y-66181738D01*
X78206308Y-66155103D01*
X78210221Y-66128725D01*
X78216701Y-66102857D01*
X78225685Y-66077748D01*
X78237086Y-66053642D01*
X78250796Y-66030768D01*
X78266682Y-66009349D01*
X78284590Y-65989590D01*
X78304349Y-65971682D01*
X78325768Y-65955796D01*
X78348642Y-65942086D01*
X78372748Y-65930685D01*
X78397857Y-65921701D01*
X78423725Y-65915221D01*
X78450103Y-65911308D01*
X78476738Y-65910000D01*
X79183262Y-65910000D01*
X79209897Y-65911308D01*
G37*
G36*
X81259897Y-65911308D02*
G01*
X81286275Y-65915221D01*
X81312143Y-65921701D01*
X81337252Y-65930685D01*
X81361358Y-65942086D01*
X81384232Y-65955796D01*
X81405651Y-65971682D01*
X81425410Y-65989590D01*
X81443318Y-66009349D01*
X81459204Y-66030768D01*
X81472914Y-66053642D01*
X81484315Y-66077748D01*
X81493299Y-66102857D01*
X81499779Y-66128725D01*
X81503692Y-66155103D01*
X81505000Y-66181738D01*
X81505000Y-67138262D01*
X81503692Y-67164897D01*
X81499779Y-67191275D01*
X81493299Y-67217143D01*
X81484315Y-67242252D01*
X81472914Y-67266358D01*
X81459204Y-67289232D01*
X81443318Y-67310651D01*
X81425410Y-67330410D01*
X81405651Y-67348318D01*
X81384232Y-67364204D01*
X81361358Y-67377914D01*
X81337252Y-67389315D01*
X81312143Y-67398299D01*
X81286275Y-67404779D01*
X81259897Y-67408692D01*
X81233262Y-67410000D01*
X80526738Y-67410000D01*
X80500103Y-67408692D01*
X80473725Y-67404779D01*
X80447857Y-67398299D01*
X80422748Y-67389315D01*
X80398642Y-67377914D01*
X80375768Y-67364204D01*
X80354349Y-67348318D01*
X80334590Y-67330410D01*
X80316682Y-67310651D01*
X80300796Y-67289232D01*
X80287086Y-67266358D01*
X80275685Y-67242252D01*
X80266701Y-67217143D01*
X80260221Y-67191275D01*
X80256308Y-67164897D01*
X80255000Y-67138262D01*
X80255000Y-66181738D01*
X80256308Y-66155103D01*
X80260221Y-66128725D01*
X80266701Y-66102857D01*
X80275685Y-66077748D01*
X80287086Y-66053642D01*
X80300796Y-66030768D01*
X80316682Y-66009349D01*
X80334590Y-65989590D01*
X80354349Y-65971682D01*
X80375768Y-65955796D01*
X80398642Y-65942086D01*
X80422748Y-65930685D01*
X80447857Y-65921701D01*
X80473725Y-65915221D01*
X80500103Y-65911308D01*
X80526738Y-65910000D01*
X81233262Y-65910000D01*
X81259897Y-65911308D01*
G37*
%TD*%
%TO.C,C5*%
G36*
X80554897Y-60326308D02*
G01*
X80581275Y-60330221D01*
X80607143Y-60336701D01*
X80632252Y-60345685D01*
X80656358Y-60357086D01*
X80679232Y-60370796D01*
X80700651Y-60386682D01*
X80720410Y-60404590D01*
X80738318Y-60424349D01*
X80754204Y-60445768D01*
X80767914Y-60468642D01*
X80779315Y-60492748D01*
X80788299Y-60517857D01*
X80794779Y-60543725D01*
X80798692Y-60570103D01*
X80800000Y-60596738D01*
X80800000Y-61303262D01*
X80798692Y-61329897D01*
X80794779Y-61356275D01*
X80788299Y-61382143D01*
X80779315Y-61407252D01*
X80767914Y-61431358D01*
X80754204Y-61454232D01*
X80738318Y-61475651D01*
X80720410Y-61495410D01*
X80700651Y-61513318D01*
X80679232Y-61529204D01*
X80656358Y-61542914D01*
X80632252Y-61554315D01*
X80607143Y-61563299D01*
X80581275Y-61569779D01*
X80554897Y-61573692D01*
X80528262Y-61575000D01*
X79571738Y-61575000D01*
X79545103Y-61573692D01*
X79518725Y-61569779D01*
X79492857Y-61563299D01*
X79467748Y-61554315D01*
X79443642Y-61542914D01*
X79420768Y-61529204D01*
X79399349Y-61513318D01*
X79379590Y-61495410D01*
X79361682Y-61475651D01*
X79345796Y-61454232D01*
X79332086Y-61431358D01*
X79320685Y-61407252D01*
X79311701Y-61382143D01*
X79305221Y-61356275D01*
X79301308Y-61329897D01*
X79300000Y-61303262D01*
X79300000Y-60596738D01*
X79301308Y-60570103D01*
X79305221Y-60543725D01*
X79311701Y-60517857D01*
X79320685Y-60492748D01*
X79332086Y-60468642D01*
X79345796Y-60445768D01*
X79361682Y-60424349D01*
X79379590Y-60404590D01*
X79399349Y-60386682D01*
X79420768Y-60370796D01*
X79443642Y-60357086D01*
X79467748Y-60345685D01*
X79492857Y-60336701D01*
X79518725Y-60330221D01*
X79545103Y-60326308D01*
X79571738Y-60325000D01*
X80528262Y-60325000D01*
X80554897Y-60326308D01*
G37*
G36*
X80554897Y-58276308D02*
G01*
X80581275Y-58280221D01*
X80607143Y-58286701D01*
X80632252Y-58295685D01*
X80656358Y-58307086D01*
X80679232Y-58320796D01*
X80700651Y-58336682D01*
X80720410Y-58354590D01*
X80738318Y-58374349D01*
X80754204Y-58395768D01*
X80767914Y-58418642D01*
X80779315Y-58442748D01*
X80788299Y-58467857D01*
X80794779Y-58493725D01*
X80798692Y-58520103D01*
X80800000Y-58546738D01*
X80800000Y-59253262D01*
X80798692Y-59279897D01*
X80794779Y-59306275D01*
X80788299Y-59332143D01*
X80779315Y-59357252D01*
X80767914Y-59381358D01*
X80754204Y-59404232D01*
X80738318Y-59425651D01*
X80720410Y-59445410D01*
X80700651Y-59463318D01*
X80679232Y-59479204D01*
X80656358Y-59492914D01*
X80632252Y-59504315D01*
X80607143Y-59513299D01*
X80581275Y-59519779D01*
X80554897Y-59523692D01*
X80528262Y-59525000D01*
X79571738Y-59525000D01*
X79545103Y-59523692D01*
X79518725Y-59519779D01*
X79492857Y-59513299D01*
X79467748Y-59504315D01*
X79443642Y-59492914D01*
X79420768Y-59479204D01*
X79399349Y-59463318D01*
X79379590Y-59445410D01*
X79361682Y-59425651D01*
X79345796Y-59404232D01*
X79332086Y-59381358D01*
X79320685Y-59357252D01*
X79311701Y-59332143D01*
X79305221Y-59306275D01*
X79301308Y-59279897D01*
X79300000Y-59253262D01*
X79300000Y-58546738D01*
X79301308Y-58520103D01*
X79305221Y-58493725D01*
X79311701Y-58467857D01*
X79320685Y-58442748D01*
X79332086Y-58418642D01*
X79345796Y-58395768D01*
X79361682Y-58374349D01*
X79379590Y-58354590D01*
X79399349Y-58336682D01*
X79420768Y-58320796D01*
X79443642Y-58307086D01*
X79467748Y-58295685D01*
X79492857Y-58286701D01*
X79518725Y-58280221D01*
X79545103Y-58276308D01*
X79571738Y-58275000D01*
X80528262Y-58275000D01*
X80554897Y-58276308D01*
G37*
%TD*%
%TO.C,C6*%
G36*
X76789897Y-58931308D02*
G01*
X76816275Y-58935221D01*
X76842143Y-58941701D01*
X76867252Y-58950685D01*
X76891358Y-58962086D01*
X76914232Y-58975796D01*
X76935651Y-58991682D01*
X76955410Y-59009590D01*
X76973318Y-59029349D01*
X76989204Y-59050768D01*
X77002914Y-59073642D01*
X77014315Y-59097748D01*
X77023299Y-59122857D01*
X77029779Y-59148725D01*
X77033692Y-59175103D01*
X77035000Y-59201738D01*
X77035000Y-60158262D01*
X77033692Y-60184897D01*
X77029779Y-60211275D01*
X77023299Y-60237143D01*
X77014315Y-60262252D01*
X77002914Y-60286358D01*
X76989204Y-60309232D01*
X76973318Y-60330651D01*
X76955410Y-60350410D01*
X76935651Y-60368318D01*
X76914232Y-60384204D01*
X76891358Y-60397914D01*
X76867252Y-60409315D01*
X76842143Y-60418299D01*
X76816275Y-60424779D01*
X76789897Y-60428692D01*
X76763262Y-60430000D01*
X76056738Y-60430000D01*
X76030103Y-60428692D01*
X76003725Y-60424779D01*
X75977857Y-60418299D01*
X75952748Y-60409315D01*
X75928642Y-60397914D01*
X75905768Y-60384204D01*
X75884349Y-60368318D01*
X75864590Y-60350410D01*
X75846682Y-60330651D01*
X75830796Y-60309232D01*
X75817086Y-60286358D01*
X75805685Y-60262252D01*
X75796701Y-60237143D01*
X75790221Y-60211275D01*
X75786308Y-60184897D01*
X75785000Y-60158262D01*
X75785000Y-59201738D01*
X75786308Y-59175103D01*
X75790221Y-59148725D01*
X75796701Y-59122857D01*
X75805685Y-59097748D01*
X75817086Y-59073642D01*
X75830796Y-59050768D01*
X75846682Y-59029349D01*
X75864590Y-59009590D01*
X75884349Y-58991682D01*
X75905768Y-58975796D01*
X75928642Y-58962086D01*
X75952748Y-58950685D01*
X75977857Y-58941701D01*
X76003725Y-58935221D01*
X76030103Y-58931308D01*
X76056738Y-58930000D01*
X76763262Y-58930000D01*
X76789897Y-58931308D01*
G37*
G36*
X74739897Y-58931308D02*
G01*
X74766275Y-58935221D01*
X74792143Y-58941701D01*
X74817252Y-58950685D01*
X74841358Y-58962086D01*
X74864232Y-58975796D01*
X74885651Y-58991682D01*
X74905410Y-59009590D01*
X74923318Y-59029349D01*
X74939204Y-59050768D01*
X74952914Y-59073642D01*
X74964315Y-59097748D01*
X74973299Y-59122857D01*
X74979779Y-59148725D01*
X74983692Y-59175103D01*
X74985000Y-59201738D01*
X74985000Y-60158262D01*
X74983692Y-60184897D01*
X74979779Y-60211275D01*
X74973299Y-60237143D01*
X74964315Y-60262252D01*
X74952914Y-60286358D01*
X74939204Y-60309232D01*
X74923318Y-60330651D01*
X74905410Y-60350410D01*
X74885651Y-60368318D01*
X74864232Y-60384204D01*
X74841358Y-60397914D01*
X74817252Y-60409315D01*
X74792143Y-60418299D01*
X74766275Y-60424779D01*
X74739897Y-60428692D01*
X74713262Y-60430000D01*
X74006738Y-60430000D01*
X73980103Y-60428692D01*
X73953725Y-60424779D01*
X73927857Y-60418299D01*
X73902748Y-60409315D01*
X73878642Y-60397914D01*
X73855768Y-60384204D01*
X73834349Y-60368318D01*
X73814590Y-60350410D01*
X73796682Y-60330651D01*
X73780796Y-60309232D01*
X73767086Y-60286358D01*
X73755685Y-60262252D01*
X73746701Y-60237143D01*
X73740221Y-60211275D01*
X73736308Y-60184897D01*
X73735000Y-60158262D01*
X73735000Y-59201738D01*
X73736308Y-59175103D01*
X73740221Y-59148725D01*
X73746701Y-59122857D01*
X73755685Y-59097748D01*
X73767086Y-59073642D01*
X73780796Y-59050768D01*
X73796682Y-59029349D01*
X73814590Y-59009590D01*
X73834349Y-58991682D01*
X73855768Y-58975796D01*
X73878642Y-58962086D01*
X73902748Y-58950685D01*
X73927857Y-58941701D01*
X73953725Y-58935221D01*
X73980103Y-58931308D01*
X74006738Y-58930000D01*
X74713262Y-58930000D01*
X74739897Y-58931308D01*
G37*
%TD*%
%TO.C,C7*%
G36*
X71219897Y-58931308D02*
G01*
X71246275Y-58935221D01*
X71272143Y-58941701D01*
X71297252Y-58950685D01*
X71321358Y-58962086D01*
X71344232Y-58975796D01*
X71365651Y-58991682D01*
X71385410Y-59009590D01*
X71403318Y-59029349D01*
X71419204Y-59050768D01*
X71432914Y-59073642D01*
X71444315Y-59097748D01*
X71453299Y-59122857D01*
X71459779Y-59148725D01*
X71463692Y-59175103D01*
X71465000Y-59201738D01*
X71465000Y-60158262D01*
X71463692Y-60184897D01*
X71459779Y-60211275D01*
X71453299Y-60237143D01*
X71444315Y-60262252D01*
X71432914Y-60286358D01*
X71419204Y-60309232D01*
X71403318Y-60330651D01*
X71385410Y-60350410D01*
X71365651Y-60368318D01*
X71344232Y-60384204D01*
X71321358Y-60397914D01*
X71297252Y-60409315D01*
X71272143Y-60418299D01*
X71246275Y-60424779D01*
X71219897Y-60428692D01*
X71193262Y-60430000D01*
X70486738Y-60430000D01*
X70460103Y-60428692D01*
X70433725Y-60424779D01*
X70407857Y-60418299D01*
X70382748Y-60409315D01*
X70358642Y-60397914D01*
X70335768Y-60384204D01*
X70314349Y-60368318D01*
X70294590Y-60350410D01*
X70276682Y-60330651D01*
X70260796Y-60309232D01*
X70247086Y-60286358D01*
X70235685Y-60262252D01*
X70226701Y-60237143D01*
X70220221Y-60211275D01*
X70216308Y-60184897D01*
X70215000Y-60158262D01*
X70215000Y-59201738D01*
X70216308Y-59175103D01*
X70220221Y-59148725D01*
X70226701Y-59122857D01*
X70235685Y-59097748D01*
X70247086Y-59073642D01*
X70260796Y-59050768D01*
X70276682Y-59029349D01*
X70294590Y-59009590D01*
X70314349Y-58991682D01*
X70335768Y-58975796D01*
X70358642Y-58962086D01*
X70382748Y-58950685D01*
X70407857Y-58941701D01*
X70433725Y-58935221D01*
X70460103Y-58931308D01*
X70486738Y-58930000D01*
X71193262Y-58930000D01*
X71219897Y-58931308D01*
G37*
G36*
X69169897Y-58931308D02*
G01*
X69196275Y-58935221D01*
X69222143Y-58941701D01*
X69247252Y-58950685D01*
X69271358Y-58962086D01*
X69294232Y-58975796D01*
X69315651Y-58991682D01*
X69335410Y-59009590D01*
X69353318Y-59029349D01*
X69369204Y-59050768D01*
X69382914Y-59073642D01*
X69394315Y-59097748D01*
X69403299Y-59122857D01*
X69409779Y-59148725D01*
X69413692Y-59175103D01*
X69415000Y-59201738D01*
X69415000Y-60158262D01*
X69413692Y-60184897D01*
X69409779Y-60211275D01*
X69403299Y-60237143D01*
X69394315Y-60262252D01*
X69382914Y-60286358D01*
X69369204Y-60309232D01*
X69353318Y-60330651D01*
X69335410Y-60350410D01*
X69315651Y-60368318D01*
X69294232Y-60384204D01*
X69271358Y-60397914D01*
X69247252Y-60409315D01*
X69222143Y-60418299D01*
X69196275Y-60424779D01*
X69169897Y-60428692D01*
X69143262Y-60430000D01*
X68436738Y-60430000D01*
X68410103Y-60428692D01*
X68383725Y-60424779D01*
X68357857Y-60418299D01*
X68332748Y-60409315D01*
X68308642Y-60397914D01*
X68285768Y-60384204D01*
X68264349Y-60368318D01*
X68244590Y-60350410D01*
X68226682Y-60330651D01*
X68210796Y-60309232D01*
X68197086Y-60286358D01*
X68185685Y-60262252D01*
X68176701Y-60237143D01*
X68170221Y-60211275D01*
X68166308Y-60184897D01*
X68165000Y-60158262D01*
X68165000Y-59201738D01*
X68166308Y-59175103D01*
X68170221Y-59148725D01*
X68176701Y-59122857D01*
X68185685Y-59097748D01*
X68197086Y-59073642D01*
X68210796Y-59050768D01*
X68226682Y-59029349D01*
X68244590Y-59009590D01*
X68264349Y-58991682D01*
X68285768Y-58975796D01*
X68308642Y-58962086D01*
X68332748Y-58950685D01*
X68357857Y-58941701D01*
X68383725Y-58935221D01*
X68410103Y-58931308D01*
X68436738Y-58930000D01*
X69143262Y-58930000D01*
X69169897Y-58931308D01*
G37*
%TD*%
%TO.C,C8*%
G36*
X65154897Y-62086308D02*
G01*
X65181275Y-62090221D01*
X65207143Y-62096701D01*
X65232252Y-62105685D01*
X65256358Y-62117086D01*
X65279232Y-62130796D01*
X65300651Y-62146682D01*
X65320410Y-62164590D01*
X65338318Y-62184349D01*
X65354204Y-62205768D01*
X65367914Y-62228642D01*
X65379315Y-62252748D01*
X65388299Y-62277857D01*
X65394779Y-62303725D01*
X65398692Y-62330103D01*
X65400000Y-62356738D01*
X65400000Y-63063262D01*
X65398692Y-63089897D01*
X65394779Y-63116275D01*
X65388299Y-63142143D01*
X65379315Y-63167252D01*
X65367914Y-63191358D01*
X65354204Y-63214232D01*
X65338318Y-63235651D01*
X65320410Y-63255410D01*
X65300651Y-63273318D01*
X65279232Y-63289204D01*
X65256358Y-63302914D01*
X65232252Y-63314315D01*
X65207143Y-63323299D01*
X65181275Y-63329779D01*
X65154897Y-63333692D01*
X65128262Y-63335000D01*
X64171738Y-63335000D01*
X64145103Y-63333692D01*
X64118725Y-63329779D01*
X64092857Y-63323299D01*
X64067748Y-63314315D01*
X64043642Y-63302914D01*
X64020768Y-63289204D01*
X63999349Y-63273318D01*
X63979590Y-63255410D01*
X63961682Y-63235651D01*
X63945796Y-63214232D01*
X63932086Y-63191358D01*
X63920685Y-63167252D01*
X63911701Y-63142143D01*
X63905221Y-63116275D01*
X63901308Y-63089897D01*
X63900000Y-63063262D01*
X63900000Y-62356738D01*
X63901308Y-62330103D01*
X63905221Y-62303725D01*
X63911701Y-62277857D01*
X63920685Y-62252748D01*
X63932086Y-62228642D01*
X63945796Y-62205768D01*
X63961682Y-62184349D01*
X63979590Y-62164590D01*
X63999349Y-62146682D01*
X64020768Y-62130796D01*
X64043642Y-62117086D01*
X64067748Y-62105685D01*
X64092857Y-62096701D01*
X64118725Y-62090221D01*
X64145103Y-62086308D01*
X64171738Y-62085000D01*
X65128262Y-62085000D01*
X65154897Y-62086308D01*
G37*
G36*
X65154897Y-64136308D02*
G01*
X65181275Y-64140221D01*
X65207143Y-64146701D01*
X65232252Y-64155685D01*
X65256358Y-64167086D01*
X65279232Y-64180796D01*
X65300651Y-64196682D01*
X65320410Y-64214590D01*
X65338318Y-64234349D01*
X65354204Y-64255768D01*
X65367914Y-64278642D01*
X65379315Y-64302748D01*
X65388299Y-64327857D01*
X65394779Y-64353725D01*
X65398692Y-64380103D01*
X65400000Y-64406738D01*
X65400000Y-65113262D01*
X65398692Y-65139897D01*
X65394779Y-65166275D01*
X65388299Y-65192143D01*
X65379315Y-65217252D01*
X65367914Y-65241358D01*
X65354204Y-65264232D01*
X65338318Y-65285651D01*
X65320410Y-65305410D01*
X65300651Y-65323318D01*
X65279232Y-65339204D01*
X65256358Y-65352914D01*
X65232252Y-65364315D01*
X65207143Y-65373299D01*
X65181275Y-65379779D01*
X65154897Y-65383692D01*
X65128262Y-65385000D01*
X64171738Y-65385000D01*
X64145103Y-65383692D01*
X64118725Y-65379779D01*
X64092857Y-65373299D01*
X64067748Y-65364315D01*
X64043642Y-65352914D01*
X64020768Y-65339204D01*
X63999349Y-65323318D01*
X63979590Y-65305410D01*
X63961682Y-65285651D01*
X63945796Y-65264232D01*
X63932086Y-65241358D01*
X63920685Y-65217252D01*
X63911701Y-65192143D01*
X63905221Y-65166275D01*
X63901308Y-65139897D01*
X63900000Y-65113262D01*
X63900000Y-64406738D01*
X63901308Y-64380103D01*
X63905221Y-64353725D01*
X63911701Y-64327857D01*
X63920685Y-64302748D01*
X63932086Y-64278642D01*
X63945796Y-64255768D01*
X63961682Y-64234349D01*
X63979590Y-64214590D01*
X63999349Y-64196682D01*
X64020768Y-64180796D01*
X64043642Y-64167086D01*
X64067748Y-64155685D01*
X64092857Y-64146701D01*
X64118725Y-64140221D01*
X64145103Y-64136308D01*
X64171738Y-64135000D01*
X65128262Y-64135000D01*
X65154897Y-64136308D01*
G37*
%TD*%
%TO.C,C9*%
G36*
X65164897Y-72386308D02*
G01*
X65191275Y-72390221D01*
X65217143Y-72396701D01*
X65242252Y-72405685D01*
X65266358Y-72417086D01*
X65289232Y-72430796D01*
X65310651Y-72446682D01*
X65330410Y-72464590D01*
X65348318Y-72484349D01*
X65364204Y-72505768D01*
X65377914Y-72528642D01*
X65389315Y-72552748D01*
X65398299Y-72577857D01*
X65404779Y-72603725D01*
X65408692Y-72630103D01*
X65410000Y-72656738D01*
X65410000Y-73363262D01*
X65408692Y-73389897D01*
X65404779Y-73416275D01*
X65398299Y-73442143D01*
X65389315Y-73467252D01*
X65377914Y-73491358D01*
X65364204Y-73514232D01*
X65348318Y-73535651D01*
X65330410Y-73555410D01*
X65310651Y-73573318D01*
X65289232Y-73589204D01*
X65266358Y-73602914D01*
X65242252Y-73614315D01*
X65217143Y-73623299D01*
X65191275Y-73629779D01*
X65164897Y-73633692D01*
X65138262Y-73635000D01*
X64181738Y-73635000D01*
X64155103Y-73633692D01*
X64128725Y-73629779D01*
X64102857Y-73623299D01*
X64077748Y-73614315D01*
X64053642Y-73602914D01*
X64030768Y-73589204D01*
X64009349Y-73573318D01*
X63989590Y-73555410D01*
X63971682Y-73535651D01*
X63955796Y-73514232D01*
X63942086Y-73491358D01*
X63930685Y-73467252D01*
X63921701Y-73442143D01*
X63915221Y-73416275D01*
X63911308Y-73389897D01*
X63910000Y-73363262D01*
X63910000Y-72656738D01*
X63911308Y-72630103D01*
X63915221Y-72603725D01*
X63921701Y-72577857D01*
X63930685Y-72552748D01*
X63942086Y-72528642D01*
X63955796Y-72505768D01*
X63971682Y-72484349D01*
X63989590Y-72464590D01*
X64009349Y-72446682D01*
X64030768Y-72430796D01*
X64053642Y-72417086D01*
X64077748Y-72405685D01*
X64102857Y-72396701D01*
X64128725Y-72390221D01*
X64155103Y-72386308D01*
X64181738Y-72385000D01*
X65138262Y-72385000D01*
X65164897Y-72386308D01*
G37*
G36*
X65164897Y-74436308D02*
G01*
X65191275Y-74440221D01*
X65217143Y-74446701D01*
X65242252Y-74455685D01*
X65266358Y-74467086D01*
X65289232Y-74480796D01*
X65310651Y-74496682D01*
X65330410Y-74514590D01*
X65348318Y-74534349D01*
X65364204Y-74555768D01*
X65377914Y-74578642D01*
X65389315Y-74602748D01*
X65398299Y-74627857D01*
X65404779Y-74653725D01*
X65408692Y-74680103D01*
X65410000Y-74706738D01*
X65410000Y-75413262D01*
X65408692Y-75439897D01*
X65404779Y-75466275D01*
X65398299Y-75492143D01*
X65389315Y-75517252D01*
X65377914Y-75541358D01*
X65364204Y-75564232D01*
X65348318Y-75585651D01*
X65330410Y-75605410D01*
X65310651Y-75623318D01*
X65289232Y-75639204D01*
X65266358Y-75652914D01*
X65242252Y-75664315D01*
X65217143Y-75673299D01*
X65191275Y-75679779D01*
X65164897Y-75683692D01*
X65138262Y-75685000D01*
X64181738Y-75685000D01*
X64155103Y-75683692D01*
X64128725Y-75679779D01*
X64102857Y-75673299D01*
X64077748Y-75664315D01*
X64053642Y-75652914D01*
X64030768Y-75639204D01*
X64009349Y-75623318D01*
X63989590Y-75605410D01*
X63971682Y-75585651D01*
X63955796Y-75564232D01*
X63942086Y-75541358D01*
X63930685Y-75517252D01*
X63921701Y-75492143D01*
X63915221Y-75466275D01*
X63911308Y-75439897D01*
X63910000Y-75413262D01*
X63910000Y-74706738D01*
X63911308Y-74680103D01*
X63915221Y-74653725D01*
X63921701Y-74627857D01*
X63930685Y-74602748D01*
X63942086Y-74578642D01*
X63955796Y-74555768D01*
X63971682Y-74534349D01*
X63989590Y-74514590D01*
X64009349Y-74496682D01*
X64030768Y-74480796D01*
X64053642Y-74467086D01*
X64077748Y-74455685D01*
X64102857Y-74446701D01*
X64128725Y-74440221D01*
X64155103Y-74436308D01*
X64181738Y-74435000D01*
X65138262Y-74435000D01*
X65164897Y-74436308D01*
G37*
%TD*%
%TO.C,C10*%
G36*
X64909897Y-68451308D02*
G01*
X64936275Y-68455221D01*
X64962143Y-68461701D01*
X64987252Y-68470685D01*
X65011358Y-68482086D01*
X65034232Y-68495796D01*
X65055651Y-68511682D01*
X65075410Y-68529590D01*
X65093318Y-68549349D01*
X65109204Y-68570768D01*
X65122914Y-68593642D01*
X65134315Y-68617748D01*
X65143299Y-68642857D01*
X65149779Y-68668725D01*
X65153692Y-68695103D01*
X65155000Y-68721738D01*
X65155000Y-69678262D01*
X65153692Y-69704897D01*
X65149779Y-69731275D01*
X65143299Y-69757143D01*
X65134315Y-69782252D01*
X65122914Y-69806358D01*
X65109204Y-69829232D01*
X65093318Y-69850651D01*
X65075410Y-69870410D01*
X65055651Y-69888318D01*
X65034232Y-69904204D01*
X65011358Y-69917914D01*
X64987252Y-69929315D01*
X64962143Y-69938299D01*
X64936275Y-69944779D01*
X64909897Y-69948692D01*
X64883262Y-69950000D01*
X64176738Y-69950000D01*
X64150103Y-69948692D01*
X64123725Y-69944779D01*
X64097857Y-69938299D01*
X64072748Y-69929315D01*
X64048642Y-69917914D01*
X64025768Y-69904204D01*
X64004349Y-69888318D01*
X63984590Y-69870410D01*
X63966682Y-69850651D01*
X63950796Y-69829232D01*
X63937086Y-69806358D01*
X63925685Y-69782252D01*
X63916701Y-69757143D01*
X63910221Y-69731275D01*
X63906308Y-69704897D01*
X63905000Y-69678262D01*
X63905000Y-68721738D01*
X63906308Y-68695103D01*
X63910221Y-68668725D01*
X63916701Y-68642857D01*
X63925685Y-68617748D01*
X63937086Y-68593642D01*
X63950796Y-68570768D01*
X63966682Y-68549349D01*
X63984590Y-68529590D01*
X64004349Y-68511682D01*
X64025768Y-68495796D01*
X64048642Y-68482086D01*
X64072748Y-68470685D01*
X64097857Y-68461701D01*
X64123725Y-68455221D01*
X64150103Y-68451308D01*
X64176738Y-68450000D01*
X64883262Y-68450000D01*
X64909897Y-68451308D01*
G37*
G36*
X66959897Y-68451308D02*
G01*
X66986275Y-68455221D01*
X67012143Y-68461701D01*
X67037252Y-68470685D01*
X67061358Y-68482086D01*
X67084232Y-68495796D01*
X67105651Y-68511682D01*
X67125410Y-68529590D01*
X67143318Y-68549349D01*
X67159204Y-68570768D01*
X67172914Y-68593642D01*
X67184315Y-68617748D01*
X67193299Y-68642857D01*
X67199779Y-68668725D01*
X67203692Y-68695103D01*
X67205000Y-68721738D01*
X67205000Y-69678262D01*
X67203692Y-69704897D01*
X67199779Y-69731275D01*
X67193299Y-69757143D01*
X67184315Y-69782252D01*
X67172914Y-69806358D01*
X67159204Y-69829232D01*
X67143318Y-69850651D01*
X67125410Y-69870410D01*
X67105651Y-69888318D01*
X67084232Y-69904204D01*
X67061358Y-69917914D01*
X67037252Y-69929315D01*
X67012143Y-69938299D01*
X66986275Y-69944779D01*
X66959897Y-69948692D01*
X66933262Y-69950000D01*
X66226738Y-69950000D01*
X66200103Y-69948692D01*
X66173725Y-69944779D01*
X66147857Y-69938299D01*
X66122748Y-69929315D01*
X66098642Y-69917914D01*
X66075768Y-69904204D01*
X66054349Y-69888318D01*
X66034590Y-69870410D01*
X66016682Y-69850651D01*
X66000796Y-69829232D01*
X65987086Y-69806358D01*
X65975685Y-69782252D01*
X65966701Y-69757143D01*
X65960221Y-69731275D01*
X65956308Y-69704897D01*
X65955000Y-69678262D01*
X65955000Y-68721738D01*
X65956308Y-68695103D01*
X65960221Y-68668725D01*
X65966701Y-68642857D01*
X65975685Y-68617748D01*
X65987086Y-68593642D01*
X66000796Y-68570768D01*
X66016682Y-68549349D01*
X66034590Y-68529590D01*
X66054349Y-68511682D01*
X66075768Y-68495796D01*
X66098642Y-68482086D01*
X66122748Y-68470685D01*
X66147857Y-68461701D01*
X66173725Y-68455221D01*
X66200103Y-68451308D01*
X66226738Y-68450000D01*
X66933262Y-68450000D01*
X66959897Y-68451308D01*
G37*
%TD*%
D11*
%TO.C,U7*%
X95340000Y-106700000D03*
X92800000Y-106700000D03*
X95340000Y-104160000D03*
X92800000Y-104160000D03*
X95340000Y-101620000D03*
X92800000Y-101620000D03*
X95340000Y-99080000D03*
X92800000Y-99080000D03*
X95340000Y-96540000D03*
X92800000Y-96540000D03*
X95340000Y-94000000D03*
X92800000Y-94000000D03*
X95340000Y-91460000D03*
X92800000Y-91460000D03*
X95340000Y-88920000D03*
X92800000Y-88920000D03*
X95340000Y-86380000D03*
X92800000Y-86380000D03*
X95340000Y-83840000D03*
X92800000Y-83840000D03*
X95340000Y-81300000D03*
X92800000Y-81300000D03*
X95340000Y-78760000D03*
X92800000Y-78760000D03*
X95340000Y-76220000D03*
X92800000Y-76220000D03*
X95340000Y-73680000D03*
X92800000Y-73680000D03*
X95340000Y-71140000D03*
X92800000Y-71140000D03*
X95340000Y-68600000D03*
X92800000Y-68600000D03*
X95340000Y-66060000D03*
X92800000Y-66060000D03*
X95340000Y-63520000D03*
X92800000Y-63520000D03*
X95340000Y-60980000D03*
X92800000Y-60980000D03*
X95340000Y-58440000D03*
X92800000Y-58440000D03*
X95340000Y-55900000D03*
X92800000Y-55900000D03*
X95340000Y-53360000D03*
X92800000Y-53360000D03*
X95340000Y-50820000D03*
X92800000Y-50820000D03*
X95340000Y-48280000D03*
X92800000Y-48280000D03*
X95340000Y-45740000D03*
X92800000Y-45740000D03*
X95340000Y-43200000D03*
X92800000Y-43200000D03*
X95340000Y-40660000D03*
X92800000Y-40660000D03*
X95340000Y-38120000D03*
X92800000Y-38120000D03*
X95340000Y-35580000D03*
X92800000Y-35580000D03*
X95340000Y-33040000D03*
X92800000Y-33040000D03*
X95340000Y-30500000D03*
X92800000Y-30500000D03*
X95340000Y-27960000D03*
D10*
X92800000Y-27960000D03*
%TD*%
D12*
%TO.C,R1*%
G36*
X84207592Y-79623794D02*
G01*
X84233681Y-79627664D01*
X84259264Y-79634072D01*
X84284096Y-79642957D01*
X84307938Y-79654234D01*
X84330560Y-79667793D01*
X84351743Y-79683503D01*
X84371285Y-79701215D01*
X84388997Y-79720757D01*
X84404707Y-79741940D01*
X84418266Y-79764562D01*
X84429543Y-79788404D01*
X84438428Y-79813236D01*
X84444836Y-79838819D01*
X84448706Y-79864908D01*
X84450000Y-79891250D01*
X84450000Y-80428750D01*
X84448706Y-80455092D01*
X84444836Y-80481181D01*
X84438428Y-80506764D01*
X84429543Y-80531596D01*
X84418266Y-80555438D01*
X84404707Y-80578060D01*
X84388997Y-80599243D01*
X84371285Y-80618785D01*
X84351743Y-80636497D01*
X84330560Y-80652207D01*
X84307938Y-80665766D01*
X84284096Y-80677043D01*
X84259264Y-80685928D01*
X84233681Y-80692336D01*
X84207592Y-80696206D01*
X84181250Y-80697500D01*
X83218750Y-80697500D01*
X83192408Y-80696206D01*
X83166319Y-80692336D01*
X83140736Y-80685928D01*
X83115904Y-80677043D01*
X83092062Y-80665766D01*
X83069440Y-80652207D01*
X83048257Y-80636497D01*
X83028715Y-80618785D01*
X83011003Y-80599243D01*
X82995293Y-80578060D01*
X82981734Y-80555438D01*
X82970457Y-80531596D01*
X82961572Y-80506764D01*
X82955164Y-80481181D01*
X82951294Y-80455092D01*
X82950000Y-80428750D01*
X82950000Y-79891250D01*
X82951294Y-79864908D01*
X82955164Y-79838819D01*
X82961572Y-79813236D01*
X82970457Y-79788404D01*
X82981734Y-79764562D01*
X82995293Y-79741940D01*
X83011003Y-79720757D01*
X83028715Y-79701215D01*
X83048257Y-79683503D01*
X83069440Y-79667793D01*
X83092062Y-79654234D01*
X83115904Y-79642957D01*
X83140736Y-79634072D01*
X83166319Y-79627664D01*
X83192408Y-79623794D01*
X83218750Y-79622500D01*
X84181250Y-79622500D01*
X84207592Y-79623794D01*
G37*
G36*
X84207592Y-81498794D02*
G01*
X84233681Y-81502664D01*
X84259264Y-81509072D01*
X84284096Y-81517957D01*
X84307938Y-81529234D01*
X84330560Y-81542793D01*
X84351743Y-81558503D01*
X84371285Y-81576215D01*
X84388997Y-81595757D01*
X84404707Y-81616940D01*
X84418266Y-81639562D01*
X84429543Y-81663404D01*
X84438428Y-81688236D01*
X84444836Y-81713819D01*
X84448706Y-81739908D01*
X84450000Y-81766250D01*
X84450000Y-82303750D01*
X84448706Y-82330092D01*
X84444836Y-82356181D01*
X84438428Y-82381764D01*
X84429543Y-82406596D01*
X84418266Y-82430438D01*
X84404707Y-82453060D01*
X84388997Y-82474243D01*
X84371285Y-82493785D01*
X84351743Y-82511497D01*
X84330560Y-82527207D01*
X84307938Y-82540766D01*
X84284096Y-82552043D01*
X84259264Y-82560928D01*
X84233681Y-82567336D01*
X84207592Y-82571206D01*
X84181250Y-82572500D01*
X83218750Y-82572500D01*
X83192408Y-82571206D01*
X83166319Y-82567336D01*
X83140736Y-82560928D01*
X83115904Y-82552043D01*
X83092062Y-82540766D01*
X83069440Y-82527207D01*
X83048257Y-82511497D01*
X83028715Y-82493785D01*
X83011003Y-82474243D01*
X82995293Y-82453060D01*
X82981734Y-82430438D01*
X82970457Y-82406596D01*
X82961572Y-82381764D01*
X82955164Y-82356181D01*
X82951294Y-82330092D01*
X82950000Y-82303750D01*
X82950000Y-81766250D01*
X82951294Y-81739908D01*
X82955164Y-81713819D01*
X82961572Y-81688236D01*
X82970457Y-81663404D01*
X82981734Y-81639562D01*
X82995293Y-81616940D01*
X83011003Y-81595757D01*
X83028715Y-81576215D01*
X83048257Y-81558503D01*
X83069440Y-81542793D01*
X83092062Y-81529234D01*
X83115904Y-81517957D01*
X83140736Y-81509072D01*
X83166319Y-81502664D01*
X83192408Y-81498794D01*
X83218750Y-81497500D01*
X84181250Y-81497500D01*
X84207592Y-81498794D01*
G37*
%TD*%
%TO.C,R2*%
G36*
X84207592Y-76008794D02*
G01*
X84233681Y-76012664D01*
X84259264Y-76019072D01*
X84284096Y-76027957D01*
X84307938Y-76039234D01*
X84330560Y-76052793D01*
X84351743Y-76068503D01*
X84371285Y-76086215D01*
X84388997Y-76105757D01*
X84404707Y-76126940D01*
X84418266Y-76149562D01*
X84429543Y-76173404D01*
X84438428Y-76198236D01*
X84444836Y-76223819D01*
X84448706Y-76249908D01*
X84450000Y-76276250D01*
X84450000Y-76813750D01*
X84448706Y-76840092D01*
X84444836Y-76866181D01*
X84438428Y-76891764D01*
X84429543Y-76916596D01*
X84418266Y-76940438D01*
X84404707Y-76963060D01*
X84388997Y-76984243D01*
X84371285Y-77003785D01*
X84351743Y-77021497D01*
X84330560Y-77037207D01*
X84307938Y-77050766D01*
X84284096Y-77062043D01*
X84259264Y-77070928D01*
X84233681Y-77077336D01*
X84207592Y-77081206D01*
X84181250Y-77082500D01*
X83218750Y-77082500D01*
X83192408Y-77081206D01*
X83166319Y-77077336D01*
X83140736Y-77070928D01*
X83115904Y-77062043D01*
X83092062Y-77050766D01*
X83069440Y-77037207D01*
X83048257Y-77021497D01*
X83028715Y-77003785D01*
X83011003Y-76984243D01*
X82995293Y-76963060D01*
X82981734Y-76940438D01*
X82970457Y-76916596D01*
X82961572Y-76891764D01*
X82955164Y-76866181D01*
X82951294Y-76840092D01*
X82950000Y-76813750D01*
X82950000Y-76276250D01*
X82951294Y-76249908D01*
X82955164Y-76223819D01*
X82961572Y-76198236D01*
X82970457Y-76173404D01*
X82981734Y-76149562D01*
X82995293Y-76126940D01*
X83011003Y-76105757D01*
X83028715Y-76086215D01*
X83048257Y-76068503D01*
X83069440Y-76052793D01*
X83092062Y-76039234D01*
X83115904Y-76027957D01*
X83140736Y-76019072D01*
X83166319Y-76012664D01*
X83192408Y-76008794D01*
X83218750Y-76007500D01*
X84181250Y-76007500D01*
X84207592Y-76008794D01*
G37*
G36*
X84207592Y-77883794D02*
G01*
X84233681Y-77887664D01*
X84259264Y-77894072D01*
X84284096Y-77902957D01*
X84307938Y-77914234D01*
X84330560Y-77927793D01*
X84351743Y-77943503D01*
X84371285Y-77961215D01*
X84388997Y-77980757D01*
X84404707Y-78001940D01*
X84418266Y-78024562D01*
X84429543Y-78048404D01*
X84438428Y-78073236D01*
X84444836Y-78098819D01*
X84448706Y-78124908D01*
X84450000Y-78151250D01*
X84450000Y-78688750D01*
X84448706Y-78715092D01*
X84444836Y-78741181D01*
X84438428Y-78766764D01*
X84429543Y-78791596D01*
X84418266Y-78815438D01*
X84404707Y-78838060D01*
X84388997Y-78859243D01*
X84371285Y-78878785D01*
X84351743Y-78896497D01*
X84330560Y-78912207D01*
X84307938Y-78925766D01*
X84284096Y-78937043D01*
X84259264Y-78945928D01*
X84233681Y-78952336D01*
X84207592Y-78956206D01*
X84181250Y-78957500D01*
X83218750Y-78957500D01*
X83192408Y-78956206D01*
X83166319Y-78952336D01*
X83140736Y-78945928D01*
X83115904Y-78937043D01*
X83092062Y-78925766D01*
X83069440Y-78912207D01*
X83048257Y-78896497D01*
X83028715Y-78878785D01*
X83011003Y-78859243D01*
X82995293Y-78838060D01*
X82981734Y-78815438D01*
X82970457Y-78791596D01*
X82961572Y-78766764D01*
X82955164Y-78741181D01*
X82951294Y-78715092D01*
X82950000Y-78688750D01*
X82950000Y-78151250D01*
X82951294Y-78124908D01*
X82955164Y-78098819D01*
X82961572Y-78073236D01*
X82970457Y-78048404D01*
X82981734Y-78024562D01*
X82995293Y-78001940D01*
X83011003Y-77980757D01*
X83028715Y-77961215D01*
X83048257Y-77943503D01*
X83069440Y-77927793D01*
X83092062Y-77914234D01*
X83115904Y-77902957D01*
X83140736Y-77894072D01*
X83166319Y-77887664D01*
X83192408Y-77883794D01*
X83218750Y-77882500D01*
X84181250Y-77882500D01*
X84207592Y-77883794D01*
G37*
%TD*%
%TO.C,R3*%
G36*
X68657592Y-85908794D02*
G01*
X68683681Y-85912664D01*
X68709264Y-85919072D01*
X68734096Y-85927957D01*
X68757938Y-85939234D01*
X68780560Y-85952793D01*
X68801743Y-85968503D01*
X68821285Y-85986215D01*
X68838997Y-86005757D01*
X68854707Y-86026940D01*
X68868266Y-86049562D01*
X68879543Y-86073404D01*
X68888428Y-86098236D01*
X68894836Y-86123819D01*
X68898706Y-86149908D01*
X68900000Y-86176250D01*
X68900000Y-86713750D01*
X68898706Y-86740092D01*
X68894836Y-86766181D01*
X68888428Y-86791764D01*
X68879543Y-86816596D01*
X68868266Y-86840438D01*
X68854707Y-86863060D01*
X68838997Y-86884243D01*
X68821285Y-86903785D01*
X68801743Y-86921497D01*
X68780560Y-86937207D01*
X68757938Y-86950766D01*
X68734096Y-86962043D01*
X68709264Y-86970928D01*
X68683681Y-86977336D01*
X68657592Y-86981206D01*
X68631250Y-86982500D01*
X67668750Y-86982500D01*
X67642408Y-86981206D01*
X67616319Y-86977336D01*
X67590736Y-86970928D01*
X67565904Y-86962043D01*
X67542062Y-86950766D01*
X67519440Y-86937207D01*
X67498257Y-86921497D01*
X67478715Y-86903785D01*
X67461003Y-86884243D01*
X67445293Y-86863060D01*
X67431734Y-86840438D01*
X67420457Y-86816596D01*
X67411572Y-86791764D01*
X67405164Y-86766181D01*
X67401294Y-86740092D01*
X67400000Y-86713750D01*
X67400000Y-86176250D01*
X67401294Y-86149908D01*
X67405164Y-86123819D01*
X67411572Y-86098236D01*
X67420457Y-86073404D01*
X67431734Y-86049562D01*
X67445293Y-86026940D01*
X67461003Y-86005757D01*
X67478715Y-85986215D01*
X67498257Y-85968503D01*
X67519440Y-85952793D01*
X67542062Y-85939234D01*
X67565904Y-85927957D01*
X67590736Y-85919072D01*
X67616319Y-85912664D01*
X67642408Y-85908794D01*
X67668750Y-85907500D01*
X68631250Y-85907500D01*
X68657592Y-85908794D01*
G37*
G36*
X68657592Y-84033794D02*
G01*
X68683681Y-84037664D01*
X68709264Y-84044072D01*
X68734096Y-84052957D01*
X68757938Y-84064234D01*
X68780560Y-84077793D01*
X68801743Y-84093503D01*
X68821285Y-84111215D01*
X68838997Y-84130757D01*
X68854707Y-84151940D01*
X68868266Y-84174562D01*
X68879543Y-84198404D01*
X68888428Y-84223236D01*
X68894836Y-84248819D01*
X68898706Y-84274908D01*
X68900000Y-84301250D01*
X68900000Y-84838750D01*
X68898706Y-84865092D01*
X68894836Y-84891181D01*
X68888428Y-84916764D01*
X68879543Y-84941596D01*
X68868266Y-84965438D01*
X68854707Y-84988060D01*
X68838997Y-85009243D01*
X68821285Y-85028785D01*
X68801743Y-85046497D01*
X68780560Y-85062207D01*
X68757938Y-85075766D01*
X68734096Y-85087043D01*
X68709264Y-85095928D01*
X68683681Y-85102336D01*
X68657592Y-85106206D01*
X68631250Y-85107500D01*
X67668750Y-85107500D01*
X67642408Y-85106206D01*
X67616319Y-85102336D01*
X67590736Y-85095928D01*
X67565904Y-85087043D01*
X67542062Y-85075766D01*
X67519440Y-85062207D01*
X67498257Y-85046497D01*
X67478715Y-85028785D01*
X67461003Y-85009243D01*
X67445293Y-84988060D01*
X67431734Y-84965438D01*
X67420457Y-84941596D01*
X67411572Y-84916764D01*
X67405164Y-84891181D01*
X67401294Y-84865092D01*
X67400000Y-84838750D01*
X67400000Y-84301250D01*
X67401294Y-84274908D01*
X67405164Y-84248819D01*
X67411572Y-84223236D01*
X67420457Y-84198404D01*
X67431734Y-84174562D01*
X67445293Y-84151940D01*
X67461003Y-84130757D01*
X67478715Y-84111215D01*
X67498257Y-84093503D01*
X67519440Y-84077793D01*
X67542062Y-84064234D01*
X67565904Y-84052957D01*
X67590736Y-84044072D01*
X67616319Y-84037664D01*
X67642408Y-84033794D01*
X67668750Y-84032500D01*
X68631250Y-84032500D01*
X68657592Y-84033794D01*
G37*
%TD*%
%TO.C,R4*%
G36*
X68667592Y-80383794D02*
G01*
X68693681Y-80387664D01*
X68719264Y-80394072D01*
X68744096Y-80402957D01*
X68767938Y-80414234D01*
X68790560Y-80427793D01*
X68811743Y-80443503D01*
X68831285Y-80461215D01*
X68848997Y-80480757D01*
X68864707Y-80501940D01*
X68878266Y-80524562D01*
X68889543Y-80548404D01*
X68898428Y-80573236D01*
X68904836Y-80598819D01*
X68908706Y-80624908D01*
X68910000Y-80651250D01*
X68910000Y-81188750D01*
X68908706Y-81215092D01*
X68904836Y-81241181D01*
X68898428Y-81266764D01*
X68889543Y-81291596D01*
X68878266Y-81315438D01*
X68864707Y-81338060D01*
X68848997Y-81359243D01*
X68831285Y-81378785D01*
X68811743Y-81396497D01*
X68790560Y-81412207D01*
X68767938Y-81425766D01*
X68744096Y-81437043D01*
X68719264Y-81445928D01*
X68693681Y-81452336D01*
X68667592Y-81456206D01*
X68641250Y-81457500D01*
X67678750Y-81457500D01*
X67652408Y-81456206D01*
X67626319Y-81452336D01*
X67600736Y-81445928D01*
X67575904Y-81437043D01*
X67552062Y-81425766D01*
X67529440Y-81412207D01*
X67508257Y-81396497D01*
X67488715Y-81378785D01*
X67471003Y-81359243D01*
X67455293Y-81338060D01*
X67441734Y-81315438D01*
X67430457Y-81291596D01*
X67421572Y-81266764D01*
X67415164Y-81241181D01*
X67411294Y-81215092D01*
X67410000Y-81188750D01*
X67410000Y-80651250D01*
X67411294Y-80624908D01*
X67415164Y-80598819D01*
X67421572Y-80573236D01*
X67430457Y-80548404D01*
X67441734Y-80524562D01*
X67455293Y-80501940D01*
X67471003Y-80480757D01*
X67488715Y-80461215D01*
X67508257Y-80443503D01*
X67529440Y-80427793D01*
X67552062Y-80414234D01*
X67575904Y-80402957D01*
X67600736Y-80394072D01*
X67626319Y-80387664D01*
X67652408Y-80383794D01*
X67678750Y-80382500D01*
X68641250Y-80382500D01*
X68667592Y-80383794D01*
G37*
G36*
X68667592Y-82258794D02*
G01*
X68693681Y-82262664D01*
X68719264Y-82269072D01*
X68744096Y-82277957D01*
X68767938Y-82289234D01*
X68790560Y-82302793D01*
X68811743Y-82318503D01*
X68831285Y-82336215D01*
X68848997Y-82355757D01*
X68864707Y-82376940D01*
X68878266Y-82399562D01*
X68889543Y-82423404D01*
X68898428Y-82448236D01*
X68904836Y-82473819D01*
X68908706Y-82499908D01*
X68910000Y-82526250D01*
X68910000Y-83063750D01*
X68908706Y-83090092D01*
X68904836Y-83116181D01*
X68898428Y-83141764D01*
X68889543Y-83166596D01*
X68878266Y-83190438D01*
X68864707Y-83213060D01*
X68848997Y-83234243D01*
X68831285Y-83253785D01*
X68811743Y-83271497D01*
X68790560Y-83287207D01*
X68767938Y-83300766D01*
X68744096Y-83312043D01*
X68719264Y-83320928D01*
X68693681Y-83327336D01*
X68667592Y-83331206D01*
X68641250Y-83332500D01*
X67678750Y-83332500D01*
X67652408Y-83331206D01*
X67626319Y-83327336D01*
X67600736Y-83320928D01*
X67575904Y-83312043D01*
X67552062Y-83300766D01*
X67529440Y-83287207D01*
X67508257Y-83271497D01*
X67488715Y-83253785D01*
X67471003Y-83234243D01*
X67455293Y-83213060D01*
X67441734Y-83190438D01*
X67430457Y-83166596D01*
X67421572Y-83141764D01*
X67415164Y-83116181D01*
X67411294Y-83090092D01*
X67410000Y-83063750D01*
X67410000Y-82526250D01*
X67411294Y-82499908D01*
X67415164Y-82473819D01*
X67421572Y-82448236D01*
X67430457Y-82423404D01*
X67441734Y-82399562D01*
X67455293Y-82376940D01*
X67471003Y-82355757D01*
X67488715Y-82336215D01*
X67508257Y-82318503D01*
X67529440Y-82302793D01*
X67552062Y-82289234D01*
X67575904Y-82277957D01*
X67600736Y-82269072D01*
X67626319Y-82262664D01*
X67652408Y-82258794D01*
X67678750Y-82257500D01*
X68641250Y-82257500D01*
X68667592Y-82258794D01*
G37*
%TD*%
%TO.C,C13*%
G36*
X48954897Y-40876308D02*
G01*
X48981275Y-40880221D01*
X49007143Y-40886701D01*
X49032252Y-40895685D01*
X49056358Y-40907086D01*
X49079232Y-40920796D01*
X49100651Y-40936682D01*
X49120410Y-40954590D01*
X49138318Y-40974349D01*
X49154204Y-40995768D01*
X49167914Y-41018642D01*
X49179315Y-41042748D01*
X49188299Y-41067857D01*
X49194779Y-41093725D01*
X49198692Y-41120103D01*
X49200000Y-41146738D01*
X49200000Y-41853262D01*
X49198692Y-41879897D01*
X49194779Y-41906275D01*
X49188299Y-41932143D01*
X49179315Y-41957252D01*
X49167914Y-41981358D01*
X49154204Y-42004232D01*
X49138318Y-42025651D01*
X49120410Y-42045410D01*
X49100651Y-42063318D01*
X49079232Y-42079204D01*
X49056358Y-42092914D01*
X49032252Y-42104315D01*
X49007143Y-42113299D01*
X48981275Y-42119779D01*
X48954897Y-42123692D01*
X48928262Y-42125000D01*
X47971738Y-42125000D01*
X47945103Y-42123692D01*
X47918725Y-42119779D01*
X47892857Y-42113299D01*
X47867748Y-42104315D01*
X47843642Y-42092914D01*
X47820768Y-42079204D01*
X47799349Y-42063318D01*
X47779590Y-42045410D01*
X47761682Y-42025651D01*
X47745796Y-42004232D01*
X47732086Y-41981358D01*
X47720685Y-41957252D01*
X47711701Y-41932143D01*
X47705221Y-41906275D01*
X47701308Y-41879897D01*
X47700000Y-41853262D01*
X47700000Y-41146738D01*
X47701308Y-41120103D01*
X47705221Y-41093725D01*
X47711701Y-41067857D01*
X47720685Y-41042748D01*
X47732086Y-41018642D01*
X47745796Y-40995768D01*
X47761682Y-40974349D01*
X47779590Y-40954590D01*
X47799349Y-40936682D01*
X47820768Y-40920796D01*
X47843642Y-40907086D01*
X47867748Y-40895685D01*
X47892857Y-40886701D01*
X47918725Y-40880221D01*
X47945103Y-40876308D01*
X47971738Y-40875000D01*
X48928262Y-40875000D01*
X48954897Y-40876308D01*
G37*
G36*
X48954897Y-42926308D02*
G01*
X48981275Y-42930221D01*
X49007143Y-42936701D01*
X49032252Y-42945685D01*
X49056358Y-42957086D01*
X49079232Y-42970796D01*
X49100651Y-42986682D01*
X49120410Y-43004590D01*
X49138318Y-43024349D01*
X49154204Y-43045768D01*
X49167914Y-43068642D01*
X49179315Y-43092748D01*
X49188299Y-43117857D01*
X49194779Y-43143725D01*
X49198692Y-43170103D01*
X49200000Y-43196738D01*
X49200000Y-43903262D01*
X49198692Y-43929897D01*
X49194779Y-43956275D01*
X49188299Y-43982143D01*
X49179315Y-44007252D01*
X49167914Y-44031358D01*
X49154204Y-44054232D01*
X49138318Y-44075651D01*
X49120410Y-44095410D01*
X49100651Y-44113318D01*
X49079232Y-44129204D01*
X49056358Y-44142914D01*
X49032252Y-44154315D01*
X49007143Y-44163299D01*
X48981275Y-44169779D01*
X48954897Y-44173692D01*
X48928262Y-44175000D01*
X47971738Y-44175000D01*
X47945103Y-44173692D01*
X47918725Y-44169779D01*
X47892857Y-44163299D01*
X47867748Y-44154315D01*
X47843642Y-44142914D01*
X47820768Y-44129204D01*
X47799349Y-44113318D01*
X47779590Y-44095410D01*
X47761682Y-44075651D01*
X47745796Y-44054232D01*
X47732086Y-44031358D01*
X47720685Y-44007252D01*
X47711701Y-43982143D01*
X47705221Y-43956275D01*
X47701308Y-43929897D01*
X47700000Y-43903262D01*
X47700000Y-43196738D01*
X47701308Y-43170103D01*
X47705221Y-43143725D01*
X47711701Y-43117857D01*
X47720685Y-43092748D01*
X47732086Y-43068642D01*
X47745796Y-43045768D01*
X47761682Y-43024349D01*
X47779590Y-43004590D01*
X47799349Y-42986682D01*
X47820768Y-42970796D01*
X47843642Y-42957086D01*
X47867748Y-42945685D01*
X47892857Y-42936701D01*
X47918725Y-42930221D01*
X47945103Y-42926308D01*
X47971738Y-42925000D01*
X48928262Y-42925000D01*
X48954897Y-42926308D01*
G37*
%TD*%
%TO.C,C14*%
G36*
X48854897Y-53076308D02*
G01*
X48881275Y-53080221D01*
X48907143Y-53086701D01*
X48932252Y-53095685D01*
X48956358Y-53107086D01*
X48979232Y-53120796D01*
X49000651Y-53136682D01*
X49020410Y-53154590D01*
X49038318Y-53174349D01*
X49054204Y-53195768D01*
X49067914Y-53218642D01*
X49079315Y-53242748D01*
X49088299Y-53267857D01*
X49094779Y-53293725D01*
X49098692Y-53320103D01*
X49100000Y-53346738D01*
X49100000Y-54053262D01*
X49098692Y-54079897D01*
X49094779Y-54106275D01*
X49088299Y-54132143D01*
X49079315Y-54157252D01*
X49067914Y-54181358D01*
X49054204Y-54204232D01*
X49038318Y-54225651D01*
X49020410Y-54245410D01*
X49000651Y-54263318D01*
X48979232Y-54279204D01*
X48956358Y-54292914D01*
X48932252Y-54304315D01*
X48907143Y-54313299D01*
X48881275Y-54319779D01*
X48854897Y-54323692D01*
X48828262Y-54325000D01*
X47871738Y-54325000D01*
X47845103Y-54323692D01*
X47818725Y-54319779D01*
X47792857Y-54313299D01*
X47767748Y-54304315D01*
X47743642Y-54292914D01*
X47720768Y-54279204D01*
X47699349Y-54263318D01*
X47679590Y-54245410D01*
X47661682Y-54225651D01*
X47645796Y-54204232D01*
X47632086Y-54181358D01*
X47620685Y-54157252D01*
X47611701Y-54132143D01*
X47605221Y-54106275D01*
X47601308Y-54079897D01*
X47600000Y-54053262D01*
X47600000Y-53346738D01*
X47601308Y-53320103D01*
X47605221Y-53293725D01*
X47611701Y-53267857D01*
X47620685Y-53242748D01*
X47632086Y-53218642D01*
X47645796Y-53195768D01*
X47661682Y-53174349D01*
X47679590Y-53154590D01*
X47699349Y-53136682D01*
X47720768Y-53120796D01*
X47743642Y-53107086D01*
X47767748Y-53095685D01*
X47792857Y-53086701D01*
X47818725Y-53080221D01*
X47845103Y-53076308D01*
X47871738Y-53075000D01*
X48828262Y-53075000D01*
X48854897Y-53076308D01*
G37*
G36*
X48854897Y-51026308D02*
G01*
X48881275Y-51030221D01*
X48907143Y-51036701D01*
X48932252Y-51045685D01*
X48956358Y-51057086D01*
X48979232Y-51070796D01*
X49000651Y-51086682D01*
X49020410Y-51104590D01*
X49038318Y-51124349D01*
X49054204Y-51145768D01*
X49067914Y-51168642D01*
X49079315Y-51192748D01*
X49088299Y-51217857D01*
X49094779Y-51243725D01*
X49098692Y-51270103D01*
X49100000Y-51296738D01*
X49100000Y-52003262D01*
X49098692Y-52029897D01*
X49094779Y-52056275D01*
X49088299Y-52082143D01*
X49079315Y-52107252D01*
X49067914Y-52131358D01*
X49054204Y-52154232D01*
X49038318Y-52175651D01*
X49020410Y-52195410D01*
X49000651Y-52213318D01*
X48979232Y-52229204D01*
X48956358Y-52242914D01*
X48932252Y-52254315D01*
X48907143Y-52263299D01*
X48881275Y-52269779D01*
X48854897Y-52273692D01*
X48828262Y-52275000D01*
X47871738Y-52275000D01*
X47845103Y-52273692D01*
X47818725Y-52269779D01*
X47792857Y-52263299D01*
X47767748Y-52254315D01*
X47743642Y-52242914D01*
X47720768Y-52229204D01*
X47699349Y-52213318D01*
X47679590Y-52195410D01*
X47661682Y-52175651D01*
X47645796Y-52154232D01*
X47632086Y-52131358D01*
X47620685Y-52107252D01*
X47611701Y-52082143D01*
X47605221Y-52056275D01*
X47601308Y-52029897D01*
X47600000Y-52003262D01*
X47600000Y-51296738D01*
X47601308Y-51270103D01*
X47605221Y-51243725D01*
X47611701Y-51217857D01*
X47620685Y-51192748D01*
X47632086Y-51168642D01*
X47645796Y-51145768D01*
X47661682Y-51124349D01*
X47679590Y-51104590D01*
X47699349Y-51086682D01*
X47720768Y-51070796D01*
X47743642Y-51057086D01*
X47767748Y-51045685D01*
X47792857Y-51036701D01*
X47818725Y-51030221D01*
X47845103Y-51026308D01*
X47871738Y-51025000D01*
X48828262Y-51025000D01*
X48854897Y-51026308D01*
G37*
%TD*%
%TO.C,C15*%
G36*
X48954897Y-60426308D02*
G01*
X48981275Y-60430221D01*
X49007143Y-60436701D01*
X49032252Y-60445685D01*
X49056358Y-60457086D01*
X49079232Y-60470796D01*
X49100651Y-60486682D01*
X49120410Y-60504590D01*
X49138318Y-60524349D01*
X49154204Y-60545768D01*
X49167914Y-60568642D01*
X49179315Y-60592748D01*
X49188299Y-60617857D01*
X49194779Y-60643725D01*
X49198692Y-60670103D01*
X49200000Y-60696738D01*
X49200000Y-61403262D01*
X49198692Y-61429897D01*
X49194779Y-61456275D01*
X49188299Y-61482143D01*
X49179315Y-61507252D01*
X49167914Y-61531358D01*
X49154204Y-61554232D01*
X49138318Y-61575651D01*
X49120410Y-61595410D01*
X49100651Y-61613318D01*
X49079232Y-61629204D01*
X49056358Y-61642914D01*
X49032252Y-61654315D01*
X49007143Y-61663299D01*
X48981275Y-61669779D01*
X48954897Y-61673692D01*
X48928262Y-61675000D01*
X47971738Y-61675000D01*
X47945103Y-61673692D01*
X47918725Y-61669779D01*
X47892857Y-61663299D01*
X47867748Y-61654315D01*
X47843642Y-61642914D01*
X47820768Y-61629204D01*
X47799349Y-61613318D01*
X47779590Y-61595410D01*
X47761682Y-61575651D01*
X47745796Y-61554232D01*
X47732086Y-61531358D01*
X47720685Y-61507252D01*
X47711701Y-61482143D01*
X47705221Y-61456275D01*
X47701308Y-61429897D01*
X47700000Y-61403262D01*
X47700000Y-60696738D01*
X47701308Y-60670103D01*
X47705221Y-60643725D01*
X47711701Y-60617857D01*
X47720685Y-60592748D01*
X47732086Y-60568642D01*
X47745796Y-60545768D01*
X47761682Y-60524349D01*
X47779590Y-60504590D01*
X47799349Y-60486682D01*
X47820768Y-60470796D01*
X47843642Y-60457086D01*
X47867748Y-60445685D01*
X47892857Y-60436701D01*
X47918725Y-60430221D01*
X47945103Y-60426308D01*
X47971738Y-60425000D01*
X48928262Y-60425000D01*
X48954897Y-60426308D01*
G37*
G36*
X48954897Y-62476308D02*
G01*
X48981275Y-62480221D01*
X49007143Y-62486701D01*
X49032252Y-62495685D01*
X49056358Y-62507086D01*
X49079232Y-62520796D01*
X49100651Y-62536682D01*
X49120410Y-62554590D01*
X49138318Y-62574349D01*
X49154204Y-62595768D01*
X49167914Y-62618642D01*
X49179315Y-62642748D01*
X49188299Y-62667857D01*
X49194779Y-62693725D01*
X49198692Y-62720103D01*
X49200000Y-62746738D01*
X49200000Y-63453262D01*
X49198692Y-63479897D01*
X49194779Y-63506275D01*
X49188299Y-63532143D01*
X49179315Y-63557252D01*
X49167914Y-63581358D01*
X49154204Y-63604232D01*
X49138318Y-63625651D01*
X49120410Y-63645410D01*
X49100651Y-63663318D01*
X49079232Y-63679204D01*
X49056358Y-63692914D01*
X49032252Y-63704315D01*
X49007143Y-63713299D01*
X48981275Y-63719779D01*
X48954897Y-63723692D01*
X48928262Y-63725000D01*
X47971738Y-63725000D01*
X47945103Y-63723692D01*
X47918725Y-63719779D01*
X47892857Y-63713299D01*
X47867748Y-63704315D01*
X47843642Y-63692914D01*
X47820768Y-63679204D01*
X47799349Y-63663318D01*
X47779590Y-63645410D01*
X47761682Y-63625651D01*
X47745796Y-63604232D01*
X47732086Y-63581358D01*
X47720685Y-63557252D01*
X47711701Y-63532143D01*
X47705221Y-63506275D01*
X47701308Y-63479897D01*
X47700000Y-63453262D01*
X47700000Y-62746738D01*
X47701308Y-62720103D01*
X47705221Y-62693725D01*
X47711701Y-62667857D01*
X47720685Y-62642748D01*
X47732086Y-62618642D01*
X47745796Y-62595768D01*
X47761682Y-62574349D01*
X47779590Y-62554590D01*
X47799349Y-62536682D01*
X47820768Y-62520796D01*
X47843642Y-62507086D01*
X47867748Y-62495685D01*
X47892857Y-62486701D01*
X47918725Y-62480221D01*
X47945103Y-62476308D01*
X47971738Y-62475000D01*
X48928262Y-62475000D01*
X48954897Y-62476308D01*
G37*
%TD*%
%TO.C,C16*%
G36*
X48954897Y-72076308D02*
G01*
X48981275Y-72080221D01*
X49007143Y-72086701D01*
X49032252Y-72095685D01*
X49056358Y-72107086D01*
X49079232Y-72120796D01*
X49100651Y-72136682D01*
X49120410Y-72154590D01*
X49138318Y-72174349D01*
X49154204Y-72195768D01*
X49167914Y-72218642D01*
X49179315Y-72242748D01*
X49188299Y-72267857D01*
X49194779Y-72293725D01*
X49198692Y-72320103D01*
X49200000Y-72346738D01*
X49200000Y-73053262D01*
X49198692Y-73079897D01*
X49194779Y-73106275D01*
X49188299Y-73132143D01*
X49179315Y-73157252D01*
X49167914Y-73181358D01*
X49154204Y-73204232D01*
X49138318Y-73225651D01*
X49120410Y-73245410D01*
X49100651Y-73263318D01*
X49079232Y-73279204D01*
X49056358Y-73292914D01*
X49032252Y-73304315D01*
X49007143Y-73313299D01*
X48981275Y-73319779D01*
X48954897Y-73323692D01*
X48928262Y-73325000D01*
X47971738Y-73325000D01*
X47945103Y-73323692D01*
X47918725Y-73319779D01*
X47892857Y-73313299D01*
X47867748Y-73304315D01*
X47843642Y-73292914D01*
X47820768Y-73279204D01*
X47799349Y-73263318D01*
X47779590Y-73245410D01*
X47761682Y-73225651D01*
X47745796Y-73204232D01*
X47732086Y-73181358D01*
X47720685Y-73157252D01*
X47711701Y-73132143D01*
X47705221Y-73106275D01*
X47701308Y-73079897D01*
X47700000Y-73053262D01*
X47700000Y-72346738D01*
X47701308Y-72320103D01*
X47705221Y-72293725D01*
X47711701Y-72267857D01*
X47720685Y-72242748D01*
X47732086Y-72218642D01*
X47745796Y-72195768D01*
X47761682Y-72174349D01*
X47779590Y-72154590D01*
X47799349Y-72136682D01*
X47820768Y-72120796D01*
X47843642Y-72107086D01*
X47867748Y-72095685D01*
X47892857Y-72086701D01*
X47918725Y-72080221D01*
X47945103Y-72076308D01*
X47971738Y-72075000D01*
X48928262Y-72075000D01*
X48954897Y-72076308D01*
G37*
G36*
X48954897Y-70026308D02*
G01*
X48981275Y-70030221D01*
X49007143Y-70036701D01*
X49032252Y-70045685D01*
X49056358Y-70057086D01*
X49079232Y-70070796D01*
X49100651Y-70086682D01*
X49120410Y-70104590D01*
X49138318Y-70124349D01*
X49154204Y-70145768D01*
X49167914Y-70168642D01*
X49179315Y-70192748D01*
X49188299Y-70217857D01*
X49194779Y-70243725D01*
X49198692Y-70270103D01*
X49200000Y-70296738D01*
X49200000Y-71003262D01*
X49198692Y-71029897D01*
X49194779Y-71056275D01*
X49188299Y-71082143D01*
X49179315Y-71107252D01*
X49167914Y-71131358D01*
X49154204Y-71154232D01*
X49138318Y-71175651D01*
X49120410Y-71195410D01*
X49100651Y-71213318D01*
X49079232Y-71229204D01*
X49056358Y-71242914D01*
X49032252Y-71254315D01*
X49007143Y-71263299D01*
X48981275Y-71269779D01*
X48954897Y-71273692D01*
X48928262Y-71275000D01*
X47971738Y-71275000D01*
X47945103Y-71273692D01*
X47918725Y-71269779D01*
X47892857Y-71263299D01*
X47867748Y-71254315D01*
X47843642Y-71242914D01*
X47820768Y-71229204D01*
X47799349Y-71213318D01*
X47779590Y-71195410D01*
X47761682Y-71175651D01*
X47745796Y-71154232D01*
X47732086Y-71131358D01*
X47720685Y-71107252D01*
X47711701Y-71082143D01*
X47705221Y-71056275D01*
X47701308Y-71029897D01*
X47700000Y-71003262D01*
X47700000Y-70296738D01*
X47701308Y-70270103D01*
X47705221Y-70243725D01*
X47711701Y-70217857D01*
X47720685Y-70192748D01*
X47732086Y-70168642D01*
X47745796Y-70145768D01*
X47761682Y-70124349D01*
X47779590Y-70104590D01*
X47799349Y-70086682D01*
X47820768Y-70070796D01*
X47843642Y-70057086D01*
X47867748Y-70045685D01*
X47892857Y-70036701D01*
X47918725Y-70030221D01*
X47945103Y-70026308D01*
X47971738Y-70025000D01*
X48928262Y-70025000D01*
X48954897Y-70026308D01*
G37*
%TD*%
%TO.C,C17*%
G36*
X48954897Y-95076308D02*
G01*
X48981275Y-95080221D01*
X49007143Y-95086701D01*
X49032252Y-95095685D01*
X49056358Y-95107086D01*
X49079232Y-95120796D01*
X49100651Y-95136682D01*
X49120410Y-95154590D01*
X49138318Y-95174349D01*
X49154204Y-95195768D01*
X49167914Y-95218642D01*
X49179315Y-95242748D01*
X49188299Y-95267857D01*
X49194779Y-95293725D01*
X49198692Y-95320103D01*
X49200000Y-95346738D01*
X49200000Y-96053262D01*
X49198692Y-96079897D01*
X49194779Y-96106275D01*
X49188299Y-96132143D01*
X49179315Y-96157252D01*
X49167914Y-96181358D01*
X49154204Y-96204232D01*
X49138318Y-96225651D01*
X49120410Y-96245410D01*
X49100651Y-96263318D01*
X49079232Y-96279204D01*
X49056358Y-96292914D01*
X49032252Y-96304315D01*
X49007143Y-96313299D01*
X48981275Y-96319779D01*
X48954897Y-96323692D01*
X48928262Y-96325000D01*
X47971738Y-96325000D01*
X47945103Y-96323692D01*
X47918725Y-96319779D01*
X47892857Y-96313299D01*
X47867748Y-96304315D01*
X47843642Y-96292914D01*
X47820768Y-96279204D01*
X47799349Y-96263318D01*
X47779590Y-96245410D01*
X47761682Y-96225651D01*
X47745796Y-96204232D01*
X47732086Y-96181358D01*
X47720685Y-96157252D01*
X47711701Y-96132143D01*
X47705221Y-96106275D01*
X47701308Y-96079897D01*
X47700000Y-96053262D01*
X47700000Y-95346738D01*
X47701308Y-95320103D01*
X47705221Y-95293725D01*
X47711701Y-95267857D01*
X47720685Y-95242748D01*
X47732086Y-95218642D01*
X47745796Y-95195768D01*
X47761682Y-95174349D01*
X47779590Y-95154590D01*
X47799349Y-95136682D01*
X47820768Y-95120796D01*
X47843642Y-95107086D01*
X47867748Y-95095685D01*
X47892857Y-95086701D01*
X47918725Y-95080221D01*
X47945103Y-95076308D01*
X47971738Y-95075000D01*
X48928262Y-95075000D01*
X48954897Y-95076308D01*
G37*
G36*
X48954897Y-93026308D02*
G01*
X48981275Y-93030221D01*
X49007143Y-93036701D01*
X49032252Y-93045685D01*
X49056358Y-93057086D01*
X49079232Y-93070796D01*
X49100651Y-93086682D01*
X49120410Y-93104590D01*
X49138318Y-93124349D01*
X49154204Y-93145768D01*
X49167914Y-93168642D01*
X49179315Y-93192748D01*
X49188299Y-93217857D01*
X49194779Y-93243725D01*
X49198692Y-93270103D01*
X49200000Y-93296738D01*
X49200000Y-94003262D01*
X49198692Y-94029897D01*
X49194779Y-94056275D01*
X49188299Y-94082143D01*
X49179315Y-94107252D01*
X49167914Y-94131358D01*
X49154204Y-94154232D01*
X49138318Y-94175651D01*
X49120410Y-94195410D01*
X49100651Y-94213318D01*
X49079232Y-94229204D01*
X49056358Y-94242914D01*
X49032252Y-94254315D01*
X49007143Y-94263299D01*
X48981275Y-94269779D01*
X48954897Y-94273692D01*
X48928262Y-94275000D01*
X47971738Y-94275000D01*
X47945103Y-94273692D01*
X47918725Y-94269779D01*
X47892857Y-94263299D01*
X47867748Y-94254315D01*
X47843642Y-94242914D01*
X47820768Y-94229204D01*
X47799349Y-94213318D01*
X47779590Y-94195410D01*
X47761682Y-94175651D01*
X47745796Y-94154232D01*
X47732086Y-94131358D01*
X47720685Y-94107252D01*
X47711701Y-94082143D01*
X47705221Y-94056275D01*
X47701308Y-94029897D01*
X47700000Y-94003262D01*
X47700000Y-93296738D01*
X47701308Y-93270103D01*
X47705221Y-93243725D01*
X47711701Y-93217857D01*
X47720685Y-93192748D01*
X47732086Y-93168642D01*
X47745796Y-93145768D01*
X47761682Y-93124349D01*
X47779590Y-93104590D01*
X47799349Y-93086682D01*
X47820768Y-93070796D01*
X47843642Y-93057086D01*
X47867748Y-93045685D01*
X47892857Y-93036701D01*
X47918725Y-93030221D01*
X47945103Y-93026308D01*
X47971738Y-93025000D01*
X48928262Y-93025000D01*
X48954897Y-93026308D01*
G37*
%TD*%
%TO.C,C18*%
G36*
X48954897Y-79026308D02*
G01*
X48981275Y-79030221D01*
X49007143Y-79036701D01*
X49032252Y-79045685D01*
X49056358Y-79057086D01*
X49079232Y-79070796D01*
X49100651Y-79086682D01*
X49120410Y-79104590D01*
X49138318Y-79124349D01*
X49154204Y-79145768D01*
X49167914Y-79168642D01*
X49179315Y-79192748D01*
X49188299Y-79217857D01*
X49194779Y-79243725D01*
X49198692Y-79270103D01*
X49200000Y-79296738D01*
X49200000Y-80003262D01*
X49198692Y-80029897D01*
X49194779Y-80056275D01*
X49188299Y-80082143D01*
X49179315Y-80107252D01*
X49167914Y-80131358D01*
X49154204Y-80154232D01*
X49138318Y-80175651D01*
X49120410Y-80195410D01*
X49100651Y-80213318D01*
X49079232Y-80229204D01*
X49056358Y-80242914D01*
X49032252Y-80254315D01*
X49007143Y-80263299D01*
X48981275Y-80269779D01*
X48954897Y-80273692D01*
X48928262Y-80275000D01*
X47971738Y-80275000D01*
X47945103Y-80273692D01*
X47918725Y-80269779D01*
X47892857Y-80263299D01*
X47867748Y-80254315D01*
X47843642Y-80242914D01*
X47820768Y-80229204D01*
X47799349Y-80213318D01*
X47779590Y-80195410D01*
X47761682Y-80175651D01*
X47745796Y-80154232D01*
X47732086Y-80131358D01*
X47720685Y-80107252D01*
X47711701Y-80082143D01*
X47705221Y-80056275D01*
X47701308Y-80029897D01*
X47700000Y-80003262D01*
X47700000Y-79296738D01*
X47701308Y-79270103D01*
X47705221Y-79243725D01*
X47711701Y-79217857D01*
X47720685Y-79192748D01*
X47732086Y-79168642D01*
X47745796Y-79145768D01*
X47761682Y-79124349D01*
X47779590Y-79104590D01*
X47799349Y-79086682D01*
X47820768Y-79070796D01*
X47843642Y-79057086D01*
X47867748Y-79045685D01*
X47892857Y-79036701D01*
X47918725Y-79030221D01*
X47945103Y-79026308D01*
X47971738Y-79025000D01*
X48928262Y-79025000D01*
X48954897Y-79026308D01*
G37*
G36*
X48954897Y-81076308D02*
G01*
X48981275Y-81080221D01*
X49007143Y-81086701D01*
X49032252Y-81095685D01*
X49056358Y-81107086D01*
X49079232Y-81120796D01*
X49100651Y-81136682D01*
X49120410Y-81154590D01*
X49138318Y-81174349D01*
X49154204Y-81195768D01*
X49167914Y-81218642D01*
X49179315Y-81242748D01*
X49188299Y-81267857D01*
X49194779Y-81293725D01*
X49198692Y-81320103D01*
X49200000Y-81346738D01*
X49200000Y-82053262D01*
X49198692Y-82079897D01*
X49194779Y-82106275D01*
X49188299Y-82132143D01*
X49179315Y-82157252D01*
X49167914Y-82181358D01*
X49154204Y-82204232D01*
X49138318Y-82225651D01*
X49120410Y-82245410D01*
X49100651Y-82263318D01*
X49079232Y-82279204D01*
X49056358Y-82292914D01*
X49032252Y-82304315D01*
X49007143Y-82313299D01*
X48981275Y-82319779D01*
X48954897Y-82323692D01*
X48928262Y-82325000D01*
X47971738Y-82325000D01*
X47945103Y-82323692D01*
X47918725Y-82319779D01*
X47892857Y-82313299D01*
X47867748Y-82304315D01*
X47843642Y-82292914D01*
X47820768Y-82279204D01*
X47799349Y-82263318D01*
X47779590Y-82245410D01*
X47761682Y-82225651D01*
X47745796Y-82204232D01*
X47732086Y-82181358D01*
X47720685Y-82157252D01*
X47711701Y-82132143D01*
X47705221Y-82106275D01*
X47701308Y-82079897D01*
X47700000Y-82053262D01*
X47700000Y-81346738D01*
X47701308Y-81320103D01*
X47705221Y-81293725D01*
X47711701Y-81267857D01*
X47720685Y-81242748D01*
X47732086Y-81218642D01*
X47745796Y-81195768D01*
X47761682Y-81174349D01*
X47779590Y-81154590D01*
X47799349Y-81136682D01*
X47820768Y-81120796D01*
X47843642Y-81107086D01*
X47867748Y-81095685D01*
X47892857Y-81086701D01*
X47918725Y-81080221D01*
X47945103Y-81076308D01*
X47971738Y-81075000D01*
X48928262Y-81075000D01*
X48954897Y-81076308D01*
G37*
%TD*%
%TO.C,C19*%
G36*
X58254897Y-79326308D02*
G01*
X58281275Y-79330221D01*
X58307143Y-79336701D01*
X58332252Y-79345685D01*
X58356358Y-79357086D01*
X58379232Y-79370796D01*
X58400651Y-79386682D01*
X58420410Y-79404590D01*
X58438318Y-79424349D01*
X58454204Y-79445768D01*
X58467914Y-79468642D01*
X58479315Y-79492748D01*
X58488299Y-79517857D01*
X58494779Y-79543725D01*
X58498692Y-79570103D01*
X58500000Y-79596738D01*
X58500000Y-80303262D01*
X58498692Y-80329897D01*
X58494779Y-80356275D01*
X58488299Y-80382143D01*
X58479315Y-80407252D01*
X58467914Y-80431358D01*
X58454204Y-80454232D01*
X58438318Y-80475651D01*
X58420410Y-80495410D01*
X58400651Y-80513318D01*
X58379232Y-80529204D01*
X58356358Y-80542914D01*
X58332252Y-80554315D01*
X58307143Y-80563299D01*
X58281275Y-80569779D01*
X58254897Y-80573692D01*
X58228262Y-80575000D01*
X57271738Y-80575000D01*
X57245103Y-80573692D01*
X57218725Y-80569779D01*
X57192857Y-80563299D01*
X57167748Y-80554315D01*
X57143642Y-80542914D01*
X57120768Y-80529204D01*
X57099349Y-80513318D01*
X57079590Y-80495410D01*
X57061682Y-80475651D01*
X57045796Y-80454232D01*
X57032086Y-80431358D01*
X57020685Y-80407252D01*
X57011701Y-80382143D01*
X57005221Y-80356275D01*
X57001308Y-80329897D01*
X57000000Y-80303262D01*
X57000000Y-79596738D01*
X57001308Y-79570103D01*
X57005221Y-79543725D01*
X57011701Y-79517857D01*
X57020685Y-79492748D01*
X57032086Y-79468642D01*
X57045796Y-79445768D01*
X57061682Y-79424349D01*
X57079590Y-79404590D01*
X57099349Y-79386682D01*
X57120768Y-79370796D01*
X57143642Y-79357086D01*
X57167748Y-79345685D01*
X57192857Y-79336701D01*
X57218725Y-79330221D01*
X57245103Y-79326308D01*
X57271738Y-79325000D01*
X58228262Y-79325000D01*
X58254897Y-79326308D01*
G37*
G36*
X58254897Y-81376308D02*
G01*
X58281275Y-81380221D01*
X58307143Y-81386701D01*
X58332252Y-81395685D01*
X58356358Y-81407086D01*
X58379232Y-81420796D01*
X58400651Y-81436682D01*
X58420410Y-81454590D01*
X58438318Y-81474349D01*
X58454204Y-81495768D01*
X58467914Y-81518642D01*
X58479315Y-81542748D01*
X58488299Y-81567857D01*
X58494779Y-81593725D01*
X58498692Y-81620103D01*
X58500000Y-81646738D01*
X58500000Y-82353262D01*
X58498692Y-82379897D01*
X58494779Y-82406275D01*
X58488299Y-82432143D01*
X58479315Y-82457252D01*
X58467914Y-82481358D01*
X58454204Y-82504232D01*
X58438318Y-82525651D01*
X58420410Y-82545410D01*
X58400651Y-82563318D01*
X58379232Y-82579204D01*
X58356358Y-82592914D01*
X58332252Y-82604315D01*
X58307143Y-82613299D01*
X58281275Y-82619779D01*
X58254897Y-82623692D01*
X58228262Y-82625000D01*
X57271738Y-82625000D01*
X57245103Y-82623692D01*
X57218725Y-82619779D01*
X57192857Y-82613299D01*
X57167748Y-82604315D01*
X57143642Y-82592914D01*
X57120768Y-82579204D01*
X57099349Y-82563318D01*
X57079590Y-82545410D01*
X57061682Y-82525651D01*
X57045796Y-82504232D01*
X57032086Y-82481358D01*
X57020685Y-82457252D01*
X57011701Y-82432143D01*
X57005221Y-82406275D01*
X57001308Y-82379897D01*
X57000000Y-82353262D01*
X57000000Y-81646738D01*
X57001308Y-81620103D01*
X57005221Y-81593725D01*
X57011701Y-81567857D01*
X57020685Y-81542748D01*
X57032086Y-81518642D01*
X57045796Y-81495768D01*
X57061682Y-81474349D01*
X57079590Y-81454590D01*
X57099349Y-81436682D01*
X57120768Y-81420796D01*
X57143642Y-81407086D01*
X57167748Y-81395685D01*
X57192857Y-81386701D01*
X57218725Y-81380221D01*
X57245103Y-81376308D01*
X57271738Y-81375000D01*
X58228262Y-81375000D01*
X58254897Y-81376308D01*
G37*
%TD*%
%TO.C,C20*%
G36*
X58154897Y-95076308D02*
G01*
X58181275Y-95080221D01*
X58207143Y-95086701D01*
X58232252Y-95095685D01*
X58256358Y-95107086D01*
X58279232Y-95120796D01*
X58300651Y-95136682D01*
X58320410Y-95154590D01*
X58338318Y-95174349D01*
X58354204Y-95195768D01*
X58367914Y-95218642D01*
X58379315Y-95242748D01*
X58388299Y-95267857D01*
X58394779Y-95293725D01*
X58398692Y-95320103D01*
X58400000Y-95346738D01*
X58400000Y-96053262D01*
X58398692Y-96079897D01*
X58394779Y-96106275D01*
X58388299Y-96132143D01*
X58379315Y-96157252D01*
X58367914Y-96181358D01*
X58354204Y-96204232D01*
X58338318Y-96225651D01*
X58320410Y-96245410D01*
X58300651Y-96263318D01*
X58279232Y-96279204D01*
X58256358Y-96292914D01*
X58232252Y-96304315D01*
X58207143Y-96313299D01*
X58181275Y-96319779D01*
X58154897Y-96323692D01*
X58128262Y-96325000D01*
X57171738Y-96325000D01*
X57145103Y-96323692D01*
X57118725Y-96319779D01*
X57092857Y-96313299D01*
X57067748Y-96304315D01*
X57043642Y-96292914D01*
X57020768Y-96279204D01*
X56999349Y-96263318D01*
X56979590Y-96245410D01*
X56961682Y-96225651D01*
X56945796Y-96204232D01*
X56932086Y-96181358D01*
X56920685Y-96157252D01*
X56911701Y-96132143D01*
X56905221Y-96106275D01*
X56901308Y-96079897D01*
X56900000Y-96053262D01*
X56900000Y-95346738D01*
X56901308Y-95320103D01*
X56905221Y-95293725D01*
X56911701Y-95267857D01*
X56920685Y-95242748D01*
X56932086Y-95218642D01*
X56945796Y-95195768D01*
X56961682Y-95174349D01*
X56979590Y-95154590D01*
X56999349Y-95136682D01*
X57020768Y-95120796D01*
X57043642Y-95107086D01*
X57067748Y-95095685D01*
X57092857Y-95086701D01*
X57118725Y-95080221D01*
X57145103Y-95076308D01*
X57171738Y-95075000D01*
X58128262Y-95075000D01*
X58154897Y-95076308D01*
G37*
G36*
X58154897Y-93026308D02*
G01*
X58181275Y-93030221D01*
X58207143Y-93036701D01*
X58232252Y-93045685D01*
X58256358Y-93057086D01*
X58279232Y-93070796D01*
X58300651Y-93086682D01*
X58320410Y-93104590D01*
X58338318Y-93124349D01*
X58354204Y-93145768D01*
X58367914Y-93168642D01*
X58379315Y-93192748D01*
X58388299Y-93217857D01*
X58394779Y-93243725D01*
X58398692Y-93270103D01*
X58400000Y-93296738D01*
X58400000Y-94003262D01*
X58398692Y-94029897D01*
X58394779Y-94056275D01*
X58388299Y-94082143D01*
X58379315Y-94107252D01*
X58367914Y-94131358D01*
X58354204Y-94154232D01*
X58338318Y-94175651D01*
X58320410Y-94195410D01*
X58300651Y-94213318D01*
X58279232Y-94229204D01*
X58256358Y-94242914D01*
X58232252Y-94254315D01*
X58207143Y-94263299D01*
X58181275Y-94269779D01*
X58154897Y-94273692D01*
X58128262Y-94275000D01*
X57171738Y-94275000D01*
X57145103Y-94273692D01*
X57118725Y-94269779D01*
X57092857Y-94263299D01*
X57067748Y-94254315D01*
X57043642Y-94242914D01*
X57020768Y-94229204D01*
X56999349Y-94213318D01*
X56979590Y-94195410D01*
X56961682Y-94175651D01*
X56945796Y-94154232D01*
X56932086Y-94131358D01*
X56920685Y-94107252D01*
X56911701Y-94082143D01*
X56905221Y-94056275D01*
X56901308Y-94029897D01*
X56900000Y-94003262D01*
X56900000Y-93296738D01*
X56901308Y-93270103D01*
X56905221Y-93243725D01*
X56911701Y-93217857D01*
X56920685Y-93192748D01*
X56932086Y-93168642D01*
X56945796Y-93145768D01*
X56961682Y-93124349D01*
X56979590Y-93104590D01*
X56999349Y-93086682D01*
X57020768Y-93070796D01*
X57043642Y-93057086D01*
X57067748Y-93045685D01*
X57092857Y-93036701D01*
X57118725Y-93030221D01*
X57145103Y-93026308D01*
X57171738Y-93025000D01*
X58128262Y-93025000D01*
X58154897Y-93026308D01*
G37*
%TD*%
%TO.C,C21*%
G36*
X58354897Y-61226308D02*
G01*
X58381275Y-61230221D01*
X58407143Y-61236701D01*
X58432252Y-61245685D01*
X58456358Y-61257086D01*
X58479232Y-61270796D01*
X58500651Y-61286682D01*
X58520410Y-61304590D01*
X58538318Y-61324349D01*
X58554204Y-61345768D01*
X58567914Y-61368642D01*
X58579315Y-61392748D01*
X58588299Y-61417857D01*
X58594779Y-61443725D01*
X58598692Y-61470103D01*
X58600000Y-61496738D01*
X58600000Y-62203262D01*
X58598692Y-62229897D01*
X58594779Y-62256275D01*
X58588299Y-62282143D01*
X58579315Y-62307252D01*
X58567914Y-62331358D01*
X58554204Y-62354232D01*
X58538318Y-62375651D01*
X58520410Y-62395410D01*
X58500651Y-62413318D01*
X58479232Y-62429204D01*
X58456358Y-62442914D01*
X58432252Y-62454315D01*
X58407143Y-62463299D01*
X58381275Y-62469779D01*
X58354897Y-62473692D01*
X58328262Y-62475000D01*
X57371738Y-62475000D01*
X57345103Y-62473692D01*
X57318725Y-62469779D01*
X57292857Y-62463299D01*
X57267748Y-62454315D01*
X57243642Y-62442914D01*
X57220768Y-62429204D01*
X57199349Y-62413318D01*
X57179590Y-62395410D01*
X57161682Y-62375651D01*
X57145796Y-62354232D01*
X57132086Y-62331358D01*
X57120685Y-62307252D01*
X57111701Y-62282143D01*
X57105221Y-62256275D01*
X57101308Y-62229897D01*
X57100000Y-62203262D01*
X57100000Y-61496738D01*
X57101308Y-61470103D01*
X57105221Y-61443725D01*
X57111701Y-61417857D01*
X57120685Y-61392748D01*
X57132086Y-61368642D01*
X57145796Y-61345768D01*
X57161682Y-61324349D01*
X57179590Y-61304590D01*
X57199349Y-61286682D01*
X57220768Y-61270796D01*
X57243642Y-61257086D01*
X57267748Y-61245685D01*
X57292857Y-61236701D01*
X57318725Y-61230221D01*
X57345103Y-61226308D01*
X57371738Y-61225000D01*
X58328262Y-61225000D01*
X58354897Y-61226308D01*
G37*
G36*
X58354897Y-63276308D02*
G01*
X58381275Y-63280221D01*
X58407143Y-63286701D01*
X58432252Y-63295685D01*
X58456358Y-63307086D01*
X58479232Y-63320796D01*
X58500651Y-63336682D01*
X58520410Y-63354590D01*
X58538318Y-63374349D01*
X58554204Y-63395768D01*
X58567914Y-63418642D01*
X58579315Y-63442748D01*
X58588299Y-63467857D01*
X58594779Y-63493725D01*
X58598692Y-63520103D01*
X58600000Y-63546738D01*
X58600000Y-64253262D01*
X58598692Y-64279897D01*
X58594779Y-64306275D01*
X58588299Y-64332143D01*
X58579315Y-64357252D01*
X58567914Y-64381358D01*
X58554204Y-64404232D01*
X58538318Y-64425651D01*
X58520410Y-64445410D01*
X58500651Y-64463318D01*
X58479232Y-64479204D01*
X58456358Y-64492914D01*
X58432252Y-64504315D01*
X58407143Y-64513299D01*
X58381275Y-64519779D01*
X58354897Y-64523692D01*
X58328262Y-64525000D01*
X57371738Y-64525000D01*
X57345103Y-64523692D01*
X57318725Y-64519779D01*
X57292857Y-64513299D01*
X57267748Y-64504315D01*
X57243642Y-64492914D01*
X57220768Y-64479204D01*
X57199349Y-64463318D01*
X57179590Y-64445410D01*
X57161682Y-64425651D01*
X57145796Y-64404232D01*
X57132086Y-64381358D01*
X57120685Y-64357252D01*
X57111701Y-64332143D01*
X57105221Y-64306275D01*
X57101308Y-64279897D01*
X57100000Y-64253262D01*
X57100000Y-63546738D01*
X57101308Y-63520103D01*
X57105221Y-63493725D01*
X57111701Y-63467857D01*
X57120685Y-63442748D01*
X57132086Y-63418642D01*
X57145796Y-63395768D01*
X57161682Y-63374349D01*
X57179590Y-63354590D01*
X57199349Y-63336682D01*
X57220768Y-63320796D01*
X57243642Y-63307086D01*
X57267748Y-63295685D01*
X57292857Y-63286701D01*
X57318725Y-63280221D01*
X57345103Y-63276308D01*
X57371738Y-63275000D01*
X58328262Y-63275000D01*
X58354897Y-63276308D01*
G37*
%TD*%
%TO.C,C22*%
G36*
X58354897Y-72476308D02*
G01*
X58381275Y-72480221D01*
X58407143Y-72486701D01*
X58432252Y-72495685D01*
X58456358Y-72507086D01*
X58479232Y-72520796D01*
X58500651Y-72536682D01*
X58520410Y-72554590D01*
X58538318Y-72574349D01*
X58554204Y-72595768D01*
X58567914Y-72618642D01*
X58579315Y-72642748D01*
X58588299Y-72667857D01*
X58594779Y-72693725D01*
X58598692Y-72720103D01*
X58600000Y-72746738D01*
X58600000Y-73453262D01*
X58598692Y-73479897D01*
X58594779Y-73506275D01*
X58588299Y-73532143D01*
X58579315Y-73557252D01*
X58567914Y-73581358D01*
X58554204Y-73604232D01*
X58538318Y-73625651D01*
X58520410Y-73645410D01*
X58500651Y-73663318D01*
X58479232Y-73679204D01*
X58456358Y-73692914D01*
X58432252Y-73704315D01*
X58407143Y-73713299D01*
X58381275Y-73719779D01*
X58354897Y-73723692D01*
X58328262Y-73725000D01*
X57371738Y-73725000D01*
X57345103Y-73723692D01*
X57318725Y-73719779D01*
X57292857Y-73713299D01*
X57267748Y-73704315D01*
X57243642Y-73692914D01*
X57220768Y-73679204D01*
X57199349Y-73663318D01*
X57179590Y-73645410D01*
X57161682Y-73625651D01*
X57145796Y-73604232D01*
X57132086Y-73581358D01*
X57120685Y-73557252D01*
X57111701Y-73532143D01*
X57105221Y-73506275D01*
X57101308Y-73479897D01*
X57100000Y-73453262D01*
X57100000Y-72746738D01*
X57101308Y-72720103D01*
X57105221Y-72693725D01*
X57111701Y-72667857D01*
X57120685Y-72642748D01*
X57132086Y-72618642D01*
X57145796Y-72595768D01*
X57161682Y-72574349D01*
X57179590Y-72554590D01*
X57199349Y-72536682D01*
X57220768Y-72520796D01*
X57243642Y-72507086D01*
X57267748Y-72495685D01*
X57292857Y-72486701D01*
X57318725Y-72480221D01*
X57345103Y-72476308D01*
X57371738Y-72475000D01*
X58328262Y-72475000D01*
X58354897Y-72476308D01*
G37*
G36*
X58354897Y-70426308D02*
G01*
X58381275Y-70430221D01*
X58407143Y-70436701D01*
X58432252Y-70445685D01*
X58456358Y-70457086D01*
X58479232Y-70470796D01*
X58500651Y-70486682D01*
X58520410Y-70504590D01*
X58538318Y-70524349D01*
X58554204Y-70545768D01*
X58567914Y-70568642D01*
X58579315Y-70592748D01*
X58588299Y-70617857D01*
X58594779Y-70643725D01*
X58598692Y-70670103D01*
X58600000Y-70696738D01*
X58600000Y-71403262D01*
X58598692Y-71429897D01*
X58594779Y-71456275D01*
X58588299Y-71482143D01*
X58579315Y-71507252D01*
X58567914Y-71531358D01*
X58554204Y-71554232D01*
X58538318Y-71575651D01*
X58520410Y-71595410D01*
X58500651Y-71613318D01*
X58479232Y-71629204D01*
X58456358Y-71642914D01*
X58432252Y-71654315D01*
X58407143Y-71663299D01*
X58381275Y-71669779D01*
X58354897Y-71673692D01*
X58328262Y-71675000D01*
X57371738Y-71675000D01*
X57345103Y-71673692D01*
X57318725Y-71669779D01*
X57292857Y-71663299D01*
X57267748Y-71654315D01*
X57243642Y-71642914D01*
X57220768Y-71629204D01*
X57199349Y-71613318D01*
X57179590Y-71595410D01*
X57161682Y-71575651D01*
X57145796Y-71554232D01*
X57132086Y-71531358D01*
X57120685Y-71507252D01*
X57111701Y-71482143D01*
X57105221Y-71456275D01*
X57101308Y-71429897D01*
X57100000Y-71403262D01*
X57100000Y-70696738D01*
X57101308Y-70670103D01*
X57105221Y-70643725D01*
X57111701Y-70617857D01*
X57120685Y-70592748D01*
X57132086Y-70568642D01*
X57145796Y-70545768D01*
X57161682Y-70524349D01*
X57179590Y-70504590D01*
X57199349Y-70486682D01*
X57220768Y-70470796D01*
X57243642Y-70457086D01*
X57267748Y-70445685D01*
X57292857Y-70436701D01*
X57318725Y-70430221D01*
X57345103Y-70426308D01*
X57371738Y-70425000D01*
X58328262Y-70425000D01*
X58354897Y-70426308D01*
G37*
%TD*%
%TO.C,C23*%
G36*
X58554897Y-40826308D02*
G01*
X58581275Y-40830221D01*
X58607143Y-40836701D01*
X58632252Y-40845685D01*
X58656358Y-40857086D01*
X58679232Y-40870796D01*
X58700651Y-40886682D01*
X58720410Y-40904590D01*
X58738318Y-40924349D01*
X58754204Y-40945768D01*
X58767914Y-40968642D01*
X58779315Y-40992748D01*
X58788299Y-41017857D01*
X58794779Y-41043725D01*
X58798692Y-41070103D01*
X58800000Y-41096738D01*
X58800000Y-41803262D01*
X58798692Y-41829897D01*
X58794779Y-41856275D01*
X58788299Y-41882143D01*
X58779315Y-41907252D01*
X58767914Y-41931358D01*
X58754204Y-41954232D01*
X58738318Y-41975651D01*
X58720410Y-41995410D01*
X58700651Y-42013318D01*
X58679232Y-42029204D01*
X58656358Y-42042914D01*
X58632252Y-42054315D01*
X58607143Y-42063299D01*
X58581275Y-42069779D01*
X58554897Y-42073692D01*
X58528262Y-42075000D01*
X57571738Y-42075000D01*
X57545103Y-42073692D01*
X57518725Y-42069779D01*
X57492857Y-42063299D01*
X57467748Y-42054315D01*
X57443642Y-42042914D01*
X57420768Y-42029204D01*
X57399349Y-42013318D01*
X57379590Y-41995410D01*
X57361682Y-41975651D01*
X57345796Y-41954232D01*
X57332086Y-41931358D01*
X57320685Y-41907252D01*
X57311701Y-41882143D01*
X57305221Y-41856275D01*
X57301308Y-41829897D01*
X57300000Y-41803262D01*
X57300000Y-41096738D01*
X57301308Y-41070103D01*
X57305221Y-41043725D01*
X57311701Y-41017857D01*
X57320685Y-40992748D01*
X57332086Y-40968642D01*
X57345796Y-40945768D01*
X57361682Y-40924349D01*
X57379590Y-40904590D01*
X57399349Y-40886682D01*
X57420768Y-40870796D01*
X57443642Y-40857086D01*
X57467748Y-40845685D01*
X57492857Y-40836701D01*
X57518725Y-40830221D01*
X57545103Y-40826308D01*
X57571738Y-40825000D01*
X58528262Y-40825000D01*
X58554897Y-40826308D01*
G37*
G36*
X58554897Y-42876308D02*
G01*
X58581275Y-42880221D01*
X58607143Y-42886701D01*
X58632252Y-42895685D01*
X58656358Y-42907086D01*
X58679232Y-42920796D01*
X58700651Y-42936682D01*
X58720410Y-42954590D01*
X58738318Y-42974349D01*
X58754204Y-42995768D01*
X58767914Y-43018642D01*
X58779315Y-43042748D01*
X58788299Y-43067857D01*
X58794779Y-43093725D01*
X58798692Y-43120103D01*
X58800000Y-43146738D01*
X58800000Y-43853262D01*
X58798692Y-43879897D01*
X58794779Y-43906275D01*
X58788299Y-43932143D01*
X58779315Y-43957252D01*
X58767914Y-43981358D01*
X58754204Y-44004232D01*
X58738318Y-44025651D01*
X58720410Y-44045410D01*
X58700651Y-44063318D01*
X58679232Y-44079204D01*
X58656358Y-44092914D01*
X58632252Y-44104315D01*
X58607143Y-44113299D01*
X58581275Y-44119779D01*
X58554897Y-44123692D01*
X58528262Y-44125000D01*
X57571738Y-44125000D01*
X57545103Y-44123692D01*
X57518725Y-44119779D01*
X57492857Y-44113299D01*
X57467748Y-44104315D01*
X57443642Y-44092914D01*
X57420768Y-44079204D01*
X57399349Y-44063318D01*
X57379590Y-44045410D01*
X57361682Y-44025651D01*
X57345796Y-44004232D01*
X57332086Y-43981358D01*
X57320685Y-43957252D01*
X57311701Y-43932143D01*
X57305221Y-43906275D01*
X57301308Y-43879897D01*
X57300000Y-43853262D01*
X57300000Y-43146738D01*
X57301308Y-43120103D01*
X57305221Y-43093725D01*
X57311701Y-43067857D01*
X57320685Y-43042748D01*
X57332086Y-43018642D01*
X57345796Y-42995768D01*
X57361682Y-42974349D01*
X57379590Y-42954590D01*
X57399349Y-42936682D01*
X57420768Y-42920796D01*
X57443642Y-42907086D01*
X57467748Y-42895685D01*
X57492857Y-42886701D01*
X57518725Y-42880221D01*
X57545103Y-42876308D01*
X57571738Y-42875000D01*
X58528262Y-42875000D01*
X58554897Y-42876308D01*
G37*
%TD*%
%TO.C,C24*%
G36*
X58454897Y-53076308D02*
G01*
X58481275Y-53080221D01*
X58507143Y-53086701D01*
X58532252Y-53095685D01*
X58556358Y-53107086D01*
X58579232Y-53120796D01*
X58600651Y-53136682D01*
X58620410Y-53154590D01*
X58638318Y-53174349D01*
X58654204Y-53195768D01*
X58667914Y-53218642D01*
X58679315Y-53242748D01*
X58688299Y-53267857D01*
X58694779Y-53293725D01*
X58698692Y-53320103D01*
X58700000Y-53346738D01*
X58700000Y-54053262D01*
X58698692Y-54079897D01*
X58694779Y-54106275D01*
X58688299Y-54132143D01*
X58679315Y-54157252D01*
X58667914Y-54181358D01*
X58654204Y-54204232D01*
X58638318Y-54225651D01*
X58620410Y-54245410D01*
X58600651Y-54263318D01*
X58579232Y-54279204D01*
X58556358Y-54292914D01*
X58532252Y-54304315D01*
X58507143Y-54313299D01*
X58481275Y-54319779D01*
X58454897Y-54323692D01*
X58428262Y-54325000D01*
X57471738Y-54325000D01*
X57445103Y-54323692D01*
X57418725Y-54319779D01*
X57392857Y-54313299D01*
X57367748Y-54304315D01*
X57343642Y-54292914D01*
X57320768Y-54279204D01*
X57299349Y-54263318D01*
X57279590Y-54245410D01*
X57261682Y-54225651D01*
X57245796Y-54204232D01*
X57232086Y-54181358D01*
X57220685Y-54157252D01*
X57211701Y-54132143D01*
X57205221Y-54106275D01*
X57201308Y-54079897D01*
X57200000Y-54053262D01*
X57200000Y-53346738D01*
X57201308Y-53320103D01*
X57205221Y-53293725D01*
X57211701Y-53267857D01*
X57220685Y-53242748D01*
X57232086Y-53218642D01*
X57245796Y-53195768D01*
X57261682Y-53174349D01*
X57279590Y-53154590D01*
X57299349Y-53136682D01*
X57320768Y-53120796D01*
X57343642Y-53107086D01*
X57367748Y-53095685D01*
X57392857Y-53086701D01*
X57418725Y-53080221D01*
X57445103Y-53076308D01*
X57471738Y-53075000D01*
X58428262Y-53075000D01*
X58454897Y-53076308D01*
G37*
G36*
X58454897Y-51026308D02*
G01*
X58481275Y-51030221D01*
X58507143Y-51036701D01*
X58532252Y-51045685D01*
X58556358Y-51057086D01*
X58579232Y-51070796D01*
X58600651Y-51086682D01*
X58620410Y-51104590D01*
X58638318Y-51124349D01*
X58654204Y-51145768D01*
X58667914Y-51168642D01*
X58679315Y-51192748D01*
X58688299Y-51217857D01*
X58694779Y-51243725D01*
X58698692Y-51270103D01*
X58700000Y-51296738D01*
X58700000Y-52003262D01*
X58698692Y-52029897D01*
X58694779Y-52056275D01*
X58688299Y-52082143D01*
X58679315Y-52107252D01*
X58667914Y-52131358D01*
X58654204Y-52154232D01*
X58638318Y-52175651D01*
X58620410Y-52195410D01*
X58600651Y-52213318D01*
X58579232Y-52229204D01*
X58556358Y-52242914D01*
X58532252Y-52254315D01*
X58507143Y-52263299D01*
X58481275Y-52269779D01*
X58454897Y-52273692D01*
X58428262Y-52275000D01*
X57471738Y-52275000D01*
X57445103Y-52273692D01*
X57418725Y-52269779D01*
X57392857Y-52263299D01*
X57367748Y-52254315D01*
X57343642Y-52242914D01*
X57320768Y-52229204D01*
X57299349Y-52213318D01*
X57279590Y-52195410D01*
X57261682Y-52175651D01*
X57245796Y-52154232D01*
X57232086Y-52131358D01*
X57220685Y-52107252D01*
X57211701Y-52082143D01*
X57205221Y-52056275D01*
X57201308Y-52029897D01*
X57200000Y-52003262D01*
X57200000Y-51296738D01*
X57201308Y-51270103D01*
X57205221Y-51243725D01*
X57211701Y-51217857D01*
X57220685Y-51192748D01*
X57232086Y-51168642D01*
X57245796Y-51145768D01*
X57261682Y-51124349D01*
X57279590Y-51104590D01*
X57299349Y-51086682D01*
X57320768Y-51070796D01*
X57343642Y-51057086D01*
X57367748Y-51045685D01*
X57392857Y-51036701D01*
X57418725Y-51030221D01*
X57445103Y-51026308D01*
X57471738Y-51025000D01*
X58428262Y-51025000D01*
X58454897Y-51026308D01*
G37*
%TD*%
M02*
