%TF.GenerationSoftware,KiCad,Pcbnew,(5.1.6)-1*%
%TF.CreationDate,2020-07-30T18:42:53+03:00*%
%TF.ProjectId,386_v1,3338365f-7631-42e6-9b69-6361645f7063,rev?*%
%TF.SameCoordinates,Original*%
%TF.FileFunction,Legend,Bot*%
%TF.FilePolarity,Positive*%
%FSLAX46Y46*%
G04 Gerber Fmt 4.6, Leading zero omitted, Abs format (unit mm)*
G04 Created by KiCad (PCBNEW (5.1.6)-1) date 2020-07-30 18:42:53*
%MOMM*%
%LPD*%
G01*
G04 APERTURE LIST*
%ADD10C,0.120000*%
%ADD11C,0.150000*%
G04 APERTURE END LIST*
D10*
%TO.C,C1*%
X70863748Y-71990000D02*
X71386252Y-71990000D01*
X70863748Y-73410000D02*
X71386252Y-73410000D01*
%TO.C,C2*%
X75836252Y-71990000D02*
X75313748Y-71990000D01*
X75836252Y-73410000D02*
X75313748Y-73410000D01*
%TO.C,C3*%
X77436252Y-69590000D02*
X76913748Y-69590000D01*
X77436252Y-71010000D02*
X76913748Y-71010000D01*
%TO.C,C4*%
X77436252Y-67510000D02*
X76913748Y-67510000D01*
X77436252Y-66090000D02*
X76913748Y-66090000D01*
%TO.C,C5*%
X77436252Y-64090000D02*
X76913748Y-64090000D01*
X77436252Y-65510000D02*
X76913748Y-65510000D01*
%TO.C,C6*%
X74836252Y-61290000D02*
X74313748Y-61290000D01*
X74836252Y-62710000D02*
X74313748Y-62710000D01*
%TO.C,C7*%
X70363748Y-61290000D02*
X70886252Y-61290000D01*
X70363748Y-62710000D02*
X70886252Y-62710000D01*
%TO.C,C8*%
X66390000Y-64536252D02*
X66390000Y-64013748D01*
X67810000Y-64536252D02*
X67810000Y-64013748D01*
%TO.C,C9*%
X66390000Y-71563748D02*
X66390000Y-72086252D01*
X67810000Y-71563748D02*
X67810000Y-72086252D01*
%TO.C,C10*%
X67863748Y-69510000D02*
X68386252Y-69510000D01*
X67863748Y-68090000D02*
X68386252Y-68090000D01*
%TO.C,R1*%
X79590000Y-79103922D02*
X79590000Y-79621078D01*
X81010000Y-79103922D02*
X81010000Y-79621078D01*
%TO.C,R2*%
X79590000Y-75578922D02*
X79590000Y-76096078D01*
X81010000Y-75578922D02*
X81010000Y-76096078D01*
%TO.C,R3*%
X69810000Y-81678922D02*
X69810000Y-82196078D01*
X68390000Y-81678922D02*
X68390000Y-82196078D01*
%TO.C,R4*%
X68390000Y-78178922D02*
X68390000Y-78696078D01*
X69810000Y-78178922D02*
X69810000Y-78696078D01*
%TO.C,C13*%
X47740000Y-42786252D02*
X47740000Y-42263748D01*
X49160000Y-42786252D02*
X49160000Y-42263748D01*
%TO.C,C14*%
X49060000Y-52936252D02*
X49060000Y-52413748D01*
X47640000Y-52936252D02*
X47640000Y-52413748D01*
%TO.C,C15*%
X47740000Y-62336252D02*
X47740000Y-61813748D01*
X49160000Y-62336252D02*
X49160000Y-61813748D01*
%TO.C,C16*%
X49160000Y-71936252D02*
X49160000Y-71413748D01*
X47740000Y-71936252D02*
X47740000Y-71413748D01*
%TO.C,C17*%
X49160000Y-94936252D02*
X49160000Y-94413748D01*
X47740000Y-94936252D02*
X47740000Y-94413748D01*
%TO.C,C18*%
X47740000Y-80936252D02*
X47740000Y-80413748D01*
X49160000Y-80936252D02*
X49160000Y-80413748D01*
%TO.C,C19*%
X57040000Y-81236252D02*
X57040000Y-80713748D01*
X58460000Y-81236252D02*
X58460000Y-80713748D01*
%TO.C,C20*%
X58360000Y-94936252D02*
X58360000Y-94413748D01*
X56940000Y-94936252D02*
X56940000Y-94413748D01*
%TO.C,C21*%
X57140000Y-63136252D02*
X57140000Y-62613748D01*
X58560000Y-63136252D02*
X58560000Y-62613748D01*
%TO.C,C22*%
X58560000Y-72336252D02*
X58560000Y-71813748D01*
X57140000Y-72336252D02*
X57140000Y-71813748D01*
%TO.C,C23*%
X57340000Y-42736252D02*
X57340000Y-42213748D01*
X58760000Y-42736252D02*
X58760000Y-42213748D01*
%TO.C,C24*%
X58660000Y-52936252D02*
X58660000Y-52413748D01*
X57240000Y-52936252D02*
X57240000Y-52413748D01*
%TO.C,C1*%
D11*
X71291666Y-74707142D02*
X71339285Y-74754761D01*
X71482142Y-74802380D01*
X71577380Y-74802380D01*
X71720238Y-74754761D01*
X71815476Y-74659523D01*
X71863095Y-74564285D01*
X71910714Y-74373809D01*
X71910714Y-74230952D01*
X71863095Y-74040476D01*
X71815476Y-73945238D01*
X71720238Y-73850000D01*
X71577380Y-73802380D01*
X71482142Y-73802380D01*
X71339285Y-73850000D01*
X71291666Y-73897619D01*
X70339285Y-74802380D02*
X70910714Y-74802380D01*
X70625000Y-74802380D02*
X70625000Y-73802380D01*
X70720238Y-73945238D01*
X70815476Y-74040476D01*
X70910714Y-74088095D01*
%TO.C,C2*%
X78666666Y-72557142D02*
X78714285Y-72604761D01*
X78857142Y-72652380D01*
X78952380Y-72652380D01*
X79095238Y-72604761D01*
X79190476Y-72509523D01*
X79238095Y-72414285D01*
X79285714Y-72223809D01*
X79285714Y-72080952D01*
X79238095Y-71890476D01*
X79190476Y-71795238D01*
X79095238Y-71700000D01*
X78952380Y-71652380D01*
X78857142Y-71652380D01*
X78714285Y-71700000D01*
X78666666Y-71747619D01*
X78285714Y-71747619D02*
X78238095Y-71700000D01*
X78142857Y-71652380D01*
X77904761Y-71652380D01*
X77809523Y-71700000D01*
X77761904Y-71747619D01*
X77714285Y-71842857D01*
X77714285Y-71938095D01*
X77761904Y-72080952D01*
X78333333Y-72652380D01*
X77714285Y-72652380D01*
%TO.C,C3*%
X80566666Y-70657142D02*
X80614285Y-70704761D01*
X80757142Y-70752380D01*
X80852380Y-70752380D01*
X80995238Y-70704761D01*
X81090476Y-70609523D01*
X81138095Y-70514285D01*
X81185714Y-70323809D01*
X81185714Y-70180952D01*
X81138095Y-69990476D01*
X81090476Y-69895238D01*
X80995238Y-69800000D01*
X80852380Y-69752380D01*
X80757142Y-69752380D01*
X80614285Y-69800000D01*
X80566666Y-69847619D01*
X80233333Y-69752380D02*
X79614285Y-69752380D01*
X79947619Y-70133333D01*
X79804761Y-70133333D01*
X79709523Y-70180952D01*
X79661904Y-70228571D01*
X79614285Y-70323809D01*
X79614285Y-70561904D01*
X79661904Y-70657142D01*
X79709523Y-70704761D01*
X79804761Y-70752380D01*
X80090476Y-70752380D01*
X80185714Y-70704761D01*
X80233333Y-70657142D01*
%TO.C,C4*%
X80666666Y-67157142D02*
X80714285Y-67204761D01*
X80857142Y-67252380D01*
X80952380Y-67252380D01*
X81095238Y-67204761D01*
X81190476Y-67109523D01*
X81238095Y-67014285D01*
X81285714Y-66823809D01*
X81285714Y-66680952D01*
X81238095Y-66490476D01*
X81190476Y-66395238D01*
X81095238Y-66300000D01*
X80952380Y-66252380D01*
X80857142Y-66252380D01*
X80714285Y-66300000D01*
X80666666Y-66347619D01*
X79809523Y-66585714D02*
X79809523Y-67252380D01*
X80047619Y-66204761D02*
X80285714Y-66919047D01*
X79666666Y-66919047D01*
%TO.C,C5*%
X80566666Y-65157142D02*
X80614285Y-65204761D01*
X80757142Y-65252380D01*
X80852380Y-65252380D01*
X80995238Y-65204761D01*
X81090476Y-65109523D01*
X81138095Y-65014285D01*
X81185714Y-64823809D01*
X81185714Y-64680952D01*
X81138095Y-64490476D01*
X81090476Y-64395238D01*
X80995238Y-64300000D01*
X80852380Y-64252380D01*
X80757142Y-64252380D01*
X80614285Y-64300000D01*
X80566666Y-64347619D01*
X79661904Y-64252380D02*
X80138095Y-64252380D01*
X80185714Y-64728571D01*
X80138095Y-64680952D01*
X80042857Y-64633333D01*
X79804761Y-64633333D01*
X79709523Y-64680952D01*
X79661904Y-64728571D01*
X79614285Y-64823809D01*
X79614285Y-65061904D01*
X79661904Y-65157142D01*
X79709523Y-65204761D01*
X79804761Y-65252380D01*
X80042857Y-65252380D01*
X80138095Y-65204761D01*
X80185714Y-65157142D01*
%TO.C,C6*%
X74741666Y-60707142D02*
X74789285Y-60754761D01*
X74932142Y-60802380D01*
X75027380Y-60802380D01*
X75170238Y-60754761D01*
X75265476Y-60659523D01*
X75313095Y-60564285D01*
X75360714Y-60373809D01*
X75360714Y-60230952D01*
X75313095Y-60040476D01*
X75265476Y-59945238D01*
X75170238Y-59850000D01*
X75027380Y-59802380D01*
X74932142Y-59802380D01*
X74789285Y-59850000D01*
X74741666Y-59897619D01*
X73884523Y-59802380D02*
X74075000Y-59802380D01*
X74170238Y-59850000D01*
X74217857Y-59897619D01*
X74313095Y-60040476D01*
X74360714Y-60230952D01*
X74360714Y-60611904D01*
X74313095Y-60707142D01*
X74265476Y-60754761D01*
X74170238Y-60802380D01*
X73979761Y-60802380D01*
X73884523Y-60754761D01*
X73836904Y-60707142D01*
X73789285Y-60611904D01*
X73789285Y-60373809D01*
X73836904Y-60278571D01*
X73884523Y-60230952D01*
X73979761Y-60183333D01*
X74170238Y-60183333D01*
X74265476Y-60230952D01*
X74313095Y-60278571D01*
X74360714Y-60373809D01*
%TO.C,C7*%
X70766666Y-60657142D02*
X70814285Y-60704761D01*
X70957142Y-60752380D01*
X71052380Y-60752380D01*
X71195238Y-60704761D01*
X71290476Y-60609523D01*
X71338095Y-60514285D01*
X71385714Y-60323809D01*
X71385714Y-60180952D01*
X71338095Y-59990476D01*
X71290476Y-59895238D01*
X71195238Y-59800000D01*
X71052380Y-59752380D01*
X70957142Y-59752380D01*
X70814285Y-59800000D01*
X70766666Y-59847619D01*
X70433333Y-59752380D02*
X69766666Y-59752380D01*
X70195238Y-60752380D01*
%TO.C,C8*%
X65557142Y-63733333D02*
X65604761Y-63685714D01*
X65652380Y-63542857D01*
X65652380Y-63447619D01*
X65604761Y-63304761D01*
X65509523Y-63209523D01*
X65414285Y-63161904D01*
X65223809Y-63114285D01*
X65080952Y-63114285D01*
X64890476Y-63161904D01*
X64795238Y-63209523D01*
X64700000Y-63304761D01*
X64652380Y-63447619D01*
X64652380Y-63542857D01*
X64700000Y-63685714D01*
X64747619Y-63733333D01*
X65080952Y-64304761D02*
X65033333Y-64209523D01*
X64985714Y-64161904D01*
X64890476Y-64114285D01*
X64842857Y-64114285D01*
X64747619Y-64161904D01*
X64700000Y-64209523D01*
X64652380Y-64304761D01*
X64652380Y-64495238D01*
X64700000Y-64590476D01*
X64747619Y-64638095D01*
X64842857Y-64685714D01*
X64890476Y-64685714D01*
X64985714Y-64638095D01*
X65033333Y-64590476D01*
X65080952Y-64495238D01*
X65080952Y-64304761D01*
X65128571Y-64209523D01*
X65176190Y-64161904D01*
X65271428Y-64114285D01*
X65461904Y-64114285D01*
X65557142Y-64161904D01*
X65604761Y-64209523D01*
X65652380Y-64304761D01*
X65652380Y-64495238D01*
X65604761Y-64590476D01*
X65557142Y-64638095D01*
X65461904Y-64685714D01*
X65271428Y-64685714D01*
X65176190Y-64638095D01*
X65128571Y-64590476D01*
X65080952Y-64495238D01*
%TO.C,C9*%
X65807142Y-71658333D02*
X65854761Y-71610714D01*
X65902380Y-71467857D01*
X65902380Y-71372619D01*
X65854761Y-71229761D01*
X65759523Y-71134523D01*
X65664285Y-71086904D01*
X65473809Y-71039285D01*
X65330952Y-71039285D01*
X65140476Y-71086904D01*
X65045238Y-71134523D01*
X64950000Y-71229761D01*
X64902380Y-71372619D01*
X64902380Y-71467857D01*
X64950000Y-71610714D01*
X64997619Y-71658333D01*
X65902380Y-72134523D02*
X65902380Y-72325000D01*
X65854761Y-72420238D01*
X65807142Y-72467857D01*
X65664285Y-72563095D01*
X65473809Y-72610714D01*
X65092857Y-72610714D01*
X64997619Y-72563095D01*
X64950000Y-72515476D01*
X64902380Y-72420238D01*
X64902380Y-72229761D01*
X64950000Y-72134523D01*
X64997619Y-72086904D01*
X65092857Y-72039285D01*
X65330952Y-72039285D01*
X65426190Y-72086904D01*
X65473809Y-72134523D01*
X65521428Y-72229761D01*
X65521428Y-72420238D01*
X65473809Y-72515476D01*
X65426190Y-72563095D01*
X65330952Y-72610714D01*
%TO.C,C10*%
X64942857Y-69157142D02*
X64990476Y-69204761D01*
X65133333Y-69252380D01*
X65228571Y-69252380D01*
X65371428Y-69204761D01*
X65466666Y-69109523D01*
X65514285Y-69014285D01*
X65561904Y-68823809D01*
X65561904Y-68680952D01*
X65514285Y-68490476D01*
X65466666Y-68395238D01*
X65371428Y-68300000D01*
X65228571Y-68252380D01*
X65133333Y-68252380D01*
X64990476Y-68300000D01*
X64942857Y-68347619D01*
X63990476Y-69252380D02*
X64561904Y-69252380D01*
X64276190Y-69252380D02*
X64276190Y-68252380D01*
X64371428Y-68395238D01*
X64466666Y-68490476D01*
X64561904Y-68538095D01*
X63371428Y-68252380D02*
X63276190Y-68252380D01*
X63180952Y-68300000D01*
X63133333Y-68347619D01*
X63085714Y-68442857D01*
X63038095Y-68633333D01*
X63038095Y-68871428D01*
X63085714Y-69061904D01*
X63133333Y-69157142D01*
X63180952Y-69204761D01*
X63276190Y-69252380D01*
X63371428Y-69252380D01*
X63466666Y-69204761D01*
X63514285Y-69157142D01*
X63561904Y-69061904D01*
X63609523Y-68871428D01*
X63609523Y-68633333D01*
X63561904Y-68442857D01*
X63514285Y-68347619D01*
X63466666Y-68300000D01*
X63371428Y-68252380D01*
%TO.C,R1*%
X79102380Y-79195833D02*
X78626190Y-78862500D01*
X79102380Y-78624404D02*
X78102380Y-78624404D01*
X78102380Y-79005357D01*
X78150000Y-79100595D01*
X78197619Y-79148214D01*
X78292857Y-79195833D01*
X78435714Y-79195833D01*
X78530952Y-79148214D01*
X78578571Y-79100595D01*
X78626190Y-79005357D01*
X78626190Y-78624404D01*
X79102380Y-80148214D02*
X79102380Y-79576785D01*
X79102380Y-79862500D02*
X78102380Y-79862500D01*
X78245238Y-79767261D01*
X78340476Y-79672023D01*
X78388095Y-79576785D01*
%TO.C,R2*%
X79102380Y-75670833D02*
X78626190Y-75337500D01*
X79102380Y-75099404D02*
X78102380Y-75099404D01*
X78102380Y-75480357D01*
X78150000Y-75575595D01*
X78197619Y-75623214D01*
X78292857Y-75670833D01*
X78435714Y-75670833D01*
X78530952Y-75623214D01*
X78578571Y-75575595D01*
X78626190Y-75480357D01*
X78626190Y-75099404D01*
X78197619Y-76051785D02*
X78150000Y-76099404D01*
X78102380Y-76194642D01*
X78102380Y-76432738D01*
X78150000Y-76527976D01*
X78197619Y-76575595D01*
X78292857Y-76623214D01*
X78388095Y-76623214D01*
X78530952Y-76575595D01*
X79102380Y-76004166D01*
X79102380Y-76623214D01*
%TO.C,R3*%
X67902380Y-81770833D02*
X67426190Y-81437500D01*
X67902380Y-81199404D02*
X66902380Y-81199404D01*
X66902380Y-81580357D01*
X66950000Y-81675595D01*
X66997619Y-81723214D01*
X67092857Y-81770833D01*
X67235714Y-81770833D01*
X67330952Y-81723214D01*
X67378571Y-81675595D01*
X67426190Y-81580357D01*
X67426190Y-81199404D01*
X66902380Y-82104166D02*
X66902380Y-82723214D01*
X67283333Y-82389880D01*
X67283333Y-82532738D01*
X67330952Y-82627976D01*
X67378571Y-82675595D01*
X67473809Y-82723214D01*
X67711904Y-82723214D01*
X67807142Y-82675595D01*
X67854761Y-82627976D01*
X67902380Y-82532738D01*
X67902380Y-82247023D01*
X67854761Y-82151785D01*
X67807142Y-82104166D01*
%TO.C,R4*%
X67902380Y-78270833D02*
X67426190Y-77937500D01*
X67902380Y-77699404D02*
X66902380Y-77699404D01*
X66902380Y-78080357D01*
X66950000Y-78175595D01*
X66997619Y-78223214D01*
X67092857Y-78270833D01*
X67235714Y-78270833D01*
X67330952Y-78223214D01*
X67378571Y-78175595D01*
X67426190Y-78080357D01*
X67426190Y-77699404D01*
X67235714Y-79127976D02*
X67902380Y-79127976D01*
X66854761Y-78889880D02*
X67569047Y-78651785D01*
X67569047Y-79270833D01*
%TO.C,C13*%
X50457142Y-41882142D02*
X50504761Y-41834523D01*
X50552380Y-41691666D01*
X50552380Y-41596428D01*
X50504761Y-41453571D01*
X50409523Y-41358333D01*
X50314285Y-41310714D01*
X50123809Y-41263095D01*
X49980952Y-41263095D01*
X49790476Y-41310714D01*
X49695238Y-41358333D01*
X49600000Y-41453571D01*
X49552380Y-41596428D01*
X49552380Y-41691666D01*
X49600000Y-41834523D01*
X49647619Y-41882142D01*
X50552380Y-42834523D02*
X50552380Y-42263095D01*
X50552380Y-42548809D02*
X49552380Y-42548809D01*
X49695238Y-42453571D01*
X49790476Y-42358333D01*
X49838095Y-42263095D01*
X49552380Y-43167857D02*
X49552380Y-43786904D01*
X49933333Y-43453571D01*
X49933333Y-43596428D01*
X49980952Y-43691666D01*
X50028571Y-43739285D01*
X50123809Y-43786904D01*
X50361904Y-43786904D01*
X50457142Y-43739285D01*
X50504761Y-43691666D01*
X50552380Y-43596428D01*
X50552380Y-43310714D01*
X50504761Y-43215476D01*
X50457142Y-43167857D01*
%TO.C,C14*%
X50357142Y-52032142D02*
X50404761Y-51984523D01*
X50452380Y-51841666D01*
X50452380Y-51746428D01*
X50404761Y-51603571D01*
X50309523Y-51508333D01*
X50214285Y-51460714D01*
X50023809Y-51413095D01*
X49880952Y-51413095D01*
X49690476Y-51460714D01*
X49595238Y-51508333D01*
X49500000Y-51603571D01*
X49452380Y-51746428D01*
X49452380Y-51841666D01*
X49500000Y-51984523D01*
X49547619Y-52032142D01*
X50452380Y-52984523D02*
X50452380Y-52413095D01*
X50452380Y-52698809D02*
X49452380Y-52698809D01*
X49595238Y-52603571D01*
X49690476Y-52508333D01*
X49738095Y-52413095D01*
X49785714Y-53841666D02*
X50452380Y-53841666D01*
X49404761Y-53603571D02*
X50119047Y-53365476D01*
X50119047Y-53984523D01*
%TO.C,C15*%
X50457142Y-61432142D02*
X50504761Y-61384523D01*
X50552380Y-61241666D01*
X50552380Y-61146428D01*
X50504761Y-61003571D01*
X50409523Y-60908333D01*
X50314285Y-60860714D01*
X50123809Y-60813095D01*
X49980952Y-60813095D01*
X49790476Y-60860714D01*
X49695238Y-60908333D01*
X49600000Y-61003571D01*
X49552380Y-61146428D01*
X49552380Y-61241666D01*
X49600000Y-61384523D01*
X49647619Y-61432142D01*
X50552380Y-62384523D02*
X50552380Y-61813095D01*
X50552380Y-62098809D02*
X49552380Y-62098809D01*
X49695238Y-62003571D01*
X49790476Y-61908333D01*
X49838095Y-61813095D01*
X49552380Y-63289285D02*
X49552380Y-62813095D01*
X50028571Y-62765476D01*
X49980952Y-62813095D01*
X49933333Y-62908333D01*
X49933333Y-63146428D01*
X49980952Y-63241666D01*
X50028571Y-63289285D01*
X50123809Y-63336904D01*
X50361904Y-63336904D01*
X50457142Y-63289285D01*
X50504761Y-63241666D01*
X50552380Y-63146428D01*
X50552380Y-62908333D01*
X50504761Y-62813095D01*
X50457142Y-62765476D01*
%TO.C,C16*%
X50457142Y-71032142D02*
X50504761Y-70984523D01*
X50552380Y-70841666D01*
X50552380Y-70746428D01*
X50504761Y-70603571D01*
X50409523Y-70508333D01*
X50314285Y-70460714D01*
X50123809Y-70413095D01*
X49980952Y-70413095D01*
X49790476Y-70460714D01*
X49695238Y-70508333D01*
X49600000Y-70603571D01*
X49552380Y-70746428D01*
X49552380Y-70841666D01*
X49600000Y-70984523D01*
X49647619Y-71032142D01*
X50552380Y-71984523D02*
X50552380Y-71413095D01*
X50552380Y-71698809D02*
X49552380Y-71698809D01*
X49695238Y-71603571D01*
X49790476Y-71508333D01*
X49838095Y-71413095D01*
X49552380Y-72841666D02*
X49552380Y-72651190D01*
X49600000Y-72555952D01*
X49647619Y-72508333D01*
X49790476Y-72413095D01*
X49980952Y-72365476D01*
X50361904Y-72365476D01*
X50457142Y-72413095D01*
X50504761Y-72460714D01*
X50552380Y-72555952D01*
X50552380Y-72746428D01*
X50504761Y-72841666D01*
X50457142Y-72889285D01*
X50361904Y-72936904D01*
X50123809Y-72936904D01*
X50028571Y-72889285D01*
X49980952Y-72841666D01*
X49933333Y-72746428D01*
X49933333Y-72555952D01*
X49980952Y-72460714D01*
X50028571Y-72413095D01*
X50123809Y-72365476D01*
%TO.C,C17*%
X50457142Y-94032142D02*
X50504761Y-93984523D01*
X50552380Y-93841666D01*
X50552380Y-93746428D01*
X50504761Y-93603571D01*
X50409523Y-93508333D01*
X50314285Y-93460714D01*
X50123809Y-93413095D01*
X49980952Y-93413095D01*
X49790476Y-93460714D01*
X49695238Y-93508333D01*
X49600000Y-93603571D01*
X49552380Y-93746428D01*
X49552380Y-93841666D01*
X49600000Y-93984523D01*
X49647619Y-94032142D01*
X50552380Y-94984523D02*
X50552380Y-94413095D01*
X50552380Y-94698809D02*
X49552380Y-94698809D01*
X49695238Y-94603571D01*
X49790476Y-94508333D01*
X49838095Y-94413095D01*
X49552380Y-95317857D02*
X49552380Y-95984523D01*
X50552380Y-95555952D01*
%TO.C,C18*%
X50457142Y-80032142D02*
X50504761Y-79984523D01*
X50552380Y-79841666D01*
X50552380Y-79746428D01*
X50504761Y-79603571D01*
X50409523Y-79508333D01*
X50314285Y-79460714D01*
X50123809Y-79413095D01*
X49980952Y-79413095D01*
X49790476Y-79460714D01*
X49695238Y-79508333D01*
X49600000Y-79603571D01*
X49552380Y-79746428D01*
X49552380Y-79841666D01*
X49600000Y-79984523D01*
X49647619Y-80032142D01*
X50552380Y-80984523D02*
X50552380Y-80413095D01*
X50552380Y-80698809D02*
X49552380Y-80698809D01*
X49695238Y-80603571D01*
X49790476Y-80508333D01*
X49838095Y-80413095D01*
X49980952Y-81555952D02*
X49933333Y-81460714D01*
X49885714Y-81413095D01*
X49790476Y-81365476D01*
X49742857Y-81365476D01*
X49647619Y-81413095D01*
X49600000Y-81460714D01*
X49552380Y-81555952D01*
X49552380Y-81746428D01*
X49600000Y-81841666D01*
X49647619Y-81889285D01*
X49742857Y-81936904D01*
X49790476Y-81936904D01*
X49885714Y-81889285D01*
X49933333Y-81841666D01*
X49980952Y-81746428D01*
X49980952Y-81555952D01*
X50028571Y-81460714D01*
X50076190Y-81413095D01*
X50171428Y-81365476D01*
X50361904Y-81365476D01*
X50457142Y-81413095D01*
X50504761Y-81460714D01*
X50552380Y-81555952D01*
X50552380Y-81746428D01*
X50504761Y-81841666D01*
X50457142Y-81889285D01*
X50361904Y-81936904D01*
X50171428Y-81936904D01*
X50076190Y-81889285D01*
X50028571Y-81841666D01*
X49980952Y-81746428D01*
%TO.C,C19*%
X59757142Y-80332142D02*
X59804761Y-80284523D01*
X59852380Y-80141666D01*
X59852380Y-80046428D01*
X59804761Y-79903571D01*
X59709523Y-79808333D01*
X59614285Y-79760714D01*
X59423809Y-79713095D01*
X59280952Y-79713095D01*
X59090476Y-79760714D01*
X58995238Y-79808333D01*
X58900000Y-79903571D01*
X58852380Y-80046428D01*
X58852380Y-80141666D01*
X58900000Y-80284523D01*
X58947619Y-80332142D01*
X59852380Y-81284523D02*
X59852380Y-80713095D01*
X59852380Y-80998809D02*
X58852380Y-80998809D01*
X58995238Y-80903571D01*
X59090476Y-80808333D01*
X59138095Y-80713095D01*
X59852380Y-81760714D02*
X59852380Y-81951190D01*
X59804761Y-82046428D01*
X59757142Y-82094047D01*
X59614285Y-82189285D01*
X59423809Y-82236904D01*
X59042857Y-82236904D01*
X58947619Y-82189285D01*
X58900000Y-82141666D01*
X58852380Y-82046428D01*
X58852380Y-81855952D01*
X58900000Y-81760714D01*
X58947619Y-81713095D01*
X59042857Y-81665476D01*
X59280952Y-81665476D01*
X59376190Y-81713095D01*
X59423809Y-81760714D01*
X59471428Y-81855952D01*
X59471428Y-82046428D01*
X59423809Y-82141666D01*
X59376190Y-82189285D01*
X59280952Y-82236904D01*
%TO.C,C20*%
X59657142Y-94032142D02*
X59704761Y-93984523D01*
X59752380Y-93841666D01*
X59752380Y-93746428D01*
X59704761Y-93603571D01*
X59609523Y-93508333D01*
X59514285Y-93460714D01*
X59323809Y-93413095D01*
X59180952Y-93413095D01*
X58990476Y-93460714D01*
X58895238Y-93508333D01*
X58800000Y-93603571D01*
X58752380Y-93746428D01*
X58752380Y-93841666D01*
X58800000Y-93984523D01*
X58847619Y-94032142D01*
X58847619Y-94413095D02*
X58800000Y-94460714D01*
X58752380Y-94555952D01*
X58752380Y-94794047D01*
X58800000Y-94889285D01*
X58847619Y-94936904D01*
X58942857Y-94984523D01*
X59038095Y-94984523D01*
X59180952Y-94936904D01*
X59752380Y-94365476D01*
X59752380Y-94984523D01*
X58752380Y-95603571D02*
X58752380Y-95698809D01*
X58800000Y-95794047D01*
X58847619Y-95841666D01*
X58942857Y-95889285D01*
X59133333Y-95936904D01*
X59371428Y-95936904D01*
X59561904Y-95889285D01*
X59657142Y-95841666D01*
X59704761Y-95794047D01*
X59752380Y-95698809D01*
X59752380Y-95603571D01*
X59704761Y-95508333D01*
X59657142Y-95460714D01*
X59561904Y-95413095D01*
X59371428Y-95365476D01*
X59133333Y-95365476D01*
X58942857Y-95413095D01*
X58847619Y-95460714D01*
X58800000Y-95508333D01*
X58752380Y-95603571D01*
%TO.C,C21*%
X59857142Y-62232142D02*
X59904761Y-62184523D01*
X59952380Y-62041666D01*
X59952380Y-61946428D01*
X59904761Y-61803571D01*
X59809523Y-61708333D01*
X59714285Y-61660714D01*
X59523809Y-61613095D01*
X59380952Y-61613095D01*
X59190476Y-61660714D01*
X59095238Y-61708333D01*
X59000000Y-61803571D01*
X58952380Y-61946428D01*
X58952380Y-62041666D01*
X59000000Y-62184523D01*
X59047619Y-62232142D01*
X59047619Y-62613095D02*
X59000000Y-62660714D01*
X58952380Y-62755952D01*
X58952380Y-62994047D01*
X59000000Y-63089285D01*
X59047619Y-63136904D01*
X59142857Y-63184523D01*
X59238095Y-63184523D01*
X59380952Y-63136904D01*
X59952380Y-62565476D01*
X59952380Y-63184523D01*
X59952380Y-64136904D02*
X59952380Y-63565476D01*
X59952380Y-63851190D02*
X58952380Y-63851190D01*
X59095238Y-63755952D01*
X59190476Y-63660714D01*
X59238095Y-63565476D01*
%TO.C,C22*%
X59857142Y-71432142D02*
X59904761Y-71384523D01*
X59952380Y-71241666D01*
X59952380Y-71146428D01*
X59904761Y-71003571D01*
X59809523Y-70908333D01*
X59714285Y-70860714D01*
X59523809Y-70813095D01*
X59380952Y-70813095D01*
X59190476Y-70860714D01*
X59095238Y-70908333D01*
X59000000Y-71003571D01*
X58952380Y-71146428D01*
X58952380Y-71241666D01*
X59000000Y-71384523D01*
X59047619Y-71432142D01*
X59047619Y-71813095D02*
X59000000Y-71860714D01*
X58952380Y-71955952D01*
X58952380Y-72194047D01*
X59000000Y-72289285D01*
X59047619Y-72336904D01*
X59142857Y-72384523D01*
X59238095Y-72384523D01*
X59380952Y-72336904D01*
X59952380Y-71765476D01*
X59952380Y-72384523D01*
X59047619Y-72765476D02*
X59000000Y-72813095D01*
X58952380Y-72908333D01*
X58952380Y-73146428D01*
X59000000Y-73241666D01*
X59047619Y-73289285D01*
X59142857Y-73336904D01*
X59238095Y-73336904D01*
X59380952Y-73289285D01*
X59952380Y-72717857D01*
X59952380Y-73336904D01*
%TO.C,C23*%
X60057142Y-41832142D02*
X60104761Y-41784523D01*
X60152380Y-41641666D01*
X60152380Y-41546428D01*
X60104761Y-41403571D01*
X60009523Y-41308333D01*
X59914285Y-41260714D01*
X59723809Y-41213095D01*
X59580952Y-41213095D01*
X59390476Y-41260714D01*
X59295238Y-41308333D01*
X59200000Y-41403571D01*
X59152380Y-41546428D01*
X59152380Y-41641666D01*
X59200000Y-41784523D01*
X59247619Y-41832142D01*
X59247619Y-42213095D02*
X59200000Y-42260714D01*
X59152380Y-42355952D01*
X59152380Y-42594047D01*
X59200000Y-42689285D01*
X59247619Y-42736904D01*
X59342857Y-42784523D01*
X59438095Y-42784523D01*
X59580952Y-42736904D01*
X60152380Y-42165476D01*
X60152380Y-42784523D01*
X59152380Y-43117857D02*
X59152380Y-43736904D01*
X59533333Y-43403571D01*
X59533333Y-43546428D01*
X59580952Y-43641666D01*
X59628571Y-43689285D01*
X59723809Y-43736904D01*
X59961904Y-43736904D01*
X60057142Y-43689285D01*
X60104761Y-43641666D01*
X60152380Y-43546428D01*
X60152380Y-43260714D01*
X60104761Y-43165476D01*
X60057142Y-43117857D01*
%TO.C,C24*%
X59957142Y-52032142D02*
X60004761Y-51984523D01*
X60052380Y-51841666D01*
X60052380Y-51746428D01*
X60004761Y-51603571D01*
X59909523Y-51508333D01*
X59814285Y-51460714D01*
X59623809Y-51413095D01*
X59480952Y-51413095D01*
X59290476Y-51460714D01*
X59195238Y-51508333D01*
X59100000Y-51603571D01*
X59052380Y-51746428D01*
X59052380Y-51841666D01*
X59100000Y-51984523D01*
X59147619Y-52032142D01*
X59147619Y-52413095D02*
X59100000Y-52460714D01*
X59052380Y-52555952D01*
X59052380Y-52794047D01*
X59100000Y-52889285D01*
X59147619Y-52936904D01*
X59242857Y-52984523D01*
X59338095Y-52984523D01*
X59480952Y-52936904D01*
X60052380Y-52365476D01*
X60052380Y-52984523D01*
X59385714Y-53841666D02*
X60052380Y-53841666D01*
X59004761Y-53603571D02*
X59719047Y-53365476D01*
X59719047Y-53984523D01*
%TD*%
M02*
