M48
; DRILL file {KiCad (5.1.5)-3} date 9/24/2020 12:34:04
; FORMAT={-:-/ absolute / inch / decimal}
; #@! TF.CreationDate,2020-09-24T12:34:04+03:00
; #@! TF.GenerationSoftware,Kicad,Pcbnew,(5.1.5)-3
; #@! TF.FileFunction,Plated,1,2,PTH
FMAT,2
INCH
T1C0.0157
T2C0.0394
%
G90
G05
T1
X1.4626Y-3.5177
X1.5433Y-3.5965
X1.5728Y-3.5689
X1.6083Y-3.5472
X1.7283Y-3.4862
X1.8406Y-1.7126
X1.8406Y-2.1142
X1.8406Y-2.5157
X1.8406Y-2.8622
X1.8406Y-3.2165
X1.8406Y-3.7677
X1.9075Y-1.811
X1.9075Y-2.2126
X1.9075Y-2.5669
X1.9075Y-2.9173
X1.9075Y-3.4685
X1.9764Y-3.2421
X1.9764Y-3.4606
X2.065Y-3.2402
X2.065Y-3.4606
X2.0728Y-2.2598
X2.0728Y-2.6063
X2.0768Y-1.8622
X2.0787Y-2.4646
X2.1319Y-2.9173
X2.1358Y-3.4646
X2.1988Y-1.4567
X2.1988Y-1.7126
X2.1988Y-2.1142
X2.1988Y-2.5157
X2.1988Y-2.878
X2.1988Y-3.2283
X2.1988Y-3.7677
X2.3374Y-2.5598
X2.3394Y-3.1079
X2.3701Y-2.387
X2.4913Y-2.9181
X2.4933Y-2.387
X2.4945Y-2.5972
X2.5404Y-2.7246
X2.5453Y-2.5496
X2.5457Y-2.8744
X2.6835Y-3.1858
X2.7083Y-2.3496
X2.7323Y-2.1339
X2.7583Y-2.9874
X2.839Y-2.9874
X2.8583Y-2.3496
X2.8583Y-3.2728
X2.9776Y-2.9874
X3.0083Y-2.3496
X3.0583Y-2.9874
X3.1213Y-3.3827
X3.1516Y-2.3996
X3.1843Y-2.6244
X3.1843Y-2.7996
X3.1961Y-3.3941
X3.2287Y-2.5854
X3.2362Y-2.3622
X3.2953Y-3.0136
X3.3476Y-3.361
X3.3724Y-2.3622
X3.3811Y-2.5528
X3.4224Y-3.4602
X3.4516Y-2.7441
T2
X1.2543Y-1.1008
X1.2543Y-1.2008
X1.2543Y-1.3008
X1.2543Y-1.4008
X1.2543Y-1.5008
X1.2543Y-1.6008
X1.2543Y-1.7008
X1.2543Y-1.8008
X1.2543Y-1.9008
X1.2543Y-2.0008
X1.2543Y-2.1008
X1.2543Y-2.2008
X1.2543Y-2.3008
X1.2543Y-2.4008
X1.2543Y-2.5008
X1.2543Y-2.6008
X1.2543Y-2.7008
X1.2543Y-2.8008
X1.2543Y-2.9008
X1.2543Y-3.0008
X1.2543Y-3.1008
X1.2543Y-3.2008
X1.2543Y-3.3008
X1.2543Y-3.4008
X1.2543Y-3.5008
X1.2543Y-3.6008
X1.2543Y-3.7008
X1.2543Y-3.8008
X1.2543Y-3.9008
X1.2543Y-4.0008
X1.2543Y-4.1008
X1.2543Y-4.2008
X1.3543Y-1.1008
X1.3543Y-1.2008
X1.3543Y-1.3008
X1.3543Y-1.4008
X1.3543Y-1.5008
X1.3543Y-1.6008
X1.3543Y-1.7008
X1.3543Y-1.8008
X1.3543Y-1.9008
X1.3543Y-2.0008
X1.3543Y-2.1008
X1.3543Y-2.2008
X1.3543Y-2.3008
X1.3543Y-2.4008
X1.3543Y-2.5008
X1.3543Y-2.6008
X1.3543Y-2.7008
X1.3543Y-2.8008
X1.3543Y-2.9008
X1.3543Y-3.0008
X1.3543Y-3.1008
X1.3543Y-3.2008
X1.3543Y-3.3008
X1.3543Y-3.4008
X1.3543Y-3.5008
X1.3543Y-3.6008
X1.3543Y-3.7008
X1.3543Y-3.8008
X1.3543Y-3.9008
X1.3543Y-4.0008
X1.3543Y-4.1008
X1.3543Y-4.2008
X3.6535Y-1.1008
X3.6535Y-1.2008
X3.6535Y-1.3008
X3.6535Y-1.4008
X3.6535Y-1.5008
X3.6535Y-1.6008
X3.6535Y-1.7008
X3.6535Y-1.8008
X3.6535Y-1.9008
X3.6535Y-2.0008
X3.6535Y-2.1008
X3.6535Y-2.2008
X3.6535Y-2.3008
X3.6535Y-2.4008
X3.6535Y-2.5008
X3.6535Y-2.6008
X3.6535Y-2.7008
X3.6535Y-2.8008
X3.6535Y-2.9008
X3.6535Y-3.0008
X3.6535Y-3.1008
X3.6535Y-3.2008
X3.6535Y-3.3008
X3.6535Y-3.4008
X3.6535Y-3.5008
X3.6535Y-3.6008
X3.6535Y-3.7008
X3.6535Y-3.8008
X3.6535Y-3.9008
X3.6535Y-4.0008
X3.6535Y-4.1008
X3.6535Y-4.2008
X3.7535Y-1.1008
X3.7535Y-1.2008
X3.7535Y-1.3008
X3.7535Y-1.4008
X3.7535Y-1.5008
X3.7535Y-1.6008
X3.7535Y-1.7008
X3.7535Y-1.8008
X3.7535Y-1.9008
X3.7535Y-2.0008
X3.7535Y-2.1008
X3.7535Y-2.2008
X3.7535Y-2.3008
X3.7535Y-2.4008
X3.7535Y-2.5008
X3.7535Y-2.6008
X3.7535Y-2.7008
X3.7535Y-2.8008
X3.7535Y-2.9008
X3.7535Y-3.0008
X3.7535Y-3.1008
X3.7535Y-3.2008
X3.7535Y-3.3008
X3.7535Y-3.4008
X3.7535Y-3.5008
X3.7535Y-3.6008
X3.7535Y-3.7008
X3.7535Y-3.8008
X3.7535Y-3.9008
X3.7535Y-4.0008
X3.7535Y-4.1008
X3.7535Y-4.2008
T0
M30
